<svg version="1.1" xmlns="http://www.w3.org/2000/svg" xmlns:xlink="http://www.w3.org/1999/xlink" width="305.97414" height="237.61282" viewBox="0,0,305.97414,237.61282"><defs><linearGradient x1="92.47827" y1="179.90618" x2="286.47614" y2="179.90618" gradientUnits="userSpaceOnUse" id="color-1"><stop offset="0" stop-color="#055ee4"/><stop offset="1" stop-color="#03347f"/></linearGradient><linearGradient x1="193.52386" y1="178.40558" x2="392.32366" y2="178.40558" gradientUnits="userSpaceOnUse" id="color-2"><stop offset="0" stop-color="#03347f"/><stop offset="1" stop-color="#055ee4"/></linearGradient><linearGradient x1="241.95464" y1="59.91423" x2="241.95464" y2="121.73148" gradientUnits="userSpaceOnUse" id="color-3"><stop offset="0" stop-color="#033e97"/><stop offset="1" stop-color="#041fba"/></linearGradient><linearGradient x1="179.79498" y1="203.82968" x2="216.52065" y2="203.82968" gradientUnits="userSpaceOnUse" id="color-4"><stop offset="0" stop-color="#0565ff"/><stop offset="1" stop-color="#0447c3"/></linearGradient><linearGradient x1="300.62822" y1="203.82968" x2="263.90254" y2="203.82968" gradientUnits="userSpaceOnUse" id="color-5"><stop offset="0" stop-color="#0565ff"/><stop offset="1" stop-color="#0447c3"/></linearGradient><radialGradient cx="195.35875" cy="180.96287" r="105.98993" gradientUnits="userSpaceOnUse" id="color-6"><stop offset="0" stop-color="#05ecff"/><stop offset="1" stop-color="#0575ff"/></radialGradient><radialGradient cx="284.64126" cy="180.96287" r="105.98993" gradientUnits="userSpaceOnUse" id="color-7"><stop offset="0" stop-color="#05ecff"/><stop offset="1" stop-color="#0575ff"/></radialGradient><radialGradient cx="195.35875" cy="180.96287" r="105.98993" gradientUnits="userSpaceOnUse" id="color-8"><stop offset="0" stop-color="#05ecff"/><stop offset="1" stop-color="#0575ff"/></radialGradient><linearGradient x1="179.79498" y1="203.82968" x2="216.52065" y2="203.82968" gradientUnits="userSpaceOnUse" id="color-9"><stop offset="0" stop-color="#0565ff"/><stop offset="1" stop-color="#0447c3"/></linearGradient><linearGradient x1="300.62822" y1="203.82968" x2="263.90254" y2="203.82968" gradientUnits="userSpaceOnUse" id="color-10"><stop offset="0" stop-color="#0565ff"/><stop offset="1" stop-color="#0447c3"/></linearGradient><linearGradient x1="300.62822" y1="203.82968" x2="263.90254" y2="203.82968" gradientUnits="userSpaceOnUse" id="color-11"><stop offset="0" stop-color="#0565ff"/><stop offset="1" stop-color="#0447c3"/></linearGradient><linearGradient x1="179.79498" y1="203.82968" x2="216.52065" y2="203.82968" gradientUnits="userSpaceOnUse" id="color-12"><stop offset="0" stop-color="#0565ff"/><stop offset="1" stop-color="#0447c3"/></linearGradient></defs><g transform="translate(-90.01413,-59.91423)"><g data-paper-data="{&quot;isPaintingLayer&quot;:true}" fill-rule="nonzero" stroke-linejoin="miter" stroke-miterlimit="10" stroke-dasharray="" stroke-dashoffset="0" style="mix-blend-mode: normal"><g stroke-width="0" stroke-linecap="butt"><g stroke="#000000"><path d="M286.47614,171.01693c0,57.44144 -63.97678,121.26572 -120.03409,121.26572c-56.05731,0 -73.96378,-66.22524 -73.96378,-123.66668c0,-37.33021 10.97247,-62.08529 33.62188,-82.40919c12.20212,-10.94926 17.16323,-18.67707 36.78985,-18.67707c19.44311,0 43.12303,40.01928 61.84122,50.78407c22.15331,12.74032 28.84442,29.26993 39.67849,38.84909c6.40447,5.66264 22.06643,-0.08474 22.06643,13.85406z" fill="url(#color-1)"/><path d="M314.1088,70.5309c56.05731,0 78.21486,46.64603 78.21486,104.08747c0,57.44144 -28.71079,115.26332 -84.76811,115.26332c-56.05731,0 -114.03169,-61.42332 -114.03169,-118.86476c0,-20.68832 22.0406,-21.20311 42.15936,-31.85588c15.58206,-8.25061 27.60946,-27.3862 42.53162,-36.32498c19.30549,-11.56451 13.86282,-35.9066 34.09325,-35.9066z" data-paper-data="{&quot;index&quot;:null}" fill="url(#color-2)"/></g><path d="M184.90762,75.34328c15.09043,-9.62199 34.65261,-15.42905 56.02612,-15.42905c22.51098,0 43.01271,6.44158 58.397,16.99737c8.74444,5.99991 -27.09458,45.29114 -60.6292,44.8156c-32.62008,-0.46258 -62.97743,-40.52831 -53.79392,-46.38392z" fill="url(#color-3)" stroke="none"/></g><path d="M285.32586,137.81472c0,-20.84362 16.8971,-37.74072 37.74072,-37.74072c20.84362,0 37.7407,16.8971 37.7407,37.74072c0,20.84362 -16.89709,37.74071 -37.7407,37.74071c-20.84362,0 -37.74072,-16.89709 -37.74072,-37.74071z" fill="#0447c3" stroke="none" stroke-width="0" stroke-linecap="butt"/><path d="M120.41615,137.81472c0,-20.84362 16.89709,-37.74072 37.74072,-37.74072c20.84362,0 37.7407,16.8971 37.7407,37.74072c0,20.84362 -16.89708,37.74071 -37.7407,37.74071c-20.84362,0 -37.74072,-16.89709 -37.74072,-37.74071z" fill="#0447c3" stroke="none" stroke-width="0" stroke-linecap="butt"/><path d="M238.70908,258.15307c0,0 -43.10575,-38.0558 -49.41524,-57.24717c-4.54662,-13.82928 -7.49241,-36.85997 -0.15587,-51.3055c2.19301,-4.318 23.55709,6.02684 23.55709,6.02684" fill="none" stroke="url(#color-4)" stroke-width="20" stroke-linecap="round"/><path d="M267.72813,155.62724c0,0 21.36408,-10.34484 23.55709,-6.02684c7.33654,14.44553 4.39074,37.47622 -0.15587,51.3055c-6.30949,19.19137 -49.41523,57.24717 -49.41523,57.24717" data-paper-data="{&quot;index&quot;:null}" fill="none" stroke="url(#color-5)" stroke-width="20" stroke-linecap="round"/><g fill="none" stroke-width="25" stroke-linecap="round"><path d="M233.42159,260.54224c0,0 -31.28202,29.10251 -76.69467,23.85087c-23.57654,-6.77947 -39.90258,-30.45288 -53.49531,-59.92205c-12.10293,-26.23926 -4.58864,-62.69348 -2.44805,-85.08046c2.0047,-20.96581 12.38506,-35.60965 21.69665,-45.33078c15.40898,-16.08671 32.27073,-21.27749 50.7191,-18.27963c16.71293,2.71585 101.57052,98.63842 145.11537,124.9697c40.6458,12.63073 59.17119,-57.6393 59.17119,-57.6393" stroke="url(#color-6)"/><path d="M102.51414,143.11058c0,0 18.52539,70.27003 59.17119,57.6393c43.54485,-26.33128 128.40244,-122.25385 145.11537,-124.9697c18.44837,-2.99786 35.31012,2.19292 50.7191,18.27963c9.31159,9.72113 19.69195,24.36497 21.69665,45.33078c2.14059,22.38698 9.65488,58.8412 -2.44805,85.08046c-13.59273,29.46917 -29.91877,53.14258 -53.49531,59.92205c-45.41265,5.25164 -76.69467,-23.85087 -76.69467,-23.85087" data-paper-data="{&quot;index&quot;:null}" stroke="url(#color-7)"/><path d="M233.42159,260.54224c0,0 -31.28202,29.10251 -76.69467,23.85087c-23.57654,-6.77947 -39.90258,-30.45288 -53.49531,-59.92205c-12.10293,-26.23926 -4.58864,-62.69348 -2.44805,-85.08046c2.0047,-20.96581 12.38506,-35.60965 21.69665,-45.33078c15.40898,-16.08671 32.27073,-21.27749 50.7191,-18.27963c16.71293,2.71585 101.57052,98.63842 145.11537,124.9697" stroke="url(#color-8)"/></g><path d="M189.29385,200.9059c-5.06701,-15.41213 -6.35844,-44.99892 -0.97301,-50.70095" fill="none" stroke="url(#color-9)" stroke-width="20" stroke-linecap="round"/><g fill="#05b3f0" stroke="none" stroke-width="0" stroke-linecap="butt"><path d="M294.85528,137.81471c0,-5.63556 4.56852,-10.20408 10.20408,-10.20408c5.63556,0 10.20408,4.56852 10.20408,10.20408c0,5.63556 -4.56852,10.20409 -10.20408,10.20409c-5.63556,0 -10.20408,-4.56853 -10.20408,-10.20409z"/><path d="M312.86249,155.82192c0,-5.63556 4.56852,-10.20408 10.20408,-10.20408c5.63556,0 10.20408,4.56852 10.20408,10.20408c0,5.63556 -4.56852,10.20408 -10.20408,10.20408c-5.63556,0 -10.20408,-4.56852 -10.20408,-10.20408z"/><path d="M312.86249,119.80751c0,-5.63556 4.56852,-10.20408 10.20408,-10.20408c5.63556,0 10.20408,4.56852 10.20408,10.20408c0,5.63556 -4.56852,10.20409 -10.20408,10.20409c-5.63556,0 -10.20408,-4.56853 -10.20408,-10.20409z"/><path d="M330.86969,137.81472c0,-5.63556 4.56852,-10.20408 10.20408,-10.20408c5.63556,0 10.20408,4.56852 10.20408,10.20408c0,5.63556 -4.56852,10.20408 -10.20408,10.20408c-5.63556,0 -10.20408,-4.56852 -10.20408,-10.20408z"/></g><g fill="#05c9ff" stroke="none" stroke-width="0" stroke-linecap="butt"><path d="M149.358,160.3857v-45.14197h17.59772v45.14197z"/><path d="M135.58587,129.01585h45.14197v17.59772h-45.14197z"/></g><path d="M292.10236,150.20495c5.38543,5.70203 4.094,35.28882 -0.97301,50.70095" data-paper-data="{&quot;index&quot;:null}" fill="none" stroke="url(#color-10)" stroke-width="20" stroke-linecap="round"/><path d="M291.12935,200.90591c-6.30949,19.19137 -49.41523,57.24717 -49.41523,57.24717" data-paper-data="{&quot;index&quot;:null}" fill="none" stroke="url(#color-11)" stroke-width="20" stroke-linecap="round"/><path d="M238.70908,258.15308c0,0 -43.10575,-38.0558 -49.41524,-57.24717" fill="none" stroke="url(#color-12)" stroke-width="20" stroke-linecap="round"/></g></g></svg>