<svg xmlns="http://www.w3.org/2000/svg" width="541.125" height="224.555" version="1.0" xml:space="preserve"><path d="M61.09 215.262q1.37-.914 2.895-.914 1.675 0 2.818 1.219a4.1 4.1 0 0 1 1.143 2.895q0 1.677-1.143 2.818c-1.143 1.141-1.702 1.143-2.818 1.143q-1.524 0-2.895-.914H.914V6.855Q0 5.484 0 4.113q-.001-1.674 1.219-2.895Q2.436.001 4.113 0q1.675 0 2.819 1.219a4.1 4.1 0 0 1 1.143 2.895q0 1.371-.914 2.742v208.406zm78-81.352H81.047v54.844q0 5.485 1.295 10.816 1.294 5.334 4.266 9.521 2.97 4.192 7.998 6.779 5.028 2.592 12.34 2.59 7.158 0 12.035-2.285 4.874-2.283 7.846-6.018 2.97-3.73 4.342-8.607a47.4 47.4 0 0 0 1.676-10.055q-.458-.456-.762-1.219-.306-.761-.305-1.219-.002-1.673 1.219-2.895 1.217-1.219 2.895-1.219 1.673 0 2.895 1.219 1.219 1.22 1.219 2.895 0 .458-.229 1.219-.228.763-.686 1.219a58.3 58.3 0 0 1-2.209 12.34q-1.753 5.942-5.408 10.512c-3.655 4.57-5.663 5.511-9.674 7.389q-6.02 2.817-14.854 2.818-9.14-.002-15.311-3.123c-6.171-3.121-7.415-4.799-9.902-8.15q-3.734-5.028-5.332-11.426c-1.598-6.398-1.6-8.631-1.6-13.102V98.262q0-6.702 1.6-13.102c1.6-6.4 2.842-8.074 5.332-11.426q3.731-5.027 9.902-8.15 6.17-3.122 15.311-3.123c9.141-.001 11.171 1.042 15.234 3.123q6.092 3.124 9.902 8.15 3.807 5.027 5.408 11.426c1.601 6.399 1.6 8.634 1.6 13.102zm-6.246-6.246V98.262a47.8 47.8 0 0 0-1.219-10.664q-1.22-5.33-4.189-9.521-2.97-4.188-7.998-6.855-5.029-2.665-12.492-2.666-7.312.001-12.34 2.666-5.028 2.667-7.998 6.855-2.972 4.192-4.266 9.521a45 45 0 0 0-1.295 10.664v29.402zm58.424 91.102q.607 1.222.609 1.828 0 1.675-1.219 2.818a4.1 4.1 0 0 1-2.895 1.143 4.1 4.1 0 0 1-2.895-1.143q-1.22-1.143-1.219-2.818-.001-1.218.305-1.828L151.963 69.621q-.764-.458-1.066-1.371a5.7 5.7 0 0 1-.305-1.828q-.002-1.675 1.219-2.818a4.08 4.08 0 0 1 2.895-1.143q1.673 0 2.895 1.143 1.219 1.144 1.219 2.818 0 1.068-.762 2.133l29.707 136.805 29.402-136.805a1.86 1.86 0 0 1-.305-1.066v-1.066q0-1.675 1.143-2.818c1.143-1.143 1.699-1.143 2.818-1.143q1.673 0 2.895 1.143 1.219 1.143 1.219 2.818-.002 2.135-1.523 3.199zM302.25 133.91h-58.043v54.844q0 5.485 1.295 10.816 1.293 5.334 4.266 9.521 2.97 4.192 7.998 6.779 5.028 2.592 12.34 2.59 7.157 0 12.035-2.285 4.874-2.283 7.846-6.018 2.97-3.73 4.342-8.607a47.4 47.4 0 0 0 1.676-10.055q-.458-.456-.762-1.219-.306-.761-.305-1.219-.002-1.673 1.219-2.895 1.216-1.219 2.895-1.219 1.673 0 2.895 1.219 1.218 1.22 1.219 2.895 0 .458-.229 1.219-.228.763-.686 1.219a58.3 58.3 0 0 1-2.209 12.34q-1.753 5.942-5.408 10.512c-3.655 4.57-5.663 5.511-9.674 7.389q-6.02 2.817-14.854 2.818-9.14-.002-15.311-3.123c-6.171-3.121-7.415-4.799-9.902-8.15q-3.734-5.028-5.332-11.426c-1.598-6.398-1.6-8.631-1.6-13.102V98.262q0-6.702 1.6-13.102c1.6-6.4 2.842-8.074 5.332-11.426q3.732-5.027 9.902-8.15 6.17-3.122 15.311-3.123c9.141-.001 11.171 1.042 15.234 3.123q6.092 3.124 9.902 8.15 3.807 5.027 5.408 11.426c1.601 6.399 1.6 8.634 1.6 13.102zm-6.246-6.246V98.262a47.8 47.8 0 0 0-1.219-10.664q-1.22-5.33-4.189-9.521-2.97-4.188-7.998-6.855-5.03-2.665-12.492-2.666-7.312.001-12.34 2.666-5.028 2.667-7.998 6.855-2.971 4.192-4.266 9.521a45 45 0 0 0-1.295 10.664v29.402zm35.191 90.34q.914 1.22.914 2.59 0 1.675-1.143 2.818c-1.143 1.143-1.702 1.143-2.818 1.143a4.1 4.1 0 0 1-2.895-1.143q-1.22-1.143-1.219-2.818 0-1.37.914-2.59V6.855q-.914-1.371-.914-2.742-.002-1.674 1.219-2.895Q326.47.001 328.148 0q1.675 0 2.818 1.219a4.1 4.1 0 0 1 1.143 2.895q0 1.371-.914 2.742zm129.493 0q.914 1.22.914 2.59 0 1.675-1.219 2.818a4.1 4.1 0 0 1-2.895 1.143q-1.678 0-2.818-1.143c-1.14-1.143-1.143-1.702-1.143-2.818q0-1.37.914-2.59V11.273l-50.578 50.121a4.1 4.1 0 0 1-1.143 2.895q-1.143 1.22-2.818 1.219-1.678.001-2.895-1.219-1.22-1.217-1.219-2.895-.001-1.371 1.066-2.514 1.064-1.142 2.742-1.447l53.93-53.777q0-1.371 1.143-2.514C455.812-.001 456.369 0 457.488 0q1.673 0 2.895 1.219 1.219 1.22 1.219 2.895 0 1.371-.914 2.742zm79.523 0q.914 1.22.914 2.59 0 1.675-1.219 2.818a4.1 4.1 0 0 1-2.895 1.143q-1.678 0-2.818-1.143c-1.14-1.143-1.143-1.702-1.143-2.818q0-1.37.914-2.59V11.273l-50.578 50.121a4.1 4.1 0 0 1-1.143 2.895q-1.143 1.22-2.818 1.219-1.678.001-2.895-1.219-1.22-1.217-1.219-2.895-.001-1.371 1.066-2.514 1.064-1.142 2.742-1.447l53.93-53.777q0-1.371 1.143-2.514C535.335-.001 535.893 0 537.012 0q1.673 0 2.895 1.219 1.218 1.22 1.219 2.895 0 1.371-.914 2.742z"/></svg>