<svg xmlns="http://www.w3.org/2000/svg" width="468.457" height="224.555" version="1.0" xml:space="preserve"><path d="M61.09 215.262q1.37-.914 2.895-.914 1.675 0 2.818 1.219a4.1 4.1 0 0 1 1.143 2.895q0 1.677-1.143 2.818c-1.143 1.141-1.702 1.143-2.818 1.143q-1.524 0-2.895-.914H.914V6.855Q0 5.484 0 4.113q-.001-1.674 1.219-2.895Q2.436.001 4.113 0q1.675 0 2.819 1.219a4.1 4.1 0 0 1 1.143 2.895q0 1.371-.914 2.742v208.406zm78-81.352H81.047v54.844q0 5.485 1.295 10.816 1.294 5.334 4.266 9.521 2.97 4.192 7.998 6.779 5.028 2.592 12.34 2.59 7.158 0 12.035-2.285 4.874-2.283 7.846-6.018 2.97-3.73 4.342-8.607a47.4 47.4 0 0 0 1.676-10.055q-.458-.456-.762-1.219-.306-.761-.305-1.219-.002-1.673 1.219-2.895 1.217-1.219 2.895-1.219 1.673 0 2.895 1.219 1.219 1.22 1.219 2.895 0 .458-.229 1.219-.228.763-.686 1.219a58.3 58.3 0 0 1-2.209 12.34q-1.753 5.942-5.408 10.512c-3.655 4.57-5.663 5.511-9.674 7.389q-6.02 2.817-14.854 2.818-9.14-.002-15.311-3.123c-6.171-3.121-7.415-4.799-9.902-8.15q-3.734-5.028-5.332-11.426c-1.598-6.398-1.6-8.631-1.6-13.102V98.262q0-6.702 1.6-13.102c1.6-6.4 2.842-8.074 5.332-11.426q3.731-5.027 9.902-8.15 6.17-3.122 15.311-3.123c9.141-.001 11.171 1.042 15.234 3.123q6.092 3.124 9.902 8.15 3.807 5.027 5.408 11.426c1.601 6.399 1.6 8.634 1.6 13.102zm-6.246-6.246V98.262a47.8 47.8 0 0 0-1.219-10.664q-1.22-5.33-4.189-9.521-2.97-4.188-7.998-6.855-5.029-2.665-12.492-2.666-7.312.001-12.34 2.666-5.028 2.667-7.998 6.855-2.972 4.192-4.266 9.521a45 45 0 0 0-1.295 10.664v29.402zm58.424 91.102q.607 1.222.609 1.828 0 1.675-1.219 2.818a4.1 4.1 0 0 1-2.895 1.143 4.1 4.1 0 0 1-2.895-1.143q-1.22-1.143-1.219-2.818-.001-1.218.305-1.828L151.963 69.621q-.764-.458-1.066-1.371a5.7 5.7 0 0 1-.305-1.828q-.002-1.675 1.219-2.818a4.08 4.08 0 0 1 2.895-1.143q1.673 0 2.895 1.143 1.219 1.144 1.219 2.818 0 1.068-.762 2.133l29.707 136.805 29.402-136.805a1.86 1.86 0 0 1-.305-1.066v-1.066q0-1.675 1.143-2.818c1.143-1.143 1.699-1.143 2.818-1.143q1.673 0 2.895 1.143 1.219 1.143 1.219 2.818-.002 2.135-1.523 3.199zM302.25 133.91h-58.043v54.844q0 5.485 1.295 10.816 1.293 5.334 4.266 9.521 2.97 4.192 7.998 6.779 5.028 2.592 12.34 2.59 7.157 0 12.035-2.285 4.874-2.283 7.846-6.018 2.97-3.73 4.342-8.607a47.4 47.4 0 0 0 1.676-10.055q-.458-.456-.762-1.219-.306-.761-.305-1.219-.002-1.673 1.219-2.895 1.216-1.219 2.895-1.219 1.673 0 2.895 1.219 1.218 1.22 1.219 2.895 0 .458-.229 1.219-.228.763-.686 1.219a58.3 58.3 0 0 1-2.209 12.34q-1.753 5.942-5.408 10.512c-3.655 4.57-5.663 5.511-9.674 7.389q-6.02 2.817-14.854 2.818-9.14-.002-15.311-3.123c-6.171-3.121-7.415-4.799-9.902-8.15q-3.734-5.028-5.332-11.426c-1.598-6.398-1.6-8.631-1.6-13.102V98.262q0-6.702 1.6-13.102c1.6-6.4 2.842-8.074 5.332-11.426q3.732-5.027 9.902-8.15 6.17-3.122 15.311-3.123c9.141-.001 11.171 1.042 15.234 3.123q6.092 3.124 9.902 8.15 3.807 5.027 5.408 11.426c1.601 6.399 1.6 8.634 1.6 13.102zm-6.246-6.246V98.262a47.8 47.8 0 0 0-1.219-10.664q-1.22-5.33-4.189-9.521-2.97-4.188-7.998-6.855-5.03-2.665-12.492-2.666-7.312.001-12.34 2.666-5.028 2.667-7.998 6.855-2.971 4.192-4.266 9.521a45 45 0 0 0-1.295 10.664v29.402zm35.191 90.34q.914 1.22.914 2.59 0 1.675-1.143 2.818c-1.143 1.143-1.702 1.143-2.818 1.143a4.1 4.1 0 0 1-2.895-1.143q-1.22-1.143-1.219-2.818 0-1.37.914-2.59V6.855q-.914-1.371-.914-2.742-.002-1.674 1.219-2.895Q326.47.001 328.148 0q1.675 0 2.818 1.219a4.1 4.1 0 0 1 1.143 2.895q0 1.371-.914 2.742zm137.262-28.031q0 6.706-1.6 12.949-1.6 6.248-5.408 11.045-3.809 4.8-9.979 7.693c-6.17 2.893-9.27 2.895-15.463 2.895q-8.684 0-14.701-2.59-6.02-2.59-9.826-6.932-3.81-4.341-5.713-10.131a45.3 45.3 0 0 1-2.209-12.035 4.3 4.3 0 0 1-.686-1.371 5.3 5.3 0 0 1-.229-1.523q-.002-1.675 1.219-2.818a4.08 4.08 0 0 1 2.895-1.143q1.675 0 2.818 1.143c1.143 1.143 1.143 1.702 1.143 2.818q0 .764-.229 1.523-.228.765-.686 1.371.15 5.18 1.676 9.826 1.521 4.649 4.646 8.15 3.12 3.505 7.998 5.561 4.874 2.057 11.883 2.057 7.464.002 12.492-2.361 5.026-2.36 8.074-6.398 3.045-4.034 4.342-9.141 1.293-5.103 1.295-10.588v-88.969q-.002-5.484-1.295-10.74-1.297-5.256-4.418-9.369-3.124-4.113-8.379-6.627c-5.255-2.514-7.846-2.514-13.025-2.514h-5.637v-6.246h8.379q7.463.001 12.264-2.59 4.798-2.589 7.465-6.855 2.663-4.263 3.656-9.674.99-5.407.99-10.893-.002-5.331-1.295-10.588-1.297-5.256-4.342-9.369-3.048-4.112-8.074-6.703-5.03-2.59-12.492-2.59-7.01 0-11.883 2.057-4.878 2.058-7.998 5.561-3.125 3.506-4.646 8.15-1.526 4.649-1.676 9.826.457.458.686 1.219.228.764.229 1.523-.002 1.678-1.295 2.895-1.295 1.22-2.666 1.219-1.678.001-2.895-1.219-1.22-1.217-1.219-2.895 0-.76.229-1.523.228-.761.686-1.219.303-6.399 2.209-12.111 1.903-5.712 5.713-10.131 3.805-4.416 9.826-7.008Q427.324 0 436.008 0q8.986.001 15.234 3.047 6.245 3.048 10.055 8.074 3.805 5.027 5.484 11.426a51 51 0 0 1 1.676 12.949q-.001 5.028-.838 10.131-.839 5.105-2.895 9.521a27.6 27.6 0 0 1-5.561 7.922q-3.506 3.506-8.836 5.484 5.028 2.286 8.455 5.637a30.2 30.2 0 0 1 5.637 7.541q2.208 4.192 3.123 9.141a56 56 0 0 1 .914 10.131v88.969z"/></svg>