<svg xmlns="http://www.w3.org/2000/svg" width="474.094" height="224.555" version="1.0" xml:space="preserve"><path d="M61.09 215.262q1.37-.914 2.895-.914 1.675 0 2.818 1.219a4.1 4.1 0 0 1 1.143 2.895q0 1.677-1.143 2.818c-1.143 1.141-1.702 1.143-2.818 1.143q-1.524 0-2.895-.914H.914V6.855Q0 5.484 0 4.113q-.001-1.674 1.219-2.895Q2.436.001 4.113 0q1.675 0 2.819 1.219a4.1 4.1 0 0 1 1.143 2.895q0 1.371-.914 2.742v208.406zm78-81.352H81.047v54.844q0 5.485 1.295 10.816 1.294 5.334 4.266 9.521 2.97 4.192 7.998 6.779 5.028 2.592 12.34 2.59 7.158 0 12.035-2.285 4.874-2.283 7.846-6.018 2.97-3.73 4.342-8.607a47.4 47.4 0 0 0 1.676-10.055q-.458-.456-.762-1.219-.306-.761-.305-1.219-.002-1.673 1.219-2.895 1.217-1.219 2.895-1.219 1.673 0 2.895 1.219 1.219 1.22 1.219 2.895 0 .458-.229 1.219-.228.763-.686 1.219a58.3 58.3 0 0 1-2.209 12.34q-1.753 5.942-5.408 10.512c-3.655 4.57-5.663 5.511-9.674 7.389q-6.02 2.817-14.854 2.818-9.14-.002-15.311-3.123c-6.171-3.121-7.415-4.799-9.902-8.15q-3.734-5.028-5.332-11.426c-1.598-6.398-1.6-8.631-1.6-13.102V98.262q0-6.702 1.6-13.102c1.6-6.4 2.842-8.074 5.332-11.426q3.731-5.027 9.902-8.15 6.17-3.122 15.311-3.123c9.141-.001 11.171 1.042 15.234 3.123q6.092 3.124 9.902 8.15 3.807 5.027 5.408 11.426c1.601 6.399 1.6 8.634 1.6 13.102zm-6.246-6.246V98.262a47.8 47.8 0 0 0-1.219-10.664q-1.22-5.33-4.189-9.521-2.97-4.188-7.998-6.855-5.029-2.665-12.492-2.666-7.312.001-12.34 2.666-5.028 2.667-7.998 6.855-2.972 4.192-4.266 9.521a45 45 0 0 0-1.295 10.664v29.402zm58.424 91.102q.607 1.222.609 1.828 0 1.675-1.219 2.818a4.1 4.1 0 0 1-2.895 1.143 4.1 4.1 0 0 1-2.895-1.143q-1.22-1.143-1.219-2.818-.001-1.218.305-1.828L151.963 69.621q-.764-.458-1.066-1.371a5.7 5.7 0 0 1-.305-1.828q-.002-1.675 1.219-2.818a4.08 4.08 0 0 1 2.895-1.143q1.673 0 2.895 1.143 1.219 1.144 1.219 2.818 0 1.068-.762 2.133l29.707 136.805 29.402-136.805a1.86 1.86 0 0 1-.305-1.066v-1.066q0-1.675 1.143-2.818c1.143-1.143 1.699-1.143 2.818-1.143q1.673 0 2.895 1.143 1.219 1.143 1.219 2.818-.002 2.135-1.523 3.199zM302.25 133.91h-58.043v54.844q0 5.485 1.295 10.816 1.293 5.334 4.266 9.521 2.97 4.192 7.998 6.779 5.028 2.592 12.34 2.59 7.157 0 12.035-2.285 4.874-2.283 7.846-6.018 2.97-3.73 4.342-8.607a47.4 47.4 0 0 0 1.676-10.055q-.458-.456-.762-1.219-.306-.761-.305-1.219-.002-1.673 1.219-2.895 1.216-1.219 2.895-1.219 1.673 0 2.895 1.219 1.218 1.22 1.219 2.895 0 .458-.229 1.219-.228.763-.686 1.219a58.3 58.3 0 0 1-2.209 12.34q-1.753 5.942-5.408 10.512c-3.655 4.57-5.663 5.511-9.674 7.389q-6.02 2.817-14.854 2.818-9.14-.002-15.311-3.123c-6.171-3.121-7.415-4.799-9.902-8.15q-3.734-5.028-5.332-11.426c-1.598-6.398-1.6-8.631-1.6-13.102V98.262q0-6.702 1.6-13.102c1.6-6.4 2.842-8.074 5.332-11.426q3.732-5.027 9.902-8.15 6.17-3.122 15.311-3.123c9.141-.001 11.171 1.042 15.234 3.123q6.092 3.124 9.902 8.15 3.807 5.027 5.408 11.426c1.601 6.399 1.6 8.634 1.6 13.102zm-6.246-6.246V98.262a47.8 47.8 0 0 0-1.219-10.664q-1.22-5.33-4.189-9.521-2.97-4.188-7.998-6.855-5.03-2.665-12.492-2.666-7.312.001-12.34 2.666-5.028 2.667-7.998 6.855-2.971 4.192-4.266 9.521a45 45 0 0 0-1.295 10.664v29.402zm35.191 90.34q.914 1.22.914 2.59 0 1.675-1.143 2.818c-1.143 1.143-1.702 1.143-2.818 1.143a4.1 4.1 0 0 1-2.895-1.143q-1.22-1.143-1.219-2.818 0-1.37.914-2.59V6.855q-.914-1.371-.914-2.742-.002-1.674 1.219-2.895Q326.47.001 328.148 0q1.675 0 2.818 1.219a4.1 4.1 0 0 1 1.143 2.895q0 1.371-.914 2.742zm142.899-28.031q-.001 6.706-1.676 12.949-1.678 6.248-5.484 11.045-3.81 4.8-10.055 7.693-6.248 2.894-15.234 2.895-9.294-.001-15.539-2.895-6.248-2.893-9.979-7.693-3.734-4.797-5.332-11.045-1.6-6.244-1.6-12.949V97.957q0-4.873.914-9.75.913-4.874 2.895-9.141a30.5 30.5 0 0 1 5.18-7.77q3.198-3.504 7.922-5.789-4.723-1.978-7.922-5.256a27.7 27.7 0 0 1-5.18-7.389q-1.98-4.113-2.895-8.912c-.915-4.799-.914-6.422-.914-9.674q0-6.399 1.6-12.568c1.6-6.169 2.842-7.77 5.332-10.969q3.73-4.798 9.979-7.77Q432.35 0 441.645 0c6.193 0 11.35.94 15.463 2.818q6.168 2.82 9.979 7.541 3.807 4.723 5.408 10.893c1.601 6.17 1.6 8.455 1.6 13.025q0 4.876-.914 9.674c-.914 4.798-1.576 6.17-2.895 8.912q-1.983 4.114-5.332 7.389-3.354 3.277-8.074 5.256 4.569 2.285 7.846 5.789a31.2 31.2 0 0 1 5.332 7.77q2.055 4.267 3.047 9.141.99 4.877.99 9.75v92.015zM442.863 62.461q7.006-.303 11.807-2.742 4.798-2.436 7.693-6.322 2.892-3.884 4.189-8.836 1.293-4.949 1.295-10.283-.002-5.178-1.295-10.207-1.297-5.026-4.418-8.988-3.124-3.96-8.15-6.398-5.028-2.437-12.34-2.438c-7.312-.001-8.988.814-12.34 2.438q-5.029 2.44-8.15 6.398-3.126 3.962-4.418 8.988a40.7 40.7 0 0 0-1.295 10.207q0 5.029 1.295 9.979 1.293 4.952 4.189 8.912 2.893 3.962 7.617 6.475 4.721 2.515 11.578 2.818zm-27.422 127.512q0 5.485 1.295 10.588 1.292 5.106 4.342 9.141 3.046 4.038 8.074 6.398 5.027 2.362 12.492 2.361 7.464.001 12.492-2.361 5.026-2.36 8.074-6.398 3.045-4.034 4.342-9.141 1.293-5.103 1.295-10.588V97.957q-.002-5.332-1.295-10.588-1.297-5.254-4.342-9.445-3.049-4.187-8.074-6.779-5.03-2.59-12.492-2.59-7.466 0-12.492 2.59-5.028 2.591-8.074 6.779-3.05 4.19-4.342 9.445a44 44 0 0 0-1.295 10.588z"/></svg>