<?xml version="1.0" standalone="no"?>
<!DOCTYPE svg PUBLIC "-//W3C//DTD SVG 20010904//EN"
 "http://www.w3.org/TR/2001/REC-SVG-20010904/DTD/svg10.dtd">
<svg version="1.0" xmlns="http://www.w3.org/2000/svg"
 width="1224.000000pt" height="1224.000000pt" viewBox="0 0 1224.000000 1224.000000"
 preserveAspectRatio="xMidYMid meet">
<metadata>
Created by potrace 1.14, written by Peter Selinger 2001-2017
</metadata>
<g transform="translate(0.000000,1224.000000) scale(0.100000,-0.100000)"
fill="#000000" stroke="none">
<path d="M5750 10860 c-593 -45 -1056 -162 -1556 -391 l-151 -70 -141 95
c-333 225 -469 261 -962 261 -306 -1 -393 -10 -594 -60 -505 -128 -906 -359
-1315 -759 -513 -503 -836 -1045 -1010 -1699 -21 -77 -21 -86 -21 -2027 l0
-1950 64 -144 c36 -79 119 -252 186 -385 422 -844 850 -1421 1355 -1826 228
-184 566 -368 829 -454 170 -55 259 -67 576 -78 975 -32 2097 346 2902 978
l87 69 123 -93 c240 -181 434 -301 733 -452 260 -131 496 -227 754 -305 489
-148 1024 -217 1482 -190 256 15 323 24 452 65 699 223 1303 758 1847 1635
159 257 377 669 518 980 290 637 382 1381 296 2380 -29 339 -154 1418 -185
1590 -114 650 -441 1272 -950 1804 -487 510 -1017 803 -1634 903 -86 14 -169
18 -380 18 -471 0 -629 -42 -939 -250 l-130 -86 -115 55 c-409 194 -859 315
-1381 371 -175 19 -582 27 -740 15z m-1216 -1620 c141 -17 277 -41 406 -71
191 -45 206 -49 335 -97 216 -80 239 -89 322 -131 46 -23 86 -41 90 -42 5 0
77 -65 160 -145 l153 -145 137 129 c76 71 144 136 152 146 7 9 19 16 27 16 7
0 42 16 76 34 68 38 257 115 403 164 105 36 404 104 555 126 233 35 594 43
721 17 l32 -6 -169 -155 c-230 -211 -476 -443 -878 -829 l-339 -325 146 -141
145 -140 71 -140 c111 -219 176 -384 234 -595 64 -227 92 -374 107 -555 14
-165 23 -425 15 -425 -22 0 -733 644 -1223 1108 -112 105 -208 192 -214 192
-5 0 -94 -80 -197 -177 -338 -322 -742 -693 -1016 -933 -182 -160 -262 -227
-237 -199 21 24 22 32 22 215 0 252 21 416 86 659 14 55 34 132 44 170 17 67
46 147 122 335 19 47 63 139 98 205 57 108 60 117 34 95 -31 -26 -10 -4 199
199 l129 125 -89 86 c-338 328 -864 826 -1124 1063 -98 89 -176 163 -174 165
2 2 52 7 112 12 122 10 404 4 527 -10z m4891 -376 c151 -39 257 -150 291 -303
32 -144 -9 -275 -121 -379 -103 -96 -233 -132 -363 -98 -131 33 -212 98 -269
214 -36 73 -38 80 -38 176 0 93 3 107 32 168 87 184 275 273 468 222z m-6347
-481 l2 -273 273 -2 272 -3 3 -352 2 -353 -275 0 -275 0 -2 -272 -3 -273 -347
-3 -348 -2 0 275 0 275 -277 2 -278 3 0 350 0 350 278 3 277 2 0 275 0 275
348 -2 347 -3 3 -272z m5643 -242 c148 -47 248 -161 280 -320 25 -128 -24
-266 -130 -363 -79 -73 -148 -101 -256 -102 -104 -1 -129 6 -145 45 -17 41
-92 136 -135 171 -19 16 -54 38 -79 49 -42 18 -45 23 -52 66 -26 173 56 342
204 421 103 55 206 66 313 33z m1438 0 c123 -38 218 -126 262 -242 110 -289
-138 -593 -442 -541 -136 23 -243 105 -302 230 -29 61 -32 75 -32 167 0 92 3
106 32 167 40 85 97 147 172 186 102 55 205 66 310 33z m-685 -730 c177 -78
278 -255 247 -436 -15 -91 -48 -158 -108 -219 -61 -61 -112 -91 -193 -112
-323 -83 -604 256 -463 558 52 110 127 177 248 221 68 24 201 19 269 -12z
m-4215 -4385 c34 -35 32 -42 -11 -50 -14 -2 -67 -18 -119 -34 -161 -51 -163
-49 -39 36 63 44 120 80 126 81 5 1 25 -14 43 -33z m1640 -42 c53 -37 100 -71
105 -75 10 -9 -60 9 -157 41 -69 22 -91 28 -116 29 -16 1 46 71 62 71 5 0 53
-30 106 -66z"/>
</g>
</svg>
