<svg xmlns="http://www.w3.org/2000/svg" xmlns:xlink="http://www.w3.org/1999/xlink" width="128" height="128" version="1.0" display="inline"><title>Adwaita Icon Template</title><defs><linearGradient id="prefix__c"><stop offset="0" stop-color="#2d2839" stop-opacity="1"/><stop offset="1" stop-color="#282433" stop-opacity="1"/></linearGradient><linearGradient id="prefix__b"><stop offset="0" stop-color="#fff" stop-opacity="1"/><stop offset="1" stop-color="#fff" stop-opacity=".09411765"/></linearGradient><linearGradient id="prefix__a"><stop offset="0" stop-color="#77767b" stop-opacity="1"/><stop offset=".05" stop-color="#c0bfbc" stop-opacity="1"/><stop offset=".1" stop-color="#9a9996" stop-opacity="1"/><stop offset=".9" stop-color="#9a9996" stop-opacity="1"/><stop offset=".95" stop-color="#c0bfbc" stop-opacity="1"/><stop offset="1" stop-color="#77767b" stop-opacity="1"/></linearGradient><linearGradient id="prefix__d" x1="48" x2="464" y1="44" y2="44" gradientUnits="userSpaceOnUse" xlink:href="#prefix__a"/><linearGradient id="prefix__f" x1="70.347" x2="70.347" y1="245.395" y2="269.137" gradientUnits="userSpaceOnUse" xlink:href="#prefix__c"/><radialGradient id="prefix__e" cx="64" cy="194.19" r="44" fx="64" fy="194.19" gradientTransform="matrix(-4.72727 0 0 -1.63636 238.545 49.766)" gradientUnits="userSpaceOnUse" xlink:href="#prefix__b"/></defs><g transform="translate(0 -172)" display="inline"><rect style="marker:none" width="416" height="376" x="48" y="-124" rx="32" ry="32" transform="matrix(.25 0 0 .25 0 225)" display="inline" opacity="1" fill="url(#prefix__d)" fill-opacity="1" stroke="none" stroke-width="1" stroke-linecap="butt" stroke-linejoin="miter" stroke-miterlimit="4" stroke-dasharray="none" stroke-dashoffset="0" stroke-opacity="1" marker-start="none" marker-mid="none" marker-end="none" paint-order="normal"/><rect width="416" height="384" x="48" y="-164" rx="32" ry="32" transform="matrix(.25 0 0 .25 0 225)" style="marker:none" display="inline" opacity="1" fill="#deddda" fill-opacity="1" stroke="none" stroke-width="1" stroke-linecap="butt" stroke-linejoin="miter" stroke-miterlimit="4" stroke-dasharray="none" stroke-dashoffset="0" stroke-opacity="1" marker-start="none" marker-mid="none" marker-end="none" paint-order="normal"/><rect width="96" height="88" x="16" y="-276" rx="4" ry="4" transform="scale(1 -1)" style="marker:none" display="inline" opacity="1" vector-effect="none" fill="#241f31" fill-opacity="1" stroke="none" stroke-width=".01121096px" stroke-linecap="butt" stroke-linejoin="miter" stroke-miterlimit="4" stroke-dasharray="none" stroke-dashoffset="0" stroke-opacity="1" marker-start="none" marker-mid="none" marker-end="none" paint-order="normal"/><path style="marker:none" transform="scale(-1)" d="M-108-272h88v78h-88z" display="inline" opacity=".05" vector-effect="none" fill="url(#prefix__e)" fill-opacity="1" stroke="none" stroke-width=".01121096px" stroke-linecap="butt" stroke-linejoin="miter" stroke-miterlimit="4" stroke-dasharray="none" stroke-dashoffset="0" stroke-opacity="1" marker-start="none" marker-mid="none" marker-end="none" paint-order="normal"/><g fill="#fff"><path style="line-height:1.25;-inkscape-font-specification:&quot;Source Code Pro, Bold&quot;;font-variant-ligatures:normal;font-variant-caps:normal;font-variant-numeric:normal;font-feature-settings:normal;text-align:start" d="M44.012 210.888 30 203.272V208l9.71 4.63v.142L30 218v4.728l14.012-8.214zM48 226v4h16v-4z" transform="translate(-2 -2)" font-style="normal" font-variant="normal" font-weight="700" font-stretch="normal" font-size="medium" font-family="Source Code Pro" letter-spacing="0" word-spacing="0" writing-mode="lr-tb" text-anchor="start" fill="#fff" fill-opacity="1" stroke="none" stroke-width=".24999999"/></g><path style="marker:none" d="M100 244h4v4h-4zm-8 0h4v4h-4zm-8 0h4v4h-4zm-8 0h4v4h-4zm-8 0h4v4h-4zm-8 0h4v4h-4zm-8 0h4v4h-4zm-8 0h4v4h-4zm-8 0h4v4h-4zm-8 0h4v4h-4zm-8 0h4v4h-4zm84 4h4v4h-4zm-8 0h4v4h-4zm-8 0h4v4h-4zm-8 0h4v4h-4zm-8 0h4v4h-4zm-8 0h4v4h-4zm-8 0h4v4h-4zm-8 0h4v4h-4zm-8 0h4v4h-4zm-8 0h4v4h-4zm-8 0h4v4h-4zm76 4h4v4h-4zm-8 0h4v4h-4zm-8 0h4v4h-4zm-8 0h4v4h-4zm-8 0h4v4h-4zm-8 0h4v4h-4zm-8 0h4v4h-4zm-8 0h4v4h-4zm-8 0h4v4h-4zm-8 0h4v4h-4zm-8 0h4v4h-4zm84 4h4v4h-4zm-8 0h4v4h-4zm-8 0h4v4h-4zm-8 0h4v4h-4zm-8 0h4v4h-4zm-8 0h4v4h-4zm-8 0h4v4h-4zm-8 0h4v4h-4zm-8 0h4v4h-4zm-8 0h4v4h-4zm-8 0h4v4h-4zm76 4h4v4h-4zm-8 0h4v4h-4zm-8 0h4v4h-4zm-8 0h4v4h-4zm-8 0h4v4h-4zm-8 0h4v4h-4zm-8 0h4v4h-4zm-8 0h4v4h-4zm-8 0h4v4h-4zm-8 0h4v4h-4zm-8 0h4v4h-4zm84 4h4v4h-4zm-8 0h4v4h-4zm-8 0h4v4h-4zm-8 0h4v4h-4zm-8 0h4v4h-4zm-8 0h4v4h-4zm-8 0h4v4h-4zm-8 0h4v4h-4zm-8 0h4v4h-4zm-8 0h4v4h-4zm-8 0h4v4h-4zm76 4h4v4h-4zm-8 0h4v4h-4zm-8 0h4v4h-4zm-8 0h4v4h-4zm-8 0h4v4h-4zm-8 0h4v4h-4zm-8 0h4v4h-4zm-8 0h4v4h-4zm-8 0h4v4h-4zm-8 0h4v4h-4zm-8 0h4v4h-4z" opacity="1" vector-effect="none" fill="url(#prefix__f)" fill-opacity="1" stroke="none" stroke-width="8" stroke-linecap="round" stroke-linejoin="round" stroke-miterlimit="4" stroke-dasharray="none" stroke-dashoffset="0" stroke-opacity="1" marker-start="none" marker-mid="none" marker-end="none" paint-order="normal"/></g></svg>