<svg version="1.0" xmlns="http://www.w3.org/2000/svg" width="973.333" height="973.333" viewBox="0 0 730 730"><path d="M513.6.8c-.3.2-.2 1 0 1.7.3.7-.2 2.6-1.1 4.2-.9 1.5-1.4 2-1.1 1 .3-.9.1-1.7-.4-1.7-1 0-1.4 1.4-1 3.9.1.8-.9.1-2.3-1.4-1.7-2-2.4-2.4-2.4-1.2 0 .9.4 1.4.8 1.2.4-.3 1 .2 1.3 1.1.4 1.2.2 1.5-.9 1.1-1.8-.7-3 .9-1.4 1.9.8.5.9.3.4-.7-.5-.8-.4-1 0-.6.9.8 1.6 3.7.9 3.7-1.4 0-4.1-3.6-3.7-4.9.4-.9.3-1.3-.1-1-1 .9-1.6 5-.7 4.4.5-.3 1.1.2 1.4.9.4 1 0 1.4-1.3 1.1-1.3-.2-1.7.1-1.3 1 .3.8-.2 2.2-1.1 3-.9.9-1.6 1.3-1.6.8s.4-1.3 1-1.9.5-1.5-.1-2.4c-.9-1.2-1-1.2-.5.3.3 1.1 0 2-.9 2.3-.8.4-1.2 1-.9 1.5.3.6 0 1.7-.8 2.6-1.1 1.5-1.1 1.6.7 1 1.9-.7 1.9-.6.2.7-1 .8-3.2 1.3-4.9 1-2.8-.3-2.9-.2-1.2 1 1 .8 2.4 1.2 3.1.9s1.3.1 1.3.8-.3.9-.7.6c-.4-.4-2 .5-3.6 2-1.7 1.6-2.7 2.3-2.4 1.8.9-1.6-2.7-3.5-4.4-2.4-1.1.8-.9.9.6.7 1.7-.3 2 .3 2 3.4.1 3-.2 3.5-1.2 2.6-1-.8-1-1.4-.3-2.3.8-1 .7-1.5-.2-2.1-.7-.4-1-.4-.6.1.4.4.3 1.4-.3 2.2-.9 1-.8 1.7.1 2.9.8.8.9 1.4.4 1.2-1.2-.4-5.5 2.7-4.9 3.5.3.4.2.5-.1.2-.4-.2-1.6 0-2.7.6-1 .6-1.7.7-1.4.2.4-.5 0-1-.8-1-1 0-1.1.5-.4 1.8.5 1 .9 2 .9 2.3 0 .8-3.2.3-4.8-.8-.8-.5-1.2-.3-1 .6.2.7-.4 1.2-1.2 1s-1.2 0-.8.4.3 1.3-.3 2c-.7.9-.4 1.6 1.1 2.7 1.8 1.2 1.9 1.5.5 2.1-.9.3-1.3.2-1-.4s.2-1-.3-1c-1.7 0-2.2 1.3-.9 2.9 1 1.4 1 1.4-.4.4-.9-.7-2-.9-2.5-.5s-.1-.2.9-1.4c1.6-1.9 1.6-2.2.2-3.4-.9-.7-1.5-.9-1.4-.4s0 1.2-.1 1.6c-.1.5-.3 1.4-.4 2-.1.7-.7 1.2-1.4 1.1-.6-.2-1.6.6-2.2 1.7-.8 1.5-.6 2.1.7 3 1.7 1.1 1.7 1.1 0 .6-1.4-.4-1.6-.1-1.3 1.9.3 1.5.1 2.3-.5 2-.5-.4-.7-1.1-.4-1.6.4-.5-.5-.8-1.9-.7-2.1.2-2.4.6-2.1 3.7.2 1.9 0 3-.3 2.5-1.8-2.4-4-3.5-4.8-2.3q-.6 1.05.3.6c.6-.4 1.4 0 1.7.8.4 1.2 0 1.4-1.9.9-1.5-.4-2.5-.2-2.5.5 0 1.4-3.1.3-4.9-1.8-1.2-1.5-1.3-1.4-.8.1.5 1.4.1 1.8-1.5 1.8-1.8 0-1.9-.2-.7-1.7 1.1-1.3.8-1.3-1.6.3-2.9 1.9-2.9 1.9-2.1-.1.5-1.5.4-1.7-.4-.9-.6.6-1.3 2-1.4 3-.2 1-.9 2-1.7 2.2-1 .2-1 .1-.2-.5s.6-1.4-.7-3.1c-1.8-2.1-3.7-3.1-2.5-1.3.3.5.1 1.2-.5 1.6-.6.3-1.3-.1-1.6-1-.5-1.2-1-1.3-2-.4-2.1 1.7-.7 2.8 3.1 2.5 2-.2 3.2 0 2.9.6-.3.5-.9.7-1.2.4s-1.4.2-2.5 1.1c-1.1 1-1.7 1.3-1.4.7.8-1.4-2-2.7-3.6-1.7-.6.4-.8 0-.4-1 .3-.9.1-1.9-.5-2.3-.7-.4-.8-.3-.4.4.3.6-.2 1.6-1.3 2.1-2.9 1.6-3.8 1.3-1.5-.4 1.8-1.4 1.7-1.5-1.1-.8-2.8.6-2.9.5-1.5-1.3s1.4-1.8-.3-.5c-1.2.9-1.4 1.7-.7 2.6 1.1 1.3.4 2.5-1.4 2.5-.7 0-.7-.3.1-.8s.7-1.2-.4-2.7c-1.2-1.5-1.4-1.6-1-.3.3.9-.1 2.2-.9 2.8-.8.7-1.4.9-1.4.4s-.5-.2-1.1.6c-.8 1.2-.9 1-.4-.7.3-1.2.1-2.4-.5-2.8s-1-.3-.9.2c.1.4-.2 1.9-.8 3.2-1 2.4-1 2.4-1.5.3-.4-1.2-.3-2 .1-1.8.4.3.8-.5.8-1.7.2-2 .1-2-.8-.4-.6.9-1.5 1.4-2.1 1.1-.7-.4-.8-.2-.4.4.4.7.1 1.2-.8 1.2s-1.6.5-1.6 1c0 .7.7.7 2.3 0 2-1 2.1-1 .4.4-1.1.8-2.7 1.3-3.8 1.1-1-.2-1.9 0-1.9.5 0 .4-.9.6-2.1.3-1.5-.4-1.7-.8-.8-1.4.7-.4 1.7-.5 2.3-.2.5.3.6.1.2-.5-.8-1.4-7.6 1.6-7.6 3.3 0 .6-.9 1.1-2 1.2s-2-.3-2-.8c0-.6.4-.8.9-.4.5.3 1.2.1 1.5-.4s-.1-1.1-.9-1.5c-.8-.3-1.5-.1-1.5.3 0 1.5-3.2.5-4.6-1.4-.8-1-1.4-1.4-1.4-.9 0 .6.5 1.5 1.2 2.2.9.9.7 1.3-.5 1.8-.9.3-1.5.9-1.2 1.3.2.4-.2.8-.9.8s-1.3-.6-1.3-1.3.4-1.1.8-.8c.4.2 1 .1 1.3-.4.2-.4-.4-.9-1.5-.9-1.3-.1-1.9.5-1.9 1.9s-.5 1.8-1.5 1.4c-.8-.3-1.5 0-1.5.7 0 .9-.3.8-.9-.1-.4-.8-1.6-1.2-2.6-1s-2-.4-2.2-1.2c-.4-1.3-.3-1.3.6 0 .8 1.2 1 1.1.9-.7-.2-2.6-2.8-1.9-2.8.8 0 1-.4 1.9-.9 1.9-.4 0-.7-1.1-.6-2.5.3-2.2.1-2.3-1.6-1.4-1.1.5-2.5.7-3.1.3-.7-.4-.8-.3-.4.4s.1 1.2-.9 1.2c-.9 0-1.4-.4-1.1-.8.2-.4-1.5-.8-3.8-.7-3.1 0-4.2.4-3.9 1.2.6 1.5 1.9 1.7 2.7.4.9-1.4 4.1-.5 3.8 1-.2.8-1.1 2.1-2 2.9-1.4 1.4-1.5 1.3-.2-.3 1-1.3 1-2.1.2-2.9s-1.3-.7-1.8.5c-.3 1-1.1 1.4-1.8 1-1.6-1.1-3-1-3.9.2-.5.6-.7.4-.4-.5.2-.8 1-1.4 1.6-1.2.7.1 1-.2.6-.7-.3-.6-1.2-.8-2-.4-1.1.4-1.4 0-.9-1.3.5-1.5.4-1.6-.4-.5-.6.8-.8 2-.5 2.7.2.6-.1 1.5-.8 2-.8.4-1 .3-.5-.4.4-.7.1-2-.6-3-1.3-1.7-1.4-1.7-3 0-1 1-1.7 2-1.5 2.2.1.2-.2.8-.7 1.3q-.75.6-.3-.3c.4-.7-.2-2.3-1.4-3.5-1.1-1.3-1.8-1.8-1.4-1.2.3.7.1 1.3-.5 1.3s-.8.5-.4 1.1c.4.8.9.7 1.5-.2.7-1.1.9-1.1.9.2 0 .9-.7 2-1.6 2.3-.8.3-1.2.2-.9-.4.8-1.3-.1-1.3-2.7.1-1.2.6-1.8.7-1.4.1.3-.5-.1-1.3-1-1.6-.9-.4-1.3-.2-.8.5.4.7-.1.9-1.5.4-1.7-.5-2-.3-1.4 1.2.4 1 1.1 2.1 1.7 2.6.6.4-.4.5-2.2.2-2.8-.5-3.5-.2-3.9 1.5-.7 2.6-2.9 2-2.5-.6.2-1.5.1-1.6-.7-.4-.7.9-.6 1.9.1 2.8.9 1 .6 1.2-1.6.8-1.7-.3-2.9 0-3.2.9-.3.7-1.7 1.2-3.2 1-2.4-.2-2.5-.2-.7 1.1 1.5 1.1 2.1 1.1 3.4.1 1.2-.9 1.3-.9.7 0-.4.8-.2 1.3.6 1.3 1 0 .9.3-.2.9-.8.6-1.8.7-2.3.4s-1.4.1-1.9.8c-.8 1.1-.9 1.1-.5-.3.7-1.9-2.6-3.1-4.2-1.5-1.5 1.5-4.1 1.8-4.1.4 0-.6-.7-.1-1.6 1.1-1.3 1.8-1.9 2.1-3 1.1-1-.8-1.8-.9-2.7 0-.8.6-1.7.8-2 .4-.4-.3-.7-.1-.7.6s-.4 1-.9.6c-.5-.3-1.3-.1-1.6.5-.5.8-1.1.7-2.1-.1-1.1-.9-1.5-.8-2 .5-.6 1.5-.8 1.5-2-.1-1.3-1.7-1.4-1.7-.7.2.6 1.8.5 1.9-1.2.5-1.7-1.3-1.8-1.3-1 0 1.7 2.7 1.7 5.3 0 4.7-.8-.4-1.9.1-2.4 1.1-.5.9-1.3 1.7-1.8 1.7-.4 0-.7.3-.6.7.1.3-.4.5-1.3.4-.8-.1-1.3-.6-1.2-1.2.2-.5.7-.8 1.1-.6.5.1.6-.2.2-.8-.5-.8-1.2-.7-2.2.2-.9.7-1.8 1.2-2 1-.8-.6-2.3-.1-2.3.9 0 .5.5.7 1 .4.6-.3 1-.1 1 .4 0 1.4-1.7 1.4-2.5.1-.4-.6-1.1-.7-1.7-.4-.6.4-1.4.1-1.8-.6-.5-.9-1.3-.9-2.7-.2-1.4.8-2.3.8-3.1 0-.7-.7-1.2-.8-1.2-.4 0 .5-.8.2-1.7-.5-1-.8-1.4-.9-1-.2.4.6.3 1.4-.2 1.8-.5.3-1.4-.3-2-1.2-.6-1.1-1.1-1.3-1.1-.5 0 .7-.5 1-1 .7-.6-.4-.7-1.1-.4-1.7.4-.7.2-.8-.5-.4-.6.4-.9 1.1-.6 1.6s.1 1.1-.5 1.5c-.6.3-1.3-.1-1.6-.9-.7-1.9-2.5-2.2-2.2-.4.2.9-1.1 1.3-3.9 1.3-2.2 0-3.9.3-3.7.7.3.4-.3.5-1.2.1-1.1-.4-1.5-.3-1 .5.4.7-.1.9-1.6.7-1.3-.3-2.4-.9-2.6-1.5s-.9-.7-1.5-.3c-.7.4-.6 0 .1-1 1-1.2 1.1-2 .2-3.4-.9-1.5-1-1.4-.4.7l.7 2.5-2.3-2-2.3-2 1.2 2.2c.6 1.2 1.1 2.4 1.1 2.8 0 1-2.7-1.8-2.8-3 0-.5-.3-1.9-.6-3-.2-1.1-.5-2.5-.5-3-.1-.6-.5-.3-1.1.5-.5.9-.5 1.9 0 2.5.7.8.5 1.2-.5 1.2-1.3 0-1.9-1.5-1.7-3.8.1-.3-.5-.6-1.3-.6-1 0-1.1.5-.4 1.8q2.1 4.05-.9 1.2c-1.1-1-1.7-2.1-1.5-2.5s-.1-.9-.6-1.2c-1-.7-.9.9.4 3.7.4 1 .5 2.1.1 2.4-.3.4-.6-.2-.6-1.2 0-1.5-.2-1.6-1.7-.4-.9.8-1.4.9-1 .3.4-.7-.1-1.8-1-2.5-1.4-1.2-1.6-1.2-1.1.2.4.9.1 1.6-.7 1.6-1.4 0-1.4-1.4-.1-3.6.8-1.2 1.1-1.1 2.3.4.7 1.1 1.3 1.4 1.3.8 0-1.7-2.7-3.6-3.5-2.3-.7 1.1-3.6 1.4-3.4.2.3-1.7-.2-3.5-.7-2.9-1 .9-4.6-1.2-3.9-2.3.4-.6-.1-.7-1.1-.3-1.2.4-1.5.3-1-.5.4-.7.2-1.2-.3-1.2-.6 0-1.1.3-1.1.7 0 1.4 1.7 3.5 2.6 3.3.5-.1 1 .3 1.2.9.6 1.9-1.7 1.2-3-.9-.7-1.1-1.9-2-2.7-2-1.1 0-.9-.5.5-2.2l1.9-2.1-2.7 1.8c-1.5.9-2.5 2.2-2.1 2.8s.1.7-.6.2c-.9-.5-.3-1.7 2.1-4.3 1.8-2 2.4-2.9 1.2-1.9-2.2 1.8-5.9 2.4-4.9.7.4-.6 1.2-.8 1.8-.4.7.3.1-.4-1.3-1.7-1.4-1.2-2.4-2.5-2.3-2.9.1-.5-.4-1.1-1.3-1.4-1.2-.4-1.2-.2-.4 1.4.6 1 1.7 2.3 2.6 2.8 1.4.8 1.4 1-.2 1.6-1 .4-1.5.4-1.1 0 1.1-1.1-1.3-3.3-2.9-2.7-.8.3-1.4 0-1.4-.7 0-.6.5-.8 1.2-.4s.8.3.4-.5c-.4-.6-1.8-.9-3.2-.7-1.4.3-2.2.1-1.9-.5.4-.5 1-.7 1.5-.4.4.3.5-.5.2-1.7-.5-1.9-.7-2-1-.6-.4 1.8-1.2 2.2-4.7 1.9-1.6-.2-1.7 0-.5.8s1.1 1-.7.8c-1.7-.1-2-.4-1.1-1.5.7-.7 2-1.1 3-.9 1 .3 1.6.2 1.3-.3-.3-.4-1.4-1-2.5-1.3-1.3-.3-1.8-.1-1.3.6.4.7 0 .8-1.1.4-.9-.4-1.4-.3-1.1.2s0 1.3-.6 1.7c-.8.4-.9.3-.5-.4.3-.6-.2-1.6-1.3-2.2-1.4-.7-2.2-.7-2.6 0-.4.6-.1.9.6.8.6-.2 1.4.4 1.6 1.2.3.9.1 1.1-.4.5-.7-.9-2-1.4-4.8-1.9-.5-.1-1.5-.5-2.2-.9s-1.6 0-2.2 1-1.1 1.3-1.1.6c0-.6.4-1.5 1-1.8.5-.3 1.5-1.6 2-2.8 1.1-2.1 1.1-2.1-.4-.3-1 1.2-1.6 1.5-1.6.7s-.8-1.1-2-.8c-1.1.3-2.3-.1-2.8-.7-.4-.7-1.7-1.8-3-2.5-1.2-.7-2-1.6-1.7-2.2.4-.5.1-.9-.4-.9-.6 0-1.1-.5-1.1-1.1 0-.5.6-.7 1.3-.3s.9.3.4-.2-1.3-1-1.8-1c-2.2-.3-2.3-.5-.9-1.5 1.2-.8 1-.9-.7-.4s-2.3.2-2.3-.9c0-.8-.4-1.7-.9-2s-.8.2-.7 1.2c0 .9 1.1 2.3 2.4 3q3.9 2.25.6 3.6c-1.4.5-1.5.4-.4-.9 1.5-1.8-.1-2-1.8-.3-.9.9-1.2.9-1.2 0 0-.7.6-1.2 1.3-1.2q1.2 0-.3-.9c-.8-.6-1.8-.7-2.4-.4-.5.3-.6.1-.2-.6.7-1.1-.4-1.9-3.9-2.4-1.1-.1-2.5-.6-3.2-1-.6-.4-1.3-.4-1.6 0-.2.5-.2.2 0-.6.4-1.6-1.4-3.1-3.7-3.1-1.2.1-1.1.3.3 1.1.9.5 1.7 1.5 1.7 2 0 1.4-3.5-2.1-3.5-3.5-.1-.6-.6-1-1.3-.9-1.6.4-1.5-.9 0-2.6 1.1-1.1 1-1.2-.1-.6q-1.5.9-.9-.6c.4-1-.2-1.5-1.8-1.7-1.3-.1-2.4.3-2.4.8 0 .6-.4 1-.8 1s-.8-1.1-.8-2.4c0-1.4.4-2.2.8-2 .5.3.6 1 .3 1.5s.1.6.9.3c1.3-.5 1.1-1-.9-2.6-1.4-1.1-2.2-2.5-1.8-3.1.3-.7.3-.9-.2-.5-.4.4-1.7.2-2.8-.3-1.5-.8-2.2-.8-2.8.2-.5.8-.9.9-.9.3 0-.5.5-1.5 1.2-2.2.9-.9.9-1.2-.1-1.2-.7 0-.9-.5-.5-1.3.4-.7.3-.9-.2-.4s-.9 1.4-.9 1.9c0 .6-.7 1.3-1.5 1.5-.9.3-1.1.1-.5-.4 1.2-.9 1.3-2.8.2-3.9-.4-.4-.7.1-.7 1.2 0 1.6-.2 1.6-1 .4-.6-1-.4-2.1.8-3.4 1.7-1.9 1.7-1.9-.9 0-2.2 1.6-2.5 2.2-1.6 3.9.5 1.1-.4.5-2.1-1.3-1.7-1.9-3.6-3.1-4.2-2.7-.5.3-1 .1-1-.5s.7-1 1.6-.8c1 .2 1.8-.3 2-1 .1-.7 0-.8-.2-.3-.3.6-1.2.7-2.1.4-1-.4-2.3.3-3.4 1.8-1.2 1.5-1.7 1.7-1.3.6.3-.9.1-1.7-.5-1.7s-1.1-.5-1.1-1.2c0-.9.3-.9 1.1-.1.9.9 1.5.8 2.5-.2 1.9-1.9 1.8-3-.1-1.5-1.3 1.1-2 .9-4.2-1.1-1.5-1.3-2.1-1.6-1.4-.7 1.4 1.9 1.3 2-3.1 2.2-1.5.1-2.4-.2-2.1-.7s0-.7-.8-.5c-.8.3-1.3 1.2-1.1 1.9.2.8 0 1-.4.6-1.1-1.1-1.4-3.8-.3-3.1.5.3.9.1.9-.4 0-.6-.7-1.3-1.6-1.6-1-.4-1.3-.2-.8.6s.2.9-1.1.5c-.9-.4-2.5-.2-3.3.5-1.3 1.1-1.5 1-.9-.4.3-1 .1-2-.5-2.4-.7-.4-.8-.3-.4.5.5.8-.2 1.1-2.3.9-2.9-.2-3.6-.9-3.2-3.1.1-.5-.3-.6-.8-.2-.7.3-.7 1.5-.1 3 1.1 2.9-.4 4.3-2.5 2.5-.8-.7-1.5-.9-1.5-.4s-.5.1-1.1-.9-.8-2.1-.5-2.4c.3-.4.6-.1.6.5 0 .7.5 1.2 1.2 1.2.6 0 .3-.9-.7-2s-2-1.8-2.3-1.5-1.1 0-1.8-.6c-1.5-1.3-2.9.5-1.7 2.3 1.1 1.9 1.3 3.9.2 3.2-.5-.3-.7-.8-.5-1.2s-.2-1.6-1-2.7c-.8-1-1.4-1.3-1.4-.7 0 .7-.4 1.2-1 1.2-.5 0-.9-.4-.7-.9.1-.5-.2-1-.8-1.1-.5-.1-1.7-.6-2.6-1.1-1-.5-2-.4-2.7.3-.8.8-.9.5-.5-1.1.3-1.3.1-2.1-.6-2.1s-.9-.5-.5-1.2.3-.8-.5-.4c-.9.6-.9 1.1.1 2.4 1.1 1.3 1.1 1.4-.8.4-1.2-.6-2.6-.7-3.5-.1-.7.5-2.1.9-2.9.8-.9 0-.5-.6 1-1.5 2.5-1.5 2.5-1.5.1-.8-1.4.3-2.1.2-1.8-.3.4-.5 0-1-.8-1-1 0-1.2.4-.5 1.2.5.6.5 1.6 0 2.5-.8 1.3-1 1.2-1-.3 0-.9-.5-1.7-1.1-1.7-.5 0-.7-.5-.3-1.2s.3-.8-.5-.4c-.9.6-.9 1.1 0 2.2 1 1.2.9 1.3-.7.7-1.7-.6-1.8-.5-.4 1.3s1.4 1.8-.2.5c-1-.7-1.5-1.7-1.2-2.2s-.2-.6-1.1-.3c-1.2.5-1.3 1-.5 2 1 1 .7 1.1-1.4.1l-2.5-1.2 2.2-1.2c2.1-1.1 2.1-1.1-.5-1-1.4.1-2.4.5-2.1.9.2.5-.1.8-.7.8s-.9.4-.5.9c.3.5.1 1.2-.4 1.5s-.7-.7-.6-2.3c.1-1.7-.3-2.8-1.1-2.8-.7 0-1.1.4-.8.9.3.4-.5.7-1.7.5-1.2-.1-2.4.4-2.6 1.3-.4 1.3-.3 1.3.6 0 .5-.8 1.3-1.1 1.8-.7.4.5.1 1.2-.7 1.7-.9.6-1.9.5-2.4 0-1.6-1.6-3-1.2-1.7.4.9 1.1.9 1.6 0 2.2-.7.4-.9.3-.5-.4.3-.6-.1-1.5-1-2-1.1-.6-1.3-1.1-.5-1.6.6-.4 1.1-1.3 1.1-1.9 0-.7-.5-.4-1.1.6-.6.9-1.4 1.5-2 1.2-1.4-.9-1.1.2.7 1.9.9.9 1.1 1.6.4 1.6-.6 0-.8.4-.5 1 .3.5.1 1-.4 1-.6 0-1.1.7-1.1 1.5S6.5 26 6 26c-.7 0-.7-.7 0-2 .6-1.1.8-2.6.4-3.2q-.75-1.05.6-.3t.6-.3c-1-1.6-2.9-1.5-2.3 0 .2.7.1 2.2-.3 3.3s-.3 2.6.4 3.4c.9 1.2.7 1.3-.9.8-1.6-.6-1.5-.4.5 1.2s2.2 2.2 1.2 3.4c-.9 1-1 1.7-.2 2.2.5.3 1 .1 1-.4 0-.6.5-1.1 1.2-1.1s.5.6-.4 1.7c-.9 1-1.4 2.8-1.2 4s0 2.4-.4 2.7c-.4.2-.7-1.2-.7-3.1 0-2.4-.5-3.8-1.5-4-1.2-.4-1.2-.3-.2.5 2 1.3 1.9 1.7-.3 4.3-1.5 1.8-1.5 2-.2 1 1-.8 1.7-.9 1.7-.3s-.5 1.4-1 1.7c-.7.4-.8 1.1-.1 1.8.5.7 1 1.6 1.1 2.2.1.5.3 1.2.6 1.4.2.2.1-.6-.1-1.8s0-1.9.6-1.6c.5.4.9.1.9-.4 0-.6.5-1.1 1.2-1.1.6 0 .3.9-.7 2s-1.5 2-1 2c.4 0 .3.6-.2 1.2-.8 1.1-1 7.2-.3 8 .7 1 .6 3.9-.2 4.4-.7.4-.6.9.2 1.4s.8.9-.3 1.3-1.5 0-1.2-1.4c.2-1-.1-1.9-.7-1.9-.5 0-.7.7-.4 1.6.5 1.2.2 1.5-1.1 1-1.2-.4-1.1-.1.5 1.2s2 2 1.1 2.9c-.8.8-.7 1.3.2 1.8.8.6 1 .4.4-.5-.5-.8-.4-1.1.3-.6.7.4 1-.1.7-1.4-.2-1.1 0-2 .6-2 1 0 .7 3.5-.4 4.6-.4.4-.7 1.5-.7 2.5 0 1.3.5 1.7 1.8 1.3s1.4-.3.4.4c-.8.5-1.3 1.3-1.2 1.8s-.4 1-1.2 1.2c-.9.2-1 .1-.2-.5.9-.6.7-1.2-.4-2.3-1.4-1.3-1.5-1.2-.9.3.4 1 .2 1.7-.5 1.7s-.3.6.8 1.4c1 .8 1.9 2 1.9 2.8.1.7.7 1.2 1.5 1 1-.2 1.1 0 .3 1-.6.7-1.2 1.7-1.4 2.3-1.1 4.4-1.1 4.5-3.3 3.4-2-1-2-.9-.3.5 1.1.8 2.5 1.2 3.3.9s1.4 0 1.4.6S6.4 89 5.6 89c-2 0-2.9 1.7-1.5 2.6q1.05.6.6-.3c-.3-.5 0-1 .8-1 1.2 0 1.2.3.3 1.5-1 1.1-.8 1.7.7 2.8 1 .8 1.4 1.4.7 1.4-.6 0-.9.9-.7 1.9.3 1.4-.1 1.8-1.2 1.4-1.2-.5-1.2-.8-.1-1.5.9-.7.8-.8-.5-.4-1 .3-2.1.6-2.5.6-.3 0 .3.6 1.3 1.4 1.8 1.3 3.2 5.1 1.4 4-.5-.3-.6-1-.3-1.6.4-.7.2-.8-.5-.4-.8.5-.9 1.2-.2 1.9.5.7 1 1.6 1.1 2.2.1.5.4 1.2.7 1.5.4.3.3-.1-.1-.8-.4-.6-.2-1.2.3-1.2 1.4 0 1.4.2-.2 3.2-.7 1.4-1.9 2.3-2.7 2.1-1.2-.4-1.2-.2-.2.5.7.5 1.2 1.4 1 1.9-.2.6.1 1 .7 1 .5-.1.9-.8.7-1.5-.2-.6.2-1.2.8-1.2s.8.4.5 1c-.3.5.2 1 1.2 1 1.3 0 1 .4-1.1 1.5-1.5.8-3.3 1.2-4 .8-.6-.3-.6 0 .2.8 1 1.1 1.6 1.1 3.2.1 1.2-.7 2.1-.8 2.5-.2s.3 1-.2.9c-.4-.1-1.9.3-3.3.9-1.6.7-1.9 1.1-.9 1.1.9.1 2 .8 2.3 1.7.5 1.4.4 1.5-.8.5-1.1-.9-1.6-.9-2.2 0-.4.8-.3.9.4.5s1.2-.3 1.2.3c0 .5-.6 1.2-1.2 1.5-.7.3-.1.3 1.5.1 1.8-.2 2.5 0 2.1.7s-.8 3-.9 5.3c0 2.2-.4 4.6-.8 5.2-.4.7 0 1.6 1 2.2 1.1.6 1.3 1.1.5 1.1-.7 0-1 .5-.6 1.2s.3.8-.5.4c-.6-.4-.8-1.2-.5-1.8.4-.6.3-.8-.3-.5-.5.3-.8 2-.5 3.8.3 2.3.1 3-.7 2.4-.9-.5-.9-.2 0 1.3 1 1.6 1.6 1.8 2.7 1 .7-.6 1.2-.7 1.1-.2s0 1.2.1 1.6c.1.5.4 1.2.5 1.8.1.5.3 1.1.5 1.2.1.2.3 1.1.5 2.1.4 2.2 1.5 3.5 1.5 1.9 0-.7.5-1.2 1.1-1.2.8 0 .8.4-.1 1.5-1.3 1.6-.6 3.6 1.3 3.1.7-.1.9-.1.4.1-.4.3-.4 1 0 1.6 1.1 1.7 1.3 3.8.3 3.2-.4-.3-1 .6-1.2 1.9-.4 1.9-.1 2.4 1.2 2.1 1.4-.3 1.7.2 1.3 1.8-.4 1.8-.3 1.9.6.7.6-.8 1.1-1 1.1-.4 0 .5-.5 1.5-1.2 2.2-1 .9-.8 1.6.6 3 1.1.9 1.6 1.2 1.3.7-.3-.6-.1-1.7.5-2.5.8-1.3.9-1.2.5.1-.3.9 0 2.2.6 2.9.9 1 .9 1.1-.1.6-1.7-1-1.5 1 .4 2.8.8.9 1.2 1.6.7 1.6s-1.4-.5-1.9-1c-.7-.7-1.1-.6-1.1.4 0 .8.4 1.3.9 1 .4-.3.8 0 .8.5 0 .6-.5 1.1-1.2 1.1-.6 0-.8.3-.5.6.4.4 1.4.1 2.2-.6 1.3-1.1 1.8-1.1 2.8 0 1 1 .9 1.2-.5.7q-1.8-.6-1.8.9c0 .8-.4 1.2-1 .9s-.7.1-.4.9c.3.9 1 1.3 1.5 1s.9 0 .9.6.5.8 1.2.4c.6-.4.8-.3.4.4-.3.6-.2 1.3.4 1.7.5.3 1 1.2 1 1.8 0 .7-.5.4-1.1-.6-.5-.9-1.8-1.7-2.7-1.7-1.5.1-1.5.2.1 1.1 1.4.8 1.7 1.8 1.3 4.2-.6 2.9-.5 3 .6.9 1.2-2.4 2.3-2.8 3.4-1 .4.6.3.8-.4.4-.6-.3-1.7.7-2.5 2.4-1.5 2.8-1.4 2.9.3 2 1.9-1 2.9.2 3.7 4.7.3 1.8 0 2.1-1.8 1.8-1.2-.2-1.8-.1-1.5.3.4.4 1.6.8 2.7.8 5.3.4 5.2.3 3.9 1.9-1.4 1.7-.1 2.1 1.8.5.6-.6 1-.7.7-.4-.3.4.1 1.4.8 2.2.9 1.3.9 1.4-.1.8-.7-.4-1.2-.2-1.2.5 0 .9-.3.9-1.4 0s-1.6-.9-2.2 0c-.4.7-.3.9.4.5 1.4-.8 2.5 1 2.7 4.3 0 1.4.5 2.4 1.1 2.1.5-.3.8-.8.7-1.3-.2-.4.2-.7.8-.7s.8.7.5 1.6-.6 2-.6 2.5c0 .4-.8.6-1.7.3-1.5-.5-1.6-.4-.3.5.8.6 1.5 1.6 1.5 2.3 0 .8 1.1 1.3 2.8 1.2 1.5-.1 2.5.1 2.2.4s.2 1.4 1.2 2.4c.9 1 1.2 1.8.7 1.8s-1.5-.9-2.2-2c-1-1.7-1.5-1.8-3.2-.8-1 .7-1.7 1.4-1.5 1.7.3.2 1.2-.2 2.2-1 1.5-1.2 1.6-1.2 1 .4-.5 1.2-.3 1.6.5 1.1s.9-.2.5 1c-.4 1-.3 1.5.3 1.1.6-.3 1 .1 1 1s-.4 1.4-.9 1c-.5-.3-1.2-.1-1.5.4-.7 1 1.3.9 3-.1.6-.4 1.1-.1 1.1.7 0 1.3-.9 1.9-2.8 1.7-.3-.1-.6.6-.6 1.4s.4 1.4.9 1.4c.4 0 .8-.5.8-1 0-.6.8-1 1.8-1 1.3 0 1.4.2.4.9q-1.35.75-.6 3.6c.4 1.7.3 2.6-.3 2.2-.5-.3-1 0-1 .8 0 1.1.4 1.2 1.4.4.9-.9 1.3-.8 1.3 0 0 .6-.7 1.4-1.5 1.7-.8.4-1.5 1-1.5 1.5s1.2.1 2.7-.8c1.5-1 2.4-1.3 2-.6-.4.6-.3 1.4.1 1.7.5.3.9 2 .8 3.8-.1 2.4-.5 3.2-1.6 3-.8-.2-1.1 0-.7.5.9.8 1.1.9 5 1.3 1.7.2 1.8.3.4.7-.9.2-1.5.9-1.1 1.4.3.5.9.7 1.3.5.8-.5 1 .1 1.4 5.3.1 1.8 1 3.8 1.8 4.5.9.6 1.4 1.8 1.2 2.6-.4 1.3-.3 1.3.6 0 .8-1.1.6-1.8-.6-2.8-.9-.6-1.2-1.2-.6-1.2.7 0 1.5.5 1.8 1 .4.6 1.1.7 1.7.4.6-.4.6.1-.1 1.4-.8 1.5-.8 2.3.1 2.8.6.4.8.3.4-.4-.3-.6-.1-1.4.6-1.8s1-.4.6.1c-1.3 1.4 1.1 4.5 3 3.8 1.5-.6 1.5-.5-.2 1.2-1.9 1.9-1.8 2 1.8 3.6 3.4 1.5 3.5 1.7 1.5 2.2-1.8.5-2 .9-1 2.1.8 1 .8 1.6.1 1.9-.6.3-.5.4.2.3.7-.2 1.3-.8 1.3-1.3 0-.6.3-1.4.7-1.7.5-.3.6-.3.3.1-.3.3.1 1.3.7 2.1 1.4 1.6 2 4.4.8 3.7-.4-.3-1 .1-1.3.9-.7 1.8 3.1 5.9 4.5 5 .7-.4.8-.2.4.5-.4.6-1.5 1-2.4.9-.9-.2-1.7.1-1.7.7 0 .5-.4 1.6-.8 2.3-.6.8-.4 1.1.4 1 1.2-.3 1.4.1 1.8 3.3 0 .6.7.9 1.4.6s2.1.1 3.2.9c1 .8 1.3 1.4.7 1.4-.7 0-1.2.5-1.2 1.1 0 .5.4.7 1 .4s.7.1.4.9c-.3.9-.1 1.6.6 1.6.6 0 .8.4.5 1-.3.5-1.1 1-1.7 1s-.9-.3-.5-.6c.3-.4 0-1.9-.8-3.4s-1.2-3-1-3.4c.3-.3.2-.4-.2-.1-.3.3-.8 1.7-.9 3.2-.2 2.1-.1 2.4.6 1.3 1.1-1.8 1.3-.9 1.2 5 0 2.5.1 2.9.6 1.5.4-1.1 1.6-2.1 2.7-2.3 1.9-.2 1.9-.2.2.9-1.5.9-1.6 1.3-.5 2.6 1.5 1.8 2 4.5.7 3.7-.5-.3-.6-1-.3-1.6.5-.7.2-.8-.6-.3-.9.6-1.1.4-.5-.5.5-.9.4-1.1-.4-.6-.9.6-.9 1.1.1 2.4 1 1.1 1 1.6.1 1.9-.8.3-.7 1 .5 2.2.9 1 2 1.6 2.4 1.4s1 .2 1.4.8c.4.8.3.9-.4.5s-1.2-.2-1.2.3c0 1.2 2.6 1.5 3.3.3.2-.4.2-.1.1.6-.2.7.6 1.7 1.9 2.2q2.1.9.6.9c-.9.1-1.9-.2-2.3-.6-1-1.1-3.7-1.2-3-.2.3.5.9.7 1.4.4s1.1.4 1.5 1.5c.3 1.1 1.1 2 1.6 2 .6 0 .7-.5.3-1.2s-.3-.8.4-.4c1.2.7.5 3.6-.9 3.6-.5 0-.9.5-.9 1.1 0 .8.4.8 1.3.2.6-.6 2.1-1.3 3.2-1.6 1.8-.6 1.8-.5-.3 1.2-2.6 2.2-2.7 2.8-.7 2.8.8 0 1.2-.3 1-.7s.1-.7.8-.7 1.2 1.3 1.1 3.4c-.2 3 0 3.3 2 2.8 1.5-.5 1.7-.4.7.3-1.1.8-1.1 1 0 1.5.8.3-.2.4-2.1.1-3.5-.5-3.5-.5-1.2 1.1 1.7 1.3 2 2 1.2 3-.8.9-.8 1.5 0 2 .9.6 1.4-.1 1.1-1.8 0-.4.4-.7 1-.7s.9.7.6 1.5c-.4.8-.2 1.7.4 2.1.5.3.7 1.5.3 2.6-.4 1.4-.2 1.8.5 1.4.7-.5.8-.1.4.9-.8 2.3-2.5-.3-1.7-2.8.3-.9.1-1.7-.4-1.7-1.1 0-.9 4 .2 5.9.5.7 1.3 1 2 .8.8-.3 1.2.6 1.1 3.1-.2 3.3-.1 3.4 1.2 1.6 1.4-1.8 1.5-1.8.8.5-.5 1.6-.4 2.1.4 1.7.7-.5.9-.1.4 1.1-.3 1-.3 1.5.2 1.1.4-.4 1.6-.3 2.7.3 1.5.8 1.7 1.3.7 2.5-.9 1.1-.9 1.4 0 1.4.8 0 1 .8.6 2.1-.5 1.5-.4 1.9.4 1.5.6-.4 1.1 0 1.1.9s-.5 1.3-1.1.9c-.8-.4-.8-.1-.1 1.2.5 1.1.8 2.9.7 4.1s.2 2 .7 1.7c.4-.3.6-1.8.3-3.4s0-3.2.5-3.5c.6-.4.7-1.1.4-1.7-.5-.7-.2-.8.5-.3.9.5 1 1 .2 1.8-1.2 1.2-1.5 3.1-.3 2.4.4-.3.8.9.9 2.6.2 1.8.7 3.3 1.3 3.5.5.2 1 1.1 1 1.9 0 1.3-.2 1.4-1.7.2-1.6-1.2-1.7-1.2-.6.2.7.9.9 2 .5 2.4-.4.5-.1.5.5.1.7-.4 1.3-.4 1.4.1 0 .4.3 1.7.6 2.8.6 2.7.7 4.7.1 6.5-.3.8-.3 1.2 0 .7.2-.4 1.3-1.2 2.4-1.8 1.4-.8 1.8-.8 1.4 0-.4.6-.2 2.1.4 3.3 1 2.1 1 2.1-.9-.2l-2.1-2.5v2.2c0 1.3.5 2.3 1 2.3.6 0 1 .7 1 1.5s-.5 1.5-1.1 1.5c-.5 0-.7-.5-.3-1.2.5-.7.3-.8-.5-.4-.9.6-.8 1.3.6 2.6 1 .9 2.2 1.5 2.7 1.2s.6 0 .2.6-1.2 1-1.9.8c-.7-.1-.9-.1-.5.1s.4 1.1.1 1.9 0 1.4.7 1.4c.6 0 .8-.4.5-1s-.1-1 .5-1c.7 0 1 .6.7 1.4s-.1 1.7.6 1.9.1.3-1.3.2-1.9 0-1.2.2c.7.3.9.9.5 1.5-.4.7 0 .9 1 .5 1.4-.5 1.5-.2.6 2-.8 2.1-.7 2.4.6 1.9.9-.3 1.3-.2 1 .3s-.1 1.2.5 1.6c.5.3 1 1.1 1 1.7 0 .7-.5.6-1.4-.1-1.2-1-1.4-.9-1.2.6.2 1 .9 1.8 1.7 1.8s1.4.5 1.4 1.2c0 .6.4 1.5.9 2s.6.3.2-.5c-.4-.7-.2-1.2.6-1.2 1 0 .9-.3-.2-1.1-1.3-.9-1.3-1 0-.6.9.2 1.4 1.5 1.4 3.5-.1 2.5.3 3.2 1.7 3.2 1.1 0 1.9-.5 1.9-1.1 0-.5.5-.7 1.1-.3.8.5.8.8 0 1.4-.9.5-.8 1 .4 2 1.1.9 1.2 1.6.5 2.5-.8.9-.8 1.5 0 2 .6.3.7 1.1.4 1.7-.4.7-.2.8.4.4.7-.4 1.2-.2 1.2.3 0 .6.5 1.1 1.2 1.1.6 0 .4-.8-.6-1.9-1.1-1.2-1.4-2.1-.7-2.6 1.1-.6 1.2-.5 1.5 1.7.1.7.7 1.2 1.2 1.1.6-.1 1.1.4 1.1 1.2s-.4 1.2-.9.9c-.4-.3-.8 0-.8.6s-.5.8-1.2.4-.8-.3-.4.4c.4.6 1.3.9 2.1.5.8-.3 1.5 0 1.5.7 0 .6.4.8 1 .5.5-.3.7 0 .4.8s-.1 1.8.5 2.1c.6.4.8 1.3.5 2.1-.4.8-1 1.2-1.5.9s-.9 0-.9.5c0 1.6 1 1.4 3.4-.6 1.7-1.5 1.9-1.5.8-.1-.8 1-.9 1.9-.3 2.2.5.3.8 1.4.6 2.4-.1.9.2 2.3.8 2.9.5.7.6 1.3.1 1.3s-.2.5.6 1.1c1.3.9 1.3 1 0 .6-.8-.2-1.4-1-1.2-1.6.1-.7-.2-.9-.9-.5s-.9.3-.5-.4c.7-1.2-1.9-1-3.1.2-.4.4-.1.6.7.4s1.4.3 1.2 1c-.1.8.2 1.1.7.8s1.2.1 1.5 1c.3.8 1 1.2 1.6.9s.7.1.4.9c-.3.9-1 1.6-1.6 1.6-.5 0-.7-.4-.4-.8.3-.5-.1-.9-.9-.9-1.2 0-1.2.3-.3 1.6.7.9 1.4 1.8 1.5 2s.9-.2 1.8-.9c1-.8 1.5-.9 1.5-.1 0 .6-.5 1.1-1.1 1.1-.5 0-.7.5-.4 1 .8 1.3-.1 1.3-2.8 0-2.2-1.1-2.2-1 0 .6 1.9 1.4 2.1 1.9 1.1 3.8-1.5 2.6-1.7 5.5-.6 6.2.5.3.7 0 .6-.6-.2-.7.7-1.6 2-2.1 1.5-.6 2.1-.5 1.7.1-.3.6-1.2 1-2 1s-1.2.8-1 2c.4 2.3-.5 2.6-2.3.8-.9-.9-1.2-.9-1.2 0 0 .7.4 1.2.9 1.2s1.1.9 1.4 2.1c.4 1.5.2 1.9-.9 1.5-.8-.3-1.2-.2-.9.3.3.6-.3 1.4-1.2 2-1.1.6-1.3 1.1-.5 1.1 1 0 1 .5.1 2.1-.6 1.2-.7 1.9-.1 1.5 1.5-.9 3 1.6 2.8 4.4-.1 1.4.3 3.2.8 4 .9 1.3.9 1.3-.6.2-1.1-.9-1.5-2.3-1.3-4.3.2-1.6 0-2.9-.4-2.9-1 0-.8 6.1.3 7.8.3.6.1 1.4-.5 1.8-.7.4-.9.3-.5-.4.3-.6.1-1.4-.6-1.8s-1-.4-.6.1c.4.4.3 1.6-.3 2.6-.7 1.5-.6 1.7.6 1.3 1.1-.5 1.3-.2.9 1-.3.9-1.1 1.3-1.7.9s-.7-.1-.2.7c.6 1 .4 1.2-.8.7-.9-.3-1.9-.2-2.2.4-.4.5-.3.9.2.8 2.1-.4 3.3.2 3.3 1.6 0 .8-.8 1.5-1.7 1.5-1.5 0-1.6.2-.3.9.8.6 1.7.8 2.1.5.4-.2.9.2 1.2.9.3.9-.4 1.2-2.2 1.1-2-.1-2.7.3-2.8 1.8-.2 2-.1 2 1.2.2s1.5-1.8 3.2-.2c1 1.1 1.3 1.8.5 1.8-.7 0-1.2-.5-1.2-1 0-.6-.4-1-1-1-.5 0-.9.3-.9.7.3 2.1-.2 3.3-1.3 2.7-.7-.4-.8-.3-.4.5.6.9 1.2.9 2.4-.1 1.5-1.2 1.6-1.1.3.4-1.2 1.6-1.1 1.8.5 1.9 1.1 0 1.4.3.6.6-.7.3-2.5-.3-4-1.3l-2.7-1.7 1.9 2.1c1.1 1.2 1.6 2.3 1.3 2.3-.4.1-1.1.2-1.6.3-.5 0-1.3.4-1.7.8-.3.4.3.6 1.4.3 1.2-.2 2.3.3 2.6 1.1.3.9.1 1.2-.4.9-.6-.3-1-.1-1 .5 0 .7-.7.9-1.6.6s-1.2-.2-.9.5c.4.6 1.4.8 2.2.5s1.1-.2.8.3c-.3.6.3 1.5 1.2 2.1 1.7 1 1.7 1-.1.8-1-.2-2.1.3-2.4 1.1-.3.9 0 1.1.8.6s1.1-.4.6.3c-.4.6-1.3.9-2.1.5-1.1-.4-1.3-.1-.9 1.1.3.9 1.1 1.3 1.7.9s.7-.1.3.6c-.6.9-1.3.8-2.9-.6-1.2-.9-1.6-1.1-.9-.3 1.4 1.7 1.6 3.4.2 2.5-.6-.3-1-.1-1 .4 0 .6.6 1.1 1.3 1.1.9 0 .9.2 0 .8-.7.4-1.1 1.8-.8 3.1.3 1.8.2 2.1-.9 1.2s-1.8-.8-2.9.3c-.8.8-1.8 1.2-2.2.8-.5-.4-.5-.1-.1.5 1.4 2.5 1.4 5 0 5-1.1 0-1.1-.3-.1-1.6 1-1.4 1-1.4-.4-.3-1 .8-1.5 2.1-1.2 3.3.5 1.6.8 1.8 1.5.7.7-.9.8-.8.4.5-.3 1-.6 2.4-.6 3-.1.7-.7-.2-1.5-1.8-1.1-2.2-1.3-2.4-.9-.6.4 1.5.2 2.1-.4 1.7-.6-.3-1.3-.2-1.6.3-.4.5-.1 1.3.5 1.7.8.5.9.3.4-.6q-.75-1.35.3-.6c.9.5.8 1.5-.3 3.7-.9 1.6-2 2.7-2.4 2.4-.5-.3-1.1.2-1.5 1-.3.8-1.2 1.5-1.9 1.5-.9 0-1.3.9-1.2 2.3.3 2.6-1.9 3.2-4.5 1.3-.9-.7-.8-.3.3 1 1.5 1.8 1.5 2.3.4 3.3-1.1.9-1.7.8-2.6-.2-.6-.8-.7-1.8-.3-2.2.4-.5.1-.5-.6-.1-.8.5-1 1.2-.4 1.9 1.1 1.3 1 4.3-.2 7-.6 1.1-1.6 1.6-3.2 1.3-1.3-.3-2.7 0-3 .6-.4.7-.2.8.4.4.8-.5 1.2 0 1.2 1.3 0 1.2.4 2.1.9 2.1s.7-1 .4-2.2c-.3-1.3-.2-1.9.3-1.5.4.4.9 1.8 1.1 3 .4 4.3 1 5.9 2.4 6.8.9.5 1 .9.2.9-.6 0-1.5-.5-1.8-1-.9-1.5-2.5-.2-1.9 1.5.4.8 1.1 1.2 1.8.8s.7-.1-.1.9c-.7.8-1 1.8-.6 2.1.3.4 0 1.3-.6 2.1-1 1.1-.9 1.6.5 2.4 1.5.8 1.5.9 0 1.5-1 .4-1.5.3-1.1-.3 1-1.6-.1-1.1-1.6.7-1 1.1-1 1.4-.1.9.6-.4 1.2-.2 1.2.3 0 .6-.6 1.1-1.2 1.1-.9 0-.8.4.2 1 1.3.9 1.3 1.2-.3 2.1-1.3.8-1.5 1.4-.7 2.9.6 1.1.8 3.2.4 4.7-.4 2.2-.3 2.5.5 1.3 1.3-1.8 1.4-.1.2 1.9-.7 1.1-1 .9-1.6-.8-.6-2.1-.8-2.1-2-.5-.7 1-1.1 2.3-.8 2.9.2.7-.3 1.8-1.2 2.5-1.2 1-1.8 1-3.3-.1-1.5-1.3-1.6-1.2-.4.3 1.1 1.4 1.1 2.1-.2 4-.8 1.3-1.4 2.6-1.3 3 .1.3-.2 1-.7 1.5s-.6.3-.2-.4c1.2-2.1-1.3-1.5-5.2 1.3-2 1.5-2.9 2.4-1.9 2 1.5-.5 1.7-.2 1.2 1.5-.6 1.7-.4 2 .6 1.3.8-.4.3.6-1.1 2.3s-3.2 2.9-4.2 2.7c-1-.1-2.1.2-2.4.8-.4.7-.2.8.4.4.6-.3 1.6.2 2.1 1.3.8 1.5.7 2.2-.7 3.2-1.6 1.3-1.6 1.3-.2-.5s1.4-1.9-.8-.5c-1.2.8-1.8 1.5-1.3 1.7.6.2.6 1.3-.1 2.7-.6 1.4-1.5 2.2-2.1 1.8q-.9-.45-.3.6c.4.6 1.2.9 1.7.6.5-.4.9-.2.9.4s.8.8 1.8.5c1.2-.4 1.4-.3.4.4-.8.5-2.5.8-3.9.6-2.3-.2-2.4-.1-.9 1.5 1.9 2 2.1 3.5.4 2.5-.6-.4-.8-.3-.4.4.3.5.1 1.2-.5 1.4-1.5.5-2.1 5.8-.8 5.8.6 0 .7-.5.4-1-.3-.6-.1-1 .6-1 .8 0 .8-.4-.1-1.5-.9-1-.9-1.5-.1-1.5.6 0 1.1.4 1.1 1 0 .5.8.7 1.8.4 1.6-.5 1.6-.5 0 .9-1 .8-1.5 1.7-1.1 2 .3.4.1.7-.5.7s-.9.9-.7 2-.1 1.9-.7 1.7c-.6-.1-1.3.4-1.6 1.2-.2.8 0 1.1.6.7 1.1-.7 1 1.9-.1 3-.4.4-.2 1.3.5 2.1.6.8.7 1.3.2 1.2-3-.5-3.9.3-3.8 3.3.1 1.8-.3 3.8-.8 4.5s-.7 1.7-.4 2.2c.4.5.2 1.2-.4 1.6s-.7 1.1-.4 1.7c.4.7.2.8-.4.4-.7-.4-1.2-.3-1.2.3s-.6.8-1.4.5-1.7 0-2.2.7c-.4.8-.3 1 .5.5s1.1.2.9 2.3c-.2 3-.8 3.5-3.7 3.1-1.2-.1-1.3.1-.3 1.3s.7 1.8-1.5 3.1l-2.8 1.7 2.3-2c2.1-1.8 2.1-2 .3-1.8-1.1 0-1.8.4-1.5.8.9 1.5-1.7 2-3.4.8-.9-.8-.6 0 .8 1.5 1.9 2.2 2.1 2.8.7 2.3-.9-.4-2.5-1-3.5-1.4s-.8.2.8 1.5c1.8 1.6 2 2 .6 1.6-2.2-.8-3.9 1.5-2.5 3.2.7.8.6 1.4-.1 1.9-.6.3-.7 1.2-.3 1.8.8 1.3-2.7-1.2-3.9-2.8-.5-.6-.5.5-.2 2.2.7 3.5-.2 4.2-2.6 2-1.2-1-1.2-.9-.1.6 1.3 1.6 17.4 1.7 322.6 1.7 303.9 0 321.3-.1 322.6-1.8 1.2-1.5 1.2-1.6-.2-.4-1.4 1-1.8 1-2.2-.2-.4-.9-.1-1.8.5-2.2.7-.5.8-.2.3.6-.6.9-.4 1.1.4.5.9-.5 1-1 .2-1.8-1.3-1.3-1.5-3.1-.3-2.3.5.3.9-.1.9-.9 0-1.3-.3-1.3-1.7 0-1.5 1.4-1.9 1.4-3.1-.2-1.3-1.6-1.2-1.7.3-.5s1.7 1.1 1.6-.5c0-1 .3-2.6.7-3.6s.3-1.7-.4-1.7c-.6 0-1 .5-.9 1.1.2.6-.3 1.3-1 1.4-.7.2-.8.1-.2-.2.7-.3.7-1-.2-2.1-1-1.2-1-1.4 0-.8.6.4 1.2.2 1.2-.3 0-.6-.5-1.1-1.2-1.1-.6 0-.8-.3-.5-.6.4-.4 1.3-.2 2 .5 2 1.6 4-.8 2.5-2.9-.8-1.2-.9-1.2-.4.2.7 2.2-1 3.3-1.8 1.2-.4-.9-.1-2.4.6-3.2 1.1-1.3 1.1-1.4 0-.8-.9.5-1.3.3-1.1-.5q.45-3.9-1.2-3.9c-.5 0-.7.6-.3 1.2 1.1 1.8 1.2 4.8.2 4.2-.5-.3-.7-1.3-.6-2.2.2-1-.3-1.6-1-1.4-.8.1-1.1-.2-.8-.7.4-.5.3-1.1-.1-1.4-.5-.2-.2-.2.5-.1.6.2 1.2-.4 1.2-1.2 0-.9-.5-1.2-1.2-.8-.8.5-.7 0 .2-1.1 1.4-1.7 1.3-1.7-1-1-2.4.7-2.4.7-.5-.9 1.1-.8 1.6-1.6 1-1.6-.5 0-.4-.4.4-.9.9-.6 1-1.4.5-2.2-1-1.7-1.4-7-.6-8.4 1-1.7 1.1-3.5.1-2.9-.5.3-.7.9-.4 1.4s-.9 1.6-2.7 2.5c-3.1 1.4-3.2 1.4-1-.1 2.6-2 2.9-3.5.5-2.8-1 .2-.8-.1.5-.7 2.5-1.4 2.9-2.6.7-2.6-.8 0-1.2.4-.9.9.3.4 0 .8-.6.8-.7 0-1-.7-.6-1.5.3-.8-.2-1.9-1.2-2.4-2.3-1.4-.6-1.4 2 0 1.5.8 1.9.8 1.4 0-.4-.6-.1-1.1.6-1.1s.2-.7-1-1.6c-1.3-.9-1.9-2-1.5-2.7 1.1-1.7 1.3-3.8.3-3.2-.4.2-.7-.7-.7-2.1 0-1.9.4-2.4 1.6-2 1.1.4 1 .1-.4-.9-2-1.6-2.7-5.8-1.3-8.7.6-1.3.5-1.6-.6-1.2-.8.3-1.3 1.4-1.1 2.5.2 1 0 2.1-.5 2.4s-.7-.3-.5-1.5c.2-1.1 0-2.2-.6-2.5-1.4-1-1.1-2.5.5-1.9.8.3 1.7 0 2.2-.7.4-.7.3-1-.3-.6-1.7 1.1-5.8-2.7-4.7-4.4 1.1-1.8 1.2-3.2.1-4-.5-.3-.3-.9.5-1.1 1-.4 1.4.3 1.4 2.7 0 1.9-.4 3.1-.8 2.9-.4-.3-.8-.1-.8.4 0 1.5 3.2 2.4 4.4 1.2.8-.8.7-1-.4-.5-1.2.4-1.6-.1-1.6-2 0-1.5.5-2.4 1.1-2.1.7.2 1.2-.2 1.2-.9s-.6-1.1-1.3-.8c-.9.3-1.2-.5-.9-2.9s.2-2.9-.5-1.8c-.8 1.2-1 1-1-.8 0-1.6.4-2.1 1.3-1.6.6.4.9.4.5-.1-.4-.4 0-1.4 1-2.1 1.6-1.2 1.6-1.2-.3-1.1-1.6.2-2-.3-1.8-2.5.1-1.6-.2-2.8-.6-2.8-.5 0-1.2-.8-1.6-1.8-.5-1.4-.4-1.5.6-.4.7.6 1.8 1.2 2.3 1.2.6 0 .4-.5-.4-1-1.2-.8-1.3-1.2-.2-1.9s1-.9-.3-1.4c-1.1-.5-1.3-1.1-.7-2.4.5-1 .7-2.4.5-3.1-.4-1-.8-1-2.1 0-1.5 1.1-1.5 1.1-.6-.2 1.1-1.6 1.1-4.4 0-7.1-.8-1.9 2-3.4 3-1.7.5.7.2.8-.6.3-.9-.6-1.1-.4-.5.5s.4 1.1-.4.5c-1-.6-1.1-.3-.3 1.1.5 1.1.7 2.6.4 3.4-.2.8-.1 1.2.3.8s.8-1.8.9-3c.1-1.4.7-2.2 1.6-2 1.1.3 1.1 0 .1-1.2-.7-.8-1-2-.7-2.5.4-.6-.5-.7-2.6-.1-3 .9-3.1.8-1.4-.5 1.1-.8 2.3-1.5 2.8-1.5.4 0 .8-.5.8-1.1 0-.8-.4-.8-1.3 0-1.1.8-1.4.5-1.4-1.9 0-1.7.4-3 .9-3 .4 0 .8-.5.8-1 0-.7-.7-.7-2.2 0l-2.3 1.1 2.3-1.7c1.2-.9 2.2-2.3 2.2-3.1s.4-1.2.8-.9c.5.3.9-.1.9-.9 0-1.8-1.9-2.5-4.8-2-1.2.2-1.8.1-1.5-.3.4-.4 1.2-.8 1.7-.8.5-.1 1.4-.2 1.9-.3.7-.1.6-.7-.2-1.5-.7-.8-1.7-1.2-2.1-.9-.5.3-.3-.4.5-1.6 1.3-2.2 3.4-3 2.2-.9-.4.8-.3 1 .2.5s.9-1.2.9-1.5c0-.4.4-1.3.8-2 1-1.5 0-3.3-1.6-2.6-.7.2-1.8-.5-2.5-1.6-.7-1.2-.8-2-.2-2 .5 0 1 .4 1 1 0 .5.7 1 1.5 1s1.5-.5 1.5-1.1c0-.5-.5-.7-1.2-.3-.8.5-.9.2-.5-.9.3-1 .3-1.7-.1-1.7s-1.3-.9-1.9-2c-.9-1.4-1-2.1-.1-2.6.7-.4.8-.3.4.4-.4.6.4 1.6 1.6 2.3 1.3.6 2 .8 1.6.4-.4-.5-.2-1.5.5-2.4 1.1-1.4 1-1.5-.7-.1-1.8 1.4-1.9 1.4-.7-.8 1.3-2.4-.2-6.8-2-5.7-.5.4-.9.2-.9-.3 0-.6.7-1.3 1.6-1.6 1-.4 1.3-.2.8.6-.4.7-.3.8.4.4 2.1-1.3 1.2-2.6-1.4-2.2-2.1.4-2.4.3-1.4-1 .7-.7.8-1.4.3-1.4s-1-.6-1-1.3c0-.8.6-1.4 1.2-1.4.7 0 1.1 1.1.9 2.4-.1 1.3.2 2.1.6 1.8.5-.3.7-1.9.5-3.5-.3-1.8 0-2.8.5-2.5.6.4 1 .1 1-.4 0-1.5-2.7-1.4-3.3.1q-.6 1.5-.6 0c-.1-.7.6-1.5 1.4-1.8 1.7-.7 1-2.5-.8-2-.7.1-.9.1-.4-.1.4-.3.4-1 0-1.6-.4-.7.2-.5 1.2.3 1.7 1.4 1.8 1.3 1.2-.2-.3-1-.3-1.7.1-1.7 1.9.3 2.2-.2.8-1.6-1.6-1.7-1.1-4.6.7-4.2.7.1 1.1-.4.9-1.1-.1-.8.2-1.1.8-.7.5.3 1.9 0 3.1-.8l2.1-1.5-2.2-.7c-1.7-.6-1.9-.9-.9-1.6.8-.5 2.1-.2 3.4.9 1.5 1.3 1.7 1.3.8.1-.7-.8-.9-2.6-.6-3.9.5-1.8.3-2.1-.8-1.5-1.2.8-1.2.6 0-.8 1.7-2.1 2-5.9.6-7-.6-.5-.4-.7.5-.4 1.7.4 2.1 3.3.7 6.2-.7 1.5-.7 1.7.2.9.6-.6 1.3-2 1.6-3.2.6-3.2 1.5-4.3 2.7-3.6.7.4.8.2.4-.5-.6-.9-1.1-.9-2.1-.1-.9.8-1.4.6-1.9-.5-.3-.9-.2-1.3.3-1s1.2.1 1.6-.5c.3-.5-.1-1-.9-1-1.9 0-2.1-1.6-.4-2.6.7-.4.8-.3.4.4-.6 1.1.3 1.4 3.2 1.1.4 0 .6-.7.4-1.6-.2-.8.1-1.3.5-1 .5.3 1-.4 1-1.6.2-1.9 0-1.8-1.6.7-1.5 2.3-1.9 2.5-2.5 1.1-.9-2.4-.7-3.2.3-1.6.7 1.1 1.1 1 1.9-.6 1.1-2 3.6-2.4 6.2-.8 1.2.7 1.3.6.3-.7-.7-.8-.9-1.9-.5-2.4.4-.4 0-.3-1 .4-1.2.9-1.8 1-2.3.2-.4-.6-.4-1.4-.1-1.7.3-.4.6-.1.6.6s.5.9 1 .6c.6-.4.8-1.1.4-1.6-.3-.5 0-.8.8-.7.8.2 1.2-.5 1-1.7-.2-1.6-.1-1.7.7-.5.5.8.8 1.7.5 2.1-.5.8 2.7 2.2 3.4 1.4.3-.3 0-.5-.6-.5-.7 0-1.2-1.2-1.1-2.8 0-1.5.3-2.1.6-1.5.2.7 1.2 1.3 2.1 1.3 1.1 0 1.3-.3.6-.8-.6-.4-1-1.9-1-3.4 0-1.9.3-2.4 1.1-1.8 2 1.7 2.6-.2.8-2.4-1.7-2-1.7-2 0-.7 1.5 1.2 2.1.9 1.8-1.1 0-.4 1.3-.6 3.1-.4l3.2.4-2.5-1.9c-1.3-1-2-1.9-1.5-1.9s.3-.6-.4-1.4c-.6-.8-1.9-1.2-2.8-1-1.5.5-1.4.4.1-.6.9-.6 1.4-1.6 1.1-2.2-.4-.7-.2-.8.4-.4 1.1.7 1.7-.6 1.3-2.7-.1-.5.4-.5 1-.1.9.5 1 .2.6-.9-.3-.9-.3-1.6.1-1.6 2 .3 2.5-.2 1.2-1.2-1.3-.9-1.3-1 .2-.6.9.3 1.9.1 2.2-.6.3-.9.5-.9.5 0 .1.7.6 1.3 1.2 1.3s.9-.7.5-1.5c-.3-.8-.1-1.5.4-1.5s.7-.7.4-1.5c-.4-.8-.1-1.6.5-1.6.6-.1 1.7-.2 2.4-.3.6 0 1.2-.6 1.3-1.1 0-.6.4-1.8.9-2.8.6-1.5 1-1.6 1.6-.5 1.4 2.1 1 3.1-.8 2.3-1.4-.5-1.5-.3-.6.6 1.6 1.6 3.5.1 2.8-2.2-.4-1-.2-1.9.4-1.9.5 0 1.1.8 1.3 1.7.3 1.5.5 1.4 1-.4.3-1.3.1-2.6-.4-3-.7-.4-.8-.1-.3.7.5.9.4 1.1-.4.6-.9-.6-.9-1.1-.1-2.1s.8-1.4-.2-1.7c-.8-.3-.7-.6.4-1.1 1.3-.4 1.6-.1 1.3 1.4-.4 2 .9 2.6 2 .9.3-.6.1-1-.6-1s-.9-.3-.6-.6c.3-.4.2-1.5-.4-2.6-.8-1.5-.7-1.8.3-1.6.8.2 1.4-.1 1.5-.6s.7-1.2 1.5-1.7q1.35-.9-.9-.6c-1.2 0-2 .4-1.7.8.6 1-2.3.5-3.3-.5-.4-.4-.2-.6.6-.4.7.2 1.6-.3 1.9-1.1.2-.8.1-1.1-.4-.8s-.9-.8-.9-2.3c-.1-1.6.3-2.6.7-2.4.4.3.8-.2.8-1.1s-.4-1.4-.8-1.1c-.5.3-.9-.1-.9-.9s.4-1.2.9-.9c1.2.8.6-2.9-.7-3.9-.6-.5-.2-.6.8-.3 1.2.4 1.7.2 1.4-.6-.2-.7-1.1-1.2-1.8-1-.8.2-1 0-.6-.5.5-.4 1.4-.8 2-.8.7 0 1.3-.6 1.3-1.3.1-.6.3-1.5.4-2 .1-.4.2-1.1.1-1.5-.1-.5.3-.6.9-.2.5.3 1-.1 1-1 0-.8 1.1-2 2.5-2.5s2.5-1.2 2.5-1.4c0-.3-.7-.3-1.5 0-.8.4-1.5.1-1.5-.5s.4-1.1 1-1.1c.5 0 .8-1.4.6-3-.2-2 .2-3.4 1.3-4 .9-.5 1.1-1 .5-1-.7 0-1.1-1.8-1.1-4.3 0-2.4-.3-5-.8-5.8-.6-1.1-.5-1.2.6-.2 1.6 1.5 3.3 1.7 2.4.3-.3-.6-.2-1 .3-1 .4 0 .8-1.5.8-3.3-.1-1.7.6-3.7 1.4-4.4 1.3-1 1.1-1.1-.8-.6-1.3.3-2.1 1.1-1.8 1.8.2.7-.1 1.8-.7 2.4-.8.8-.8 1.1.1 1.1.6 0 .9.7.6 1.5-.4.8-1 1.3-1.4 1-.9-.6-.8-2.4.2-4 .4-.6.3-1.7-.3-2.5-.5-.8-.9-2-.9-2.5 0-.6.4-.4.9.4.7 1.1 1.3.9 3.2-1 1.3-1.3 2.8-2.3 3.2-2.1.5.1.6-.2.2-.8-.3-.6-1-.8-1.5-.5-1.1.7-3.2-3-2.3-3.9.3-.3 0-.6-.7-.6-.9 0-.7-.5.6-1.4 1.4-1.1 2.3-1.2 3.4-.3 1 .7.9.4-.2-.8-1.3-1.4-2-1.6-3.1-.7s-1.4.8-1.4-.3c0-.7.5-1.3 1.1-1.2s1-.9.8-2.2c-.2-1.4 0-2.1.6-1.7s1.4.1 1.8-.5c.4-.8.3-.9-.5-.5-.6.4-1.4 0-1.8-1.1-.4-1-1.1-2.1-1.7-2.5-.7-.5-.4-.8.6-.8.9 0 1.9.8 2.2 1.7.2 1 .4.7.3-.7-.2-1.5-.8-2.4-1.5-2.2-.8.1-1.1-.2-.6-.9.3-.6 0-1.6-.7-2.1-1.1-.8-1.1-.9.2-.5.9.3 2.1-.4 2.9-1.6 1.2-2 1.1-2.1-.2-.9-1.3 1-1.7 1-2.1-.3-.4-.8-.3-1.4.1-1.4 1.9.3 2.6-.2 1.3-1-1-.7-1.1-1.3-.1-3.1.9-1.7.9-2.1 0-1.5-.9.5-1 .1-.5-1.6.7-2 .6-2.2-.7-1.2-1.2 1-1.5 1-1.5-.2 0-.8.4-1.2.9-.9.4.3.8-.9.8-2.6s.4-2.9.8-2.6c.4.2.8-.3.8-1.3 0-1.2-.6-1.7-1.8-1.3-1 .2-1.8-.1-1.8-.7s.7-1.1 1.7-1.1c.9 0 1.4-.3 1-.6-.3-.4-2.1-.1-3.9.5l-3.3 1.1 2.5-2.2c1.4-1.3 2-1.9 1.3-1.4-.9.6-1.8.4-2.6-.4q-1.35-1.35 0-.6c.6.3 1.5.1 1.9-.5.5-.8.3-.9-.5-.5-.8.5-1.4 0-1.8-1.3-.3-1.1-.9-1.8-1.4-1.5s-.6-.3-.2-1.2c.5-1.3.3-1.5-.8-.9-.8.5-.5-.2.6-1.5l2-2.3-2.4.8c-2.1.6-2.2.5-1-.7.7-.8 2-1.4 2.9-1.3s1 0 .2-.2c-1-.4-1-1 .3-2.9.8-1.3 1.1-2.4.5-2.4-.5 0-1 .5-1 1.1 0 .5-.5.7-1 .4-.8-.5-.7-1.1.1-2.1 1.4-1.7-.2-1.9-1.9-.2-.7.7-1.2.8-1.2.4 0-.5.8-1.5 1.7-2.2 1.4-.9 2.1-1 3.2-.1 1.2 1 1.2.9 0-1-1.2-2-1.5-2.1-2.9-.8-1.5 1.3-1.7 1.3-1.7 0 0-.8.4-1.2.9-.9 1.4.9.9-.9-.9-3-1.7-1.9-1.7-2-.1-.7 1.5 1.1 1.9 1.1 2.4-.3.3-.9 1-1.4 1.4-1.1.5.3 1.2 0 1.6-.6.4-.7.3-1-.2-.7s-2 .2-3.3-.3c-1.9-.7-2.2-1.2-1.3-2.1 1.4-1.4 1.6-3.2.4-2.4-.5.3-.8-.8-.8-2.4s.3-2.7.8-2.4c1.4.9.9-.9-.9-3-1.7-2-1.7-2 0-.6 1.7 1.2 1.8 1.2 1.5-.6-.1-1-1-2.2-1.8-2.6-1.1-.6-1-.7.5-.5s2 1 1.9 2.9c0 1.5.2 2.5.5 2.3.2-.3 1 0 1.7.6.8.7 1.4.7 1.9-.1.4-.6.1-.9-.6-.8-.6.2-1.4-.3-1.7-1.1q-.45-1.35.9-.6c.8.5.6 0-.3-1.2-1-1.1-1.8-2.3-1.8-2.8 0-.4.8-.1 1.8.6 1.6 1.3 1.6 1.3-.1-.7-.9-1.1-1.4-2.4-1-2.7.8-.8-4.8-5.8-5.8-5.1-.4.2-1.1-.1-1.5-.7q-.6-1.05.3-.6c.6.4 1.3-.2 1.6-1.3.3-1.3 0-2-1-2-.8 0-1.2.4-.9.9s-.1 1.1-.9 1.4c-.9.4-1.2.1-.9-.7s.1-1.7-.5-2c-.6-.4-.7-1.4-.4-2.3.5-1.2.3-1.4-.7-.8-.9.6-1.1.4-.5-.5s.4-1.2-.7-.8c-1.1.5-1.4 0-1.3-2 .1-1.5-.1-3.2-.4-3.7-.3-.6-.6-1.3-.7-1.8-.1-.4-.3-.9-.4-1.2s-.3-1.1-.4-1.8c-.1-.6-1.1-1.1-2.4-1.1-1.3.1-2-.1-1.7-.5.4-.3 1.2-.6 1.8-.6.7 0 1.3-1 1.5-2.3.2-1.2.8-2 1.3-1.7s.6-.1.2-1c-.4-1.2-.8-1.3-1.3-.5s-1 .6-1.5-.7c-.5-1-.7-2.2-.6-2.6.1-.5-.3-.6-.9-.2-.5.3-1 .2-1-.4 0-.5.6-1.2 1.3-1.5.6-.2.3-.4-.8-.3-1.1.2-2.5.6-3.1 1-.8.4-1.1-.4-1-2.5 0-2-.5-3.3-1.4-3.5-1.2-.4-1.2-.3-.2.5 1.1.7 1 1.1-.4 1.6-.9.3-1.9.4-2.2.1s-.1-.5.4-.5c1.5 0 1.5-5 0-6.6-1.1-1.1-1.6-1.1-1.9-.1-.3.6-.6.7-.6.1-.1-.5.8-2 1.9-3.2 1.2-1.2 1.6-2.2.9-2.2-.9 0-.9-.3 0-1.4.8-1 .9-1.6.1-2.1-.6-.4-1-.3-.9.2.1.4 0 1.1-.1 1.5-.1.5-.3 1.2-.4 1.8 0 .5-.4 1-.8 1h-1.3c-.2 0 0-1.1.5-2.4.6-1.7.5-2.9-.6-4.2-1-1.4-1.4-1.5-1.2-.4.2.8.7 1.8 1.2 2.1.4.4.3 1-.3 1.3-.9.6-1.6-.7-.9-1.7.1-.1-.4-1.2-1.1-2.5-1-1.9-1-2.6.1-4 1.1-1.3 1.1-1.5-.2-1-.8.3-2.1 0-2.7-.7-1-1-.9-1.4.3-1.9.8-.3 1.3-.2 1 .2-.3.5.1.9.9.9 1.1 0 1.2-.4.4-1.4-.9-1-.8-1.3.1-1.3 1 0 1-.3 0-1.5-.7-.8-1.6-1.2-2.1-.9s-.9 0-.9-.6-.5-.8-1.1-.4c-.8.5-.8.1 0-1.4 1.4-2.7 1.4-3.5-.1-2.6-1 .6-1 .4 0-.7 1.5-1.6 1.6-3.3.2-2.4-.6.4-.9.1-.8-.7.2-.7-.3-1.2-.9-1-.7.1-1.3-.2-1.3-.8 0-.5.4-1 .9-1s.9-1.4.9-3.1c-.1-1.8-.4-2.5-.9-1.8-.4.7-.5 1.9-.2 2.8.4 1.3.3 1.3-.5.2-.6-.8-.7-2.1-.4-3 .5-1.4.4-1.4-1.1-.2-1 .8-2 1.1-2.4.7-.3-.3-.2-.6.4-.6s1.3-.9 1.6-1.9c.5-2.2-2-2.3-3.4 0-1.2 1.9-1.1.2.1-2.1 1.2-2.2-1.3-5-2.6-2.9-.5.8-.3.9.6.4.9-.6 1.1-.4.5.5s-.4 1.1.6.5c1.1-.6 1.2-.5.1.6-1 1.1-1.5.9-2.8-.9-.8-1.2-1.9-2-2.3-1.8-.8.5-1-.3-1.3-4.7-.2-2.2-1.4-3.7-3.2-3.7-.6 0-.1.7 1 1.6 1.8 1.4 1.8 1.5-.4.4-2.3-1.1-2.5-3.7-.3-3.2.7.1.9-.2.6-.8-.4-.6-1-.9-1.3-.6s-1.1.1-1.8-.5c-.8-.7-1.4-.6-2 .2-.5.8-.3.9.6.4.9-.6 1.1-.4.5.5s-.4 1.1.6.5c1.1-.7 1.2-.6.2.6s-1 1.8 0 2.9c1 1.2.9 1.2-.5.1-1-.7-1.6-1.7-1.3-2.1.6-1-3-4.2-3.8-3.3-.4.3-.7.1-.7-.5 0-1.5 1.3-1.5 2.8 0 .9.9 1.2.9 1.2 0 0-.7-.5-1.2-1-1.2-1.2 0-.9-2.2.5-3.3.6-.4.2-.7-.9-.5-1 .2-2.1-.3-2.4-1.1-.2-.8 0-1.1.5-.8s1.5.2 2.2-.2c.9-.6 1-1.1.2-1.5-.6-.4-1.1-.2-1.1.4s-.4.8-1 .5c-.5-.3-1-1.3-1-2.1s.4-1.3.8-1c.5.3.9-.1.9-.9 0-2-.7-1.9-2.3.2-.7 1.1-.9 2.2-.4 2.8s.4 1.7-.2 2.5c-.8 1.2-.9 1.2-.4-.2.3-1 .1-2-.4-2.3-.6-.4-.3-1.9.6-3.8l1.7-3.2-2.3 2-2.4 2 1.7-2.4c1.2-1.8 1.3-2.9.6-4.3-.5-1-.7-1.8-.4-1.8s.1-1-.6-2.1c-.8-1.6-.8-2.3.1-2.9.9-.5.9-.9.1-1.4-.6-.4-1.1-.2-1.1.5 0 1.6-1.5.1-1.5-1.4 0-.7.6-1.8 1.5-2.5 1.3-1.1 1.3-1.1-.1-.6-1 .3-1.9-.2-2.3-1.1-.3-1-1.2-1.5-1.9-1.2s-1.3-.3-1.3-1.3.4-1.6.8-1.4c.4.3.8 0 .8-.6s.3-.9.8-.7c.4.3.8-.6.8-1.9.1-1.6-.3-2.4-1.5-2.4-1.1 0-1.2.3-.4.8s.9 1.3.3 2.2c-.8 1.2-1 1.1-1.1-.5-.1-1.1 0-2.5.1-3 .2-.6.2-2 .1-3.3 0-1.3.3-2.1.8-1.7 1.1.6 2.6-1.3 1.7-2.2-.3-.4-2.1.4-3.9 1.7-2.6 1.9-2.9 2-1.4.3 1.9-2.2 2.3-3.8.7-2.8-.6.4-.9.1-.8-.7.2-.7-.3-1.2-1-1-.8.1-1.1-.2-.7-.8.5-.8 1.1-.7 2.1.1s1.4.8 1.4.1c0-.6.6-.9 1.4-.6s1.7 0 2.2-.7c.4-.8.3-1-.5-.5-.6.4-1.9.2-2.8-.6-1.4-1.1-1.6-1.1-.8.1.6 1 .4 1.2-.4.6-.9-.5-.9-1.1-.3-1.7s.8-1.6.5-2.4c-.4-1-.8-1-1.8-.1-.7.7-1 1.6-.7 2.1s0 .6-.7.2c-.9-.6-.9-1.1-.1-2.1 1.3-1.5-.3-3-2-2-.6.4-.9.1-.8-.6.2-.7-.2-1.3-.9-1.4-.6 0-1.5-.4-2-.9q-.6-.75.3-.3c.7.4 1.5 0 1.8-.9.8-2.2.8-2.4-.6-2-.7.1-1 .1-.5-.1 1.3-.8.7-2.5-.7-2-1 .4-1.3.1-.9-.8.3-.8.8-1.3 1.2-1 .4.2.8-.2.8-1s-.4-1.2-.9-.9c-.8.5-1.2-.9-.9-3.6.2-1.3 0-1.3-.8-.1-.6 1-.6 2.1 0 3.2 1.1 2.1-.1 3.1-2.1 1.8-.8-.5-1-.9-.4-.9s1.1-1.4 1.2-3c0-1.9-.4-3-1.3-3-.8 0-1.7-.4-2-1-.3-.5 0-.7.8-.4s1.4-.1 1.4-1c0-.8-.4-1.3-.9-1-.8.5-1-.6-1.2-5.1 0-1.1-.7-2.3-1.6-2.7-1.2-.5-1.2-.7.3-.7.9-.1 1.7-.4 1.7-.7 0-.4-.8-1.3-1.7-2.1-1.6-1.3-1.6-1.3.5-.3 2.9 1.4 4.1.6 1.4-.9-1.1-.6-2.2-1.8-2.6-2.8-.5-1.5-.4-1.5.9.1.8 1.1 1.5 1.6 1.5 1.2 0-.5.6-.3 1.4.3 1 .8 1.6.9 2.1.1.4-.6.1-.9-.6-.8-.7.2-1.4-.2-1.4-.7-.2-2.5-1.7-5.5-2.5-5-.5.3-1.1.1-1.5-.5s-1-.8-1.4-.6c-.4.3-.8-.1-.8-.9 0-1.3.4-1.2 1.9.2 1.4 1.3 1.8 1.3 1.8.2.1-1 .5-.8 1.5.5.8 1.1 1.5 1.5 1.5.9 0-.7-.5-1.5-1-1.8-.6-.4-.8-1.1-.5-1.6.4-.5 0-1.2-.9-1.5-.8-.3-1.2-1.3-.9-2.2.4-1.5.3-1.5-.6-.2-1.5 2.1-1.4 3 .5 3 .8 0 1.2.4.9 1s-2.3-.1-4.6-1.7c-2.7-1.8-3.7-2.9-3-3.6s.6-1.6-.6-2.9-1.3-2.1-.5-3.1c.9-1 .8-1.8-.4-3.3-1.4-1.8-1.4-1.8-.4.6s1 2.4-.4.6-1.4-2.2-.1-4.2c1.8-2.8 1.9-3.4.4-3.4-.5 0-.7.6-.3 1.2.5.8.1.8-1.2-.2-2.9-2.2-3-2.4-1.3-1.7 1.4.5 1.7-.1 1.4-3.8-.1-2.5.2-4.2.7-3.9.4.3.5 1 .2 1.6-.4.6-.3.8.3.5 1.1-.7 1.1-4.3 0-5.3-1.5-1.5-.6-2.6 1-1.3 1.1 1 1.4 1 .9.1-.4-.7-.2-1.2.4-1.2s.8-.5.4-1.1c-.5-.8-.9-.8-1.4.1-.5.8-1 .9-1.4.2-.4-.6.2-1.6 1.1-2.2 1.1-.7 1.2-1 .3-.7-1.4.3-5.5-6.1-4.5-7.1.3-.3.5.1.5.9.1 1 .5.9 1.5-.5 1.3-1.8 1.4-1.8 1.2.2 0 1.1-.5 1.8-1 1.5s-.4.4.2 1.6c.7 1.1 1.3 2.1 1.4 2.1.6 0 .1-6.9-.5-7.5-.4-.4-.3-1.6.3-2.6.7-1.3.6-1.9-.2-1.9-.6 0-.8-.7-.5-1.6.3-.8.2-1.3-.3-1s-1.1-.1-1.5-.9c-.3-.8 0-1.7.6-2.1s.8-.3.5.3c-.3.5.1 1 .9 1 1 0 1.1-.4.4-1.1-1.4-1.4-1.3-2.9.2-2 .7.5.8.3.4-.5-.6-.9-1.3-.8-2.9.6-1.1 1-1.7 1.2-1.3.5s.2-2.1-.6-3c-1.2-1.6-1.1-1.6.6-.2 1.8 1.4 1.8 1.3 1.1-1-.4-1.4-1.3-2.8-1.9-3.2-.8-.6-.8-.8.1-.8.7 0 1.7.8 2.2 1.7.9 1.5 1 1.6 1.1.2 0-.9-1.1-2.1-2.5-2.7-1.9-.9-2.5-.9-2.5.1 0 .8-.4.7-1-.3-.6-.9-.6-1.8 0-2.4 2.6-2.6.6-3.1-4.2-1.1-1.1.4-1.8.3-1.8-.5 0-.6.4-.9.9-.5.5.3 1.2.1 1.6-.4.7-1.2-4.5-.4-6.1 1-1.7 1.4-2.6-1.7-1.3-4.4.9-1.9.8-2-.3-.6-1.5 1.9-6.5 2.2-7.1.5-.2-.6-.2-.1 0 1.1.2 1.3-.2 2.3-.8 2.3-.7 0-.9-.3-.6-.6.3-.4.2-1.4-.3-2.4-.9-1.7-4.6-2-7.1-.4-.7.4-.9.3-.5-.4.9-1.5-57.4-1.3-59.3.2-1.1.8-1.3.8-.7-.2.5-.8 0-1.2-1.4-1.2-1.3 0-1.9.4-1.4 1.2s.3.8-.7.2c-1.4-.9-7.6-1.4-8.3-.6m3.4.8c0 .8-1.9 1.3-2.4.6-.3-.5.1-.9.9-.9s1.5.2 1.5.3m72.4.2c.3.5-.1.9-.9.9s-1.2-.4-.9-.9c.3-.4.7-.8.9-.8s.6.4.9.8m11 3.8c.3.8.2 1.2-.4.9s-1-1-1-1.6c0-1.4.7-1.1 1.4.7M611.3 8c-1 1.1-1.9 2-2.1 2-.1 0 .2-.9.8-2s1.5-2 2-2c.6 0 .2.9-.7 2m2.8 8.7c1.3 1.6 1.2 1.7-.3.4-1-.7-1.8-1.5-1.8-1.7 0-.8.8-.3 2.1 1.3M19 19c-.6 1.1-1.3 2-1.6 2-.2 0 0-.9.6-2s1.3-2 1.6-2c.2 0 0 .9-.6 2m22.4-.2c.3.5-.1.9-.9.9s-1.2-.4-.9-.9c.3-.4.7-.8.9-.8s.6.4.9.8m18.1 3.4c.5-.4.5-.1.1.6-.6 1-1.1 1-2.2.1-.8-.6-1.4-1.4-1.4-1.6 0-.3.6 0 1.3.6.8.6 1.8.7 2.2.3m557.1 1.7c-.4.5-.1 1.1.6 1.3 1.4.5 2 5.8.6 5.8-.4 0-.6-1.1-.4-2.4.3-1.6-.1-2.7-1-3-1.3-.5-1.1-2.6.2-2.6.3 0 .3.4 0 .9M70 27c.6 1.1.7 2 .2 2-.6 0-1.2-.9-1.5-2s-.3-2-.1-2 .8.9 1.4 2m7.4 1.1c-.3.5-1 .7-1.5.3-.5-.3-.7-1-.3-1.5.3-.5 1-.7 1.5-.3.5.3.7 1 .3 1.5m-69 .5c.3.8.2 1.2-.4.9s-1-1-1-1.6c0-1.4.7-1.1 1.4.7m610.2 12.9c.1.8-.1 1.7-.5 1.9-.4.3-.7-.6-.7-1.9 0-2.5.8-2.5 1.2 0m-504.3 2.1c-.1.5-.7 1-1.5 1.2-.9.2-.8 0 .2-.7 1.3-.9.8-1.5-1.2-1.3-.3.1-.9-.6-1.2-1.5-.6-1.4-.4-1.4 1.6-.1 1.3.9 2.2 1.9 2.1 2.4m364.1 2.2c.3.5-.1.9-.9.9s-1.2-.4-.9-.9c.3-.4.7-.8.9-.8s.6.4.9.8m141.6.9c0 .3-.6.3-1.4 0-.7-.3-2 0-2.7.6-1.1 1-1.1.9 0-.5 1.1-1.5 4.1-1.5 4.1-.1m-146.3 1.8c.4.4.2.5-.4.1-.8-.4-1.3-.2-1.4.6q0 1.65-.6 0c-.4-1-1-.9-2.7.5-2.1 1.8-2.1 1.8-.3-.4 1.8-2.1 4-2.4 5.4-.8m-354 1c0 .8-.4 1.2-.9.9s-.6-1-.3-1.5c.9-1.3 1.2-1.1 1.2.6m496.9 2.6c.1 1.9-.1 2.6-.6 1.9-.4-.7-.6-2-.5-2.9.7-3.2 1-2.9 1.1 1m-154 5.4c-.2.7.1 1.8.7 2.5.9 1 .9 1.1 0 .6-.7-.4-1.7-1.5-2.2-2.5-.8-1.3-.6-1.8.5-1.8.8 0 1.3.6 1 1.2M617 61c-.6 1.1-1.3 2-1.6 2-.2 0 0-.9.6-2s1.3-2 1.6-2c.2 0 0 .9-.6 2m-161 3c0 .5-.5 1-1.1 1-.5 0-.7-.5-.4-1 .3-.6.8-1 1.1-1 .2 0 .4.4.4 1m162.5 2c.3.5.1 1-.4 1-.6 0-1.1-.5-1.1-1 0-.6.2-1 .4-1 .3 0 .8.4 1.1 1m-180.9 5.3c.1.9-.2 1.5-.7 1.1-.5-.3-.7-1-.4-1.5.4-.5.2-.9-.4-.9-.5 0-1.1.8-1.3 1.7-.3 1.5-.5 1.5-1-.3-.4-1.7-.1-2.1 1.5-2 1.1.1 2.1.9 2.3 1.9m4.8-1.4c.3.5-.2 1.5-1.1 2.2-1.2 1-1.4 1-.9.1.4-.7.2-1.2-.6-1.2-.9 0-.9-.3.2-1 1.8-1.2 1.8-1.2 2.4-.1m6.1.1c.3.5.1 1-.4 1-.6 0-1.1-.5-1.1-1 0-.6.2-1 .4-1 .3 0 .8.4 1.1 1M155 73c0 .5-.5 1-1.1 1-.5 0-.7-.5-.4-1 .3-.6.8-1 1.1-1 .2 0 .4.4.4 1m237 2.1c1.2.8 1 .9-.9.4-1.7-.5-2.2-.4-1.6.5.5.9.4 1.1-.4.6-.6-.4-.9-1.2-.6-1.7.8-1.2 1.6-1.1 3.5.2m-53 1.4c0 .8-.4 1.5-1 1.5-.5 0-.7-.7-.4-1.5.4-.8.8-1.5 1-1.5s.4.7.4 1.5m21.2-.8c-.6.2-.9 1-.6 1.5.4.7.2.8-.5.4-.6-.4-1.8-.2-2.6.4-.8.7-1.5.8-1.5.3 0-1 3.8-3.2 5.5-3.2.6.1.4.3-.3.6m21.1 1c-.3.7-.6 1.3-.8 1.3s-.5-.6-.8-1.3c-.3-.8.1-1.4.8-1.4s1.1.6.8 1.4M362 79.6c0 .8-1.9 1.3-2.4.6-.3-.5.1-.9.9-.9s1.5.2 1.5.3m-41 3.9c0 .2-.6.5-1.3.8-.8.3-1.4-.1-1.4-.8s.6-1.1 1.4-.8c.7.3 1.3.6 1.3.8m309.4 1.1c.3.8.2 1.2-.4.9s-1-1-1-1.6c0-1.4.7-1.1 1.4.7m-317.1 3c-.4 1.3-2.6 1.1-3-.3-.2-.6.4-1 1.4-.9 1 .2 1.7.7 1.6 1.2m2.2 2.4c-.3.5-1.2 1-1.8 1-.7 0-.6-.4.3-1 1.9-1.2 2.3-1.2 1.5 0m-12 1c.4.6.1.9-.7.8-.7-.2-1.2.2-1.1.9.1.6-.5 1-1.5.8-.9-.1-2 .3-2.4.9-.5.8-.8.7-.8-.2 0-.7-.5-1-1-.7-.8.5-.7 1.2.2 2.3.7 1 .8 1.4.4 1-.5-.4-1.6-.2-2.5.5-1.4 1.1-1.4 1-.2-.6.7-.9 1-1.7.6-1.7s-.2-.6.4-1.4c.7-.8 2.1-1.3 3.1-1.1s2.4-.3 3.1-1.1c1.4-1.7 1.6-1.7 2.4-.4m-103 2.8c-.3.3-1.1 0-1.8-.7-.9-1-.8-1.1.6-.5 1 .3 1.5.9 1.2 1.2m92.3 1c.2.7-.2 1.1-1 1-.7-.2-1.2.3-1 1.1.3 1.2 0 1.2-1.2.1-.9-.7-1.6-.9-1.6-.5 0 .5-.3.5-.7.2-.8-.9 2.8-3.7 4.1-3.4.6.2 1.2.9 1.4 1.5m-92.8.7c0 .2-.6.5-1.3.8-.8.3-1.4-.1-1.4-.8s.6-1.1 1.4-.8c.7.3 1.3.6 1.3.8m81.4 1.9c-.7 1.8-3.4 2.2-3.4.5 0-.5.5-.7 1-.4.6.3 1.3-.1 1.6-1 .4-.9.8-1.4 1-1.2.3.2.2 1.2-.2 2.1m4 0c-.3.9-1 1.3-1.5 1s-.3-1.1.4-1.9c1.5-1.6 1.9-1.3 1.1.9m-67.7 4.2c-.3.3-1.2.4-1.9.1-.8-.3-.5-.6.6-.6 1.1-.1 1.7.2 1.3.5m410.4 3.1c1.3 1.6 1.2 1.7-.3.4-1-.7-1.8-1.5-1.8-1.7 0-.8.8-.3 2.1 1.3m-384.4.2c1-.9 1.3-.7 1.3.5 0 1-.4 1.5-.9 1.1-.5-.3-1.3-.1-1.6.5-.5.8-1.2.7-2.2-.2-1.7-1.3-2-1.3-4 .4-.9.7-1.3.7-1.3-.1 0-.6.5-1.2 1-1.2.6-.1 1.4-.2 1.9-.3.5 0 1.3-.4 1.7-.9.4-.4 1.2-.3 1.8.3s1.4.6 2.3-.1m5.7.2c.8-1.2 4.2-.7 3.9.5-.2.5-.7 1-1.3 1-.5.1-1.1.2-1.2.4-.2.1-1.2.3-2.3.4q-2.1.3-2.1-1.5c0-1.3.4-1.5 1.2-.8q1.2.9 1.8 0m11.6.4c1.7-1 1.1.1-1 2-1.9 1.7-2 1.7-1.4.2.3-1 .3-1.7-.2-1.6s-1.6.1-2.4 0c-1.3-.1-1.3-.2 0-1.1.9-.5 1.9-.5 2.7.1.7.6 1.7.8 2.3.4m369.5 2.5c.3.5.1 1-.4 1-.6 0-1.1-.5-1.1-1 0-.6.2-1 .4-1 .3 0 .8.4 1.1 1M8.8 142.4c-.2.1-1.2.8-2.3 1.6-1.8 1.4-1.9 1.3-.8-.1.7-.9 1-1.9.6-2.3s.1-.4 1 0c1 .3 1.7.7 1.5.8m638.7 8.6c-.3.5-.1 1 .6 1s1 .2.7.5-1.3.2-2.2-.1c-1.4-.5-1.5-.9-.4-1.5 1.7-1.1 2-1.1 1.3.1m3.2 8.4c.5 1.1.9 2.8.8 3.6 0 .8.3 1.8.8 2.1.5.4.4 1-.2 1.3-1 .6-1.3 0-1-2 0-.4-.5-1.1-1.3-1.5-1-.7-1-.9 0-.9s1-.5.2-2c-.6-1.2-1.6-1.8-2.3-1.4s-.9.4-.5-.1c.4-.4 0-1.4-1-2.2-1.5-1.2-1.4-1.2.9-.2 1.5.6 3.1 2.1 3.6 3.3m5.8 19.6c.3.5.1 1-.4 1-.6 0-1.1-.5-1.1-1 0-.6.2-1 .4-1 .3 0 .8.4 1.1 1m8.5 12c.6 1.1.8 2 .6 2-.3 0-1-.9-1.6-2s-.8-2-.6-2c.3 0 1 .9 1.6 2m-143.4 2.9c22.7 5.6 47.1 17 74.1 34.5 20.3 13.2 23.8 16.2 34.6 29.6 4.2 5.2 10.1 12.2 13.1 15.5 3.1 3.3 6.2 7.4 7.1 9.1 1.7 3.7 10.3 55.7 13 79.4.2 1.9.7 5.7 1 8.5 1.3 10.8 1.5 13.4 2.1 26l.7 13-5.1 11c-2.7 6-6.2 13.9-7.7 17.5s-5.6 11.9-9.1 18.6c-5.1 9.5-8.7 14.5-16.7 23.5-11.9 13.4-12.8 14.3-18.7 19.1-10.8 8.7-21.8 13.3-34 14.3-14.3 1.1-16.9 1.6-21.2 4-6.3 3.5-35.7 13-47.5 15.4-17.2 3.5-29.3 4.4-54.8 3.8-22.4-.4-24.6-.6-32.9-3.1-20.8-6.3-40.9-20.3-63.1-44.2-6.6-7-21.4-22.4-33-34.1-11.8-12-22-23.2-23.2-25.6-11-21.2-15-31.7-16.7-44.2-.3-2.2-1-7.2-1.6-11-.5-3.9-1-14-1-22.6 0-15.5 0-15.6 2.6-18 8.2-7.6 30.7-36.4 44.2-56.5 10.4-15.4 14.2-19.7 25.5-28.6 5.1-3.9 9.8-7.8 10.6-8.5 2.3-2.4 12.4-8.9 19.5-12.7 19.3-10.4 56-28.8 62.8-31.5 10.9-4.4 15.5-4.9 42.8-4.5 20.5.2 25.8.6 32.6 2.3m-487.5 20c.5-.8.9-.9.9-.3s-.6 1.6-1.3 2.2c-1 .8-1.3.6-1.4-1.1 0-1.2.1-1.6.4-.8.5 1.1.7 1.1 1.4 0m650.9 6.2c0 .4-.8.9-1.8 1.1-1 .3-1.9 0-1.9-.6 0-.7.9-1.2 1.9-1.2s1.8.3 1.8.7m-649.5 2.8c.3.5.2 1.2-.3 1.5s-.9-.1-.9-.9c0-1.7.3-1.9 1.2-.6m649.3 8.6c-.3.3-.9-.2-1.2-1.2-.6-1.4-.5-1.5.5-.6.7.7 1 1.5.7 1.8m1.7 4.5c.3.5.1 1-.4 1-.6 0-1.1-.5-1.1-1 0-.6.2-1 .4-1 .3 0 .8.4 1.1 1m15.2 24.4c-.2.5-.9 1.1-1.5 1.2-.7.1-.8 0-.2-.3.5-.2 1-.9 1-1.4 0-.6-.5-.7-1-.4-.6.4-1 .3-.9-.2.3-1.8-.2-3.3-1-3.1-.5.2-.9 0-1-.5-.4-2.7.2-2.7 2.4.3 1.4 1.9 2.4 3.9 2.2 4.4M53 266.1c0 .4-.6.9-1.3 1.2-.8.3-1.4 0-1.4-.7s.6-1.3 1.4-1.3c.7 0 1.3.4 1.3.8m9 11.9c0 .5-.5 1-1.1 1-.5 0-.7-.5-.4-1 .3-.6.8-1 1.1-1 .2 0 .4.4.4 1m655.5 13.1c.2.9-.3 1.6-.9 1.6-.7 0-1.3-.9-1.3-1.9-.2-2.3 1.9-1.9 2.2.3m-650.1 1.5c.5 1.4.4 1.5-.9.4-1.7-1.4-1.9-2-.6-2 .5 0 1.2.7 1.5 1.6m.8 6.2c-.7.2-.9.9-.5 1.5.3.7.2.8-.2.4-1.6-1.4-1.4-3.6.3-2.9 1 .4 1.2.7.4 1m2.3 3.2c-.3.5-1.4 1-2.3 1-1.5 0-1.5-.2-.2-1 2-1.3 3.3-1.3 2.5 0m4.5 22c0 .5-.2 1-.4 1-.3 0-.8-.5-1.1-1-.3-.6-.1-1 .4-1 .6 0 1.1.4 1.1 1m643 2c0 .5-.7.7-1.5.4-.8-.4-1.5-.8-1.5-1s.7-.4 1.5-.4 1.5.4 1.5 1m.5 13.7c.1 1.2-.2 2-.7 1.7-.5-.4-.7-1.2-.4-1.9.3-.8-.3-1.6-1.2-1.9-1.3-.4-1.3-.4.2-.3 1.2.1 2 1 2.1 2.4M88 342c-.6 1.1-1.3 2-1.6 2-.2 0 0-.9.6-2s1.3-2 1.6-2c.2 0 0 .9-.6 2m634 3.4c0 .2-.8 1-1.7 1.7-1.6 1.3-1.7 1.2-.4-.4s2.1-2.1 2.1-1.3m2.4 2.1c-.4.8-.8 1.5-1 1.5s-.4-.7-.4-1.5.4-1.5 1-1.5c.5 0 .7.7.4 1.5m-635.9 2.3c-.3.3-1.1 0-1.8-.7-.9-1-.8-1.1.6-.5 1 .3 1.5.9 1.2 1.2m636 8.2c.3.5.1 1-.4 1-.6 0-1.1-.5-1.1-1 0-.6.2-1 .4-1 .3 0 .8.4 1.1 1m-1.1 5.8c.3.5-.1.9-.9.9s-1.2-.4-.9-.9c.3-.4.7-.8.9-.8s.6.4.9.8m-.1 12.7c-.3.9-.8 1.4-1 1.1-.3-.3-.2-.9.2-1.5.9-1.6 1.5-1.3.8.4m2 15.1c-.8 2.2-1.9 1.6-1.9-1.1 0-1.8.3-2.2 1.2-1.4.7.6 1 1.7.7 2.5m-4.6 22.1c0 .7-.4 1.3-.8 1.3s-.9-.6-1.2-1.3c-.3-.8 0-1.4.7-1.4s1.3.6 1.3 1.4m-2.4 4c-.4 1-.2 1.4.4 1 .5-.3 1 .1 1 .9 0 1.3-.2 1.3-1.5 0-.8-.8-1.1-1.9-.8-2.5 1.1-1.7 1.6-1.3.9.6m-.8 4.3c-.3.5-1.2 1-1.8 1-.7 0-.6-.4.3-1 1.9-1.2 2.3-1.2 1.5 0m-600.8 5.5c0 .8-.5 1.6-1.1 1.8-.6.3-1.1-.6-1.1-1.8s.5-2.1 1.1-1.8c.6.2 1.1 1 1.1 1.8m2.7 7.1c.3.8.2 1.2-.4.9s-1-1-1-1.6c0-1.4.7-1.1 1.4.7m16.2 44.9c-.8.8-1.8 1.5-2.2 1.5-.3 0-.1-.7.6-1.5s1.7-1.5 2.2-1.5.3.7-.6 1.5m557.1 7.2c-.4.3-.2 1.2.5 2 .8 1.1.7 1.2-.6.7-.9-.3-1.6-.9-1.6-1.3 0-.9 1.1-2.1 1.8-2.1.3 0 .2.3-.1.7M133 493c0 .5-.5 1-1.1 1-.5 0-.7-.5-.4-1 .3-.6.8-1 1.1-1 .2 0 .4.4.4 1m0 2.4c0 .3-.4.8-1 1.1-.5.3-1 .1-1-.4 0-.6.5-1.1 1-1.1.6 0 1 .2 1 .4m1.1 1.9c-1 .9-1.1.8-.5-.6.3-1 .9-1.5 1.2-1.2s0 1.1-.7 1.8m-1.8 16c.3.8-.1 1.4-.8 1.4s-1.1-.6-.8-1.4c.3-.7.6-1.3.8-1.3s.5.6.8 1.3m536.4 9.2c0 .8-.4 1.2-.9.9s-.6-1-.3-1.5c.9-1.3 1.2-1.1 1.2.6m-540.2 10.3c-.3.3-1.1 0-1.8-.7-.9-1-.8-1.1.6-.5 1 .3 1.5.9 1.2 1.2m538 .4c.5-.4.5-.1.1.6-.6 1-1.1 1-2.2.1-.8-.6-1.4-1.4-1.4-1.6 0-.3.6 0 1.3.6.8.6 1.8.7 2.2.3m-548.8 22.3c0 .8-.4 1.2-.9.9s-.6-1-.3-1.5c.9-1.3 1.2-1.1 1.2.6m543.1 8.3c.2.7-.1 1.2-.8 1.2-.6 0-.9-.4-.6-.9.4-.5.1-1.2-.4-1.4-.6-.3-.5-.4.2-.3.6.1 1.4.8 1.6 1.4m-2.5 15.7c-.7 2.1-1.2 1.9-1-.4 0-1.1.5-1.8.9-1.5s.5 1.1.1 1.9m2.9-.3c-.7.7-1.2.8-1.2.2 0-1.4 1.2-2.6 1.9-1.9.2.3-.1 1.1-.7 1.7m-.8 12.1c-.3.8-1.2 1.8-2 2.1-1.1.4-1.1 0 .2-2 1.8-2.6 2.8-2.7 1.8-.1M94 613.5c-.7.8-.8 1.5-.3 1.5s.9 1 1 2.2c.2 2.2.1 2.2-1.2-.2-1.2-2.3-.5-5 1.2-5 .3 0 0 .7-.7 1.5m566.1 5.3c-.7 1.3-.6 2.3.1 3 .9.9.9 1.2.1 1.2-1.6 0-2.2-2.2-1.1-4.3.5-.9 1.1-1.7 1.4-1.7.2 0 0 .8-.5 1.8m-567.3 1.7c0 2.9-.1 2.9-1.7-.3-.9-1.8-.9-2.2.2-2.2.9 0 1.5 1 1.5 2.5m566.2 7c0 .8-.4 1.5-1 1.5-.5 0-.7-.7-.4-1.5.4-.8.8-1.5 1-1.5s.4.7.4 1.5M89 628c0 .5-.5 1-1.1 1-.5 0-.7-.5-.4-1 .3-.6.8-1 1.1-1 .2 0 .4.4.4 1m-1 4.2c-1.4 1.1-2.4 2.5-2.2 2.9.1.5-.3.8-1 .6-.7-.1-1.2.3-1.3 1 0 1.8-1.2 2.5-1.2.8 0-1.5 6-7.5 7.5-7.5.4.1-.4 1-1.8 2.2m572.8 2.6c-.7 1-1.4 1.9-1.5 2.1-.3.4.2-2.8.6-4.7.1-.2.6 0 1.1.3.8.5.7 1.2-.2 2.3m.2 5.3c0 .5-.4.9-.8.9-.5 0-.9-.7-.9-1.5s.4-1.2.9-.9c.4.3.8.9.8 1.5m-582.6 1.5c.5 1.2.2 1.5-1 1-1.2-.4-1.5-.2-1 .9.3.8.1 1.5-.3 1.5-2.4 0-.9-4.4 1.5-5 .1 0 .5.7.8 1.6m4 .2c.3.5-.1.9-.9.9s-1.2-.4-.9-.9c.3-.4.7-.8.9-.8s.6.4.9.8m-8.7 10.4c-.3.8-.6.5-.6-.6-.1-1.1.2-1.7.5-1.3.3.3.4 1.2.1 1.9m-1.3 2.7c-.2.3-1.2-.3-2.2-1.3-1.6-1.7-1.6-1.8.5-.5 1.2.7 2 1.5 1.7 1.8m0 3.3c-.3.5-.9.6-1.4.3-.9-.5-2.5 1.3-2.5 2.9 0 .5-.6 1.1-1.2 1.3-2 .7-1.5-1.4.7-3.5 2-1.9 5.4-2.6 4.4-1m591.3 2.5c-.4.3-.2 1.2.4 1.9.7.8.6 1.4-.2 2-.7.4-.9.3-.5-.4.3-.5.1-1.2-.6-1.4-1.1-.4-.3-2.8.9-2.8.4 0 .3.3 0 .7m-596.9 8.7c-.1 1.3-.8 2.3-1.5 2.3-.9 0-1-.4-.2-1.4.9-.9.8-1.7-.1-2.8-1.1-1.3-1-1.4.3-.9 1 .3 1.6 1.6 1.5 2.8m596.7-.6c-.3.3-1.1 0-1.8-.7-.9-1-.8-1.1.6-.5 1 .3 1.5.9 1.2 1.2m1.5 2.2c-1.2.7-1.1 1.2.5 3.2 1.2 1.3 1.3 1.7.4 1-.9-.6-1.8-.9-2.1-.7-.3.3-.4-.5-.3-1.7.3-2.9.3-2.8 1.8-2.8.8 0 .7.3-.3 1m4 16.4c0 .2-.7.9-1.5 1.6-1.3 1.1-1.4 1-.9-.4s2.4-2.3 2.4-1.2m-.5 3.5c-.3.5-.1 1.2.5 1.6 1.2.7.4 2.5-1.1 2.5-.5 0-.7-1-.5-2.3.6-2.9.5-2.7 1.2-2.7.3 0 .3.4-.1.9M671 710c0 .5-.2 1-.4 1-.3 0-.8-.5-1.1-1-.3-.6-.1-1 .4-1 .6 0 1.1.4 1.1 1M42.4 722.9c-.4.3-.9 0-1.1-.7-.3-.6-1-.9-1.5-.6-.7.4-.8.2-.4-.5.6-.9 1.1-.9 2.2 0 .8.6 1.2 1.5.8 1.8"/><path d="M507.6 3.8c-.3.5.1.9.9.9s1.2-.4.9-.9c-.3-.4-.7-.8-.9-.8s-.6.4-.9.8m3.4.2c0 .5.5 1 1 1 .6 0 1-.5 1-1 0-.6-.4-1-1-1-.5 0-1 .4-1 1m91.5 0c-.8 1.3.5 1.3 2.5 0 1.3-.8 1.3-1-.2-1-.9 0-2 .4-2.3 1M615 7.1c0 .5.5.7 1 .4.6-.3 1-.8 1-1.1 0-.2-.4-.4-1-.4-.5 0-1 .5-1 1.1m2.5.9c-.3.5-.1 1 .4 1 .6 0 1.1-.5 1.1-1 0-.6-.2-1-.4-1-.3 0-.8.4-1.1 1M13 14.1c0 .5.5.7 1 .4.6-.3 1-.8 1-1.1 0-.2-.4-.4-1-.4-.5 0-1 .5-1 1.1m33.1 1.4c-.1 1.7 1.5 3.6 3.5 4 1 .2 1.9.4 1.9.5s.8.3 1.8.5c.9.2 1.7-.1 1.7-.6s-.5-.9-1.1-.9c-.5 0-.7-.6-.3-1.3.5-.8.2-.8-.9.2-1.4 1.1-1.7 1.1-1.7 0s-.2-1.1-1 .1c-.9 1.4-1.4.7-1.1-1.3.1-.5-.3-.6-.8-.3-.5.4-1.2 0-1.4-.6-.3-.7-.6-.9-.6-.3M494.3 20c.5 1.6-1.6 4.2-2.7 3.4-.3-.2-.4-.1-.1.3s1.3.8 2.1.9c.9.1 1.3 0 1-.3-.3-.4-.2-1.1.4-1.7.5-.7.5-1.7-.2-2.6-.9-1.3-.9-1.3-.5 0M81.6 24.3c.4 1 1.5 2.2 2.5 2.7 2.5 1.4 3.2 1.2 1.7-.4-.7-.8-1.5-1.2-1.7-1s-1-.4-1.8-1.4c-1.2-1.6-1.3-1.6-.7.1m-18 .5c-.3.6-.1 1.4.5 1.7 1.4.9 2 .2 1-1.4q-.9-1.2-1.5-.3M487 27.7c0 .6.6 1.6 1.4 2.2 1 .8 1.6.8 2.5-.3s.8-1.5-.3-1.9-1.3-.1-1 1.1c.5 1.4.3 1.3-1-.2-.9-1.1-1.6-1.5-1.6-.9M2.7 30.2c.7.8 1 1.8.6 2.1-.3.4-.1.7.5.7 2.1 0 2.1-1.6-.1-3-1.9-1.2-2.1-1.1-1 .2m97.8 1.1c-1.2.9-1.4 1.6-.7 2.1.6.3 1.6-.3 2.2-1.4 1.3-2.4 1-2.5-1.5-.7m380 2.7c-1.6.7-1.7.9-.3.9.9.1 2-.4 2.3-.9.7-1.1.7-1.1-2 0M111 36.1c0 .5.5.7 1 .4.6-.3 1-.8 1-1.1 0-.2-.4-.4-1-.4-.5 0-1 .5-1 1.1m370.5.9c.6 1 .4 1.2-.9.7-1-.4-1.5-.3-1.1.3.3.6.1 1.1-.4 1.1-.6.1-1.5.3-2.1.4-.5.1-1.6.3-2.2.4-.9.1-.9.4.1 1s2.5.5 4.2-.5c3.4-1.7 4.3-3 2.8-4-.8-.5-.9-.3-.4.6M471 43.9c0 .5.7 1.2 1.6 1.5 1.4.5 1.5.4.4-.9-1.4-1.7-2-1.9-2-.6M3.3 48.4c.3.8.1 1.6-.6 1.9-.7.2-.5.6.4.9 1.1.4 1.5-.1 1.5-1.8 0-1.3-.4-2.4-.9-2.4s-.7.6-.4 1.4m120.2 2.5c-1.1 1.8 3.4 2.5 5.1.8.4-.3-.6-.4-2.1-.1-1.7.3-2.4.1-2-.6.3-.5.4-1 .1-1s-.7.4-1.1.9m497.5 1c0 .7-.4 1-.9.7-1.1-.7-.9 2.1.2 2.9.4.3.5.2.2-.2-.3-.3 0-1.2.7-2 .6-.7.8-1.6.4-2-.3-.3-.6-.1-.6.6M3.5 55c.8.9 1.2 1.9.9 2.2s-.1.9.4 1.2c.9.5.9-1.4.2-3.4-.1-.3-.2-.8-.2-1.1.1-.3-.6-.6-1.4-.6-1.2 0-1.2.3.1 1.7m-1.9 1.3c.3 1 .9 1.5 1.2 1.2s0-1.1-.7-1.8c-1-.9-1.1-.8-.5.6m128.6-.1c.2.6 1.2 1.2 2.2 1.4 1.4.2 1.5 0 .5-1.2-1.4-1.7-3.2-1.9-2.7-.2m4.8.6c0 .4.9 1.3 2 1.9 1.6 1.1 1.8 1 1.4-.1-.6-1.5-3.4-3-3.4-1.8M455 60c-1.3.8-1.2 1 .3 1 .9 0 1.7-.5 1.7-1 0-1.2-.1-1.2-2 0m166.5 2c.3.5.8 1 1.1 1 .2 0 .4-.5.4-1 0-.6-.5-1-1.1-1-.5 0-.7.4-.4 1m2.1 1.8c-.3.5.1.9.9.9s1.2-.4.9-.9c-.3-.4-.7-.8-.9-.8s-.6.4-.9.8m-475.1 1.1c.3.5 0 1.1-.7 1.3-.7.3-.5.7.6 1.1.9.4 1.5.3 1.1-.2-.3-.5 0-1.1.7-1.3.7-.3.5-.7-.6-1.1-.9-.4-1.5-.3-1.1.2M445 66c0 .5.5 1 1.1 1 .5 0 .7-.5.4-1-.3-.6-.8-1-1.1-1-.2 0-.4.4-.4 1m-294 2.1c0 .5.5.7 1.2.3.8-.5.9-.1.4 1.2-.5 1.4-.4 1.6.5.7.6-.6.8-1.6.5-2.2-.9-1.4-2.6-1.4-2.6 0m470-.3c0 1.2 2.2 3.2 3.5 3.2.5 0 .2-.5-.8-1.1-.9-.6-1.5-1.4-1.2-2 .4-.5.1-.9-.4-.9-.6 0-1.1.4-1.1.8m-226 1.7c0 .5.5 1.7 1 2.5s1 1 1 .5c0-.6-.5-1.7-1-2.5s-1-1.1-1-.5M374.5 72c-.3.5-.1 1 .4 1 .6 0 1.1-.5 1.1-1 0-.6-.2-1-.4-1-.3 0-.8.4-1.1 1m11.1-.2c-.3.5.1.9.9.9s1.2-.4.9-.9c-.3-.4-.7-.8-.9-.8s-.6.4-.9.8m-224.8.9c-2.3.6-2.3 1.8 0 2 1 .1 1.9-.5 1.9-1.3s-.1-1.3-.1-1.3c-.1.1-.9.3-1.8.6m461.8.1c-.2.4.4 1.3 1.4 2 1.4.8 2.1.8 2.6.1.4-.6 0-1.5-.7-2-1.8-1.1-2.6-1.1-3.3-.1m-255.2 1.3c-.3.6 0 1.5.7 2 .8.4 1.6.4 2-.3q.6-1.05 1.2.3c.3.8.4.4.4-.8-.1-1.5-.5-1.9-1.1-1.3-1.3 1.3-2.9 1.3-2.1 0 .3-.6.4-1 .1-1s-.8.5-1.2 1.1m-187.8 2.1c.3.5 1 .6 1.5.3 1.3-.9 1.1-1.2-.6-1.2-.8 0-1.2.4-.9.9m147 0c.3.4.9.8 1.5.8.5 0 .9-.4.9-.8 0-.5-.7-.9-1.5-.9s-1.2.4-.9.9M1.3 78.3c-.3.6-.1.7.5.3.6-.3 1.4-.1 1.9.6C4.8 81.1 5 83 3.9 83c-.5 0-.9.5-.9 1.1 0 .8.4.8 1.4 0 1.2-1 1.4-2.9.6-5.1-.1-.3-.2-.8-.2-1.1.1-1-2.9-.6-3.5.4M316.5 80c-.3.6.1.7.9.4 1.8-.7 2.1-1.4.7-1.4-.6 0-1.3.4-1.6 1m-17.9 7.8c-.3.5.1.9.9.9s1.2-.4.9-.9c-.3-.4-.7-.8-.9-.8s-.6.4-.9.8m-5.1 2.2c.3.5.8 1 1.1 1 .2 0 .4-.5.4-1 0-.6-.5-1-1.1-1-.5 0-.7.4-.4 1m-10.2 2.5c0 .7.6 1.1 1.4.8.7-.3 1.3-.6 1.3-.8s-.6-.5-1.3-.8c-.8-.3-1.4.1-1.4.8m347.6-.3c-.7 2.9-.5 3.6.7 3.1 1.6-.6 1.8-1.9.4-2.8-.5-.3-1-.5-1.1-.3M3.5 93.9c.3.6-.3 1.4-1.2 2-1 .6-1.3 1.1-.6 1.1.6 0 1.5-.5 1.8-1 .4-.6 1.2-.7 1.8-.3.7.4.6 0-.2-1-1.4-1.8-2.6-2.3-1.6-.8m627.6 3.5c-.8 1-.9 1.6-.1 2.1.5.3 1 .5 1.1.3.4-1.8.7-3.8.4-3.8-.1 0-.8.6-1.4 1.4m-358.7.8c.6 2-1 2.5-1.7.5-.3-.6-.6-.2-.6 1.1-.1 2.1.1 2.2 2.2 1 1.2-.7 2.5-1.1 2.9-1s.4-.6.1-1.5c-.5-1.2-.8-1.3-1.1-.4-.4 1.1-.6 1.1-1.4 0s-.9-1-.4.3m-5.9 1.8c-.3.6.1.7.9.4 1.8-.7 2.1-1.4.7-1.4-.6 0-1.3.4-1.6 1m-30.9 1.8c-.3.5.1.9.9.9s1.2-.4.9-.9c-.3-.4-.7-.8-.9-.8s-.6.4-.9.8m-3.8.9c.7.3 1.6.2 1.9-.1.4-.3-.2-.6-1.3-.5-1.1 0-1.4.3-.6.6m401.3 0c-.1 1.7 1.6 2.5 2.5 1.2.4-.7.3-.9-.4-.5-.5.3-1.3 0-1.5-.6-.4-.9-.6-1-.6-.1M226 104c0 1.6 1.7 2 2.8.7.8-1 .6-1.3-.9-1.4-1-.1-1.9.2-1.9.7M3 108.1c0 .5.5.7 1 .4.6-.3 1-.8 1-1.1 0-.2-.4-.4-1-.4-.5 0-1 .5-1 1.1m636 9.9c0 .5 0 1.3-.1 1.7 0 .4.9 1 2 1.4 1.5.6 1.9.4 1.5-.6-.3-.8-1.3-1.1-2.2-.7-1.5.5-1.5.4-.3-1.1.9-1.1 1-1.7.2-1.7-.6 0-1.1.4-1.1 1M4.1 124.9c-.9.6-1 1.1-.2 1.5.6.4 1.1 1.2 1.1 1.8s-.7.5-1.7-.3c-1.6-1.2-1.7-1.2-.7.1.6.8 1 3.2.9 5.2-.2 2.1.1 3.8.5 3.8.5 0 .7-.9.5-2s-.1-2 .4-2c.4 0 .7-2 .7-4.5-.1-2.5-.1-4.5-.1-4.5s-.6.4-1.4.9m641.4 7.1c.3.5.8 1 1.1 1 .2 0 .4-.5.4-1 0-.6-.5-1-1.1-1-.5 0-.7.4-.4 1M4.4 148.4c-1.9 1.4-1.9 1.4.1 1.3 1.5-.2 2 .4 1.9 2-.1 1.3.3 2 .7 1.7.5-.3.9-.1.9.5 0 .5-.3 1.1-.7 1.4-.5.2-.3.2.4.1 1.3-.3 2.6 2.3 1.8 3.6-.3.5 0 1.2.6 1.6.8.4.9.3.5-.4s-.2-1.2.3-1.2c.6 0 1.1.4 1.1 1 0 .5.5 1 1.1 1s-.1-1.4-1.5-3.1-2.7-3.5-2.7-4c-.2-1.2-.6-2.8-.9-3.4-.1-.3-.3-.9-.4-1.4-.2-1.8-1.3-2.1-3.2-.7M648 148c.8.5 2 1 2.5 1 .6 0 .3-.5-.5-1s-1.9-1-2.5-1c-.5 0-.3.5.5 1m7 15.9c0 .6.4 1.3 1 1.6s.7-.1.4-.9c-.7-1.8-1.4-2.1-1.4-.7m13 28.1c1.2 2.3 3 3.5 3 2.1 0-.6-.5-1.1-1.1-1.1-.5 0-.8-.4-.5-.9s-.1-1.2-.9-1.5c-1.3-.4-1.3-.2-.5 1.4m-649.4.2c.3.4.9.8 1.5.8.5 0 .9-.4.9-.8 0-.5-.7-.9-1.5-.9s-1.2.4-.9.9m3.8 9.4c-1.4 1.2-1.5 1.4-.3 1.1.9-.3 2.1-.1 2.7.5.7.7 1 .6.8-.5-.3-2.6-1.1-2.8-3.2-1.1m659.3 4.8c-.3.8.1 2 .8 2.6 1 .8 1.3 2.5 1 4.9-.3 2.5-.2 3.2.5 2.1.8-1.2 1-1.2 1-.1 0 .8.3 1.2.6.9.3-.4.1-1.5-.4-2.5-.7-1.2-.7-2.5-.1-3.6.7-1.2.7-1.7-.2-1.5-.6.2-1.3-.5-1.4-1.5-.5-2.6-1.1-3.1-1.8-1.3m5.2 21.3c-1.3 1.6-1.2 1.7.4.4s2.1-2.1 1.3-2.1c-.2 0-1 .8-1.7 1.7m4.7 12.2c-.3.5.1 1.1.9 1.4.9.4 1.2.1.8-.9-.6-1.6-1-1.7-1.7-.5m-649.8 8.8c-.3.4.1 1.9.9 3.3l1.3 2.5-.3-2.7c-.3-3-1.2-4.4-1.9-3.1m654.7 1.3c-.3.5-.1 1 .4 1 .6 0 1.1-.5 1.1-1 0-.6-.2-1-.4-1-.3 0-.8.4-1.1 1M47 261.9c0 .6.4 1.3 1 1.6s.7-.1.4-.9c-.7-1.8-1.4-2.1-1.4-.7m657 2.6c.7.8.9 1.5.5 1.5s-.2.7.5 1.5.9 1.5.5 1.5-.3.6.2 1.2c.6.7.9 2.1.8 3-.2 1 0 1.8.3 1.8 1.2-.1 4.2-2.7 4.2-3.6 0-.4-.5-.3-1.2.4-1.8 1.8-3.2 1.4-1.7-.5.8-1 .9-1.4.2-1-.6.4-1.4.3-1.8-.3-.6-.9.8-1.4 2.8-1.1.5.1.6-.3.2-.8-.3-.6-1.3-.7-2.3-.4-1.5.6-1.6.5-.2-1.2.9-1.1 1-1.6.2-1.1-.7.4-1.5.1-1.8-.8s-1.1-1.6-1.6-1.6c-.6 0-.5.6.2 1.5m5 11.5c0 .5.5 1 1 1 .6 0 1-.5 1-1 0-.6-.4-1-1-1-.5 0-1 .4-1 1m.4 3.1c-.8 1.4 1.4 1.9 2.5.6.8-1 .7-1.4-.5-1.4-.8 0-1.7.4-2 .8m-650.8 3.1c.3.4 1.1.5 1.9.1 2.1-.7 1.9-1.2-.4-1-1.1 0-1.8.5-1.5.9m655.9 1.7c-.3.5-.2 1.2.3 1.5s.9-.1.9-.9c0-1.7-.3-1.9-1.2-.6m2.5 1c0 .6.4 1.3 1 1.6s.7-.1.4-.9c-.7-1.8-1.4-2.1-1.4-.7M64.5 287c.3.5.2 1-.3 1-.6 0-1.3.8-1.6 1.7-.6 1.5-.5 1.5 1.3-.1s2-3.6.5-3.6c-.3 0-.2.4.1 1m-.9 7.3c.3 1 .9 1.5 1.2 1.2s0-1.1-.7-1.8c-1-.9-1.1-.8-.5.6m653.4 8.2c-1.9 2.3.1 3.9 2.6 2 1.6-1.3 1.6-1.4.1-.9-1.3.5-1.6.2-1.1-1 .8-2 0-2.1-1.6-.1m.7 5.3c-1.6 1.8-1.6 1.9.3 1.7 1.1-.1 2.3-.5 2.7-1 .5-.4.2-.5-.4-.1-.7.4-1.3.3-1.3-.3 0-.5.6-1.2 1.3-1.4.7-.3.7-.6.1-.6-.6-.1-1.8.7-2.7 1.7m-.2 7.3c-.3.4.2.6 1 .5 2.1-.3 2.8-1.3 1-1.3-.9 0-1.8.4-2 .8m2 17c-.4.6-.5 1.2-.2 1.5.2.3.7-.2 1-1.1.7-1.7.1-2-.8-.4m-643.9 1.8c-.3.5.2 1.5 1.2 2.2 1.5 1.2 1.6 1.2.5-.2-.7-.9-1-1.9-.6-2.2.3-.4.4-.7 0-.7-.3 0-.8.4-1.1.9M726 352.1c0 .5.5.7 1 .4.6-.3 1-.8 1-1.1 0-.2-.4-.4-1-.4-.5 0-1 .5-1 1.1M88.2 363.7c1.1.3 1.5 1.1 1.2 2.1-.5 1.4-.4 1.4.4.2 1.3-1.8.6-3-1.6-2.9-1.6.1-1.6.2 0 .6m638.9 3.9c0 1.1.3 1.4.6.6.3-.7.2-1.6-.1-1.9-.3-.4-.6.2-.5 1.3m-635.5 2.7c.3 1 .9 1.5 1.2 1.2s0-1.1-.7-1.8c-1-.9-1.1-.8-.5.6m2.9 1.7c-.8 1.3 1.5 2.4 2.7 1.2q.9-.9-.6-1.5c-.8-.3-1.8-.2-2.1.3m.5 3.4c0 .2.7.7 1.6 1 .8.3 1.2.2.9-.4-.6-1-2.5-1.4-2.5-.6m632.5 2.5c-.3.5-.2 1.2.3 1.5s.9-.1.9-.9c0-1.7-.3-1.9-1.2-.6m-2.1 7.6c.1.8.6 1.8 1.1 2.2.4.4.5.3.2-.4-.4-.6-.2-1.3.5-1.5.8-.3.6-.6-.4-1s-1.5-.2-1.4.7m-622.8 10.7c.3.5 1 .6 1.5.3 1.3-.9 1.1-1.2-.6-1.2-.8 0-1.2.4-.9.9m1.2 2.5c.6.2.9 1 .6 1.5-.4.7-.2.8.5.4 1.3-.9.5-2.6-1.2-2.5-.9 0-.8.2.1.6m619.5 8c-1.5.5-1.7 2.3-.4 2.3.5 0 1.1-.7 1.5-1.5.3-.8.4-1.5.3-1.4-.1 0-.8.3-1.4.6m-619.4 2c-1.3 1.6-1.2 1.7.4.4s2.1-2.1 1.3-2.1c-.2 0-1 .8-1.7 1.7m619.6 3.3c-.3.5-.1 1 .4 1 .6 0 1.1-.5 1.1-1 0-.6-.2-1-.4-1-.3 0-.8.4-1.1 1m-5 15c-.3.5-.3 1 .1 1 .3 0-.4.9-1.7 2-1.3 1-2 1.9-1.5 2 .5 0 .3.6-.3 1.3-.8 1-.7 1.9.5 3.3 1.5 1.8 1.5 1.8.5-.2-.8-1.6-.7-2.5.3-3.3.7-.6 1.6-.8 1.9-.4.4.3.7.1.7-.5 0-.7-.6-1.2-1.2-1.2-.9 0-.9-.3.1-.9.8-.5 1.6-1.7 1.7-2.5.3-1.8-.2-2.1-1.1-.6m2.5 1.1c0 .5.5.7 1 .4.6-.3 1-.8 1-1.1 0-.2-.4-.4-1-.4-.5 0-1 .5-1 1.1m-601.7 10.6c.9.2 1.7.9 1.7 1.4s.5.9 1.1.9c.8 0 .8-.5-.1-1.5-.7-.8-2-1.4-2.9-1.4-1.3.1-1.3.2.2.6m594.2 1.3c.2 2.9 1 3.3 1.3.5.1-1.4-.2-2.5-.6-2.5-.5 0-.8.9-.7 2m-594 4c.3.5.8 1 1.1 1 .2 0 .4-.5.4-1 0-.6-.5-1-1.1-1-.5 0-.7.4-.4 1m593.7 1.3c-.7.8-.6 1.8.4 3.2 1.5 1.9 1.5 1.9 1-.7-.3-1.9 0-2.8 1.2-3.1 1.5-.4 1.5-.5.1-.6-.9 0-2.1.5-2.7 1.2M127 452c0 .5.5 1 1.1 1 .5 0 .8.4.5.8-.3.5.1.9.8.9 1.1 0 1.2-.4.3-1.9-1.3-2-2.7-2.4-2.7-.8m588.5 3.9c-.3.5-.2 1.2.3 1.5s.9-.1.9-.9c0-1.7-.3-1.9-1.2-.6m-585.9 4c-.4.5.3.7 1.4.4 2.3-.6 2.6-1.3.6-1.3-.8 0-1.7.4-2 .9m573.3 9.6s-.2 1.1-.4 2.5-.1 1.9.1 1.2c.3-.6 1-1 1.5-.6.5.3.8 0 .7-.8-.2-.7.3-1.2 1-1.1.6.2 1.2-.1 1.2-.6 0-.7-3-1.2-4.1-.6m-5.7 6.8c-.9 1-.6 1.3 1.3 1.3s2.2-.3 1.3-1.3c-.6-.7-1.2-1.3-1.3-1.3s-.7.6-1.3 1.3m-2.7 3.7c-.3.5-.1 1 .4 1 .6 0 1.1-.5 1.1-1 0-.6-.2-1-.4-1-.3 0-.8.4-1.1 1m2.5-.6c0 .2.7.7 1.6 1 .8.3 1.2.2.9-.4-.6-1-2.5-1.4-2.5-.6m-4.3 3.2c-.8.8.1 2.4 1.2 2.4.4 0 .8-.7.8-1.5 0-1.6-.9-2-2-.9M692 493c-.9.6-1 1-.3 1 .6 0 1.5-.5 1.8-1 .8-1.2.4-1.2-1.5 0m-1.5 3c-.4.6-1 .8-1.4.6-.4-.3-.8.1-.8.9 0 1.9-.1 1.9 2.7-.5 1.3-1.1 1.8-2 1.2-2s-1.4.5-1.7 1m-7.9 9.3c.3 1 .9 1.5 1.2 1.2s0-1.1-.7-1.8c-1-.9-1.1-.8-.5.6m-3.6 4.8c0 .5.5.7 1 .4.6-.3 1-.8 1-1.1 0-.2-.4-.4-1-.4-.5 0-1 .5-1 1.1m-5.5 14c-.4.6-.5 1.2-.2 1.5.2.3.7-.2 1-1.1.7-1.7.1-2-.8-.4m-5.5 12c0 .5.5.7 1 .4.6-.3 1-.8 1-1.1 0-.2-.4-.4-1-.4-.5 0-1 .5-1 1.1m-4.8 2.2c-2.4 1.4-2 2.7.7 2.7 1.4 0 1.4-.2.1-1-1.3-.9-1.3-1 0-1.1.8-.1 1.8-.1 2.3 0 .4 0 .7-.4.7-.9 0-1.3-1-1.2-3.8.3m-541.6 1.2c-.3.8-.1 1.5.4 1.5.6 0 1-.7 1-1.5s-.2-1.5-.4-1.5-.6.7-1 1.5m-4.3 10.5c-.1.9.4 1.7 1.1 1.7.6 0 1.2-.8 1.2-1.7s-.5-1.7-1.1-1.7-1.2.8-1.2 1.7m-5.8 6c-.3.5-.1 1 .4 1 .6 0 1.1-.5 1.1-1 0-.6-.2-1-.4-1-.3 0-.8.4-1.1 1m551.5 0c0 .5.5 1 1.1 1 .5 0 .7-.5.4-1-.3-.6-.8-1-1.1-1-.2 0-.4.4-.4 1m-.4 3.8c-.3.5.1.9.9.9s1.2-.4.9-.9c-.3-.4-.7-.8-.9-.8s-.6.4-.9.8m-554.8 8.9c.3 1.8.7 2.1 1.3 1.1 1.2-1.8 1.1-2.5-.4-3.1-1-.4-1.3.2-.9 2m-2.5 2.5c-.2 1.8 0 2 .7.8 1.2-1.8 1.3-3 .2-3-.4 0-.9 1-.9 2.2m-4.3 3.9c0 .5-.6.7-1.2.3-.9-.5-.9-.3.1.9 1.5 1.9 3.3 1.3 2.4-.8-.6-1.7-1.3-2-1.3-.4m-3 6c0 .5.5.7 1 .4.6-.3 1-.8 1-1.1 0-.2-.4-.4-1-.4-.5 0-1 .5-1 1.1m-3.7 1.5c.3.6-.2 2-1.3 3.2-1.5 1.6-1.6 2.1-.5 2.6 2.7 1 4.4-4 2-6.1-.4-.4-.5-.3-.2.3m564.7 1.1c0 .1 1 .7 2.1 1.4 1.3.6 1.9.7 1.5.1-.3-.6 0-1.2.6-1.5.7-.2.1-.4-1.4-.3-1.6 0-2.8.2-2.8.3M90.5 596c-.3.6.1.7.9.4 1.8-.7 2.1-1.4.7-1.4-.6 0-1.3.4-1.6 1m1 2c-.4.6-1.1.7-1.7.4-.7-.4-.8-.2-.4.4.5.9 1.3.9 2.7.2 1-.6 1.9-1.3 1.9-1.5 0-.9-1.9-.5-2.5.5m-1.5 4.5c.7.8 1.7 1.5 2.2 1.5s.3-.7-.6-1.5c-.8-.8-1.8-1.5-2.2-1.5-.3 0-.1.7.6 1.5m-.3 3.2c-.3.5 0 1.7.4 2.8.8 1.8.9 1.8.5-.3-.3-1.7-.1-2.2 1-1.8.8.3 1.4.1 1.4-.4 0-1.2-2.7-1.3-3.3-.3M87 619.5c0 .5.5 1.7 1 2.5s1 1 1 .5c0-.6-.5-1.7-1-2.5s-1-1.1-1-.5m576 7.9c0 .2.7.7 1.6 1 .8.3 1.2.2.9-.4-.6-1-2.5-1.4-2.5-.6M83.5 630c-.3.5-.1 1 .4 1 .6 0 1.1-.5 1.1-1 0-.6-.2-1-.4-1-.3 0-.8.4-1.1 1m-4.9 3.8c-.3.5.1.9.9.9s1.2-.4.9-.9c-.3-.4-.7-.8-.9-.8s-.6.4-.9.8m-8.9 11.9c-.4.3-.1 1.3.6 2.1 1 1.3.9 1.5-.8.8-1.6-.6-1.8-.5-.7.5 1 1.1 1.6 1 3-.5 1.3-1.4 1.4-1.7.2-1.4-.8.2-1.4-.3-1.2-1 .2-1.3-.1-1.5-1.1-.5M63 657.9c0 .6.4 1.3 1 1.6s.7-.1.4-.9c-.7-1.8-1.4-2.1-1.4-.7M667.5 672c-.3.5-.1 1 .4 1 .6 0 1.1-.5 1.1-1 0-.6-.2-1-.4-1-.3 0-.8.4-1.1 1m-608 12.8c.3.3 0 1-.5 1.7-.7.8-.5 1.2.5 1.2.8 0 1.3-.3 1-.5-.3-.3 0-1 .5-1.7.7-.8.5-1.2-.5-1.2-.8 0-1.3.3-1 .5m-3.1 6.8c.4 1.3-.1 2.7-1.3 4.1-1.7 1.8-1.8 2.2-.5 2.7.8.3 1.2 1.1.8 1.7-.3.6-.9.7-1.3.3-.6-.9-4.1-1.5-4.1-.8 0 .3 1 .8 2.3 1.3 2.7 1.1 5.2-.5 3.7-2.4-.8-.9-.6-1.4.4-1.8 1.5-.6 1.6-5.1.1-6.5-.4-.4-.5.2-.1 1.4m617.2 3.7c.3 1 .9 1.5 1.2 1.2s0-1.1-.7-1.8c-1-.9-1.1-.8-.5.6M50.5 707c.6 1 .4 1.2-.8.7-.9-.3-1.8-.3-2.1.1s.4.8 1.4.9c2.3.2 3.5-1.3 1.9-2.3-.8-.5-.9-.3-.4.6m624 12c-.3.6.1.7.9.4 1.8-.7 2.1-1.4.7-1.4-.6 0-1.3.4-1.6 1m-637.8 4.5c.3.8.9 1.2 1.4.9 1.2-.7 1.1-1.1-.5-1.7-1-.4-1.3-.1-.9.8"/></svg>