<svg xmlns="http://www.w3.org/2000/svg" width="928" height="640" viewBox="0 0 245.533 169.333"><path d="M31.564 6.75C17.7 6.75 6.75 17.7 6.75 31.564v106.204c0 13.864 10.95 24.816 24.814 24.816H213.97c13.864 0 24.814-10.952 24.814-24.816V31.564c0-13.864-10.95-24.814-24.814-24.814Z" fill="none" stroke="#000" stroke-width="2.91" stroke-linecap="round" stroke-dasharray="2.91 5.821" paint-order="markers stroke fill"/><g style="line-height:1.25;-inkscape-font-specification:&quot;BPreplay, Normal&quot;;font-variant-ligatures:normal;font-variant-caps:normal;font-variant-numeric:normal;font-variant-east-asian:normal;text-align:center" aria-label="draw here" font-weight="400" font-size="21.987" font-family="BPreplay" letter-spacing="0" word-spacing="0" text-anchor="middle" stroke-width=".55"><path d="M78.777 140.796c-.681-1.143-1.979-1.67-3.034-1.67-2.397 0-4.683 2.638-4.683 6.64 0 3.913 2.33 6.574 4.661 6.574 1.187 0 2.375-.682 3.254-2.023v.506c0 1.385.946 1.56 1.54 1.56 1.12 0 1.692-.571 1.692-1.626v-14.908c0-1.143-.571-1.759-1.693-1.759-1.121 0-1.737.616-1.737 1.76zm-2.198 8.268c-1.386 0-2.067-1.605-2.067-3.276 0-1.693.747-3.474 2.133-3.474 1.099 0 2.198 1.253 2.198 3.386s-1.165 3.364-2.264 3.364m7.389 1.341c0 1.121.572 1.693 1.693 1.693 1.165 0 1.693-.572 1.693-1.693v-6.135c0-.967.967-1.649 1.803-1.649.22 0 .352.044.506.066.22.044.505.066.813.066a1.72 1.72 0 0 0 1.737-1.715c0-.901-.66-1.869-2.418-1.869-.924 0-2.353.902-2.727 1.628-.044-1.034-.725-1.452-1.407-1.452-1.121 0-1.693.572-1.693 1.76zm10.566-10.51c-.704.286-1.144.77-1.144 1.385 0 1.121.792 1.385 1.627 1.385.792 0 1.517-.285 2.419-.285 1.231 0 2.682.791 2.682 2.088v1.078c-.791-.572-1.957-.902-3.144-.902-2.814 0-4.463 2.067-4.463 4.046 0 1.825 1.429 3.562 3.935 3.562 1.232 0 2.55-.506 3.584-1.605v.417c.066.902 1.012 1.188 1.386 1.188 1.077 0 1.715-.814 1.715-1.693v-6.574c0-3.364-2.77-4.684-5.563-4.684a8.1 8.1 0 0 0-3.034.594m1.429 8.355c0-.703.923-1.011 1.847-1.011.88 0 1.847.33 1.847.901 0 .77-1.056 1.165-2.045 1.165-.814 0-1.65-.351-1.65-1.055m12.568-7.695c-.352-.858-.88-1.276-1.76-1.276-1.165 0-1.693.55-1.693 1.76 0 .263.374 1.45 3.1 9.586.33.945.99 1.473 1.913 1.473.902 0 1.606-.506 1.87-1.43l1.604-5.584c.858 2.528.88 3.1 1.693 5.54.33.968.924 1.452 1.76 1.452.769 0 1.45-.44 1.758-1.385 2.419-7.08 2.88-8.663 2.99-9.059l-.021.154c.11-.286.154-.528.154-.792 0-1.165-.374-1.737-1.627-1.737-.88 0-1.474.418-1.76 1.298l-1.473 6.09c-.813-2.528-.703-3.43-1.539-5.937-.242-.923-1.231-1.407-1.935-1.407-.77 0-1.495.462-1.803 1.342l-1.67 6.2zm21.856 9.85c0 1.121.55 1.693 1.65 1.693 1.164 0 1.714-.572 1.714-1.693v-6.135c0-1.297.858-1.956 1.737-1.956.792 0 1.627.637 1.627 1.956v6.135c0 1.121.594 1.693 1.693 1.693 1.143 0 1.715-.572 1.715-1.693v-6.75c0-3.232-2.023-4.354-3.716-4.354-1.319 0-2.286.704-3.056 1.583v-4.815c0-1.143-.55-1.759-1.715-1.759-1.1 0-1.649.616-1.649 1.76zm17.204-11.302c-3.671 0-5.694 3.189-5.694 6.53 0 3.629 2.155 6.707 6.024 6.707 2.023 0 3.65-.748 4.75-2.111.286-.308.373-.616.373-1.011 0-1.012-.55-1.452-1.253-1.452-1.165 0-1.869 1.364-3.562 1.364-.945 0-2.902-.682-2.902-2.66h5.035c1.693 0 2.726 0 2.726-1.694 0-3.408-1.956-5.673-5.496-5.673m-2.088 5.08c0-1.364 1.121-2.09 2.133-2.09.967 0 1.935.682 1.935 2.09zm9.237 6.222c0 1.121.57 1.693 1.692 1.693 1.166 0 1.693-.572 1.693-1.693v-6.135c0-.967.968-1.649 1.803-1.649.22 0 .352.044.506.066.22.044.506.066.813.066a1.72 1.72 0 0 0 1.737-1.715c0-.901-.66-1.869-2.418-1.869-.924 0-2.353.902-2.727 1.628-.044-1.034-.725-1.452-1.407-1.452-1.121 0-1.693.572-1.693 1.76zm14.237-11.302c-3.672 0-5.695 3.189-5.695 6.53 0 3.629 2.155 6.707 6.024 6.707 2.023 0 3.65-.748 4.75-2.111.286-.308.373-.616.373-1.011 0-1.012-.55-1.452-1.253-1.452-1.165 0-1.869 1.364-3.562 1.364-.945 0-2.902-.682-2.902-2.66h5.035c1.693 0 2.726 0 2.726-1.694 0-3.408-1.956-5.673-5.496-5.673m-2.09 5.08c0-1.364 1.122-2.09 2.134-2.09.967 0 1.935.682 1.935 2.09z" style="-inkscape-font-specification:&quot;BPreplay, Normal&quot;;font-variant-ligatures:normal;font-variant-caps:normal;font-variant-numeric:normal;font-variant-east-asian:normal"/></g></svg>