<svg version="1.0" xmlns="http://www.w3.org/2000/svg" width="857.333" height="857.333" viewBox="0 0 643 643"><path d="M456.4 67c-8.8 1.2-26.2 8.3-34.9 14.2l-7.4 5-14.8-4.1c-32.6-9-45.2-10.6-79.3-10.5-35 .1-57.4 2.8-82.7 9.9-6.7 1.9-12.8 3.5-13.5 3.5s-5.3-2.5-10.3-5.5c-5.2-3.2-13-6.9-18.5-8.7-8.3-2.8-11.2-3.2-23-3.6-14.6-.5-27.7.8-40.2 4-26.4 6.6-56.5 25.5-71.2 44.7-16.9 21.9-34 57.6-43 89.6-6.4 22.8-11.2 58-10.9 81.5 0 9.9 2.2 42.9 3.3 49.5 5.2 34.6 8.4 49.1 14.1 66 9.1 26.7 26.6 58.5 42.4 77.5 9.2 10.9 26.2 27.2 32.3 31 2.9 1.8 5.1 3.5 4.8 3.8-1.5 1.4 22.2 13.1 35.9 17.7 9.6 3.3 18.1 4.5 33.7 4.8 21.7.5 39.6-.2 37.7-1.5-1-.6-.3-.7 2-.3 1.9.4 3.1.3 2.8-.2s5.4-2.6 12.6-4.6c23.5-6.7 58.2-21.9 72.8-31.8 3.8-2.6 6.5-3.9 7.6-3.5 1.3.5.1 1.7-4.9 5.1-7 4.7-36.2 18.8-46.6 22.5-3.4 1.3-6.1 2.5-5.8 2.7.5.5 15.7-5.4 25.1-9.7 3.9-1.8 11.1-5.2 16.2-7.5 5.1-2.4 13-7.1 17.6-10.4 4.6-3.4 8.7-6.1 9.1-6.1.5 0 2.2.9 3.9 2.1l3.2 2.1-3-2.6c-3.6-3.1-4.1-3.1-8.3-.6-4.3 2.7-4.8 2.5-2.2-.7 2-2.6 2.1-2.7.2-4.6-1.2-1.2-3.8-2.1-6.7-2.3-7.3-.6-9.7-3.7-5.2-6.7l2.2-1.5-2-2.2c-1.1-1.2-6.5-5.7-12-9.9-5.5-4.3-14.3-12.4-19.5-18.1-19.6-21.2-27.7-29.4-34.9-35.2-5.6-4.6-7.3-5.5-6.8-3.9.3 1.1.3 2.1 0 2.1s-4.7-3.9-9.9-8.7c-9.9-9-16.1-16.2-13.1-15 1.1.4 1.4.2 1-.9-.6-1.7-2.9-1.9-3.9-.3-.4.7 14.4 16.2 37.4 39 28.2 28 36 36.3 30.2 31.9-10.8-8.2-40-36-55.5-52.7-7-7.6-16-16.6-19.9-20.1-7.7-6.9-8.7-8.2-6-8.2 1.6 0 1.6-.2.4-1.4-1.2-1.1-2.6-1.2-7-.4-3 .5-10.9 1-17.5 1-13 .1-21.1-1.4-31.7-5.7-6.9-2.8-27-14.6-26.3-15.4.3-.2 1.1.1 1.7.7 2.3 2.3 3.1 1.2.9-1.2-1.3-1.4-2-2.9-1.6-3.5.3-.6.2-1.1-.3-1.1s-.8-1.1-.7-2.5c.2-1.4-.1-2.8-.7-3.1-.6-.4-.5-1 .3-1.5 1-.6 1.1-.9.2-.9-.7 0-1.3-.7-1.3-1.6s-.5-1.2-1.1-.8c-.7.4-1 .1-.7-.7.9-2.3-2.1-7.1-7.8-12.6-3-2.8-5.4-5.6-5.4-6.1 0-.6-.7-1.3-1.6-1.6s-1.2-1.1-.8-1.8c.5-.8 0-.7-1.1.2-1 .8-1.6 1-1.3.5.4-.6.4-1.6 0-2.1-1-1.4-12.5-7.9-13.5-7.6-.4.1-1.8-.3-3-1s-2.7-1.3-3.3-1.4C63 303 58.7 298.2 55 292c-6.7-11.4-6.5-11.4-6.5 1.4 0 11.7.8 13.5 2.5 5.5l.9-4.4-.4 5.4c-.2 3-.9 5.7-1.5 6.1-1.9 1.2-2.2 9.5-1.1 29.8 1.3 22 2.5 31 7.2 50.2 6.4 26.2 19.4 52 36.5 71.9 19.8 23.2 36.3 35 58.1 41.8 8.5 2.6 9.7 2.8 31.1 2.8 15.8 0 21.2.3 18.5.9-2.1.5-11.4 1-20.8 1-15.1 0-18-.3-26.5-2.6-21.4-5.8-34.1-13.9-53.9-34.1C89 457.3 81 446.8 72.9 433.1c-8.3-13.9-13.1-25.3-18.3-43.4-3.6-12.5-4.4-14.5-5-12.1l-.7 2.8-3.3-3.9c-3.5-4.1-4.7-8.3-7.1-25-.1-1.1-.8-4-1.5-6.5-1.2-4.3-1.8-12.7-2.4-33.5-.2-8.3.3-13.2 2.2-20.8.1-.4.2-1.9.2-3.3s.4-2.3.9-2c.4.3 1.4-1.3 2.1-3.4.7-2.2 1.7-4 2.2-4 .4 0 .8-1 .8-2.2s.3-1.8.6-1.5c.4.4.6 4.8.6 9.9-.1 6.2.2 8.6.8 7.3.5-1.1.9-7 .9-13 .1-11.4 1.4-20.2 5.6-36.8 2.5-9.6 4.2-14.3 5.1-13.4.2.2.8 6.4 1.4 13.8 1.5 22.4 7 36.4 21 53.2 14.1 17.1 29.4 28 47.8 34.3 12.5 4.3 19.8 5.4 35.4 5.4 7.6 0 12.9.4 13.3 1s1.1 4.1 1.6 7.8c1 6.8 6.9 21.1 9.7 23.4.8.7.3-1-1.2-3.9-2.9-5.8-3.1-6.8-1.4-5.7.7.5.9.2.5-.9-.7-1.9 1.7-4.1 3.8-3.4 2.5 1 2.7-1.1 1-8-1.5-6.1-1.5-7 0-12.7.9-3.3 1.5-8.1 1.3-10.6-.3-4.5-.3-4.5-3.6 5.5-1.8 5.6-4.3 11.3-5.6 12.8l-2.4 2.8-.4-5.8c-.2-3.2-.1-9.4.4-13.8 1.4-15.4 12.7-32.3 28.8-43 3.7-2.4 14.5-8.5 24.1-13.5l17.4-9.1 17.7-18.2 17.8-18.1-2.8-2.9c-7.3-7.8-10.5-10.6-11.5-10.4-.6.1-1.1-.4-1.2-1 0-.7-1-2-2.3-2.8-3.6-2.6-20.6-21.8-29.9-33.9-4.7-6.1-9.9-12.3-11.7-13.8-1.7-1.5-2.6-2.8-2.1-2.8 1.6 0 16.5 14.8 22.2 22 10 12.7 13 13.6 4.5 1.3-11.4-16.3-17.4-22.8-36.3-38.8-1.9-1.7-2.8-2.6-1.9-2 5.5 3.5 23.9 19.7 30.1 26.7 12.3 13.5 33.2 39.1 38.7 47.3 5.4 8 6.5 12.2 3.7 14.5-.8.7-1.5 1.7-1.5 2.3s-1.5 2.7-3.2 4.6c-2.2 2.3-1.1 1.6 2.9-1.8 7.8-6.5 12.1-11.8 20.7-25 3.8-5.6 8.9-12.4 11.4-15 2.6-2.5 5.6-5.8 6.7-7.3 5.8-7.3 35.9-39.9 45-48.6 10.1-9.7 31.5-26.5 42.8-33.6 21.3-13.4 49.9-23 72.9-24.3 22.7-1.3 43.2 4.8 64.9 19.2 16.6 11.1 30.6 28.3 43 52.8 13.2 26.2 21.6 50.9 28.3 83.2 5.1 24.8 6 33.7 5.9 57-.3 45.4-8.3 85.8-26.3 131.7-2.3 6-4.6 10.6-5.1 10.3-.4-.3-1.6.9-2.5 2.7-2.3 4.5-7.7 13.2-15.3 24.7-23.1 34.6-56.7 58.5-92.6 65.7-11.1 2.3-41.6 2.5-54.5.5-18.6-2.9-44.7-12.4-64-23.3-10.6-6-24.1-20.5-22.6-24.3.8-2.1-6.9 3.2-11.3 7.9l-3.4 3.5 8 3.9c8.9 4.3 17.3 9.9 17.3 11.6 0 2.6 5.2 6.9 13.5 11.1 9.4 4.9 13.1 7.4 8 5.5-1.6-.6-2.5-.7-2-.2 1.1 1 13.8 6.2 15.2 6.2.4 0 .1-.5-.7-1.1-1.2-.9-1.2-1 .3-.5 1 .3 2.4.6 3 .6.8 0 .8.3-.1.9-1.3.8.1 1.3 16.8 6.2 11.2 3.3 25.5 4.9 44 4.9 16.3 0 36.2-1.8 43.5-3.9 13.5-3.9 15.7-4.8 28-10.7 6.2-3 9.5-5.3 15.7-10.8.9-.8 2-1.1 2.4-.8.4.4.4.2.1-.4-.4-.6 3.2-4.1 7.9-8 24.3-19.5 44.2-48.4 59.4-86.3 4-9.9 11.4-33.8 13.8-44.6 6.4-28.4 7-32.2 7.7-43.5.4-5.8 1-16 1.4-22.8 1.7-26.6-2.4-66.5-9.9-95.2-2.7-10.2-9-29.5-13.4-41-8.4-21.6-28.4-55.4-39.5-66.6-15.4-15.7-37.7-27.3-64.6-33.5-10.2-2.3-35.7-3.4-46.1-1.9m-138.9 7c-1.8.8-1.8.9.5 1 1.4.1 1.9.4 1.2.7-1.8.7-4.4-.5-3.7-1.7.3-.5 1.4-1 2.3-.9 1.4 0 1.3.2-.3.9m-143 4.5c24.8 5.3 51.5 18.9 74.6 38.1 14.3 12 56.8 56.8 63.7 67.2 2 3 .2 5.3-2.4 3.1-1.6-1.3-1.7-1.2-.7.6.9 1.5.7 2.3-.9 3.7-1.2 1-2.4 1.8-2.8 1.8-.9 0-8.3-6.4-17-14.6-21.5-20.2-50.4-42.7-66-51.1-9.3-5-21-9.1-33-11.4-15.3-2.9-38.6-2.4-49.5 1.1-15.9 5-27.5 12.9-44 29.4-10.9 11-14.1 14.9-19.7 24.5-3.7 6.2-8.1 15-9.8 19.5-1.7 4.4-4.3 10.8-5.9 14.1-4 8.2-12 36.7-13.8 49-.3 2.2-.9 4.9-1.3 5.9-.6 1.9-.7 1.8-1.2-.2-.4-1.2-.3-2.2 0-2.2.4 0 .8-1.6.9-3.5.2-1.9 1.4-7.6 2.7-12.7 2.7-10.6 2.8-12.8.9-12.1-1.8.7-1.7-5 .1-8.5 2.5-4.8 13.5-30.6 14.1-33.2l.6-2.5L62 187c-1.1 1.4-7.2 12.8-13.5 25.5-17.7 35.4-21.9 52.8-21.8 89.5 0 40.5 7.5 74.5 25.1 113.8 9.6 21.6 27.6 47.8 43.4 63.4 21.1 20.8 44.3 32.1 71.7 34.8 21.9 2.3 55.9-4 75.4-13.9 11.3-5.7 31.2-18.8 38-25.1l5.1-4.7-1.8-2.9-1.9-2.9 2.4 2.1c1.3 1.2 3 1.9 3.7 1.7.7-.3 1 .1.7.9s.7 2.6 2.3 4.1c2.7 2.6 2.8 2.9 1.9 9l-1 6.2-10.9 6.4c-37.8 22-58.4 28.8-93.3 30.7-35.1 1.9-73.6-13.6-100.5-40.5-5.8-5.8-12.8-13.5-15.5-17.1s-5.8-7.4-6.8-8.5c-1.1-1.1-3.6-4.3-5.7-7-2.1-2.8-4.9-6.3-6.4-7.8-1.4-1.5-3.3-4-4.1-5.5-.9-1.5-2.4-4.1-3.3-5.7-3.1-5.1-11.1-23.7-14.2-33.1-3.9-11.3-10.4-37.1-12.4-48.9-5.2-30.2-6-81.7-1.7-109.2 4.5-28.6 14.4-60.1 26.7-84.7 11.1-22.1 19.2-34.3 30.2-45.7 17-17.6 32.6-26.9 55.2-32.8 9.6-2.5 34.8-2.8 45.5-.6m156.8 3.1c1.5.3 2.7 1.2 2.7 2 0 1.3-2 1.5-11.7 1.3-15.4-.2-19.1-1.9-7.8-3.4 8-1.1 11.5-1.1 16.8.1m19.5 7.4c23.9 3.9 44.8 9.2 43.7 11-.4.6-1.9 1-3.4 1-1.6 0-4.8.7-7.1 1.5s-5.5 1.5-7 1.5-3.7.9-5 2c-2.1 1.8-11.9 6-14.1 6-.6 0-3.6 1.2-6.7 2.6-10.4 4.7-12 5.4-13.1 5.4-.6 0-1.1.4-1.1.8 0 .5-1.8 1.7-3.9 2.7-2.2.9-5.9 3.5-8.3 5.6-2.3 2.1-5 3.9-5.9 3.9s-1.9.6-2.2 1.3c-.5 1.3-5.4 2-14.2 2-6.4 0-10.7-.9-16-3.2-2.7-1.2-6.3-2.8-8-3.6-1.6-.7-4.3-1.8-6-2.3-5.1-1.6-13.2-7.4-29.3-20.9-8.8-7.5-9.7-6.6 12.4-11.2 45.1-9.4 66.8-10.7 95.2-6.1m-150.7 38.7c1.3 1.6 1.2 1.7-.3.4-1.7-1.3-2.2-2.1-1.4-2.1.2 0 1 .8 1.7 1.7m-11.8 6.7c8.9 2.7 18.7 7 18.7 8.4 0 .9 5.3 7.3 9.9 12.2 9.8 10.3 21.6 32.4 24.7 46.5 2.2 9.4 2.7 35.1.8 36.3-.7.4-1.4 1.6-1.7 2.7-.4 1.1-.4-2.3-.1-7.5.6-11.8-1.1-26.3-4.1-35.5-4.6-13.7-7.5-21.5-9-24.2-1-1.7-1.4-2-1.1-.8.5 1.8.5 1.8-.7.4-.7-1-1.8-1.3-2.7-.8-10.3 5.3-11.4 5.6-14.7 3.8-1.8-.9-3-1.9-2.7-2.2.6-.6-3.4-3.1-5.1-3.2-.5 0-2.6-.9-4.5-1.9l-3.5-1.8 4.1 4.3c7.3 7.9 7.1 8.5-.4 1.1-7.4-7.3-14.1-11.4-24-14.7-4.4-1.4-7.1-1.6-15.5-1-12.1.9-18.7 2.5-26.5 6.4-12.6 6.4-30.8 21.3-37.1 30.6-4.6 6.8-7.2 14.3-8.4 24.4-.8 6.8-1.3 8.9-1.8 7.1-1.7-6.2-.5 16.7 1.6 28 .2 1.4.2 1.9-.1 1.2-.3-.6-1-1-1.5-.6-.5.3-.9-.1-.9-.8 0-1-.2-1-.9.1-1.4 2.1-6.6-3.6-8.6-9.4-1-2.8-1.9-9.5-2.2-15.5-.5-9-.2-12 2-21 5.4-22.1 12.7-35 28.1-49.7 15-14.2 25.9-20.2 44.6-24.3 12.5-2.8 31.3-2.2 43.3 1.4m24.7 11.1c1.3 1.4 2.1 2.5 1.8 2.5-.2 0-1.5-1.1-2.8-2.5s-2.1-2.5-1.8-2.5c.2 0 1.5 1.1 2.8 2.5m6.6 5.7 2.9 3.3-3.2-2.9c-3.1-2.8-3.8-3.6-3-3.6.2 0 1.6 1.5 3.3 3.2m-47.5 9.8c3.5 1.1 8.7 3.3 11.6 5 6.4 3.7 16.2 12.7 18.6 17.1l1.8 3.4-2.1-2.5c-7.3-8.4-9.1-10.1-10.1-9.4q-1.05.6-.6-.3c2.1-3.4-24.7-15.9-29.6-13.9-.7.3-.6.5.4.5 1.1.1 1.4.9 1.1 3.1-.5 3.5-.4 3.4-5.7 1.5-5.9-2.1-12.1-1.8-20 1-3.8 1.4-7.1 2.5-7.2 2.5 0 0 .4-1.1 1-2.5 2.3-4.8 10.5-7.2 25.3-7.4 6.6-.1 11 .5 15.5 1.9m-12.3 9.9c2.1 1.1 2.2 1.8 2.4 13.4 0 6.7 0 13.1-.1 14.2s0 2.9.3 4c.5 1.9 1.2 2 15.6 1.6 8.2-.2 16-.1 17.3.3 3.6.9 4.7 4.6 4.5 15.9l-.1 10.2-.7-10.5c-.9-15.7-2.6-16.6-2.2-1.2.3 10.4.1 13.3-1.3 15.8-1.6 3-2 3.1-9.8 3.8-4.5.3-11.9.6-16.5.6-7.5 0-8.3.2-7.8 1.7.3 1 .6 7.9.7 15.3.3 16.1-.6 18.8-6.6 20.8-4.8 1.6-16.8 1-22-1.2-3.5-1.5-3.5-1.5-3.5-7.8 0-3.5.5-10.3 1.1-15.1.9-7.6.8-9.1-.5-11.3-1.6-2.4-1.8-2.4-17-2.4-8.4 0-15.6-.3-16-.8-.4-.4-1.3-.7-1.9-.7-3.5 0-3.2-27.4.3-31.8 1.8-2.1 2.4-2.2 16.1-1.9 7.9.1 14.8.7 15.5 1.3.9.7 1.9.7 3.3-.1 2-1 2.1-1.9 2.1-15.9 0-16.3-.1-16 6.6-18.6 4.5-1.7 16.7-1.5 20.2.4m29.3 1.8c1.3 1.6 1.2 1.7-.3.4-1-.7-1.8-1.5-1.8-1.7 0-.8.8-.3 2.1 1.3m35.4 1.3c.3.5.1 1-.4 1-.6 0-1.1-.5-1.1-1 0-.6.2-1 .4-1 .3 0 .8.4 1.1 1M49.6 215.7c-.8 1.5-1.5 2.5-1.6 2.1 0-1.2 2.3-5.8 2.7-5.4.3.2-.2 1.7-1.1 3.3M58 219c-1.1 3-1.9 4.7-2 3.8 0-1.9 3-10.1 3.6-9.6.1.2-.6 2.8-1.6 5.8m-11.6 9.8c.3.5-.1.9-.9.9s-1.2-.4-.9-.9c.3-.4.7-.8.9-.8s.6.4.9.8M50 232c0 .5-.4 1-1 1-.5 0-1-.5-1-1 0-.6.5-1 1-1 .6 0 1 .4 1 1m12.6 30.8c-.5.5-2.3-8.1-3-14.3-.3-2.8.3-.8 1.4 4.4s1.8 9.7 1.6 9.9m119.7-16.1c-1.8.2-4.8.2-6.5 0-1.8-.2-.4-.4 3.2-.4s5 .2 3.3.4m-138 23.4c-.5.5-.7-.7-.4-2.9.5-3.4.6-3.5.9-.8.2 1.6 0 3.2-.5 3.7m91.4 8.9c2.6 1.1 4 1.9 3 2-2.7 0-8-2.5-9.7-4.6-1.4-1.7-1.4-1.8.2-.6.9.8 3.8 2.2 6.5 3.2m20.1 2.7c-1 .2-2.8.2-4 0-1.3-.2-.5-.4 1.7-.4 2.2-.1 3.2.1 2.3.4m-10.3 4.9c6.1.3 12.9.1 15.2-.4 2.4-.5 4-.6 3.7-.1s-1.7.9-3.2.9c-2.1 0-2.4.2-1.2 1 2.5 1.6-16.1 1.2-23.7-.6-3.7-.8-7-1.8-7.3-2.1s.9-.3 2.5.1c1.7.4 8 .9 14 1.2M93 341.5c1.3 1.4 2.1 2.5 1.8 2.5-.2 0-1.5-1.1-2.8-2.5s-2.1-2.5-1.8-2.5c.2 0 1.5 1.1 2.8 2.5m-3.1 3c.9.6 3.2 2.6 5.2 4.5 6.6 6.5 10.7 10 11.8 10 .6 0 1 .5.8 1.2-.3 1.4 13.5 11.5 20.8 15.2 3 1.5 10 3.6 16.2 4.7 12 2.3 17.9 2.2 33.1-.7l9.2-1.8 4 3.9c3.6 3.5 3.8 4 2.3 5-1.1.6-8.9 1-19.3 1-20.3-.1-33.9-2.4-45-7.8-3.6-1.8-6.8-3.3-7.1-3.5-.4-.2-.5 1.4-.2 3.4.7 5-1.4 10.8-5.4 15.2-1.8 2-3.3 4.1-3.3 4.7 0 .7-.8 1.9-1.9 2.9-1 .9-3.5 5.3-5.5 9.9-4.6 10.2-9.9 20.9-10.8 22.2-.4.5-2 2.5-3.4 4.3l-2.7 3.4-4.4-7.9c-7.7-14-13.2-35.8-11.8-47.2 1-8.1 6.3-33.3 9.2-43.4.4-1.5 1-.9 3.2 2.5 3.3 5.2 19.5 20.3 25.2 23.6 2.3 1.2 5.3 3 6.7 3.9 3.5 2.1 2.1.8-4.8-4.7-9.8-7.8-28-25.2-28-26.6 0-1.5.1-1.5 5.9 2.1m8.2 1.2c1.3 1.6 1.2 1.7-.3.4-1-.7-1.8-1.5-1.8-1.7 0-.8.8-.3 2.1 1.3m76 56.8c6.5 6.9 6.8 7.4 2.4 3.8-5.9-4.8-8.6-7.7-11-11.8-2.1-3.4-2-3.3 8.6 8"/><path d="M400.8 77.7c.7.3 1.6.2 1.9-.1.4-.3-.2-.6-1.3-.5-1.1 0-1.4.3-.6.6M413 79c-.9.6-1 1-.3 1 .6 0 1.5-.5 1.8-1 .8-1.2.4-1.2-1.5 0M224.8 79.7c.6.2 1.8.2 2.5 0 .6-.3.1-.5-1.3-.5s-1.9.2-1.2.5M408.8 79.7c.7.3 1.6.2 1.9-.1.4-.3-.2-.6-1.3-.5-1.1 0-1.4.3-.6.6M449 114.4c-23.2 5-41.9 14.8-73 38.5-19.1 14.5-26.3 20.6-42.2 35.9l-7.7 7.4 5.1 7.6c2.8 4.3 7.6 10.8 10.6 14.6l5.6 7 1.2-4.7c1.8-7 11.6-19.9 37.8-49.6 13.3-15.1 20-21.8 32.1-32.2 11.7-10 20-15.8 10.5-7.3-12.3 11-24.8 23.9-33.4 34.4-4.7 5.8-8.6 10.8-8.6 11.3 0 .4 3.2-2.8 7.2-7.3 3.9-4.4 7.3-7.8 7.6-7.6.2.3 2.8-1.5 5.8-4 3-2.4 5.8-4.4 6.2-4.4.3 0-1.9 2.6-4.9 5.7-3.1 3.2-7.5 8.3-10 11.3-6.5 8-16 18.4-17.2 18.9-.6.2.6-1.9 2.7-4.8 2.1-2.8 3.5-5.1 3.3-5.1-.3 0-3 3.3-6 7.2-3 4-11.6 13.7-19.1 21.5S349 223.5 349 224.3c0 .7 3 4.2 6.6 7.7 5.9 5.8 17.8 21.1 34.9 44.5 3.2 4.4 5.5 7.2 5.1 6.1-.6-1.8-.5-1.8 2-.1 1.4.9 2.7 1.5 2.9 1.3s-1.9-3-4.6-6.3c-9.5-11.3-10.9-13-18-22-8.3-10.5-11-15.1-4.9-8.2 7.6 8.5 23.2 19.2 42.4 29 15.5 7.8 19.1 10.1 25.3 16.1 7.8 7.4 12 14.5 14.3 24.2.9 4.2.9 5.6-.2 7.3-2 3.3-3.5 2.5-4.7-2.7-1.7-6.7-10.1-21.4-10.1-17.5 0 .4.9 3.5 1.9 6.8 3.5 11.2 4.4 19.9 3.3 33.6-1 11.4-1.4 13.4-5.2 22-2.3 5.2-5.1 11.6-6.2 14.3-2.1 5.3-13.5 18.8-17.7 21.1-1.4.8-5.5 4.2-9.1 7.6s-15.9 14.8-27.5 25.4c-20.3 18.6-35.5 33.6-35.5 35 0 .3.6.3 1.3-.2.6-.4 1.5-.8 1.9-.8 2.3 0 83-78.7 89.3-87.1 5.5-7.2 6.8-9.8 4-7.4-1.2 1-1.2.7.1-1.9.9-1.7 2.3-3.1 3.1-3.1 1.4 0 1.3.3-.3 2.1-1.4 1.6-1.5 2.1-.4 1.7 1.7-.5 9.8-11.9 13.6-19.2 2.1-3.9 5.3-15.3 5.4-18.8 0-.4 3.9-.5 8.8-.2 45.5 3.2 88-27.2 102.2-73.2 2.8-9.2 4-16.9 4.9-32.1.5-7.2 1.2-13.7 1.7-14.4.5-.8 1.2 1.3 2 5.6.7 3.9 2.6 14.4 4.3 23.5s3.4 20.8 3.7 26c1.1 17.6 1.9 66.8 1.2 66.3-.5-.2-.7 2-.6 4.9l.1 5.3.7-4.5c.4-2.5.8-3.8 1-3 1.9 9.6 2.7-80.3.9-98.5-.6-6.1-2.1-14.1-3.5-18-9.4-27.9-12.6-36.2-17.3-45.3-3-5.6-6.1-10.8-6.9-11.4-.7-.7-.1 1 1.5 3.8 2.5 4.3 4 7.4 9.8 20.9 1.4 3.2 2.7 10.5 1.9 10.5-.3 0-2.1-3.5-4.1-7.8-14.3-31.3-20.6-41.5-32.2-52.4-12.5-11.7-28.8-20.3-47.2-24.8-11-2.7-36.4-3.6-45.9-1.6m28.5 17.4c3.1.6 3.6.9 2.1 1.5-1.1.4-1.6 1.3-1.2 2.3.4 1.1-1.4 3.5-5.5 7.5-3.3 3.2-6.5 5.9-7 5.9-1.8 0-12.5 8.1-15 11.2-4.7 6.1-9.9 10.9-10.9 10.3-.6-.4-.9-.3-.8.2.4 1.1-3.9 5.3-4.6 4.5-.3-.3-.6 0-.6.6s-.9 1.4-2 1.7c-1.1.4-1.8 1-1.5 1.5.3.4-.2 1.1-1.1 1.4-2.8 1.1-12.2 7.6-15.6 10.9-1.9 1.8-5 5.4-7 8.2-2 2.7-4.9 6.1-6.5 7.5-2.8 2.6-5.7 7-8 12.5-1.2 2.7-1.3 2.2-.8-4.7 1.3-18.1 11.2-44.5 21.4-57.1 9.8-12.1 30.8-22.7 50.8-25.6 7.5-1.1 9-1.1 13.8-.3m-4.9 15.5c-1 .7-3.3 2.3-5 3.7-2 1.6-2.6 1.8-1.6.6 1.4-1.8 7-5.7 8-5.5.3 0-.3.6-1.4 1.2m21.1 3.3c7.2 4.2 11.6 14.7 9.9 23.7-1 5.6-6.3 12.5-12 15.7-4 2.4-6.3 3-10.9 3-3.2 0-6.3-.5-7-1-.7-.6-2.4-1.9-4-3.1-1.5-1.1-3.9-4.1-5.4-6.6-3.3-5.7-3.8-16.7-.9-22.3 6.2-12 19-15.9 30.3-9.4m-45.5 53.9c8.1 5.7 10.6 15 7.2 26.6-2.2 7.2-4.6 10.3-9.4 12.3-4.9 2-13.9 2.1-18.3.2-4.4-1.8-12.1-10.4-13.7-15-3-9.2 1.7-20 11-24.9 4.8-2.5 6.3-2.8 12.2-2.5 5.5.3 7.5.9 11 3.3m96.2.2c6.3 4.4 8.6 9.3 8.6 18.3 0 9.3-2.9 16.3-8.6 20.6-3.3 2.6-4.5 2.9-10.8 2.8-7.3 0-14.9-2.5-18.9-6.2-6.7-6-9.2-20.4-4.8-27.6 4.6-7.4 14.2-11.9 24-11.2 5 .3 7.2 1 10.5 3.3m41.9 18.1c1.7 1.8 1.3 6.7-.4 5.6-.5-.3-.9 0-.9.6 0 .7.7.9 1.6.6 2-.8 4.1.4 2.4 1.4-.9.5-.9 2.1-.1 6.5 1.5 7.8.6 8.3-1 .6-.7-3.4-1.6-6.1-2.1-6.1-.4 0-1.2-1.7-1.7-3.8-2-6.9-1.1-9 2.2-5.4M359 224.5c-.6.8-.8 2-.4 2.6.4.8.3.9-.4.5-1.6-1-1.5-3.3.1-3.9 1.9-.8 2-.8.7.8m133.6 32.3c8.3 4.3 12.4 10.9 12.4 20 0 8-3.8 14.1-11.9 19.3-5.1 3.3-12.7 3.9-18.5 1.5-4.9-2-11.4-8.3-12.1-11.6-.4-1.6-1.5-4.1-2.7-5.5-1.6-2-1.8-3.3-1.3-6.8 1.6-9.6 7-15.7 16.5-18.8 4-1.3 13.3-.3 17.6 1.9"/><path d="M585 225c0 .5.5 1 1.1 1 .5 0 .7-.5.4-1-.3-.6-.8-1-1.1-1-.2 0-.4.4-.4 1M579.3 224.5c0 2.2.2 3 .4 1.7.2-1.2.2-3 0-4-.3-.9-.5.1-.4 2.3M598.6 238c.9 8.5 1 21.1.1 25-.5 1.9-1.1 11.6-1.3 21.5s-.4 18.7-.4 19.5c-.1.8.2 5.7.6 10.7.6 8.4.5 9.3-1.1 9.3-1.3 0-1.5.4-.8 1.2 1.3 1.6 1.3 4.8.1 4.8-.5 0-.9 1-.8 2.2.1 1.3.1 2.5 0 2.8-.5 1.3-1 6.1-1.5 13.5-.6 10.6-1.5 15.5-2.6 15.5-.6 0-.7.4-.4 1 .3.5-.1 1-.9 1-1 0-1.6-.9-1.7-2.3 0-1.2-.9 2.1-1.9 7.3-2.6 13.9-4.5 20.5-10 35-9.6 25.5-22.4 46.1-38.6 62.5-16.1 16.1-33.2 27.4-48.4 31.9-13 3.9-35.2 5.7-44.5 3.6-3.2-.8-2.5-.8 3.7-.5 10 .6 26.5-1 36.3-3.5 10.7-2.7 24.5-9.5 34-16.7 10.9-8.3 27.9-26 34.7-36.3 22.3-33.7 32.6-69.7 34.3-120 .3-8.5.7-21.4 1-28.5l.4-13-3.4 7.3c-6.7 14.4-22.5 39.7-22.5 36.3 0-.7-1.2.1-2.6 1.6s-1.1.8.7-1.5c1.9-2.4 4.4-6 5.7-8 1.8-3 1.4-2.7-2 1.3-9.9 11.7-30.6 31.4-37.8 36-9.9 6.4-21.3 12.2-27.5 14.1-8.9 2.7-22 3.3-36.1 1.8-20.3-2.1-18.1-2.8-25.1 7.8-3.3 5.1-9.6 13.1-14 17.8-15.4 16.6-44.3 44.1-66.8 63.7l-6 5.2 6.5 6.3c13.6 13.3 42.9 28.6 65.6 34.4 21.6 5.4 47.4 5.9 65.9 1 36.9-9.6 69.7-41.5 91.2-89 6.5-14.3 15.2-40.2 19.4-57.4 6.4-26.6 10.5-74.5 8-94.7-1.7-13.7-4.9-27.1-7.7-32.5l-2.4-4.5zM554 340.8c0 .4-.6 1.4-1.2 2.1-.9 1-1 1.2-.1.7 1.4-.7 3 1.8 5.5 8.4 1.5 4.1 1.7 4.2 1.7 1.6.2-6.3 1-1.4 2.7 15.4 1.9 20 1.2 31.7-3 48.3-2.2 8.5-7.3 20.3-10.8 25-1.3 1.8-1.5 1.6-2.8-2.2-.7-2.3-1.7-4.1-2.2-4.1-.4 0-.7-.3-.6-.8.1-.4-.4-2-1-3.5-.7-1.6-1.2-3.4-1.2-4.1 0-.6-.5-1.7-1-2.2-.6-.6-1.3-2.1-1.5-3.5-1-4.6-1.4-6.4-2.3-9.4-.5-1.7-.7-3.6-.4-4.4.2-.8 0-1.1-.5-.8s-.8-.9-.8-2.6c0-1.8-.3-3.7-.7-4.3-.5-.6-.9-2.9-1.1-5.2-.1-2.2-.4-3.8-.7-3.7-.6.3-.6-2.8-.2-18.3.1-4 .6-6.1 1.2-5.7s.9.2.8-.3c-.2-.6 1.8-3.4 4.3-6.3 6.8-8.1 6.9-9 .4-2.9-11.6 10.9-13.1 12.2-18.3 15.6-7.1 4.8-25.3 10.9-38.5 13-9.4 1.5-12.9 1.6-25.9.7-8.2-.6-15.2-1.4-15.5-1.7-.4-.4.3-1.9 1.4-3.4 2.4-3.2 3.8-3.2 20.7-1.2 23.4 2.9 45.2-2.8 63.1-16.3 3.3-2.5 10.7-9.1 16.5-14.6 10-9.6 12-11.1 12-9.3m-85.6 55.4c-1.9 3.5-5.1 7.9-7.1 9.8l-3.6 3.5 3.5-5c1.9-2.8 4.9-7.1 6.7-9.8 1.8-2.6 3.4-4.7 3.6-4.7s-1.2 2.8-3.1 6.2M259.4 252.7c-17.4 19.7-34.3 36.5-35.5 35.7-.6-.3-.3-1.5.8-2.7 1-1.2.2-.9-1.8.8-2.1 1.7-6 4.8-8.8 7-6.8 5.4-16.5 19.6-18.1 26.7-3.2 14.5-2.3 24.2 3.8 37.1 5.7 12.2 21.5 31 36.7 44 4.4 3.7 9.1 7.8 10.5 9.1 1.4 1.2 4.5 3.7 7 5.5l4.5 3.3-4-3.6c-2.2-2-3.5-3.6-3-3.6.6 0 1.7.6 2.5 1.2.8.7.4 0-1-1.5-2.1-2.4-2.5-3.8-2.3-8.5 0-3.1.6-5.8 1.2-6s1.1-1 1.1-1.8.5-1.4 1-1.4c.6 0 1-.6 1-1.4s.7-1.7 1.6-2c.8-.3 1.2-1 .9-1.6s.1-1.3.9-1.6c1.3-.5 3.6-5.4 4.2-9.3.2-.8.7-1.7 1.3-2 .6-.4.6-1.2.1-2-.4-.8-.6-2-.3-2.8s-.7-2.8-2.3-4.6c-2-2.1-1-1.6 3.1 1.7 3.3 2.7 7.7 6.7 9.9 9l3.9 4.1-3.9-5c-2.1-2.8-6.1-7.8-8.9-11.1-9.5-11.6-14.5-18.2-14.5-19 0-.4 1.2-2 2.6-3.5l2.7-2.8 4.2 5.7c2.3 3.1 8 10 12.6 15.2s11.5 13.5 15.4 18.5c10.8 14 25.7 30.4 27.7 30.5.4 0 2.3-1.4 4.1-3 3.6-3.1 5.3-3.9 4.1-1.8-.4.7.7 0 2.4-1.6 1.8-1.6 3-3.2 2.7-3.4-.2-.3 2.8-3.9 6.7-8.1s10.5-11.8 14.6-17c4.1-5.1 11.6-14 16.7-19.7 5.1-5.6 9.8-11.1 10.4-12.1 1-1.7 1.3-1.5 4.1 1.5 1.6 1.8 3 3.8 3 4.5s-6 7.4-13.2 14.9c-7.3 7.5-15.1 15.9-17.3 18.8-17.1 22.3-17.4 22.8-15.2 22.5 5-.8 7.3-1.6 8.3-3 .6-.8 1.4-1.1 1.8-.7s.7.2.6-.3c-.4-2 0-3.5 1-3.5.6 0 2-.9 3.2-2 1.2-1 2.6-1.7 3.1-1.3.6.3.7.1.3-.5-.3-.6.3-1.3 1.4-1.7s1.8-1 1.5-1.5c-.6-1 3.5-2.5 10.8-3.6 2-.4 4-1 4.3-1.5s1.6-.9 2.9-.9 2.6-.4 2.9-.8c.3-.5 4.9-.9 10.3-1.1 8.3-.2 10.2.1 11.9 1.6 4.9 4.3 4.4 5.1-14.4 23.5-19.7 19.1-18.9 19 2.8-.2 15.1-13.4 36.6-35.4 40.9-41.8 1.3-2 3.2-4.6 4.2-5.7 3.7-4.3 5.9-13.7 5.8-25.7 0-6.2-.4-12.2-.9-13.3-.8-1.8-.9-1.8-1 .5l-.1 2.5-1.4-2.5c-.7-1.4-1.7-2.5-2.2-2.6-.4 0-2.1-.6-3.8-1.4-7.9-3.4-9.4-4-10.8-4-.9 0-1.9-.5-2.2-1-.4-.6-1-.8-1.5-.5s-1.6-.8-2.5-2.5c-.8-1.6-1.8-3-2-3-.3 0 .5 2.1 1.9 4.7 3.7 7.6 7.4 18.4 9 27.3 1.5 7.8 2.2 25.1 1.1 26.2-.9.8-7.6-5.4-45.5-42.4-41.7-40.7-63-62.1-63-63.3 0-.5 3.8 2.8 8.4 7.3s8.7 8.2 9.1 8.2-3-4.1-7.6-9c-4.5-5-8.7-9-9.3-9-.7 0-3 2.1-5.1 4.7-6.9 8.4-45.3 48.2-61.5 63.8-8.5 8.2-20.5 20.1-26.7 26.2-6.2 6.2-11.4 11.3-11.7 11.3-.2 0-.6-.9-.9-2-.3-1.3-.1-1.8.6-1.3.8.4.8.1-.1-.9-.9-1.1-1.1-5.4-.9-15.4.2-13.8.3-14 3.9-21.4 2-4.1 7.5-14 12.2-21.9 4.7-7.8 8.6-14.5 8.6-14.8 0-1.2 8.9-13.6 16.3-22.6 15.3-18.7 18.3-23.6 6.1-10M377 368.1c-3 2.8-10.3 9.3-16.2 14.6-5.9 5.2-11.9 10.9-13.4 12.6l-2.5 3.2 1.4-3c2.5-5.1 32.8-32.7 35.6-32.5.3.1-1.9 2.3-4.9 5.1m-48 32.2c0 .2-1 1.2-2.2 2.3l-2.3 1.9 1.9-2.3c1.8-2.1 2.6-2.7 2.6-1.9m-78.5 11.5c-.3.3-1.1 0-1.8-.7-.9-1-.8-1.1.6-.5 1 .3 1.5.9 1.2 1.2M47.3 289.5c0 2.2.2 3 .4 1.7.2-1.2.2-3 0-4-.3-.9-.5.1-.4 2.3M45.3 307.5c0 3.3.2 4.5.4 2.7s.2-4.5 0-6-.4 0-.4 3.3M45.3 332c0 3.6.2 5 .4 3.2.2-1.7.2-4.7 0-6.5-.2-1.7-.4-.3-.4 3.3M46.2 348.5c0 1.6.2 2.2.5 1.2.2-.9.2-2.3 0-3-.3-.6-.5.1-.5 1.8"/><path d="M589.2 350c0 1.9.2 2.7.5 1.7.2-.9.2-2.5 0-3.5-.3-.9-.5-.1-.5 1.8M588.2 358.5c0 1.6.2 2.2.5 1.2.2-.9.2-2.3 0-3-.3-.6-.5.1-.5 1.8M47.2 361c0 1.4.2 1.9.5 1.2.2-.6.2-1.8 0-2.5-.3-.6-.5-.1-.5 1.3M48.2 367c0 1.9.2 2.7.5 1.7.2-.9.2-2.5 0-3.5-.3-.9-.5-.1-.5 1.8M49.1 372.6c0 1.1.3 1.4.6.6.3-.7.2-1.6-.1-1.9-.3-.4-.6.2-.5 1.3M290.7 392.5c1.7 2.2 3.6 5.1 4.3 6.5 2.2 4.1 9.2 12.5 10.3 12.2.5-.2 1.9.5 3 1.5 5.1 4.4-5.6-8.4-16.7-20.1l-3.8-4.1zM267 426c2.5 2.2 4.9 4 5.4 4 1.2 0 1.1 0-4.9-4.4l-5-3.7zM335.9 501.7c3.1 2.4 25.3 14.3 26.6 14.3.6 0-4.2-2.8-10.5-6.1s-13.1-7-15-8c-2.8-1.6-3-1.7-1.1-.2M240 529c-4.7 1.5-8.1 2.8-7.6 2.9 1.4.1 17.6-4.9 17.6-5.4 0-.7-.8-.5-10 2.5M224.8 533.7c.7.3 1.6.2 1.9-.1.4-.3-.2-.6-1.3-.5-1.1 0-1.4.3-.6.6M219.8 534.7c.7.3 1.6.2 1.9-.1.4-.3-.2-.6-1.3-.5-1.1 0-1.4.3-.6.6"/></svg>