<svg xmlns="http://www.w3.org/2000/svg" xmlns:xlink="http://www.w3.org/1999/xlink" width="1280" height="480"><defs><linearGradient id="prefix__g"><stop offset="0" stop-color="#fff"/><stop offset="1" stop-color="#e6e6e6"/></linearGradient><linearGradient id="prefix__f"><stop offset="0" stop-color="#fff"/><stop offset="1" stop-color="#e6e6e6"/></linearGradient><linearGradient id="prefix__e"><stop offset="0" stop-color="#fff"/><stop offset="1" stop-color="#e6e6e6"/></linearGradient><linearGradient id="prefix__d"><stop offset="0" stop-color="#fff"/><stop offset=".664" stop-color="#f0f0f0" stop-opacity=".941"/><stop offset="1" stop-color="#dcdcdc"/></linearGradient><linearGradient id="prefix__c"><stop offset="0" stop-color="#fff"/><stop offset=".711" stop-color="#f0f0f0"/><stop offset="1" stop-color="#dcdcdc"/></linearGradient><linearGradient id="prefix__b"><stop offset="0" stop-color="#22a418"/><stop offset="1" stop-color="#b0ed55"/></linearGradient><linearGradient id="prefix__a"><stop offset="0" stop-color="#72d7ee"/><stop offset="1" stop-color="#fff"/></linearGradient><linearGradient xlink:href="#prefix__a" id="prefix__j" x1="-37.239" y1="574.662" x2="-37.239" y2="757.683" gradientUnits="userSpaceOnUse"/><linearGradient xlink:href="#prefix__b" id="prefix__r" gradientUnits="userSpaceOnUse" x1="1331.429" y1="267.099" x2="1331.429" y2="122.143" gradientTransform="matrix(1 0 0 1.1064 0 -51.076)"/><linearGradient xlink:href="#prefix__c" id="prefix__m" x1="960.315" y1="30.754" x2="960.82" y2="80.969" gradientUnits="userSpaceOnUse"/><linearGradient xlink:href="#prefix__d" id="prefix__l" x1="830.914" y1="92.438" x2="830.914" y2="126.334" gradientUnits="userSpaceOnUse"/><linearGradient xlink:href="#prefix__e" id="prefix__o" x1="504.957" y1="76.781" x2="504.957" y2="106.149" gradientUnits="userSpaceOnUse" gradientTransform="translate(66)"/><linearGradient xlink:href="#prefix__f" id="prefix__k" x1="116.893" y1="32.636" x2="116.893" y2="61.922" gradientUnits="userSpaceOnUse"/><linearGradient xlink:href="#prefix__g" id="prefix__n" x1="212.227" y1="77.321" x2="212.227" y2="94.111" gradientUnits="userSpaceOnUse"/><linearGradient id="prefix__h"><stop offset="0" stop-color="#fff"/><stop offset="1" stop-color="#e6e6e6"/></linearGradient><linearGradient gradientTransform="matrix(-2.07677 0 0 1.80744 932.84 -49.246)" y2="61.922" x2="116.893" y1="32.636" x1="116.893" gradientUnits="userSpaceOnUse" id="prefix__p" xlink:href="#prefix__h"/><linearGradient id="prefix__i"><stop offset="0" stop-color="#fff"/><stop offset=".664" stop-color="#f0f0f0" stop-opacity=".941"/><stop offset="1" stop-color="#dcdcdc"/></linearGradient><linearGradient gradientTransform="translate(-578.594 -45.793)" y2="126.334" x2="830.914" y1="92.438" x1="830.914" gradientUnits="userSpaceOnUse" id="prefix__q" xlink:href="#prefix__i"/></defs><path d="M0 572.362h1280v480H0z" transform="translate(0 -572.362)" fill="url(#prefix__j)"/><path d="M109.21 32.692c-3.815-.141-8.226 2.763-7.75 6.969-3.264-1.077-7.976-1.172-9.87 2.26-.522 1.736.178 3.294-2.264 2.799-4.065.51-8.656 2.505-10.17 6.607-1.157 3.515 2.603 6.046 5.699 6.206 2.69.828 6.33-1.353 8.123-.816 2.123 4.311 7.7 5.275 12.031 4.51 2.793-.122 5.225-2.702 6.863-3.809 3.324 1.7 7.31 2.3 10.932 1.274 2.567 3.868 8.06 4.045 12.147 2.96 2.276-.987 3.923-1.952 6.023-.143 4.218 1.47 10.063.835 12.472-3.37-.152-3.658 5.4-1.452 6.56-4.924 1.744-3.697-2.242-6.949-5.295-8.232-1.368-.713-3.817-.642-1.64-2.29 2.011-2.94-.243-6.627-3.113-7.917-4.976-2.494-11.78-2.21-15.918 1.768-1.442 1.101-1.196 4.53-2.548 1.518-3.887-3.947-10.637-4.792-15.407-1.995-1.47-2.264-4.244-3.386-6.875-3.375" fill="url(#prefix__k)"/><path d="M834.668 91.395c-4.296 0-7.875 2.308-8.782 5.375a11 11 0 0 0-3.968-.719c-4.142 0-7.5 2.061-7.5 4.625 0 .06-.004.128 0 .188a9.2 9.2 0 0 0-1.813-.188c-3.538 0-6.473 2.034-7.156 4.719a11 11 0 0 0-1.125-.062c-3.994 0-7.25 2.092-7.25 4.656s3.256 4.625 7.25 4.625c.184 0 .35-.023.531-.031a4.35 4.35 0 0 0-.437 1.906c0 3.106 3.313 5.625 7.406 5.625 1.79 0 3.438-.479 4.719-1.281 1.212 2.672 4.095 4.647 7.656 4.937 4.893.398 9.255-2.56 10-6.687 1.483 2.026 4.161 3.406 7.25 3.406 3.794 0 7.041-2.054 8.125-4.875.9.474 1.926.75 3.031.75 2.537 0 4.74-1.422 5.719-3.469a7.6 7.6 0 0 0 3.75.969c3.945 0 7.156-2.9 7.156-6.5h-7.156l7.156-.031c-.004-3.598-3.214-6.5-7.156-6.5-.096 0-.186-.003-.281 0-1.502-1.687-4.883-2.844-8.813-2.844-.488 0-.969-.004-1.437.031-.086-3.494-2.116-6.281-4.625-6.281-1.468 0-2.774.975-3.625 2.469-1.155-2.783-4.594-4.813-8.625-4.813m11.125 16.594c.012.007.019.024.03.031h-13.562zm10 4.469c.007.012.024.018.03.03h-3.218zm-30.688 5.468 8.781.688c.005.007-.005.024 0 .031z" fill="url(#prefix__l)"/><path d="M987.305 32.182c-3.906 0-7.273 3.77-8.719 9.187-3.439-2.99-8.66-4.906-14.5-4.906-7.171 0-13.409 2.868-16.562 7.094-1.787-1.31-4.208-2.094-6.844-2.094-5.523 0-10 3.504-10 7.844 0 1.444.51 2.805 1.375 3.968-7.354.292-13.156 3.342-13.156 7.094 0 3.945 6.391 7.156 14.28 7.156 1.539 0 3.019-.118 4.407-.343 2.004 5.182 7.507 8.906 14 8.906 4.21 0 7.99-1.58 10.688-4.094 1.884 6.236 9.092 10.875 17.718 10.875 6.63 0 12.408-2.743 15.594-6.844 2.35 1.18 5.068 1.844 7.969 1.844 6.092 0 11.4-2.958 14.125-7.344.986.382 2.054.563 3.187.563 4.636 0 8.407-3.504 8.407-7.844 0-4.336-3.774-7.875-8.407-7.875-.171 0-.33.022-.5.031a5.3 5.3 0 0 0 .313-1.812c0-3.351-3.183-6.063-7.125-6.063-1.243 0-2.42.245-3.438.72-1.053-3.674-5.684-6.438-11.218-6.438-.958 0-1.861.094-2.75.25-1.343-5.765-4.782-9.875-8.844-9.875" fill="url(#prefix__m)"/><path d="M892.437 32.293c-2.374.341-4.104 2.424-4.397 4.989-1.137-.79-2.64-1.168-4.208-.942-2.622.377-4.566 2.32-4.804 4.574-1.038-.378-2.31-.489-3.642-.297-3.106.447-5.39 2.482-5.092 4.552.298 2.071 3.062 3.38 6.168 2.934a8 8 0 0 0 2.594-.847c.455 1.35 2.747 2.13 5.336 1.758 1.549-.222 2.863-.8 3.693-1.541 1.067.918 2.73 1.375 4.517 1.118a6.2 6.2 0 0 0 3.062-1.324c.807 1.303 2.393 2.055 4.05 1.817 1.702-.245 2.987-1.474 3.356-3.008.809.19 1.805.245 2.855.094 2.485-.357 4.339-1.66 4.16-2.903-.176-1.21-2.222-1.934-4.624-1.64a3.8 3.8 0 0 0 .096-1.529c-.34-2.345-2.752-3.93-5.373-3.552a5.3 5.3 0 0 0-1.723.532c-.654-3.066-3.263-5.183-6.024-4.785" fill="#fff"/><path d="M212.031 77.32c2.374.342 4.104 2.425 4.398 4.99 1.136-.79 2.638-1.168 4.208-.942 2.62.377 4.565 2.32 4.804 4.574 1.038-.377 2.31-.488 3.642-.297 3.106.447 5.389 2.482 5.09 4.552-.297 2.071-3.06 3.38-6.167 2.934a8 8 0 0 1-2.593-.847c-.456 1.35-2.748 2.13-5.336 1.758-1.55-.222-2.864-.8-3.693-1.541-1.068.918-2.73 1.375-4.518 1.118a6.2 6.2 0 0 1-3.062-1.324c-.807 1.303-2.393 2.055-4.05 1.817-1.702-.245-2.987-1.474-3.355-3.008-.81.191-1.805.245-2.855.094-2.485-.357-4.34-1.66-4.16-2.903.175-1.21 2.221-1.934 4.624-1.64a3.8 3.8 0 0 1-.096-1.529c.339-2.345 2.751-3.93 5.373-3.552.621.089 1.207.26 1.723.532.654-3.066 3.262-5.182 6.023-4.785" fill="url(#prefix__n)"/><path d="M580.763 76.664c3.814-.142 8.226 2.763 7.75 6.968 3.263-1.076 7.975-1.171 9.87 2.26.521 1.737-.178 3.295 2.263 2.8 4.066.51 8.657 2.505 10.17 6.607 1.157 3.515-2.603 6.046-5.699 6.206-2.689.828-6.33-1.353-8.123-.816-2.123 4.311-7.7 5.275-12.03 4.51-2.793-.123-5.225-2.702-6.863-3.809-3.324 1.7-7.31 2.3-10.932 1.274-2.568 3.868-8.06 4.045-12.148 2.96-2.275-.987-3.923-1.953-6.022-.144-4.219 1.47-10.063.835-12.472-3.37.152-3.657-5.401-1.451-6.561-4.923-1.744-3.697 2.243-6.95 5.295-8.232 1.368-.713 3.818-.642 1.64-2.29-2.01-2.94.243-6.628 3.113-7.918 4.977-2.493 11.78-2.208 15.918 1.769 1.443 1.1 1.196 4.529 2.548 1.517 3.888-3.946 10.638-4.79 15.408-1.994 1.47-2.265 4.244-3.386 6.875-3.375" fill="url(#prefix__o)"/><path d="M706.037 9.843c7.922-.255 17.083 4.994 16.095 12.596 6.777-1.946 16.563-2.118 20.498 4.085 1.082 3.137-.37 5.954 4.7 5.059 8.444.923 17.978 4.528 21.122 11.942 2.402 6.354-5.407 10.928-11.836 11.217-5.585 1.497-13.146-2.445-16.87-1.475-4.408 7.793-15.99 9.534-24.986 8.152-5.8-.222-10.85-4.884-14.252-6.885-6.903 3.072-15.18 4.157-22.702 2.302-5.332 6.992-16.74 7.312-25.229 5.35-4.725-1.784-8.147-3.528-12.506-.258-8.761 2.657-20.899 1.509-25.902-6.092.315-6.61-11.217-2.623-13.626-8.899-3.62-6.681 4.659-12.56 10.998-14.879 2.84-1.288 7.928-1.16 3.405-4.138-4.175-5.314.506-11.98 6.466-14.31 10.335-4.508 24.465-3.993 33.058 3.195 2.996 1.99 2.483 8.187 5.292 2.743 8.073-7.133 22.091-8.66 31.997-3.605 3.052-4.092 8.814-6.12 14.278-6.1" fill="url(#prefix__p)"/><path d="M256.074 45.602c-4.296 0-7.875 2.308-8.781 5.375a11 11 0 0 0-3.969-.72c-4.142 0-7.5 2.062-7.5 4.626 0 .06-.004.128 0 .187a9.2 9.2 0 0 0-1.812-.187c-3.539 0-6.474 2.033-7.157 4.719a11 11 0 0 0-1.125-.063c-3.994 0-7.25 2.092-7.25 4.656s3.256 4.625 7.25 4.625c.185 0 .35-.022.532-.03a4.35 4.35 0 0 0-.438 1.905c0 3.107 3.313 5.625 7.406 5.625 1.79 0 3.438-.478 4.72-1.28 1.212 2.672 4.094 4.647 7.655 4.937 4.893.398 9.255-2.56 10-6.688 1.484 2.026 4.162 3.406 7.25 3.406 3.795 0 7.042-2.053 8.125-4.875.901.475 1.927.75 3.032.75 2.536 0 4.739-1.422 5.718-3.468a7.6 7.6 0 0 0 3.75.968c3.945 0 7.157-2.9 7.157-6.5h-7.157l7.157-.03c-.004-3.598-3.214-6.5-7.157-6.5-.096 0-.186-.004-.28 0-1.503-1.687-4.884-2.845-8.813-2.845-.488 0-.97-.003-1.438.032-.086-3.495-2.116-6.282-4.625-6.282-1.468 0-2.774.976-3.625 2.47-1.154-2.784-4.593-4.813-8.625-4.813M267.2 62.195c.012.007.02.025.031.031h-13.562zm10 4.469c.007.012.024.019.031.031h-3.218zm-30.687 5.469 8.78.687c.006.007-.004.024 0 .031z" fill="url(#prefix__q)"/><path d="M0 114.886s69.424-59.561 160 0c76.994 50.384 148.364-28.388 197.143-69.546C412.857 7.406 497.473 39.443 530 78.532c30 37.934 72.254 62.318 110 36.354 38.571-25.29 101.896-37.412 140-7.903 50 47.417 147.143 39.514 180 7.903 38.571-36.354 124.286-42.676 160 0 51.429 36.353 160 0 160 0V480H0z" fill="url(#prefix__r)"/><g fill="#005108"><path d="M0 143.332c53.333 0 84.72-27.039 131.716 1.417 62.961 38.122 135.406 8.343 188.284-1.417 61.415-11.337 130.91 17.004 184.244 17.004 53.333 0 97.575-38.26 150.908-38.26 53.334 0 141.524 44.035 192.325 21.256 44.242-19.839 84.443 14.17 137.777 14.17s110.707-29.758 164.04-29.758c53.334 0 77.373 15.588 130.706 15.588V480H0z"/><path d="M700.299 134.954a7.5 11.071 0 1 1 0-.01l-7.5.01zm-110.643 15.632a13.084 6.346 69.553 1 1 0-.01l-7.5-5.704zm-144.169 1.326a7.5 14.285 0 1 1 0-.013l-7.5.013zm207.516-18.815a15.697 7.337-76.446 1 1 .002-.014l-7.502.014zm-103.766 22.402a11.98 6.93 62.056 1 1-.003-.01l-7.497.01zm-126.405-3.424a7.857 14.642 0 1 1 0-.013l-7.857.013zm56.002 6.882a7.5 11.071 0 1 1 0-.01l-7.5.01zm59.388-4.09a7.5 11.071 0 1 1 0-.01l-7.5.01zm79.96-15.163a11.681 7.108 66.296 1 1-.002-.01l-7.498.01z"/><path d="M639.61 133.989a11.681 7.108-66.296 1 1 .002-.01l-7.502.01zm-59.567 11.848a7.5 11.071 0 1 1 0-.01l-7.5.01zm84.059-15.7a13.084 6.346-52.45 1 1 .005-.01l-7.505.01zm-166.675 26.425a14.868 10.295 67.409 1 1-.003-.013l-10.712.013z"/><path d="M677.532 131.649a16.061 8.036-76.168 1 1 .002-.015l-8.217.015zm-277.94 17.863a7.5 11.071 0 1 1 0-.01l-7.5.01zm158.879 9.506a13.084 6.346 69.553 1 1 0-.01l-7.5-5.704zm-123.272-6.185a7.5 14.285 0 1 1 0-.013l-7.5.013zm21.831 2.176a15.697 7.337-76.446 1 1 .002-.014l-7.502.014zm70.9 2.473a11.98 6.93 62.056 1 1-.003-.01l-7.497.01z"/><path d="M408.503 147.44a7.857 14.642 0 1 1 0-.013l-7.857.013zm59.032 7.893a7.5 11.071 0 1 1 0-.01l-7.5.01zM597.7 138.63a7.5 11.071 0 1 1 0-.01l-7.5.01z"/><path d="M608.094 138.518a11.681 7.108 66.296 1 1-.002-.01l-7.498.01zm80.282-4.848a11.681 7.108-66.296 1 1 .002-.01l-7.502.01zM569.45 148.028a7.5 11.071 0 1 1 0-.01l-7.5.01zm-44.951 5.981a13.084 6.346-52.45 1 1 .005-.01l-7.505.01zm108.509-24.037a14.868 10.295 67.409 1 1-.003-.013l-10.712.013z"/><path d="M511.175 157.319a16.061 8.036-76.168 1 1 .002-.015l-8.217.015zM84.113 138.664a7.5 11.071 0 1 1 0-.01l-7.5.01zm169.168 20.177a13.084 6.346 69.553 1 1 0-.01l-7.5-5.704zm-86.59-7.765a7.5 14.285 0 1 1 0-.013l-7.5.013zM97.93 137.312a15.697 7.337-76.446 1 1 .002-.014l-7.502.014zm177.562 15.837a11.98 6.93 62.056 1 1-.003-.01l-7.497.01z"/><path d="M155.653 160.33a7.857 14.642 0 1 1 0-.013l-7.857.013zm-46.024-23.421a7.5 11.071 0 1 1 0-.01l-7.5.01zm190.203 16.617a7.5 11.071 0 1 1 0-.01l-7.5.01zm-81.159 8.576a11.681 7.108 66.296 1 1-.002-.01l-7.498.01zm120.423-17.331a11.681 7.108-66.296 1 1 .002-.01l-7.502.01z"/><path d="M231.042 163.689a7.5 11.071 0 1 1 0-.01l-7.5.01zm-107.365-24.286a13.084 6.346-52.45 1 1 .005-.01l-7.505.01zm57.578 16.828a14.868 10.295 67.409 1 1-.003-.013l-10.712.013zm130.103-3.701a16.061 8.036-76.168 1 1 .002-.014l-8.217.015z"/><path d="M132.919 147.161a7.5 11.071 0 1 1 0-.01l-7.5.01zm243.226 1.93a13.084 6.346 69.553 1 1 0-.01l-7.5-5.704zm-183.882 8.462a7.5 14.285 0 1 1 0-.013l-7.5.013zm195.073-11.966a15.697 7.337-76.446 1 1 .002-.014l-7.502.014zm-99.311 10.048a11.98 6.93 62.056 1 1-.003-.01l-7.497.01z"/><path d="M143.85 151.15a7.857 14.642 0 1 1 0-.013l-7.857.013zm61.052 11.933a7.5 11.071 0 1 1 0-.01l-7.5.01zm121.579-18.218a7.5 11.071 0 1 1 0-.01l-7.5.01zm-61.328 12.515a11.681 7.108 66.296 1 1-.002-.01l-7.498.01zM71.18 139.905a11.681 7.108-66.296 1 1 .002-.01l-7.502.01zm295.741 6.782a7.5 11.071 0 1 1 0-.01l-7.5.01z"/><path d="M316.414 147.616a13.084 6.346-52.45 1 1 .005-.01l-7.505.01zm39.818-5.852a14.868 10.295 67.409 1 1-.003-.013l-10.712.013zM244.5 164.059a16.061 8.036-76.168 1 1 .003-.015l-8.217.015zM15 146.24a7.5 11.071 0 1 1 0-.01l-7.5.01zm869.626-2.046a13.084 6.346 69.553 1 1 0-.01l-7.5-5.704zm-120.43 3.346a7.5 14.285 0 1 1 0-.013l-7.5.013zm47.912 2.904a15.697 7.337-76.446 1 1 .002-.014l-7.502.014zM35.95 138.107a7.857 14.642 0 1 1 0-.013l-7.857.013z"/><path d="M775.32 152.566a7.5 11.071 0 1 1 0-.01l-7.5.01zm84.642-5.607a7.5 11.071 0 1 1 0-.01l-7.5.01zm61.272-3.04a11.681 7.108 66.296 1 1-.002-.01l-7.498.01zm-123.529 9.438a11.681 7.108-66.296 1 1 .002-.01l-7.502.01z"/><path d="M871.984 139.445a7.5 11.071 0 1 1 0-.01l-7.5.01zm-81.102 7.534a13.084 6.346-52.45 1 1 .005-.01l-7.505.01zm-73.236-4.889a14.868 10.295 67.409 1 1-.003-.014l-10.712.013zm106.364 12.462a16.061 8.036-76.168 1 1 .003-.015l-8.217.015zm281.685-11.937a7.5 11.071 0 1 1 0-.01l-7.5.01zm-196.19 5.97a13.084 6.346 69.553 1 1 0-.01l-7.5-5.704z"/><path d="M1090.793 146.441a8.763 15.8 0 1 1 0-.014l-8.763.014zm-362.026-9.945a15.697 7.337-76.446 1 1 .002-.014l-7.502.014zm169.161 3.037a7.857 14.642 0 1 1 0-.013l-7.857.013zm-850.609 2.842a7.5 11.071 0 1 1 0-.01l-7.5.01z"/><path d="M58.79 140.319a7.5 11.071 0 1 1 0-.01l-7.5.01zm822.556 7.97a11.681 7.108 66.296 1 1-.002-.01l-7.498.01zm-43.966-.807a11.681 7.108-66.296 1 1 .002-.01l-7.502.01z"/><path d="M847.754 154.263a7.5 11.071 0 1 1 0-.01l-7.5.01zm-93.439-12.708a13.084 6.346-52.45 1 1 .005-.01l-7.505.01zm-722.847 4.249a14.868 10.295 67.409 1 1-.003-.013l-10.712.013z"/><path d="M742 143.35a16.061 8.036-76.168 1 1 .003-.014l-8.217.015zm202.763 14.002a7.5 11.071 0 1 1 0-.01l-7.5.01zm59.344-6.276a7.5 14.285 0 1 1 0-.013l-7.5.013zm10.031-11.744a15.697 7.337-76.446 1 1 .002-.014l-7.502.014zm61.259 6.775a7.857 17.673 0 1 1 0-.016l-7.857.016zm42.021-3.862a11.681 7.108-66.296 1 1 .002-.01l-7.502.01z"/><path d="M1017.682 151.525a13.084 6.346-52.45 1 1 .005-.01l-7.505.01zm45.436-5.901a14.868 10.295 67.409 1 1-.003-.013l-10.712.013zm-105.768.846a16.061 8.036-76.168 1 1 .003-.014l-8.217.015z"/><path d="M966.039 158.563a7.5 14.285 0 1 1 0-.013l-7.5.013zm14.256-4.895a15.697 7.337-76.446 1 1 .002-.014l-7.502.014zm41.377 5.058a7.857 14.642 0 1 1 0-.013l-7.857.013z"/><path d="M991.811 157.527a7.5 11.071 0 1 1 0-.01l-7.5.01zm53.898-7.611a7.5 11.071 0 1 1 0-.01l-7.5.01zm-110.849-.919a11.681 7.108-66.296 1 1 .002-.01l-7.502.01zm281.518 1.857a14.868 10.295 67.409 1 1-.003-.013l-10.712.013z"/><path d="M1032.42 154.462a16.061 8.036-76.168 1 1 .002-.015l-8.217.015zm120.939-13.273a7.5 11.071 0 1 1 0-.01l-7.5.01zm49.243 3.321a7.5 14.285 0 1 1 0-.013l-7.5.013zm-33.405-14.27a15.697 7.337-76.446 1 1 .002-.013l-7.502.014zm51.601 18.285a7.5 11.071 0 1 1 0-.01l-7.5.01z"/><path d="M1232.203 144.939a7.5 11.071 0 1 1 0-.01l-7.5.01zm-87.767-13.112a13.084 6.346-52.45 1 1 .005-.01l-7.505.01zm135.225 13.757a14.689 9.395 72.373 1 1-.002-.013l-9.658.013z"/><path d="M1131.602 129.803a16.061 8.036-76.168 1 1 .002-.015l-8.217.015zm111.253 15.247a13.084 6.346 69.553 1 1 0-.01l-7.5-5.704zm-49.417-10.07a15.697 7.337-76.446 1 1 .002-.013l-7.502.014zm71.262 11.289a11.681 7.108 66.296 1 1-.003-.01l-7.498.01z"/><path d="M1253.329 148.707a7.5 11.071 0 1 1 0-.01l-7.5.01zm-72.922-12.428a16.061 8.036-76.168 1 1 .002-.015l-8.217.015zm-889.474 11.977a15.697 7.337-76.446 1 1 .002-.014l-7.502.014zM55.762 134.745a7.857 17.673 0 1 1 0-.016l-7.857.016zm484.063 12.554a16.061 8.036-76.168 1 1 .002-.015l-8.217.015z"/><path d="M1249.076 130.236a7.5 11.071 0 1 1 0-.01l-7.5.01z"/><path d="M1234.175 134.062a8.763 15.8 0 1 1 0-.014l-8.763.014z"/><path d="M1218.778 133.728a7.857 17.673 0 1 1 0-.016l-7.857.016zm44.022 4.138a11.681 7.108-66.296 1 1 .002-.01l-7.502.01z"/><path d="M1206.499 133.244a14.868 10.295 67.409 1 1-.003-.013l-10.712.013zm-17.409 4.292a7.5 11.071 0 1 1 0-.01l-7.5.01zm-105.746-9.446a7.5 14.285 0 1 1 0-.013l-7.5.013zm18.195 4.015a7.5 11.071 0 1 1 0-.01l-7.5.01z"/><path d="M1112.944 128.519a7.5 11.071 0 1 1 0-.01l-7.5.01zm47.458.645a14.689 9.395 72.373 1 1-.002-.013l-9.658.013zm-38.805 1.466a13.084 6.346 69.553 1 1 0-.01l-7.5-5.705z"/><path d="M1145.441 129.849a11.681 7.108 66.296 1 1-.002-.01l-7.498.01zm-11.37 2.438a7.5 11.071 0 1 1 0-.01l-7.5.01z"/></g></svg>