<svg version="1.0" xmlns="http://www.w3.org/2000/svg" width="558.667" height="558.667" viewBox="0 0 419 419"><path d="M202 30v6h12V24h-12zm11 0v5h-10V25h10zm-47 12v6h12.1l-.3 5.7-.3 5.8-5.7.3-5.7.3-.3 5.7-.3 5.7-11.7.3-11.8.3v11.8l5.8.3 5.7.3v11l-17.7.3-17.8.2v11.9l11.8.3 11.7.3v11l-5.7.3-5.8.3V132l17.8.2 17.7.3v11l-17.7.3-17.8.2v11.9l5.8.3 5.7.3v11l-11.7.3-11.7.3-.3 5.7-.3 5.7-5.7.3-5.8.3v11.8l5.8.3 5.7.3.3 5.7.3 5.7 5.7.3 5.7.3v23l-5.7.3-5.8.3V216h-12v12h12l-.2 17.7-.3 17.8-5.7.3-5.8.3V252H94v12h12.1l-.3 5.7-.3 5.8-11.7.3-11.8.3v4.8c0 5.9-1.4 7.3-7.2 6.9l-4.3-.3-.3-5.8-.3-5.7H58.1l-.3 5.7-.3 5.8h-11l-.3-5.8-.3-5.7H22.1l-.3 5.7-.3 5.8-10.7.3-10.8.3V419h419v-63.3c0-34.7-.3-66.9-.7-71.5l-.6-8.2h-11.6l-.3 5.7-.3 5.8h-11l-.3-5.8-.3-5.7h-11.8l-.3 5.7-.3 5.8h-59l-.3-5.8-.3-5.7h-4.4c-7.6 0-7.5.2-7.5-12.6V252h-11.9l-.3 5.7-.3 5.8h-11l-.3-5.7-.3-5.7-5.7-.3-5.7-.3v-11l5.8-.3 5.7-.3v-11.8l-5.7-.3-5.8-.3v-11l11.8-.3 11.7-.3V192h-11.9l-.3 5.7-.3 5.8h-23v-11l5.7-.3 5.7-.3.3-5.7.3-5.7 11.8-.3 11.7-.3v-11.8l-11.7-.3-11.8-.3v-11l5.8-.3 5.7-.3V144h12v-12h-12v12.1l-5.7-.3-5.8-.3-.3-11.7-.3-11.8-23.7-.2-23.7-.3v-11l11.7-.3 11.7-.3.3-5.7.3-5.7h11l.3 5.7.3 5.8H286V96.1l-5.7-.3-5.8-.3-.3-5.7-.3-5.7-5.7-.3-5.7-.3-.3-5.8-.3-5.7H274V60h-12v12.1l-5.7-.3-5.8-.3-.3-5.7-.3-5.7-5.7-.3-5.7-.3-.3-5.8-.3-5.7H178V36h-12zm11 0v5h-10V37h10zm38 12c0 2.7-.4 5-1 5s-1 3-1 7v7h-10V59h-14v12h-12v12h-12v12h-10V83h-12V73h24V61h12V49h36zm-13.5 12v5.5h-11l-.3-4.4c-.5-6.7 0-7.2 6-6.9l5.3.3zm36 0v5.5h-23l-.3-4.4c-.5-7.2-.6-7.2 12-6.9l11.3.3zm35.5 0v5h-10V61h10zm-24 6c0 .6 2.7 1 6 1h6v12h12v12h12v10h-22v-6c0-3.3-.4-6-1-6-.5 0-1-2.3-1-5v-5h-10v5c0 2.7-.4 5-1 5s-1 2.7-1 6v6h-24v14h48v22h-10v-12h-26v14h24v10h-12v12h-12v26h14v-24h10v12h12v10h-12v12h-12v14.1l6.8-.3 6.7-.3.3-5.8.3-5.7H287v-12h10v22h-24v14h12v10h-12v14h11.9l.3 5.7.3 5.8 6.8.3 6.7.3V253h10v21.7l-16.6 1.2c-12.1 1-16.9 1-17.7.2-.6-.6-3.4-1.1-6.3-1.1h-5.2l-.6-5.8c-.4-3.1-.9-8.1-1.2-11l-.6-5.2H239v10h10v11.7l-8.4.6c-4.6.3-12.4.3-17.3 0-6.2-.4-9.2-.2-9.7.6-.9 1.4-10.6 1.5-10.6.1 0-.6-4.7-1-12-1h-11.9l-.3-5.8-.3-5.7h-13l-.3 11.7-.3 11.8h-33.7l-.6-5.3c-.3-2.8-.8-7.8-1.2-11l-.6-5.7H119v10h-12v-10h12v-14h11v-10h-11v-12h12v-26h-12v-10h22v12h26v-14h-24v-12h-24v-10h24v-14h-12v-10l17.3-.1c9.4-.1 19.9-.4 23.2-.8l6-.6.3-5.3.3-5.2H189v12h14v-12h10v12h14v-14h-12v-12h-14v12h-10v-12c0-7.3-.4-12-1-12-.5 0-1-2.2-1-5v-4.9l6.8-.3 6.7-.3.3-6.3.3-6.2h9.9V73h13c8 0 13-.4 13-1s2.3-1 5-1c2.8 0 5 .4 5 1m-59.5 6v5.5h-11l-.3-4.4c-.5-6.7 0-7.2 6-6.9l5.3.3zm12.5 0v5h-11V73h11zm-24.5 12v5.5h-11l-.3-4.4c-.5-6.7 0-7.2 6-6.9l5.3.3zm24 0v5.5h-11l-.3-4.4c-.5-6.7 0-7.2 6-6.9l5.3.3zm-36 12v5.5h-11l-.3-4.4c-.5-6.7 0-7.2 6-6.9l5.3.3zm-34.5 0v5h-12V97h12zm22 1v6h12v22h-34v-10h12v-7c0-4-.4-7-1-7-.5 0-1-2.3-1-5v-5h12zm26-1v5h-12V97h12zm10.5 18v11.5h-23l-.3-10.4c-.1-5.8 0-11.1.2-11.8.4-1.1 3.1-1.3 11.8-1.1l11.3.3zm24 6v5.5h-11l-.3-4.4c-.5-6.7 0-7.2 6-6.9l5.3.3zm-12 12v5.5h-11l-.3-4.4c-.5-6.7 0-7.2 6-6.9l5.3.3zm24 0v5.5h-11l-.3-4.4c-.5-6.7 0-7.2 6-6.9l5.3.3zm36 0v5.5h-23l-.3-4.4c-.5-7.2-.6-7.2 12-6.9l11.3.3zm35.5 0v5h-10v-10h10zm-23.5 12v5.5h-11l-.3-4.4c-.5-6.7 0-7.2 6-6.9l5.3.3zm11.5 0v5h-10v-10h10zm-23.5 12v5.5h-11l-.3-4.4c-.5-6.7 0-7.2 6-6.9l5.3.3zm11.5 0v5h-10v-10h10zm-23.5 18v11.5h-11l-.3-10.4c-.1-5.8 0-11.1.3-11.8.3-1 2-1.3 5.7-1.1l5.3.3zm24-6v5.5h-11l-.3-4.4c-.5-6.7 0-7.2 6-6.9l5.3.3zm23.5 0v5h-22v-10h22zm-155.5 12v5.5h-23l-.3-4.4c-.5-7.2-.6-7.2 12-6.9l11.3.3zm-24.5 0v5h-10v-10h10zm48.5 12v5.5h-23l-.3-4.4c-.5-7.2-.6-7.2 12-6.9l11.3.3zm96 12v5.5h-11l-.3-4.4c-.5-6.7 0-7.2 6-6.9l5.3.3zM117 222v5h-10v-10h10zm-12 36v5H95v-10h10zm144.5 24v5.5h-11l-.3-4.4c-.5-6.7 0-7.2 6-6.9l5.3.3zM94 282v5H83v-10h11zm0 12v6H82v-5.3c0-3 .3-5.7.7-6 .3-.4 3-.7 6-.7H94zm107 0v5h-10v-10h10zm48 0v5h-10v-10h10z"/><path d="M225 90v7h14V83h-14zm12.5 0v5.5h-11l-.3-4.4c-.5-6.7 0-7.2 6-6.9l5.3.3zM165 162c0 4 .4 7 1 7s1 2.2 1 5v5h10v-5c0-2.8.5-5 1-5 .6 0 1-3 1-7v-7h-14zm12.5 0v5.5h-11l-.3-4.4c-.5-6.7 0-7.2 6-6.9l5.3.3zm35.5 12v7h14v-14h-14zm12.5 0v5.5h-11l-.3-4.4c-.5-6.7 0-7.2 6-6.9l5.3.3zm-46.8 42.7c-.4.3-.7 2.5-.7 4.9 0 6.7-.6 7.4-6.1 7.4H167v10.7l7.7.7c4.2.3 9.6.6 12 .6h4.3v-4.3c0-2.3-.3-7.9-.7-12.5l-.6-8.2h-5.2c-2.8 0-5.5.3-5.8.7m10.8 17.3v5.5h-11l-.3-4.4c-.5-6.7 0-7.2 6-6.9l5.3.3zM141 254.8c0 2.2.3 8 .7 13.1l.6 9.2 6.1-.3 6.1-.3.3-12.8.3-12.7H141zm12.5 3.2v5.5h-11l-.3-4.4c-.5-6.7 0-7.2 6-6.9l5.3.3z"/></svg>