<svg xmlns="http://www.w3.org/2000/svg"><defs><font id="prefix__TempleRunBrushedCAPS" horiz-adv-x="499"><font-face x-height="558" ascent="750" bbox="-168.113 -257 1260.37 976" cap-height="704" descent="-250" font-family="Temple Run Brushed CAPS" font-variant="small-caps" font-weight="400" panose-1="2 0 0 0 0 0 0 0 0 0" underline-position="-100" underline-thickness="50" unicode-range="U+0020-FB05"/><glyph glyph-name=".notdef" horiz-adv-x="399"/><glyph d="M25 18c0-1-3 26 2 50s9 48 10 64 16 98 18 118 9 72 13 91 15 75 17 82 7 22 7 27-6 18 6 21 28 0 30 7 8 21 9 28c1 5-2 10-12 8-8-2-3 0-4 0-27-1-10 9-23 15s-7 7-14 18 8 9 7 19 5 17 9 26 7 6 10 17 1 10-2 23 5 10 12 16 18 0 31 1 7 2 7 7-30 5-43 11-2 21 11 25 38 3 49 1 25-4 59 8c31 11 182-12 195-21 0 0 31-10 59-37 13-12 20-29 28-46 1-3 6-3 7-6 9-21 13-45 13-72 0-32-10-59-24-82l-3-5c-2-3-3-6-5-8-31-41-71-65-75-67 1-1 13-6 27-20l5-6 4-5 6-9c13-22 25-55 25-103 0-62-39-110-85-144l-11-7C344 26 280 9 257 11c-20 1-37 3-45 5s-14 44-17 52-14 6-16 0-1-13-1-22-3-40-14-44-20-1-23-1 13 47-1 46-21-41-30-43-15 2-18 6-8 11-11 8S69-2 60-1s-8 25-13 24S37 12 32 9s-7 10-7 9m173 141c1-5 24-12 36-11s65 7 79 73-29 73-47 76c-8 1-17 1-24-1s-16-10-19-29-19-35-18-42 17-7 15-16-14-15-14-22-9-23-8-28m123 361c-6 0-29 6-39-23s-9-30-8-32-11-8-11-13-4-31-5-37-4-14-2-15c2 0 3 0 9-3s15 0 25 1 55 25 67 66-24 57-36 56m-153-6c-2 0-3-1-5-3s-1-3 0-6 1-3 3-5-2-5-5-11-1-12 6-13 7 4 8 4 1 5 3 7 1 4 1 6-1 4-2 6-1 5 0 8 1 5 0 6-7 1-9 1" glyph-name="B" horiz-adv-x="560" unicode="B"/><glyph d="M427 529c-24 0-46-5-66-14-8-3-16-7-23-11l-10-6c-5-3-14-5-18-9-5-4-6-9-10-13-70-62-109-164-109-216 0-15 3-30 8-42 2-4 8-8 6-12-10-21 2-12 7-11 6 1 7-9 11-13 25-26 57-38 73-38 28 0 69 23 76 26s23 2 27-4 1-9 3-14 3-8 1-13-11-4-14-6-8-12-5-18 27 11 27 8 0-18-1-25 3-10 7-14 7-9 9-18S395-2 271-2C126-2 61 88 37 176c-12 45-14 89-9 121 2 13 4 26 7 39 1 3 5 5 6 9 1 3-2 7-1 10l6 22c11 34 26 68 43 102 7 14 15 27 23 40 7 10 17 13 24 23 3 4 3 15 6 19l7 9 5 6 14 16c76 79 205 111 253 111s108-33 108-40 3-20 3-28-7-17-9-25-5-8-11-10-5 2-10 3-9 1-13-5 15-19 19-21-2-12-8-24-5-12-5-21-2-24-9-26-17 23-59 23" glyph-name="C" horiz-adv-x="522" unicode="C"/><glyph d="M30 64c1 1 5 57 9 67s6 46 9 65 5 51 9 78 34 193 38 204 10 31 15 37 7 8 11 1 9 0 15 0 2-23 14-23 7 30-7 34-31 0-42 1-12 1-14 11-1 19 1 26 10 8 8 14-10 12-5 25 27 21 29 33-31-24-25 18 35 46 47 45 22-5 42-2 77 0 87 0 13-4 22-6 15 1 24 4 26 2 35-2 88-21 111-31 82-51 107-155-21-228-25-240-23-44-34-54-1-33-65-102S290 13 273 11s-21 3-28 5-22-4-38 1-8 48-20 49-10-8-15-34-21-32-33-28-3 19-8 19-7-8-11-11S104 1 98 0 85 6 78 7s8 31-5 31S59 0 38 0s-9 63-8 64m252 462c-20-5-9-26-12-33s-7-20-13-27-3-33-4-42-5-44-8-57-21-97-23-100-5-17-5-24-8-33-13-39-11-43-5-51 30-5 99 38 83 127 87 137 4 25 2 30 10 9 5 79-74 98-110 89" glyph-name="D" horiz-adv-x="604" unicode="D"/><glyph d="M93 520c-14 3-16 14-14 25s10 25 14 30 1 12 2 19-2 9-7 15 0 14 1 19 15 6 17 7 9 5 7 11-20 0-20 8 3 16 7 18 44 10 62 13 26 4 39 10 64 2 84 3 143 1 166 2 28-9 30-18-3-9-7-12-5 0-8-3 4-10 3-13-7-4-14-1-14-7-10-15 30-6 30-17-12-18-17-23-9-17-9-17l7-13c2-3 3-20 1-32s-17-18-22-17-48 1-58 1-84 2-93 2-5-9-1-15 10-11 11-15-3-11-6-21-10-38-13-45-1-18 3-28 89-4 95-3 16-8 17-14-16-11-17-16 10-4 13-15-8-30-8-32-8-20-7-28-12-16-24-15-28-5-37-8-60-2-65-1-4 9-2 12-3 11-9 9-14-36-14-44-16-54-18-75 76-10 81-12 22-2 33-1 22-2 29-1-1 0 12 0 19-6 20-13 0-11-2-17-2-2-5-8-3-2-10-4-5-5-8-10 0-4 4-11 1-4 2-8 2-12 1-18 0-7-6-10-4 5-10 3-5-5-6-13 9-4 14-4 5-10 5-23-12-11-19-13-47-1-63-3-77 3-83 1-5 10-13 15-13-6-20-12-23-1-36-1-64-3-80-2-17 19-18 27 4 32 8 41 4 70 6 84 11 47 17 56 4 23 1 33 17 111 20 121 14 58 16 70 4 12 11 15 0 36 6 47 10 4 22 3 19 6 23 7 0-28 3-38 4-3 11-2 3 46 1 51-11 1-22 0-40-1-54 2" glyph-name="E" horiz-adv-x="478" unicode="E"/><glyph d="M28 6c-6 5 6 35 9 50s2 29 1 42 7 53 10 72 21 120 21 127 11 9 14 13-8 13-7 20 22 88 25 112 14 47 18 61 2 15-6 18-13-4-24-2-5 13-6 23 0 19 4 34 3 17 5 26 9 19 17 24 17 13 17 18-18 9-21 18 6 13 6 22 11 4 20 6 25 2 37 4 215 5 230 4 40-8 59-10 30-2 44-5 6-11 8-21-18-4-25-7-9-9-7-13 27 0 26-5-3-13-2-32-4-16-7-23-4-8-4-13 5-4 5-10 0-6-1-17-16-11-26-13-46-2-56-1-33-1-44-2-32 0-48 0-21-2-31 2-14-5-24-6-5-8-11-13-4-34 3-33 4 10 5 16 7 10 12 13 7 4 14 4 4-18 3-20-4-9-3-13-9-38-13-43-3-22 3-27 37-3 53-3 20-1 34-6 12-3 26 1 10-4 10-8 0-14 3-18-1-8-5-9-11-2-16-4-3-9 2-11 15 1 15-4-3-13-7-22-3-15-4-24 2-13 2-20-19-8-27-11-24-3-36 1-31 1-43 1-25-2-35-1-2 20-8 22-7-23-10-27-12-39-15-52-6-34-8-47-7-36-11-49-12-19-16-22 3-18 1-26-5-39-7-47-10-14-17-19-10-3-18 1 6 12 3 13 2 11-5 13-12-26-18-27-16 1-25 1-10 1-17 4-4 7-10 6-5-7-13-9-22-2-28 3" glyph-name="F" horiz-adv-x="490" unicode="F"/><glyph d="M303 275c-2 1-9-5-14-6s-9 12-9 21 29 0 34 4-5 4-11 12-23 4-21 15 2 15 8 20 10 9 14 16-11 6-9 13 2 14 2 25 8 6 30 9 94-2 110-4 36-2 45-4 10 3 18 6 19-5 29-5 5-4 5-17-8-42-14-47-4-9-5-19-1-3-30-97S368 56 360 48s-6 0-16 1-18-17-23-23S270-9 197 0C47 19 30 208 26 215s1 29 4 39-11 23-5 83 73 181 86 195 24 33 29 36 4-2 11 5-4 13 42 52 127 70 204 77 133-45 140-50-3-26-4-32-4-21-10-23-12-15-17-21-9-17-16-17-4 7-7 10-19-7-19-15 6-10 13-14-1-10-8-17-23-15-31-12-1 18-32 19-50-14-86-33-60-53-63-61-14-16-20-15-12-14-10-18 3-7-19-40-37-122-29-162 37-56 45-58 30-3 42 1 36 26 41 36 34 54 35 67 6 13 11 13 7 1 16 4 6 1 11-5 0-10-3-17 3-15 7-16 7 8 9 20 0 26-1 28-10 0-21 1-18 1-33 0-33-1-35 0" glyph-name="G" horiz-adv-x="558" unicode="G"/><glyph d="M151 1c-7-3-10 10-15 11s-10 6-14 3-7-3-14-8-21-4-34-5-1 31-11 30S49 5 39 6 26 23 27 33s2 24 5 31 11 92 9 99-3 2-2 7 8 4 12 14 4 20 4 31-6 35-5 41 26 159 31 194 16 101 21 111 5 16 6 25 15 83 18 89 13 13 23 13 15-4 19-6 3-9 8-17 5-12 10-6 13 36 22 36-2-37 16-35 0 23 10 27 21 3 27 5 7-15 13-20 10 18 17 21 10 5 18 4-10-55-9-72 0-38-4-49-11-12-11-27-15-51-15-65-14-70-17-80-13-40-6-41 23-3 27-1 9 9 2 12-16-2-15 6 3 11 13 11 36-1 46-3 20 1 27 2 18-2 23 5 11 21 13 31 27 121 30 131 8 18 8 31-2 26 5 35 8 33 14 45 4 20 15 21 30 6 34 3-7-42 4-43 14 36 22 41 19 8 26 8 10 8 18 6 16-13 23-16 19 8 27 7 16 0 18-5 1-13-3-24-47-149-47-161-11-59-16-68-15-17-16-22 2-21 1-28-22-76-28-94-7-29-11-49-31-178-34-195 0-50-15-49-4 42-11 42-13-6-17-13-6-27-17-28-12-1-17 4-20 15-23 10-31-11-36-11-19 7-17 18 3 24 5 42 2 35 7 50 5 47 7 60 8 72 8 81-26 13-39 11-44 3-55 4-20 8-26 0-13-16-13-24-10-65-13-73-8-44-11-53-16-83-17-91-5-18-7-21-8-4-15-7" glyph-name="H" horiz-adv-x="589" unicode="H"/><glyph d="M33 5c-11 6 14 90 14 116s6 66 9 86 9 112 12 128 6 42 8 57 14 42 14 54 0 33 3 45 12 48 12 67 6 37 8 59 13 62 14 67 31-12 39-11 6 14 11 18 19-1 31-1 10-7 23-8 27 18 32 22 15-4 19-8 0-50 10-48 24 49 31 51 14-9 20-16-7-36-7-44-17-38-20-50-17-51-18-61-20-65-22-83-39-148-39-148l-11-20c-4-7 3-20 0-39S196 88 196 75s-8-50-12-58-18-9-29-5 7 18 1 21 0 18-8 18 3-9-8-13-18-33-28-33-8 3-16 6-12 14-18 14-20-5-21-13S44-1 33 5" glyph-name="I" horiz-adv-x="345" unicode="I"/><glyph d="M82 134c34 0 51 29 59 39s16 54 13 69 0 32 4 42 4 51 6 63 13 106 14 119 11 17 13 27 0 49 0 62 23 97 26 106 13 23 17 29 10-5 17-8 0-18 3-27 13-16 15-10 1 17 1 27 3 16 7 18 28 2 37 4 10-3 15-6 2-38 9-36 16 21 22 33 14 4 30 5 23 2 33 4 6-7 3-22-5-22-10-38-28-110-29-121-2-14 0-25-4-25-13-35-7-17-10-31-18-108-22-119-8-33-10-37-5-19-4-29 2-21-9-94S211 5 105 0-51 43-51 50s16 10 11 13 2 5 8 15 4 14 6 16 16-4 24-4 5 11 3 17-11-8-17 0 5 18 12 26 11 18 16 28 5 11 12 6 24-33 58-33" glyph-name="J" horiz-adv-x="450" unicode="J"/><glyph d="M168 693c14-1 12-18 22-22s7 9 14 13 30 0 43 0 5-10 9-16 8-15 18-13 9 39 19 39 18-2 27-7-2-36-2-46 4-26 5-31-9-12-14-21-25-43-26-58-10-38-12-47-3-14 4-15 20 8 22 17 24 35 24 35l70 91c10 13 23 33 30 42s38 49 47 46 4-10 6-14 7-2 13 0 7-5 10-11 4-8 9-13 7 5 14 7 11-3 13-9-6-15-9-22 1-13 9-14 10 9 14 15 11 0 16-5 11-9 6-15-22-32-26-43-29-47-36-54-30-37-36-45-12-22-18-31-16-3-22-8-20-38-25-45-10-25-10-25l17-37c6-12 20-53 29-65s21-32 25-45 29-74 34-88 17-36 23-50 0-25-5-29-6-8-16-9-2 9-6 16-11 1-14-6-2-10-4-17-17-12-35-13-10 9-16 19-14 7-20 4 0-20 3-30-10-7-32-18-17 8-24 18-34 107-41 120-5 26-9 36-7 8-13 18-23 80-27 87-8 18-14 22-3 13-1 23 8 3 15 10-8 8-19 7-10-17-9-24-3-18-7-27-15-68-21-78-6-16-10-22 4-15 3-28-19-76-20-93-5-61-22-63-15 5-28 6-17-4-27-4 11 33-2 36S76 5 56 8 30 25 31 37s12 99 12 112 23 165 28 178 15 80 16 95 19 84 20 99 14 57 14 73 13 66 16 78 15 22 31 21" glyph-name="K" horiz-adv-x="581" unicode="K"/><glyph d="M29 51c0 1 9 76 9 92s18 62 23 75-6 61-7 75 23 137 27 154 9 51 13 76 20 116 24 128 8 36 16 41 15 2 33-1-3-49 11-49 19 55 29 56 11-23 15-26 12 10 17 19 16 8 24 7 26 2 38 0 18 0 23-9-19-64-17-74-14-57-19-76-34-156-38-170-15-36-13-43-9-74-18-116-4-51 5-56 45 0 59-2 47-2 65-1 44 0 54-4 6-13 5-20-17-11-24-10-21-3-21-8 31-9 35-8 5-10 6-12 3-9 3-22-6-9-13-9-12 3-17 3-3-11-1-17 5-8 12-11 8-7 9-17-13-9-18-10-69-4-88-1-75 1-81 4-35-6-44-7-22 3-26 6 4 20 4 24-12 3-17 0-8-25-17-27-36 1-57 2-23 43-23 44" glyph-name="L" horiz-adv-x="431" unicode="L"/><glyph d="M-33 19c-7 5-8 21-4 35s21 63 29 77 38 110 40 114 9 12 7 22 13 47 13 47l24 56c5 11 37 93 43 99s68 150 71 160 12 27 19 36 19 24 25 25-2-31 5-36 16 39 24 41 15-14 20-20 10 16 18 22 34 1 45-3 13-26 19-52 20-99 26-139 11-88 11-101 6-16 6-30 12-11 18-12 7 11 5 16-7-5-13-3-2 20-2 20l12 17c3 4 22 62 28 66s8 13 15 26 57 120 66 138 31 58 46 58 22 2 30 2-8-38-1-43 11 41 28 43 22-28 30-29 12 24 24 24 12-30 15-50 23-159 28-181-6-26-6-38 14-68 16-96-2-80 3-111 7-162 8-173 2-41-3-43-7 4-18 5-13 3-18 10-12 5-19 2-13-12-25-13-11 8-15 9-2 23-12 25-8-36-19-38-31 16-34 27-8 108-12 120 0 24 0 31-10 26-11 35-11 90-11 98-4 14-11 12-6-4-9-10-34-83-40-92-11-13-8-19-29-68-34-82-8-25-18-37-20-44-32-57-69-8-88-6-18 20-21 32-36 160-41 174-15 45-19 53 2 27 4 35 13 6 20 7-4 15-9 14-18-10-25-15-11-23-17-35-7-21-12-32-10-22-15-30-8-18-10-29-39-107-44-122-13-43-18-48-13-15-28-14 3 33-10 36-13-37-21-37-14 6-22 9-23-4-30-6-29-1-36 4" glyph-name="M" horiz-adv-x="800" unicode="M"/><glyph d="M50 187c1-1 8 66 11 91s29 175 33 192 17 22 21 33-5 39-1 54 25 73 35 112 40 27 52 26 8-72 20-74-8 76 8 72 14-39 25-41 6 41 29 39c20-2 70-115 76-123s-2-20 2-26 9-5 22-24 54-159 63-161 8 12 10 20 18 115 22 159 32 159 40 160 16 5 32 1-4-63 11-65 33 68 45 69 9-16 15-18 5 17 17 16 6-22 14-24 16 22 26 21 6-17-2-46-79-344-89-393S552 1 536 0s-21 27-30 27 2-27-5-28-18 17-24 17-5-16-10-16-13-6-27 3-91 157-101 175-66 177-84 178-45-171-50-197S176 5 168 3s-5 9-11 11-6-10-18-11-6 47-12 49-15-38-18-45-20-8-26-6-20 0-32 0-23 15-20 32 18 155 19 154" glyph-name="N" horiz-adv-x="687" unicode="N"/><glyph d="M332 483c-49-19-99-77-104-87s0-13-2-20-13-13-25-43-42-170 53-170 125 85 132 91 15 11 12 16 2 17 21 72 11 111 3 134-42 46-52 49-11 17-19 14 1-20 6-33 1-13-25-23M225 637c33 16 42 22 50 17s13-13 18-18 15-5 15 7-5 12-4 22-1 17 15 22 55 14 86 12 118-19 149-68 18-41 22-44 9-5 12-10 25-54 29-78 7-110-13-166c-6-17-16-42-30-72-5-11-17-22-23-34-5-9-4-18-10-28-33-55-79-112-137-149C323-1 269 0 236 0 215 0 134 8 80 80c-4 5-3 12-6 18-4 7-13 12-17 20-17 36-27 82-27 142 0 59 12 106 26 143 3 8 10 10 13 17 1 3 0 12 1 15 19 39 38 63 40 74 3 23 1 29 12 43s70 69 103 85m102-80c3-10 36 4 32 13s-35-3-32-13" glyph-name="O" horiz-adv-x="648" unicode="O"/><glyph d="M29 61c5 15 19 132 22 148s0 45 3 57 23 82 23 101 14 78 16 91 8 30 10 40 0 12 10 13 5 2 11 2 6-26 13-24-1 31-8 37-37 2-57 4-14 9-14 17 18 17 23 21 10 6 6 18-14 6-19 11-3 13 1 25 6 19 9 26 39 5 40 12-47 0-47 5-4 29 14 32 202 2 248-1 204-16 204-182-155-257-227-283-81-15-80-8 19 3 22 8 3 9-4 13-16 0-17 10 2 10 9 14 0 15-3 19-17-14-17-14l-19-76c-3-11-29-155-30-175S151-2 141 1s-7 7-13 10-25-8-43-8-3 23-15 28S52 1 33 2s-9 44-4 59m162 422c9 1 9 13 11 22s3 18 3 21-9 8-12 4-6-9-6-23-5-25 4-24m106 44c-14-3-9-5-12-19s-10-34-15-49-15-76-17-81-6-15 9-19 42 16 51 19 52 42 58 77-28 82-74 72" glyph-name="P" horiz-adv-x="547" unicode="P"/><glyph d="M269 146c29-5 59 10 51 24s-24 43-28 47-3 14 11 18 23 4 30 4 18 2 17 10-6 17 2 20 30-48 40-36-22 45-13 51 18 10 21 3 10-13 13-10 5 16 10 43 22 112-20 159-60 39-63 34 0-14-13-26-90-65-118-137-30-130-23-140 18-28 24-36 30-23 59-28M392 43c-34 0-39-45-150-45S64 75 36 178s11 211 36 256c29 51-3 22 35 90s136 115 154 121 27-18 34-28 9-8-1-15-16-23-10-27 20 11 30 16 3 9 3 15-8 16-10 23-17 20-17 25-8 48 103 48 208-134 208-262-80-258-88-274 13-38 24-52 15-13 21-23 4-17 13-30 8-24 15-37-8-18-20-19-27 40-33 35 19-36 16-38-21-5-31-2-15 13-23 17-7-5-12-6 0-12 0-16-25-12-35-11-15 2-22 13-20 46-34 46m-76 487c4-11 39 7 33 17s-37-6-33-17" glyph-name="Q" horiz-adv-x="628" unicode="Q"/><glyph d="M39 131c0 1 27 154 28 170s1 30-1 51 15 93 20 125 30 30 39 29 7-29 12-27 6 23 6 31-4 12-17 18-11-1-22-3-35 4-40 9 0 19 4 30 12 9 16 17 1 9-4 12-5 14-5 20-4 16-6 23 14 3 18 9 11 2 18 3 8 4 6 10-36 1-38 8 0 15 5 24 14 3 21 3 78 5 82 6 8-14 13-14 10 13 17 15 202 18 267-56 52-168 27-228-89-109-97-115-14-9-15-15 13 1 15 0 1-5 7-15 8-26 13-43 11-31 15-43 41-130 50-153-1-22-4-25-16-9-31-10-16 43-26 39 3-37-5-33-8 1-14 3-9 8-14 11-7-15-12-15-17-3-21-1-11 9-14 16-30 63-35 71-22 47-28 55-45 89-49 93-11 20-12 27 3 10 10 13 8 12 4 14-10 1-16-4-10-17-10-23-1-13-4-20-14-40-14-56-11-54-16-73-8-29-10-44-11-48-12-54-12-15-30-15-6 0-12 9-9 6-16 6S84-1 76 0s3 35-7 37S66-2 53 1 34 8 29 19s10 111 10 112m159 392c-12 0-25-38-13-38s25 38 13 38m86-1c-2-5-38-134-40-142s2-13 13-12 44 14 62 33 17 28 22 28 7 1 11 12 13 61-20 76-46 10-48 5" glyph-name="R" horiz-adv-x="554" unicode="R"/><glyph d="M148 152c37 1 69 26 68 78-1 14-12 28-28 43-8 7-15 18-24 26s-20 12-29 21c-35 35-68 84-70 163-1 56 20 99 52 132 13 13 30 19 45 29 13 8 24 22 37 28 50 23 102 31 134 32 75 2 148-33 144-50s-7-32-13-28c-7 3-39 15-40 6 0-9 5-16 14-16s17 2 18-6-4-43-12-48-10-4-14-15-9-20-9-20 8-24-4-20c-12 3-54 28-95 27s-58-38-47-74c7-24 54-56 86-114 6-11 9-25 14-38 4-12 10-22 12-36 2-13 4-28 4-43 2-82-46-148-114-189-11-6-22-9-34-14-14-6-28-15-43-19-27-8-56-13-84-13C14-9-8 56-5 59s4 19 8 20 15-17 25-16 11 4 11 11c1 7-10 14-16 15s-13 4-12 9 2 17 6 24c3 6 9 4 9 10s-2 17 0 21 8 13 10 19c1 6 11 4 18 1 8-3 57-22 94-21" glyph-name="S" horiz-adv-x="471" unicode="S"/><glyph d="M92 2c-1-2-1-2-11 2s2 123 2 134 9 67 14 77 0 25-2 35 9 64 10 73 20 131 20 136 3 27 6 38 20 13 26 12 7-26 15-26 8 30 6 35-27 8-40 5-9 1-17 0-73 3-87 3-2 10 1 20 28 5 28 13-12 8-25 10-6 11-5 17 5 13 8 20 2 13 0 19 9 5 16 9 21 10 21 12-15 3-23 3-16 7-16 13 3 14 6 25 16 10 33 9 38 0 53 1 59 4 83 1 31 1 46 0 110 1 135 0 49-3 65-4 9-4 9-15-4-11-4-20-2-11-9-16-18-6-28-5-16-1-16-10 14-9 35-8 15-4 11-14-8-40-6-50 2-18-2-28-39-4-52-5-56 0-68-1-16-19-8-36-11-56-18-75-10-15-13-21 3-27-1-38-3-29-2-35-36-155-43-190S221 17 215 6s-24-3-46-3-11 12-20 12-18-8-26-8 11 34-5 34S93 4 92 2" glyph-name="T" horiz-adv-x="464" unicode="T"/><glyph d="M174 0C97 0 66 70 57 91s-1 44-8 60 3 82 6 99 22 146 22 158 10 25 13 35-2 31 3 45 36 152 40 163 5 27 15 35 14 1 18-1-5-27-3-33 6 7 12 14 0 12 11 15 3-5 11-8 2 5 14 15 19 7 29 6 11 1 18-2-6-37-3-45 8 12 13 21 20 29 27 30 10 1 24-3 6-11 3-20-15-40-18-56 5-18 11-29-8-22-10-30-12-56-17-67-3-18-10-29-14-51-19-61 6-15 6-26-7-10-20-24-4-13-5-30-5-23-6-36-9-40-14-64-5-75 25-75 55 27 62 37 15 16 21 18 7-7 13-8 4 30 4 38 10 66 14 75 35 176 35 189 13 32 14 38 3 34 6 47 19 57 17 69 19 27 23 37 17 6 27 8 10-5 29-9 14 2 20 7 26-1 36-2 11-6 11-17-1-25 2-28 12 11 16 20 14 24 26 27 15-2 16-10-3-16-9-32-20-60-22-75-23-80-26-94-36-120-40-136-14-77-18-90-12-34-15-48-5-65-17-79-16-49-18-67-7-55-13-59-23 1-31 4 12 37-1 41-23-42-31-40-5 26-12 23-6-14-15-19-27-4-43-2 5 59-2 60 1 4-10-19S240 0 174 0m160 121c-2 5-26 0-23-10s25 5 23 10" glyph-name="U" horiz-adv-x="624" unicode="U"/><glyph d="M254 345c0 2 6 25 9 29s7 30 8 35 76 246 82 260 14 20 21 28 39 5 46 5 14-15 21-14 9 10 16 12 23-2 30-2-4-31 9-33 15 31 23 33 12 4 17-2-5-37-7-48-13-22-17-36-28-66-34-79-25-66-34-78-7-25-9-35-30-78-35-91-47-138-50-149-13-31-17-50-17-34-23-44-19-60-20-72-20-12-37-12 8 31-7 31-25-31-33-34 0 14-3 19-16 4-26 0-25-23-34-19-12 14-16 23-16 86-16 86l-15 77c-2 12-22 112-25 120s-11 75-17 85-3 56-3 56-23 186-30 209 4 37 9 36 9 1 18 5 13-5 23-6 7-15 10-23 10-33 13-33 7 14 5 24-2 34 16 40 15-14 25-21 15-21 22-24 7 14 5 22 10 19 30 23 14 2 25-6-1-61-2-75 1-56 3-71 1-70 5-82 2-44 4-63 2-48 2-50 3-33 4-36 7-19 10-18 10 13 5 23-6 23-6 25" glyph-name="V" unicode="V"/><glyph d="M124 1C92 16 85 155 80 171s-5 48-8 67-15 142-20 167-18 212-24 237 7 31 24 43 9-1 23 4c5 2 7 2 7 3h3c9 0 13-17 20-13s6 6 10 12 7 9 18 7 21 2 29-6 2-11-3-22 9-37 14-25 1 25 1 34 7 13 20 20 9 0 20-1 10-6 13-20-1-39-1-62-1-126-2-141 3-79 1-99-1-37 3-39-3 10 4 12 42 91 48 107 64 165 69 173 12 26 21 38 10 18 20 21 8-26 17-31 3 22 6 32 7 3 13 5 15 0 26-6 17-6 27-3 10-7 14-11-4-11-10-19-2-18 3-21 4 3 13 15 3 34 13 39 14 2 21-3 8-96 5-110 11-96 14-104 14-93 14-102 6-23 13-16 9 27 10 37 20 68 23 78 39 100 43 111 39 99 41 109 8 6 16 4 10-2 24 0 5 4 11 4 16-1 21-11 1-33 5-25 20 38 26 40 7-11 7-19 1-16 6-9 13 27 21 30 24-1 38 2 10 1 12-16-72-156-72-157-66-175-73-181-13-22-24-37-14-27-19-39-30-97-36-118-28-63-34-73-16-28-20-51-27-32-36-28-1 8-9 11-27-18-33-18-5 6-10 12 2 23 0 28-7 14-12 11-20-50-30-50-11 20-11 20l-40 148c-4 13-24 103-28 110s0 20 3 31 20 28 21 36-6 7-14 1-15-16-24-26-19-30-28-45-57-112-62-125-58-122-67-137-15-6-31-6 3 21 0 25 4 25-8 20-9-45-22-47-1 8-5 12-6 9-15 3 12-32-20-17" glyph-name="W" horiz-adv-x="834" unicode="W"/><glyph d="M-1 27c35 52 126 198 166 263 3 4 11 12 15 23 9 25-18 89-32 148-2 10-42 150-47 159s-14 48-12 62 23-5 38-8 13 11 35 16 0 0 18-5 1-7 3-25 7-19 13-15 11 3 1 17-1 19 1 24 5 7 17 8 12-1 18-4 10-11 10-22 8-23 11-19-2 15-1 19 0 24 10 25 9-4 14-9 27-112 31-122 8-33 11-42 4 9 7 12 11 12 15 22 88 119 93 128 23 14 32 15 16-1 20 1 16 0 19-2-12-22-6-28 22 33 26 32 4-16 22-17 6 10 15 14 27 3 38 6 6-3 10-11-11-27-24-39-24-29-34-39-24-32-33-42-19-24-24-31-40-55-44-63-81-111-86-118-7-7-7-17 9-37 15-52 5-21 7-31 29-103 31-112 20-66 24-70 13-39 17-46 4-30-3-34-9 4-20 4-9 3-13 4-12-4-20-1-4 14-3 25-4 14-9 13-1-12 1-21-4-23-11-19-6 7-12 4-32-7-40-8-13 14-13 14l-23 48c-5 10-28 91-34 99s-1 14 4 24 6 9 11 14 12 12 11 18-13 15-16 0c-2-9-1-9-7-15s-12-22-18-28c-8-8-61-93-65-108-5-12-33-41-35-51S117-4 112-5 89-5 84 1s2 7-5 8S68 2 62-1 39-4 31-3s-5 5-3 13 8 9 13 17 1 10-4 12S19 1 9 0-4 1-8 2s5 22 7 25" glyph-name="X" horiz-adv-x="591" unicode="X"/><glyph d="M138 330c0 3 10 4 13 8s1 5-2 13-10 17-13 29-73 199-75 213-28 78-18 85 56 7 63 9 10-22 20-15 5 13 15 20 14 3 24 5 10-5 16-12 18-49 21-47-3 14-3 28-6 19-3 23 6 6 16 8 7 1 17-8 3-28 10-40 3-37 7-50 11-30 13-40 0-11-4-20-13-20-20-26 0-9 8-7 22 26 22 30 7 6 11 13 78 110 80 116 34 28 40 33 17 3 20 0-14-37-8-40 28 27 33 34 14 7 21 6 21-3 29-1 11-12 7-21-6-15 0-12 8 11 16 20 13 11 18 12 10 4 19 4 3-15 2-24-35-45-39-54-49-63-58-73-36-56-36-56l-79-110c-7-10-33-50-36-56s0-27-1-37-7-23-10-27-12-39-15-52-6-34-8-47-7-36-11-49-12-19-16-22 3-18 1-26-5-39-7-47-10-14-17-19-10-3-18 1 6 12 3 13 2 11-5 13-12-26-18-27-16 1-25 1-10 1-17 4-4 7-10 6-5-7-13-9-22-2-28 3 6 35 9 50 2 29 1 42 7 53 10 72 21 120 21 127 11 9 14 13-7 17-7 20" glyph-name="Y" horiz-adv-x="486" unicode="Y"/><glyph d="M26 1C12 8 15 35 16 47s5 12 3 19-5 10-8 20 4 28 4 32 9 22 15 27 80 144 84 153 3 20 6 28 86 170 92 178 15 3 32 6 11 6 9 12-16 2-25 5-33 1-53 1-72 0-91 6-5 24-3 33 22 12 23 23-13 2-13 12 3 20 4 31 12 10 22 18 34 4 31 14-54-3-48 17 51 11 63 12 214 5 228 7 72-14 86-11 23-3 22-14-3-16-8-29 1-34 2-45-10-20-21-21-18 1-25 1-6-13 0-15 34 5 35 1-4-17-10-32-33-7-42-7-6-9 0-14-2-16-1-25-29-45-36-55-24-32-34-44-16-7-28-15 3-17 1-26-15-23-25-38-78-119-86-135 5-19 14-18 125-1 145-1 21 0 34 1 11-9 12-17-4-8-11-13-19-13-20-16 9-11 16-9 0-20-1-33-5-19-12-20-12-1-21 3-20-7-21-11 9-4 18-6 26 9 28 2-4-29-13-37-26 4-45 2-126-2-146 1S40-6 26 1" glyph-name="Z" horiz-adv-x="510" unicode="Z"/><glyph d="M31 51c0-1 8 72 10 85s6 18 17 25 39 5 51 4-4-12 11-16 20 16 31 11 8-6 25-12 18-5 15-25-17-96-25-112-21-12-34-10 9 31-7 33-6-31-20-33-17 5-27 9S55 0 38 2s-7 50-7 49m27 215c4 28 28 166 28 166l12 44c4 16 5 46 9 66s21 90 25 112 8 26 16 41 44 2 53 1 32 3 47-2-17-44-1-49 21 46 28 47 6-10 16-13 13 12 25 10 18-15 2-59-53-179-64-223-45-195-49-209-47-6-62-4-5 13-15 21-19-17-33-18-9 6-14 15-13 9-24 11-3 15 1 43" glyph-name="exclam" horiz-adv-x="356" unicode="!"/><glyph d="M27 48c5 16 14 77 20 94s21 21 32 19 30 1 35 0 0-20 6-21 18 22 24 20 5-9 13-10 16 10 31 11 16-16 12-34-12-83-17-100-8-19-17-18-18-10-30-8 14 26-1 32-19-32-26-31-26-3-36-1-3 21-12 25S47 1 32 6s-10 26-5 42m25 165c0 13 7 12 24 48 13 27 26 50 39 70 5 8 11 12 16 19s9 17 14 24c24 33 41 60 41 88 0 45-37 66-69 70-22 2-41-7-46-7-13 1-20 3-22 25s42 20 39 35-40-13-41-3-2 9-2 14-5 7-4 14 12 20 10 23-16-2-19 10 22 57 145 57c88 0 151-42 180-107 6-12 6-26 9-40 4-16 9-32 9-49 0-46-20-94-47-138-5-9-13-16-19-24-10-15-18-30-29-44-40-49-79-87-89-103-12-19-21-6-31-6s-17 10-26 12-9-12-24-10 10 43 2 47-20-50-34-50-26 6-26 25" glyph-name="question" horiz-adv-x="401" unicode="?"/><glyph glyph-name="space" horiz-adv-x="282"/><glyph d="M143 89c-2-7-6-16-8-18s-6-12-8-19-19-40-24-43-5-7-8-7-8-6-10-4 10 29 4 29S73 10 68 9s-8-5-14-7-12-3-16-1 1 15-3 16-1 8-10 8-4-5-13-10S13 5 3 3-7-3-18-1s-33 9-13 53 63 132 68 138 14 14 12 21 1 13 2 16 80 150 87 162 57 94 61 99 10 25 12 29l72 119s38 62 49 62 3-30 17-30 13 31 20 31 8-8 16-6 10 4 16 6 0-30 16-30 5 29 13 31 9-1 19 1 15 6 22 3 15-134 14-156 5-144 3-147-3-13-3-19 6-21 5-24 3-335 0-341 0-17-6-17-15-1-19 1-4 9-8 9-11-3-14-5-10-6-13-6-6 32-16 32-5-26-10-27 0-3-10-4-6 17-12 17-23-21-33-19-15 4-15 14 0 68-2 70 0 2 1 12v16c-6 0-14 1-27 1-16 0-13-1-33 0s-15-1-30-2-14-5-28 0-7 6-19 5-12-1-19-3c-5-2-14-2-22-1-4-8-10-15-12-21m82 147h3c9-1 26 1 35 1s38 0 48-2 5-11 2-19-17-5-22-9 4-5 13-9 15 10 19 14-2 44-1 51 5 96 7 114 3 53-2 55-17-26-25-48-51-91-61-111-25-34-16-37m75-81c0-12 33-13 33-1s-33 13-33 1" glyph-name="A" horiz-adv-x="567" unicode="A"/><glyph d="M269 656c17 0 18-25 33-22 12 2 31 9 26 17s-24-5-27 5 26 43 115 43c37 0 79-15 115-46 15-13 28-28 40-46 14-21 26-47 35-76 9-30 14-64 14-102 0-66-25-141-66-208-17-29-41-51-63-77-27-31-53-64-85-86C355 22 300 0 247 0c-43 0-77 9-105 24-21 11-39 25-53 41-46 52-62 126-62 185 0 30 4 61 11 92 7 32 26 62 39 93 15 36 24 73 44 103 46 70 101 118 148 118m70-171c-29-11-54-27-74-45-24-21-42-46-55-72-47-95-23-205 45-205 84 0 149 97 169 184 4 17 13 34 13 50 0 30-10 53-15 70-13 43-36 50-48 56-14 8-22-6-20-11s13-14-15-27m2 58c6-7 29 4 25 13s-31-6-25-13" glyph-name="zero" horiz-adv-x="647" unicode="0"/><glyph d="M41 2c-2 17 10 107 13 128s22 197 26 215 9 87 14 99 8 13 19 23 15 26 9 28-21-21-29-17-48 13-56 36 19 44 43 64 102 114 107 120 19 3 27 4 23-18 33-20 25 17 36 16-1-35 8-37 14 38 37 36-7-61-11-68-6-34-12-54 6-26 9-40-12-52-12-52l-43-156c-3-12-15-74-20-93S201 54 194 24 169 2 154 1s-6 6-19 9-19-6-30-5 0 22-9 26-18-4-25-17S43-15 41 2" glyph-name="one" horiz-adv-x="315" unicode="1"/><glyph d="M213 171c-4-6 2-9 16-9s75 1 92 1 44 3 42-13 1-16-5-23-11-13-12-20 4-8 7-11 7-13 7-21-49-12-40-24 34 7 34-6-13-39-23-40-59 0-69 1S43-3 31 1 9 14 11 26s12 13 13 20 1 7-1 13-6 23-1 28 40-4 36 8-40 5-38 17-1 37 11 54 195 187 195 281c0 83-84 78-104 69s-20 23-22 38 11 12 13 19 8 9 3 13-17-5-18 5 0 14-1 23 46 1 40 17-41 9-43 18-5 27 11 36 79 14 117 14 177-38 177-222c0-138-135-257-157-277s-25-23-29-29" glyph-name="two" horiz-adv-x="429" unicode="2"/><glyph d="M144 549c0 8 14 3 17 16s-12 12-11 20 4 9 8 16 22 8 21 13-20 4-20 12-2 27 4 38 40 35 112 35c34 0 70-15 97-42 19-19 31-46 39-76 5-17 11-33 11-53 0-113-101-151-101-184s37-28 37-122c0-9-1-18-2-26-3-24-16-44-28-64-7-11-10-24-19-34C252 34 154-1 70-1 29-1 18 13 13 20s0 20 6 26 4 3 10 6 3 7 3 12 3 9 3 15 28-18 30-4-25 17-25 22 3 18 5 25 10 16 13 20-2 10 3 11 19-4 39-3 92 26 92 80-72 44-79 44-9 18-10 29 14 5 21 10 20-1 15 5-30-1-30 6-1 10 3 20 6 11 4 22-8 15 2 18 39 5 45 8c3 1 26 6 44 21 9 8 15 21 20 32 3 7 5 15 5 23 0 46-45 52-69 52s-19 21-19 29" glyph-name="three" horiz-adv-x="452" unicode="3"/><glyph d="M59 215c-13-1-30 5-31 18s21 12 21 21-21 1-21 11-4 26-3 37 21-6 26 10-32 7-32 15 17 12 19 17 3 12 1 20-6 5-2 22 63 99 80 115 112 146 120 159 31 39 50 36 5-11 15-16 10 10 15 10 29-11 38-14 2-15-1-23-24-21-14-32 20 14 25 24 5 37 11 46 15 8 26 11 25 0 37-2-12-44 5-42 24 41 33 42 12-20 21-23 13 24 35 24 22-7 20-22-43-171-47-189-37-117-42-143-47-244-53-271-15-73-23-75-5 6-10 7-7-5-17-5-24 1-35 3-4 11-12 16-18-21-29-20 8 34-1 40-11-41-24-40-16 4-15 23 21 156 24 173 9 42 4 41-5-21-10-25-27 1-38 2-153 0-166-1m169 156c0-10 27-11 46-10s24 11 27 18 10 46 12 62 7 26 4 31-16-6-22-12-45-49-53-60-14-19-14-29" glyph-name="four" horiz-adv-x="551" unicode="4"/><glyph d="M64 167c13-10 42-16 75-16 17 0 41 3 58 15 16 11 27 31 27 52 0 44-30 64-47 64s-30-5-40-6-15 11-23 26 14 23 8 29-14-2-20 0-8 4-11 23 31 16 35 32-35 12-40 20 5 36 7 48 6 25 10 32-7 23-4 41 24 121 33 145 31 17 40 19 40 6 49 6 119 2 129 2 92-2 110-1 21-9 24-15 0-19-5-26-11-10-9-16 1-20-1-31-28 8-34-5 29-8 28-16-11-2-16-9-7-8-9-17 8-8 11-13-3-12-7-25-21-7-29-5-67-1-99-1-33-13-33-13l-21-70c-2-6-5-9 0-17s131-40 131-180c0-28-6-54-15-77-4-11-14-21-20-31-9-14-15-28-26-40C273 31 188 0 131 0 71 0 41 23 26 34s-2 30 2 29 5-6 10-1-12 18-10 29 8 4 12 11-6 17-4 25 29-1 30 7-31 3-27 20 12 23 25 13" glyph-name="five" horiz-adv-x="478" unicode="5"/><glyph d="M214 0c-55 0-96 31-127 73-16 21-32 42-41 69-10 30-15 62-15 95 0 46 11 92 28 137 6 16 16 27 23 42s12 34 20 48c76 134 188 237 196 242 12 7 31-15 41-19s-4-20 5-25 20 10 24 8 12 0 19-5-16-40-7-48 22 29 29 29 8 2 20-8 42-12-9-50-140-153-158-177-16-39-12-41 9 27 14 27 9 6 27 6c36 0 80-15 112-47 11-11 19-29 26-44 5-11 11-18 14-30 3-14 5-28 5-44 0-61-31-123-78-169-18-17-38-32-59-43-30-16-63-26-97-26m29 143c8 0 16 1 23 4 10 4 19 10 26 19 9 11 14 25 14 43 0 17-6 31-16 42-16 17-42 26-76 28-16 1-1 13 1 20s-2 23-8 12-22-52-17-104 32-64 53-64m-26 193c-2-10 19-14 22-5s-20 15-22 5" glyph-name="six" horiz-adv-x="475" unicode="6"/><glyph d="M50 519c-14 0-18 9-15 25s-8 20-4 26 30-10 27 5-25 5-22 15 36 9 37 21-29 0-26 12 15 29 13 36-2 5-4 19 11 24 32 22 139 0 150 1 95-7 108-6 86 2 97 1 17-6 13-18-15-18-17-25 7-8 6-17-10-15-9-23 12-6 11-19-45-4-45-16 42 2 40-17-13-50-25-47-20 2-31 3-27 4-35-1-31-36-22-38 15 19 26 21 18 9 29 1 9-22 2-33-62-94-79-131-65-164-67-168-36-126-41-140-10-28-24-27 6 46-4 45-18-46-33-42-7 20-18 22S94 2 73 3 37-1 44 27s37 147 51 191 63 195 73 221 43 80 0 81-77 0-85-1-19 0-33 0" glyph-name="seven" horiz-adv-x="457" unicode="7"/><glyph d="M192 0C136 0 85 28 57 73c-15 24-24 53-24 85 0 13 1 25 4 37 5 21 16 37 26 53 6 10 11 22 18 30 28 31 57 49 61 50 7 2 8 7 4 12s-46 41-46 115c0 20 6 38 10 54 3 10 3 19 7 28 26 61 74 92 77 94 4 3-1 2 12 10s29-11 41-18 35 18 32 25-24-16-29-8-4 16-7 32 31 29 101 29 167-53 167-171c0-21-8-39-14-57-5-15-6-31-13-44-38-70-104-114-104-121 0-10 35-19 35-117 0-11-5-23-7-33-5-22-12-42-26-60C338 38 258 0 192 0m97 532c-15-9-24-35-24-52s10-55 28-55c11 0 22 11 29 26 2 5 7 10 8 16 2 7 0 15 0 21 0 15-6 29-19 34-9 3-13 13-19 24s0-12-3-14m-6 35c4-7 28 8 23 16s-27-9-23-16m-64-428c56 0 61 102 29 102-14 0-15 13-19 15s0-8-1-17-37-24-37-62c0-31 19-38 28-38" glyph-name="eight" horiz-adv-x="538" unicode="8"/><glyph d="M252 383c7 0 55 14 53-2s-1-33-11-33-18 1-19-7 26-12 30-4 26 57 25 110c0 9 4 23 2 30-3 12-11 17-17 24-11 15-28 21-47 21-13 0-27-4-39-13-6-4-12-4-17-10-4-5-5-17-8-24-4-10-6-23-6-37 0-43 47-55 54-55m-45-135c-82 0-171 57-171 192 0 42 12 84 33 121 6 11 17 22 25 32 10 13 17 25 30 36 47 43 110 71 178 71 134 0 204-92 208-249 2-92-51-193-105-270-13-18-27-28-39-43-6-7-10-20-15-26-19-22-35-39-45-49-46-43-83-66-102-63s22 37 8 41-27-39-45-40-13 23-23 24-23-23-30-24-5 14-11 15S96-2 79 0s-9 20-3 25 35 31 87 81 105 149 109 159-7 14-18-4-22-13-47-13" glyph-name="nine" horiz-adv-x="538" unicode="9"/><glyph d="M67 490c3 18 10 84 15 113s12 73 28 92 32-2 44-1-3-42 14-41 12 44 27 42 22-22 43-16 30 21 40 17 14-19-9-96-46-148-52-158-36-8-41-4 16 51 2 49-18-47-29-45-19 23-31 22-34-17-43-12-11 20-8 38m390-41c-2-9-10-19-24-24s-9 7-23 12-30-8-48-6 4 37-10 45-10-40-25-43-20-2-30 1 3 54 4 69c1 19 29 155 39 184s54 6 62-1 16 8 27 8 6-52 21-47 9 40 19 44 11-3 21-10 12 9 29 11 4-23 1-46-44-134-50-153-11-35-13-44" glyph-name="quotedbl" unicode="&quot;"/><glyph d="M-29 147c-5 4 1 14 1 22s-2 18-3 29 9-3 11 10-11 6-12 19 18 11 21 22-20 9-19 30 32 12 43 13 44 1 50 1 4 1 5 8 4 40 7 52 4 20 3 26-51-2-65 0-11 4-10 11-7 9-5 20 35 9 34 21-33 0-33 17 5 16 4 24-3 5-5 13-1 16 1 32 76 6 100 7 36-9 38 8-32 22-32 22l10 81c3 21 22 24 35 22s8-46 20-46 6 45 20 44 17-7 27-15 26 13 43 16 36-13 34-27-11-66-16-90 17-16 27-16 79-2 88 1 14 55 16 78 3 44 13 53 19-4 38-10 32 13 50 12 8-49 17-51-1 49 22 51 45-4 44-16-15-77-21-106-7-56 1-53 0 39 17 41 61-6 62-14-5-21-9-34 6-24 7-37-32-16-37-24 35 11 37-3-3-31-13-31-62-3-72-2-17 1-20-10-8-51-12-67 20-9 39-9 30 0 39-7-33-31-33-38 31-1 34-7-22-11-18-25c2-8 9-16 8-20-2-8 10 2 9-19s-3-28-13-28-65-1-74 0-19-5-20-14-18-101-21-116-14-13-24-11-26-8-40-7 16 50 0 53-10-50-20-54-13 15-23 18-16-16-31-18-20 15-19 27 12 83 14 99-5 24-12 23-93 1-105 1-15-3-17-15S189 8 175 2s-10 13-26 19S111 2 98 1s4 30-10 34S71 0 48 0 27 17 29 31s10 80 15 96 31 5 35 14-25 6-37 7-66-5-71-1m268 172c-2-13-2-27 5-28s96 0 108 1 13 6 14 13 7 53 10 67-28 8-28 8h-80c-9 0-7 1-4 18s-8 17-10 10-13-76-15-89" glyph-name="numbersign" horiz-adv-x="645" unicode="#"/><glyph d="M74-115c-5 1-3 15 0 34 4 25 11 59 16 76C10 2-7 56-5 59c3 3 4 19 8 20s15-17 25-16 11 4 11 11c1 7-10 14-16 15s-13 4-12 9 2 17 6 24c3 6 9 4 9 10s-2 17 0 21 8 13 10 19c1 6 11 4 18 1 8-3 57-22 94-21s69 26 68 78S69 316 65 483c-2 120 99 181 184 206 0 3 0 5 1 8 5 32 13 79 15 87 3 12 8 43 19 41s20-22 34-14 8 12 21 11 5-33 17-29 4 30 14 27 25 5 12-49c-6-26-13-50-18-69 63-6 116-34 113-48-4-17-7-32-13-28-7 3-39 15-40 6 0-9 5-16 14-16s17 2 18-6-4-43-12-48-10-4-14-15-9-20-9-20 8-24-4-20c-12 3-54 28-95 27s-58-38-47-74 114-92 116-231c2-106-79-185-178-218l-3-18c-13-54-21-100-26-112s-12-7-22-6-15 0-22 5-2 17-10 13-16-12-23-12 10 26-3 28-16-26-30-24" glyph-name="dollar" horiz-adv-x="471" unicode="$"/><glyph d="M14 51c8 17 75 186 80 198s-2 6 7 27l43 99 31 70c7 16 14 30 19 43l17 40c4 9 18 31 30 58 4 8 4 20 8 28 14 33 28 66 33 76 10 21 35 2 46 2s6 5 21 7 17-9 27-14 21 13 39 14-1-51 11-49 14 50 38 49 11-30-2-58l-31-66c-10-21-24-41-35-64-9-19-15-41-23-57l-24-49c-15-28-70-144-77-161s-43-85-50-99-37-85-47-112-21-32-39-34-16 2-29 8-28-8-41-7 7 27-7 32S48 1 22 1 6 34 14 51" glyph-name="slash" horiz-adv-x="470" unicode="/"/><glyph d="M204 51c8 17 75 186 80 198s-2 6 7 27l43 99 31 70c7 16 14 30 19 43l17 40c4 9 18 31 30 58 4 8 4 20 8 28 14 33 28 66 33 76 10 21 35 2 46 2s6 5 21 7 17-9 27-14 21 13 39 14-1-51 11-49 14 50 38 49 11-30-2-58l-31-66c-10-21-24-41-35-64-9-19-15-41-23-57l-24-49c-15-28-70-144-77-161s-43-85-50-99-37-85-47-112-21-32-39-34-16 2-29 8-28-8-41-7 7 27-7 32-11-31-37-31-16 33-8 50m362 251c7 4 13-4 16-7 4-4 8-2 7 4s-10 16-1 20c8 5 41 18 82 18 29 0 87-18 108-57 22-39 19-50 19-50s-3 0-3-3 0-4 2-6c1-2 4-2 2-5 0-3 1-57-15-94-18-36-37-58-39-61-1 0-4 0-8-4-1-3-4-8-6-11-6-7-13-14-16-16-5-3-47-38-112-38-4 0-8 0-12 1-10 0-14 3-24 6l-15 3c-31 14-61 46-71 87-2 7-1 16-2 23-1 6-4 10-4 16-1 30 5 58 15 82 2 7 13 14 16 20s0 11 3 17c16 26 42 46 58 55M125 667c7 4 13-4 16-7 4-4 8-2 7 4s-10 16-1 20c8 5 41 18 82 18 29 0 87-18 108-57 22-39 19-50 19-50s-3 0-3-3 0-4 2-6c1-2 4-2 2-5 0-3 1-57-15-94-18-36-37-58-39-61-1 0-4 0-8-4-1-3-4-8-6-11-6-7-13-14-16-16-5-3-47-38-112-38-4 0-8 0-12 1-10 0-14 3-24 6l-15 3c-31 14-61 46-71 87-2 7-1 16-2 23-1 6-4 10-4 16-1 30 5 58 15 82 2 7 13 14 16 20s0 11 3 17c16 26 42 46 58 55m499-465c-4-2-8-8-13-15l-3-3c-1-1 0-3-1-5-10-23-17-54-6-67 2-3 3-7 6-8 2-1 7 0 11 0 16 0 30 14 39 31 5 7 11 15 14 24 0 3-2 7-1 10 2 13 6 21 3 29-2 8-12 16-21 16-8 0-8 2-13 0-5-1-5 2-7 6-3 5 3 4 3 7 1 3-5 1-7 1-2-1-4-7-3-9 0-3 3-6 4-7 2-2 6-3-5-10M183 567c-4-2-8-8-13-15l-3-3c-1-1 0-3-1-5-10-23-17-54-6-67 2-3 3-7 6-8 2-1 7 0 11 0 16 0 30 14 39 31 5 7 11 15 14 24 0 3-2 7-1 10 2 13 6 21 3 29-2 8-12 16-21 16-8 0-8 2-13 0-5-1-5 2-7 6-3 5 3 4 3 7 1 3-5 1-7 1-2-1-4-7-3-9 0-3 3-6 4-7 2-2 6-3-5-10m415-287c1-5 18 2 16 6-2 5-17-2-16-6M157 645c1-5 18 2 16 6-2 5-17-2-16-6" glyph-name="percent" horiz-adv-x="822" unicode="%"/><glyph d="M336 558c-7 0-25-4-42-16-6-4-13-9-18-16-9-12-16-27-16-48 0-9-2-22 0-28 3-9 10-11 15-16 16-17 41-17 46-17 8 0 31 2 38 2s6 7 8 28 10 33 24 37 6-35 18-36 6 40 19 42 27-1 41 1 15 13 37 19 18-33 14-56-11-65-2-64 7 36 14 37 13-1 28 0 12-12 13-26c1-8-1-37-1-40 0-25-25-9-28-26s27 10 27-22c0-16-7-24-16-25s-32 1-46 1-17 0-19-8 2 13-20-96c-5-24-15-45-25-66-6-12-9-24-16-34-10-14-21-27-33-38-36-33-84-54-142-54-19 0-59 4-100 21-10 4-17 13-26 18-7 4-17 5-24 10-36 26-65 66-65 125 0 24 4 45 10 64 4 10 11 18 16 27 8 14 13 28 23 38 37 40 83 54 86 55-4 1-93 32-93 134 0 44 18 84 44 117 7 9 16 14 25 22 9 9 20 21 30 28 43 30 91 48 131 48 28 0 54-6 76-13 8-3 16-3 23-6 6-2 10-7 15-10 33-17 52-36 52-39 0-5-6-9-13-12s-7-14-12-20-17 23-25 11 18-16 14-23-11-14-21-19-15-24-20-28-5-24-20-1-30 18-44 18m2-267c-1-1-8 1-42 1-33 0-57-19-70-44-4-8-11-17-13-25-3-12-1-24 0-35 2-28 16-50 40-50 21 0 37 12 49 30 8 13 14 28 19 43 9 27 13 53 15 60 5 17 34 11 35 16s-32 5-33 4" glyph-name="ampersand" horiz-adv-x="604" unicode="&amp;"/><glyph d="M67 490c3 18 10 84 15 113s12 73 28 92 32-2 44-1-3-42 14-41 12 44 27 42 22-22 43-16 30 21 40 17 14-19-9-96-46-148-52-158-36-8-41-4 16 51 2 49-18-47-29-45-19 23-31 22-34-17-43-12-11 20-8 38" glyph-name="quotesingle" horiz-adv-x="257" unicode="'"/><glyph d="M256-59c-32 6-72 20-110 45-16 11-28 26-43 41-7 7-17 10-23 18-39 48-66 116-66 207 0 43 6 84 19 123 10 31 31 58 47 86 10 18 15 37 27 53 48 62 112 114 182 146 17 8 39 9 56 15 17 5 29 14 46 17 22 4 45 7 67 7 19 0 20-4 16-17s-43-15-42-26 35 2 36-3-11-7-15-15-2-12 5-18-8-20-14-45 3-52-8-52c-18 0-37-3-55-9-12-4-24-5-36-11s-23-17-34-25c-75-54-130-145-130-222 0-25 4-46 11-65 5-14 8-32 16-43 15-22 38-32 56-42 15-8 30-13 40-13 36-1 30-11 30-21s-11-21-18-36 1-26 2-40-31-3-26-16 17-2 21-11-4-29-5-31-17-3-52 3" glyph-name="parenleft" horiz-adv-x="479" unicode="("/><glyph d="M144 523c-16 0-14 17-8 24s10 7 14 14-7 9-5 16 26-6 29 7-28-1-26 30 21 37 17 51-6 31 10 32c6 1 45-6 93-27 18-8 35-26 55-38 18-12 40-17 57-33 51-48 91-117 91-216 0-45-9-92-26-136-11-28-19-58-36-84-35-56-89-105-147-144-17-11-34-22-52-31-20-10-42-13-63-20C98-49 45-65-11-65c-7 0 6 22 6 30s-4 19 3 22S10 2 7 9 0 33 9 40s45-7 44 7-40 4-36 18-3 24 35 24c13 0 47 13 86 37 12 7 28 11 40 21 11 9 19 23 30 33 21 20 41 43 57 68 21 33 34 70 34 110 0 17-2 34-5 48-5 21-8 44-19 59-14 20-38 29-57 39-25 13-52 19-74 19" glyph-name="parenright" horiz-adv-x="512" unicode=")"/><glyph d="M22 21c3 16 0 1 0 2 4 35 10 126 20 132s29 3 35-3 6-21 14-14 19 20 29 18 22-14 29-12 0-47 15-43 9 51 24 49 33 3 30-22-29-98-31-114-4-24-24-21-25 15-36 10-16-3-32-4-28 0-33 2 3 35-5 29S43 3 34 2 19 5 22 21" glyph-name="period" horiz-adv-x="239" unicode="."/><glyph d="M-5-40c-1 1 43 85 52 101s24 58 33 72 30 24 51 19 30-11 37-9 16 9 24 7-11-38 8-37 8 34 25 34 46 2 36-18-69-95-74-108-31-32-40-48-29-65-49-66-28 11-44 9-24-6-31-7 31 47 14 47S19-91 7-92s-42-7-31 19S-4-41-5-40" glyph-name="comma" horiz-adv-x="303" unicode=","/><glyph d="M198 598c2 5 18 83 19 92 2 9 15 7 24 8s14-13 24-13 26 14 33 13 0-38 17-33c18 6 9 33 25 34 15 1 26-6 20-29-5-23-19-66-10-67s3 23 9 28c14 12 38 19 45 23 10 7 47 25 54 10 7-16-5-25 3-34 7-9 12-7 15-13 3-5-18-12-11-23 8-11 19 11 30-3 11-15 21-41 9-46-12-6-93-46-103-50s-9 4-19 9c-10 6-12-6 5-15 18-9 42-26 53-34s9-21 0-37c-9-17-27-14-31-22-5-8 1-25-6-34-6-9-29 15-33 7-3-9 20-22 15-33-6-10-23 1-45 14s-42 45-46 30c-3-16-14-62-17-72-4-11-19-14-36-13-16 1-19 5-29 4s-19-7-27-5c-7 2 7 23-1 23-7 0-19-24-28-23s-11 9-7 45c3 35 13 53 11 56-3 4-8-8-12-19-5-11-10-12-18-16l-35-18s-12 3-17 14c-4 11 9 20 3 29-5 9-14-8-20 0-6 9-6 28-9 30-3 3-20 27-22 28s-8 9 12 21c19 12 59 32 66 35 8 2 8 7 0 11-7 3-41 28-49 34-8 5-34 12-20 34s29-11 35 1c5 12-26 22-14 39 12 16 22 9 26 23 3 13 3 23 9 30 5 6 32-10 46-21 13-11 44-30 49-33 4-4-8-38 1-40 9-1 5 15 7 21" glyph-name="asterisk" horiz-adv-x="521" unicode="*"/><glyph d="M211 333s20 87 22 100 2 23 5 35 27 11 38 10 18-20 33-15 22 16 31 15-6-26 10-25 19 26 32 25 17-11 12-34l-24-106s-5-11 21-10 125 0 126-3-5-24-8-35-44-14-36-27 21-9 20-18-3-25-6-38 1-27-18-27-62 2-84 2c-12 0-24 2-35 2-6 0-3 15-2 20 2 13-5 20-13-15L310 82s-3-47-29-47-37 7-49 6-19-6-26-6 26 49 7 49-21-48-38-48-20 10-14 42 15 84 18 90-4 5-22 4-97-2-111-3-22-1-14 25 24 24 21 38-10 31-7 38 34-4 32 8-26 27-22 37 21 12 43 11 94 2 97 1 0-7-2-20 8-16 12 0 5 26 5 26" glyph-name="plus" horiz-adv-x="542" unicode="+"/><glyph d="M62 169c-15 0-30-2-28 22 1 10 1 12 3 17 4 9 33-5 35 2 3 12-29 4-27 32s21 25 17 45-12 39 5 38 194 1 206 1 146-1 163 0 80 10 75-10-35-23-38-29 31-10 28-20-20-29-20-36-2-31-5-38 3-10-42-12-208-2-215-3-9-7-29-8-113-1-128-1" glyph-name="hyphen" horiz-adv-x="541" unicode="-"/><glyph d="M22 21c3 16 0 1 0 2 4 35 10 126 20 132s29 3 35-3 6-21 14-14 19 20 29 18 22-14 29-12 0-47 15-43 9 51 24 49 33 3 30-22-29-98-31-114-4-24-24-21-25 15-36 10-16-3-32-4-28 0-33 2 3 35-5 29S43 3 34 2 19 5 22 21m50 285c3 16 0 1 0 2 4 35 10 126 20 132s29 3 35-3 6-21 14-14 19 20 29 18 22-14 29-12 0-47 15-43 9 51 24 49 33 3 30-22-29-98-31-114-4-24-24-21-25 15-36 10-16-3-32-4-28 0-33 2 3 35-5 29-14-27-23-28-15 3-12 19" glyph-name="colon" horiz-adv-x="288" unicode=":"/><glyph d="M105 306c3 16 0 1 0 2 4 35 10 126 20 132s29 3 35-3 6-21 14-14 19 20 29 18 22-14 29-12 0-47 15-43 9 51 24 49 33 3 30-22-29-98-31-114-4-24-24-21-25 15-36 10-16-3-32-4-28 0-33 2 3 35-5 29-14-27-23-28-15 3-12 19M-5-40c-1 1 43 85 52 101s24 58 33 72 30 24 51 19 30-11 37-9 16 9 24 7-11-38 8-37 8 34 25 34 46 2 36-18-69-95-74-108-31-32-40-48-29-65-49-66-28 11-44 9-24-6-31-7 31 47 14 47S19-91 7-92s-42-7-31 19S-4-41-5-40" glyph-name="semicolon" horiz-adv-x="369" unicode=";"/><glyph d="M81 258c-15 0-30-2-28 22 1 10 1 12 3 17 4 9 33-5 35 2 3 12-29 4-27 32s21 25 17 45-12 39 5 38 194 1 206 1 146-1 163 0 80 10 75-10-35-23-38-29 31-10 28-20-20-29-20-36-2-31-5-38 3-10-42-12-208-2-215-3-9-7-29-8-113-1-128-1M58 69c-7 1-20-6-17 26s5 26 6 36-4 21-4 29 53-4 52 11-44 9-39 34 90 13 102 13 92 2 112 2 169 0 193-1 43 5 43-8-22-28-21-41 9-30 5-41-31-3-32-17 25-5 19-23-8-18-29-18-178 1-194 1-104-2-139-3-50-1-57 0" glyph-name="equal" horiz-adv-x="565" unicode="="/><glyph d="M51 113c-31 12-27 18-23 46s34-4 37 16-22 10-27 29 3 17 7 38-12 29 2 42 98 35 136 51 62 29 73 34 153 64 169 69 67 26 68 12-14-28-18-44 0-28-2-33-26-2-20-12 21 3 19-11-12-40-43-49-130-49-151-61-31-12-51-25-26-22-1-17 34 3 52-7 74-29 93-41 29-12 29-20 3-36-8-44-41 8-43-9 35-23 28-37-5-37-38-41-155 56-186 73-71 29-102 41" glyph-name="less" horiz-adv-x="521" unicode="&lt;"/><glyph d="M118 293c-15 4-34 2-31 24s18 27 22 35-2 24 2 35 46-14 52 3-37 28-33 44 39 11 90-6 175-75 193-84 66-24 75-29-3-25-7-42-28 6-35-10 23-11 23-22-25-17-22-37 12-17 4-34-90-27-123-40-150-70-163-77S72 12 57 7 37-1 29 1s-9 27 0 41 18 14 13 24-12 15-9 25 36-2 37 10-31 28-12 37 101 36 124 48 82 31 92 37 15 16-6 10-11 12-35 23-100 33-115 37" glyph-name="greater" horiz-adv-x="516" unicode="&gt;"/><glyph d="M463 157c0 1-1 5 1 18s-8 14-10 6 4-25 1-36-43-28-72-28c-42 0-158 6-158 136 0 226 168 262 207 262s60-26 58-39-4-26 4-26 8 9 11 30 12 27 26 26-2-33 12-36 10 37 21 36 15-10 27-15 10 11 39 8 10-53 4-80c-3-10-7-31-13-57-1-5-6-11-7-16-2-6 0-12-2-18-8-34-17-68-22-87-10-40-23-94 4-94 9 0 30 8 51 31 8 9 13 23 22 36 6 9 15 17 20 28 6 14 7 33 10 51 2 11 3 23 3 35 0 9 0 18-1 28-4 40-15 82-35 119-7 13-9 27-19 38-8 9-23 16-32 24-8 6-17 15-26 20-13 7-26 10-41 15-22 7-48 10-76 10-59 0-112-14-158-39-7-4-18-6-25-11-9-6-15-14-23-21-73-58-117-145-117-236 0-60 27-110 66-147 8-8 15-19 24-25 14-11 30-16 46-23 37-18 78-27 115-27 15 0 37 3 50 5 17 3 10-19 15-27 2-3 12-5 14-8l6-8 9-13c3-5-20-24-16-29s34 4 37-1c2-4 9-12-6-15-26-12-89-21-127-21-49 0-101 10-149 30-18 8-31 22-47 32s-34 16-48 28c-34 30-62 68-81 113-8 19-12 38-16 59-5 22-10 48-10 73 0 60 15 121 43 176 8 15 20 25 30 40 7 11 11 27 19 37 9 11 19 23 29 33 23 24 49 46 78 65 11 7 22 17 34 23 9 5 18 8 27 12 58 27 123 42 191 42 125 0 213-52 268-127 11-15 19-34 27-50 8-15 15-27 21-44 14-40 22-83 21-125-2-79-24-145-54-195-6-10-10-26-17-35-11-15-26-21-38-32-37-33-76-51-111-53-15-1-28 5-40 8-8 2-16 0-23 3-54 21-71 70-71 108m23 211c4 19-1 31-9 12s-11 6-43 6-92-39-92-125c0-42 11-52 29-52 50 0 56 41 76 41s9-15 9-25 7-22 11 0 15 124 19 143" glyph-name="at" horiz-adv-x="944" unicode="@"/><glyph d="m96 137 42 238 18 109s7 20 40 15 26 16-5 19-62-9-60 9 19 42 21 65 39 0 45 21-45 22-37 36 0 27 12 35 33 8 56 7 84-1 114 1 191 19 186-5-24-27-22-43l2-16s8-2 7-23-43-5-43-29 45-29 28-47-54-7-87-9-99 6-89-6 15-4 11-26-33-143-43-185-36-161-40-171-3-5-14-5-32-13-4-18 121-1 145-4 45 8 45-16-16-30-16-53-3-36-7-38-43 11-37-8 48-4 39-25-78-11-95-12-64 3-84 2-119-1-133-1-44-7-56 3-6 26 2 39 13 25 15 32-8 18 0 34 39-4 39 8-43 12-33 40 33-2 38 27" glyph-name="bracketleft" horiz-adv-x="520" unicode="["/><glyph d="M181 517c-1 1-39-1-31 27s14 25 15 40 16 16 16 25 39-7 41 13-47 3-36 37 21 40 64 40 175-9 192-8 117 7 116-10-14-21-16-37-3-30-7-41-33 7-38-11 37-18 34-34-8-37-12-40-31-3-54-1-29 2-35-24 8-41 14-5 46 13 39-6-58-204-63-222-33-119-34-126 1-12 12-14 16-6 11-28-13-34-14-44-3-26-8-31-40 13-44 0 44-10 43-24-4-42-33-42-136 2-157 2-139-5-151-3-25 0-18 28 7 25 10 41 44-5 45 16-39 15-35 36 7 30 16 31 87 6 101 4 47 0 71 1 51 15 6 19c-21 2-10 20-6 36s27 126 33 150 35 177 40 186 25 5 23 19-88 3-110 3-39-4-40-3" glyph-name="bracketright" horiz-adv-x="520" unicode="]"/><glyph d="M97 436 60 592l-12 54s-18 48 5 52 31-13 42-10 14 12 27 13 28-56 48-51-16 49 7 50 43 5 53-41 28-137 28-152-3-26 2-36 10-26 11-34 29-135 30-152-3-35 0-43 25-137 30-156 21-86-9-84-13 51-28 49-13-49-27-50-23 14-35 10-23-10-34-11-17 32-21 55 0 36-6 49-12 26-12 36-49 224-53 243-5 34-9 53" glyph-name="backslash" horiz-adv-x="364" unicode="\"/><glyph d="M82 534c-11-5-22-9-29 5s8 22-1 23-13-6-22 5 10 25 20 32 82 64 88 69l74 59c15 12 33 14 51-7s39-47 45-50 31-28 39-37 40-39 48-50 13-10-8-22-18-11-24-13-11 28-23 21 11-20 0-30-17-14-27-13-6-9-29 14-48 39-56 46-15 10-27 23-32 17-14-4 3-8-11-18-63-37-70-39-13-9-24-14" glyph-name="asciicircum" horiz-adv-x="405" unicode="^"/><glyph d="M37 636c-17 11-21 20-8 33s23 10 28 19 8 16 13 22 26-33 37-23-27 34-14 47 39-23 50-37 41-71 53-74 29-32 36-41 11-20 3-27-11 4-16-4-11-18-16-21-9-6-25 5-42 38-54 43-32 16-41 24-29 23-46 34" glyph-name="grave" horiz-adv-x="250" unicode="`"/><glyph d="M43 594c8 7 21 13 35 25l103 86s54 49 67 28 8-18 14-23-30-18-19-26 29 16 38 5 11-24 18-30 10-9 15-12-6-11-24-17-83-38-93-43-57-27-68-33-37-18-49-22-25-4-29 5 5 19-3 22-4-8-16 8 3 20 11 27" glyph-name="acute" horiz-adv-x="322" unicode="´"/><glyph d="M73-123c-14 0-32 0-30 27s13 32 16 51-8 22-3 27 44-14 45 4-45 8-39 27 14 22 43 21 178 0 200-2 180 0 193 2 86 2 103 1 31 3 27-17-29-27-25-39 18 6 17-9-9-30-9-44-41-2-39-16 37 1 32-18-195-16-219-13-153 0-169 2-55 4-76 2-53-6-67-6" glyph-name="underscore" horiz-adv-x="663" unicode="_"/><glyph d="M379 528c-22-6-52-10-66-59s-23-82-50-124-41-51-58-61-12-18-6-22 15 15 25 22 14-13 25-34 19-95 10-117 4-34 21-57 41-19 48-25-4-9-9-14 1-18 0-29-48-8-48-23 42-7 40-14-10-14-13-19 5-17 8-20 1-38-8-38c-74 0-132 22-180 99s-17 158-30 187-56 29-58 35 4 22 5 35 33 8 36 26-30 1-30 17 7 22 14 31-5 22-5 24-13 28 3 28c60 0 79 52 87 75s18 102 95 172 168 76 181 76 5-13 0-32-12-27-15-37 6-21 1-34-29 2-32-15 27-8 26-26 5-21-17-27" glyph-name="braceleft" horiz-adv-x="452" unicode="{"/><glyph d="M131 556c0 14 13 21 13 35s-6 25-3 34 38-16 40-2-38 11-34 34 1 42 26 38 100-15 141-71 43-110 42-173 34-67 64-74 1-45-3-51-15 3-12-15-16-20-16-20-31-2-25-9 46 3 44-11-7-35-9-45 8-15-4-17-22 0-42-12-31-21-48-84S260 0 209-39s-99-60-140-65-38-9-31 23 21 18 23 32-15 12-13 21 1 29 7 39 32-6 37 10-43 8-35 21 21 14 42 25 32 28 54 94 26 78 45 104 21 25 26 19 15-30 22-25 4 17-8 27-19 8-35 61-14 81-8 119-30 56-44 61-27 8-25 15 5 0 5 14" glyph-name="braceright" horiz-adv-x="456" unicode="}"/><glyph d="M143 89c-2-7-6-16-8-18s-6-12-8-19-19-40-24-43-5-7-8-7-8-6-10-4 10 29 4 29S73 10 68 9s-8-5-14-7-12-3-16-1 1 15-3 16-1 8-10 8-4-5-13-10S13 5 3 3-7-3-18-1s-33 9-13 53 63 132 68 138 14 14 12 21 1 13 2 16 80 150 87 162 57 94 61 99 10 25 12 29l72 119s38 62 49 62 3-30 17-30 13 31 20 31 8-8 16-6 10 4 16 6 0-30 16-30 5 29 13 31 9-1 19 1 15 6 22 3 15-134 14-156 5-144 3-147-3-13-3-19 6-21 5-24 3-335 0-341 0-17-6-17-15-1-19 1-4 9-8 9-11-3-14-5-10-6-13-6-6 32-16 32-5-26-10-27 0-3-10-4-6 17-12 17-23-21-33-19-15 4-15 14 0 68-2 70 0 2 1 12v16c-6 0-14 1-27 1-16 0-13-1-33 0s-15-1-30-2-14-5-28 0-7 6-19 5-12-1-19-3c-5-2-14-2-22-1-4-8-10-15-12-21m129 747c-17 11-21 20-8 33s23 10 28 19 8 16 13 22 26-33 37-23-27 34-14 47 39-23 50-37 41-71 53-74 29-32 36-41 11-20 3-27-11 4-16-4-11-18-16-21-9-6-25 5-42 38-54 43-32 16-41 24-29 23-46 34m-47-600h3c9-1 26 1 35 1s38 0 48-2 5-11 2-19-17-5-22-9 4-5 13-9 15 10 19 14-2 44-1 51 5 96 7 114 3 53-2 55-17-26-25-48-51-91-61-111-25-34-16-37m75-81c0-12 33-13 33-1s-33 13-33 1" glyph-name="Agrave" horiz-adv-x="567" unicode="À"/><glyph d="M143 89c-2-7-6-16-8-18s-6-12-8-19-19-40-24-43-5-7-8-7-8-6-10-4 10 29 4 29S73 10 68 9s-8-5-14-7-12-3-16-1 1 15-3 16-1 8-10 8-4-5-13-10S13 5 3 3-7-3-18-1s-33 9-13 53 63 132 68 138 14 14 12 21 1 13 2 16 80 150 87 162 57 94 61 99 10 25 12 29l72 119s38 62 49 62 3-30 17-30 13 31 20 31 8-8 16-6 10 4 16 6 0-30 16-30 5 29 13 31 9-1 19 1 15 6 22 3 15-134 14-156 5-144 3-147-3-13-3-19 6-21 5-24 3-335 0-341 0-17-6-17-15-1-19 1-4 9-8 9-11-3-14-5-10-6-13-6-6 32-16 32-5-26-10-27 0-3-10-4-6 17-12 17-23-21-33-19-15 4-15 14 0 68-2 70 0 2 1 12v16c-6 0-14 1-27 1-16 0-13-1-33 0s-15-1-30-2-14-5-28 0-7 6-19 5-12-1-19-3c-5-2-14-2-22-1-4-8-10-15-12-21m153 705c8 7 21 13 35 25l103 86s54 49 67 28 8-18 14-23-30-18-19-26 29 16 38 5 11-24 18-30 10-9 15-12-6-11-24-17-83-38-93-43-57-27-68-33-37-18-49-22-25-4-29 5 5 19-3 22-4-8-16 8 3 20 11 27m-71-558h3c9-1 26 1 35 1s38 0 48-2 5-11 2-19-17-5-22-9 4-5 13-9 15 10 19 14-2 44-1 51 5 96 7 114 3 53-2 55-17-26-25-48-51-91-61-111-25-34-16-37m75-81c0-12 33-13 33-1s-33 13-33 1" glyph-name="Aacute" horiz-adv-x="567" unicode="Á"/><glyph d="M82 534c-11-5-22-9-29 5s8 22-1 23-13-6-22 5 10 25 20 32 82 64 88 69l74 59c15 12 33 14 51-7s39-47 45-50 31-28 39-37 40-39 48-50 13-10-8-22-18-11-24-13-11 28-23 21 11-20 0-30-17-14-27-13-6-9-29 14-48 39-56 46-15 10-27 23-32 17-14-4 3-8-11-18-63-37-70-39-13-9-24-14" glyph-name="circumflex" horiz-adv-x="405" unicode="ˆ"/><glyph d="M143 89c-2-7-6-16-8-18s-6-12-8-19-19-40-24-43-5-7-8-7-8-6-10-4 10 29 4 29S73 10 68 9s-8-5-14-7-12-3-16-1 1 15-3 16-1 8-10 8-4-5-13-10S13 5 3 3-7-3-18-1s-33 9-13 53 63 132 68 138 14 14 12 21 1 13 2 16 80 150 87 162 57 94 61 99 10 25 12 29l72 119s38 62 49 62 3-30 17-30 13 31 20 31 8-8 16-6 10 4 16 6 0-30 16-30 5 29 13 31 9-1 19 1 15 6 22 3 15-134 14-156 5-144 3-147-3-13-3-19 6-21 5-24 3-335 0-341 0-17-6-17-15-1-19 1-4 9-8 9-11-3-14-5-10-6-13-6-6 32-16 32-5-26-10-27 0-3-10-4-6 17-12 17-23-21-33-19-15 4-15 14 0 68-2 70 0 2 1 12v16c-6 0-14 1-27 1-16 0-13-1-33 0s-15-1-30-2-14-5-28 0-7 6-19 5-12-1-19-3c-5-2-14-2-22-1-4-8-10-15-12-21m121 645c-11-5-22-9-29 5s8 22-1 23-13-6-22 5 10 25 20 32 82 64 88 69l74 59c15 12 33 14 51-7s39-47 45-50 31-28 39-37 40-39 48-50 13-10-8-22-18-11-24-13-11 28-23 21 11-20 0-30-17-14-27-13-6-9-29 14-48 39-56 46-15 10-27 23-32 17-14-4 3-8-11-18-63-37-70-39-13-9-24-14m-39-498h3c9-1 26 1 35 1s38 0 48-2 5-11 2-19-17-5-22-9 4-5 13-9 15 10 19 14-2 44-1 51 5 96 7 114 3 53-2 55-17-26-25-48-51-91-61-111-25-34-16-37m75-81c0-12 33-13 33-1s-33 13-33 1" glyph-name="Acircumflex" horiz-adv-x="567" unicode="Â"/><glyph d="M93 520c-14 3-16 14-14 25s10 25 14 30 1 12 2 19-2 9-7 15 0 14 1 19 15 6 17 7 9 5 7 11-20 0-20 8 3 16 7 18 44 10 62 13 26 4 39 10 64 2 84 3 143 1 166 2 28-9 30-18-3-9-7-12-5 0-8-3 4-10 3-13-7-4-14-1-14-7-10-15 30-6 30-17-12-18-17-23-9-17-9-17l7-13c2-3 3-20 1-32s-17-18-22-17-48 1-58 1-84 2-93 2-5-9-1-15 10-11 11-15-3-11-6-21-10-38-13-45-1-18 3-28 89-4 95-3 16-8 17-14-16-11-17-16 10-4 13-15-8-30-8-32-8-20-7-28-12-16-24-15-28-5-37-8-60-2-65-1-4 9-2 12-3 11-9 9-14-36-14-44-16-54-18-75 76-10 81-12 22-2 33-1 22-2 29-1-1 0 12 0 19-6 20-13 0-11-2-17-2-2-5-8-3-2-10-4-5-5-8-10 0-4 4-11 1-4 2-8 2-12 1-18 0-7-6-10-4 5-10 3-5-5-6-13 9-4 14-4 5-10 5-23-12-11-19-13-47-1-63-3-77 3-83 1-5 10-13 15-13-6-20-12-23-1-36-1-64-3-80-2-17 19-18 27 4 32 8 41 4 70 6 84 11 47 17 56 4 23 1 33 17 111 20 121 14 58 16 70 4 12 11 15 0 36 6 47 10 4 22 3 19 6 23 7 0-28 3-38 4-3 11-2 3 46 1 51-11 1-22 0-40-1-54 2m85 316c-17 11-21 20-8 33s23 10 28 19 8 16 13 22 26-33 37-23-27 34-14 47 39-23 50-37 41-71 53-74 29-32 36-41 11-20 3-27-11 4-16-4-11-18-16-21-9-6-25 5-42 38-54 43-32 16-41 24-29 23-46 34" glyph-name="Egrave" horiz-adv-x="504" unicode="È"/><glyph d="M93 520c-14 3-16 14-14 25s10 25 14 30 1 12 2 19-2 9-7 15 0 14 1 19 15 6 17 7 9 5 7 11-20 0-20 8 3 16 7 18 44 10 62 13 26 4 39 10 64 2 84 3 143 1 166 2 28-9 30-18-3-9-7-12-5 0-8-3 4-10 3-13-7-4-14-1-14-7-10-15 30-6 30-17-12-18-17-23-9-17-9-17l7-13c2-3 3-20 1-32s-17-18-22-17-48 1-58 1-84 2-93 2-5-9-1-15 10-11 11-15-3-11-6-21-10-38-13-45-1-18 3-28 89-4 95-3 16-8 17-14-16-11-17-16 10-4 13-15-8-30-8-32-8-20-7-28-12-16-24-15-28-5-37-8-60-2-65-1-4 9-2 12-3 11-9 9-14-36-14-44-16-54-18-75 76-10 81-12 22-2 33-1 22-2 29-1-1 0 12 0 19-6 20-13 0-11-2-17-2-2-5-8-3-2-10-4-5-5-8-10 0-4 4-11 1-4 2-8 2-12 1-18 0-7-6-10-4 5-10 3-5-5-6-13 9-4 14-4 5-10 5-23-12-11-19-13-47-1-63-3-77 3-83 1-5 10-13 15-13-6-20-12-23-1-36-1-64-3-80-2-17 19-18 27 4 32 8 41 4 70 6 84 11 47 17 56 4 23 1 33 17 111 20 121 14 58 16 70 4 12 11 15 0 36 6 47 10 4 22 3 19 6 23 7 0-28 3-38 4-3 11-2 3 46 1 51-11 1-22 0-40-1-54 2m65 274c8 7 21 13 35 25l103 86s54 49 67 28 8-18 14-23-30-18-19-26 29 16 38 5 11-24 18-30 10-9 15-12-6-11-24-17-83-38-93-43-57-27-68-33-37-18-49-22-25-4-29 5 5 19-3 22-4-8-16 8 3 20 11 27" glyph-name="Eacute" horiz-adv-x="504" unicode="É"/><glyph d="M93 520c-14 3-16 14-14 25s10 25 14 30 1 12 2 19-2 9-7 15 0 14 1 19 15 6 17 7 9 5 7 11-20 0-20 8 3 16 7 18 44 10 62 13 26 4 39 10 64 2 84 3 143 1 166 2 28-9 30-18-3-9-7-12-5 0-8-3 4-10 3-13-7-4-14-1-14-7-10-15 30-6 30-17-12-18-17-23-9-17-9-17l7-13c2-3 3-20 1-32s-17-18-22-17-48 1-58 1-84 2-93 2-5-9-1-15 10-11 11-15-3-11-6-21-10-38-13-45-1-18 3-28 89-4 95-3 16-8 17-14-16-11-17-16 10-4 13-15-8-30-8-32-8-20-7-28-12-16-24-15-28-5-37-8-60-2-65-1-4 9-2 12-3 11-9 9-14-36-14-44-16-54-18-75 76-10 81-12 22-2 33-1 22-2 29-1-1 0 12 0 19-6 20-13 0-11-2-17-2-2-5-8-3-2-10-4-5-5-8-10 0-4 4-11 1-4 2-8 2-12 1-18 0-7-6-10-4 5-10 3-5-5-6-13 9-4 14-4 5-10 5-23-12-11-19-13-47-1-63-3-77 3-83 1-5 10-13 15-13-6-20-12-23-1-36-1-64-3-80-2-17 19-18 27 4 32 8 41 4 70 6 84 11 47 17 56 4 23 1 33 17 111 20 121 14 58 16 70 4 12 11 15 0 36 6 47 10 4 22 3 19 6 23 7 0-28 3-38 4-3 11-2 3 46 1 51-11 1-22 0-40-1-54 2m76 214c-11-5-22-9-29 5s8 22-1 23-13-6-22 5 10 25 20 32 82 64 88 69l74 59c15 12 33 14 51-7s39-47 45-50 31-28 39-37 40-39 48-50 13-10-8-22-18-11-24-13-11 28-23 21 11-20 0-30-17-14-27-13-6-9-29 14-48 39-56 46-15 10-27 23-32 17-14-4 3-8-11-18-63-37-70-39-13-9-24-14" glyph-name="Ecircumflex" horiz-adv-x="504" unicode="Ê"/><glyph d="M33 5c-11 6 14 90 14 116s6 66 9 86 9 112 12 128 6 42 8 57 14 42 14 54 0 33 3 45 12 48 12 67 6 37 8 59 13 62 14 67 31-12 39-11 6 14 11 18 19-1 31-1 10-7 23-8 27 18 32 22 15-4 19-8 0-50 10-48 24 49 31 51 14-9 20-16-7-36-7-44-17-38-20-50-17-51-18-61-20-65-22-83-39-148-39-148l-11-20c-4-7 3-20 0-39S196 88 196 75s-8-50-12-58-18-9-29-5 7 18 1 21 0 18-8 18 3-9-8-13-18-33-28-33-8 3-16 6-12 14-18 14-20-5-21-13S44-1 33 5m72 831c-17 11-21 20-8 33s23 10 28 19 8 16 13 22 26-33 37-23-27 34-14 47 39-23 50-37 41-71 53-74 29-32 36-41 11-20 3-27-11 4-16-4-11-18-16-21-9-6-25 5-42 38-54 43-32 16-41 24-29 23-46 34" glyph-name="Igrave" horiz-adv-x="345" unicode="Ì"/><glyph d="M33 5c-11 6 14 90 14 116s6 66 9 86 9 112 12 128 6 42 8 57 14 42 14 54 0 33 3 45 12 48 12 67 6 37 8 59 13 62 14 67 31-12 39-11 6 14 11 18 19-1 31-1 10-7 23-8 27 18 32 22 15-4 19-8 0-50 10-48 24 49 31 51 14-9 20-16-7-36-7-44-17-38-20-50-17-51-18-61-20-65-22-83-39-148-39-148l-11-20c-4-7 3-20 0-39S196 88 196 75s-8-50-12-58-18-9-29-5 7 18 1 21 0 18-8 18 3-9-8-13-18-33-28-33-8 3-16 6-12 14-18 14-20-5-21-13S44-1 33 5m97 789c8 7 21 13 35 25l103 86s54 49 67 28 8-18 14-23-30-18-19-26 29 16 38 5 11-24 18-30 10-9 15-12-6-11-24-17-83-38-93-43-57-27-68-33-37-18-49-22-25-4-29 5 5 19-3 22-4-8-16 8 3 20 11 27" glyph-name="Iacute" horiz-adv-x="345" unicode="Í"/><glyph d="M33 5c-11 6 14 90 14 116s6 66 9 86 9 112 12 128 6 42 8 57 14 42 14 54 0 33 3 45 12 48 12 67 6 37 8 59 13 62 14 67 31-12 39-11 6 14 11 18 19-1 31-1 10-7 23-8 27 18 32 22 15-4 19-8 0-50 10-48 24 49 31 51 14-9 20-16-7-36-7-44-17-38-20-50-17-51-18-61-20-65-22-83-39-148-39-148l-11-20c-4-7 3-20 0-39S196 88 196 75s-8-50-12-58-18-9-29-5 7 18 1 21 0 18-8 18 3-9-8-13-18-33-28-33-8 3-16 6-12 14-18 14-20-5-21-13S44-1 33 5m98 729c-11-5-22-9-29 5s8 22-1 23-13-6-22 5 10 25 20 32 82 64 88 69l74 59c15 12 33 14 51-7s39-47 45-50 31-28 39-37 40-39 48-50 13-10-8-22-18-11-24-13-11 28-23 21 11-20 0-30-17-14-27-13-6-9-29 14-48 39-56 46-15 10-27 23-32 17-14-4 3-8-11-18-63-37-70-39-13-9-24-14" glyph-name="Icircumflex" horiz-adv-x="345" unicode="Î"/><glyph d="M332 483c-49-19-99-77-104-87s0-13-2-20-13-13-25-43-42-170 53-170 125 85 132 91 15 11 12 16 2 17 21 72 11 111 3 134-42 46-52 49-11 17-19 14 1-20 6-33 1-13-25-23M225 637c33 16 42 22 50 17s13-13 18-18 15-5 15 7-5 12-4 22-1 17 15 22 55 14 86 12 118-19 149-68 18-41 22-44 9-5 12-10 25-54 29-78 7-110-13-166c-6-17-16-42-30-72-5-11-17-22-23-34-5-9-4-18-10-28-33-55-79-112-137-149C323-1 269 0 236 0 215 0 134 8 80 80c-4 5-3 12-6 18-4 7-13 12-17 20-17 36-27 82-27 142 0 59 12 106 26 143 3 8 10 10 13 17 1 3 0 12 1 15 19 39 38 63 40 74 3 23 1 29 12 43s70 69 103 85m102-80c3-10 36 4 32 13s-35-3-32-13m-31 279c-17 11-21 20-8 33s23 10 28 19 8 16 13 22 26-33 37-23-27 34-14 47 39-23 50-37 41-71 53-74 29-32 36-41 11-20 3-27-11 4-16-4-11-18-16-21-9-6-25 5-42 38-54 43-32 16-41 24-29 23-46 34" glyph-name="Ograve" horiz-adv-x="648" unicode="Ò"/><glyph d="M332 483c-49-19-99-77-104-87s0-13-2-20-13-13-25-43-42-170 53-170 125 85 132 91 15 11 12 16 2 17 21 72 11 111 3 134-42 46-52 49-11 17-19 14 1-20 6-33 1-13-25-23M225 637c33 16 42 22 50 17s13-13 18-18 15-5 15 7-5 12-4 22-1 17 15 22 55 14 86 12 118-19 149-68 18-41 22-44 9-5 12-10 25-54 29-78 7-110-13-166c-6-17-16-42-30-72-5-11-17-22-23-34-5-9-4-18-10-28-33-55-79-112-137-149C323-1 269 0 236 0 215 0 134 8 80 80c-4 5-3 12-6 18-4 7-13 12-17 20-17 36-27 82-27 142 0 59 12 106 26 143 3 8 10 10 13 17 1 3 0 12 1 15 19 39 38 63 40 74 3 23 1 29 12 43s70 69 103 85m102-80c3-10 36 4 32 13s-35-3-32-13m-40 237c8 7 21 13 35 25l103 86s54 49 67 28 8-18 14-23-30-18-19-26 29 16 38 5 11-24 18-30 10-9 15-12-6-11-24-17-83-38-93-43-57-27-68-33-37-18-49-22-25-4-29 5 5 19-3 22-4-8-16 8 3 20 11 27" glyph-name="Oacute" horiz-adv-x="648" unicode="Ó"/><glyph d="M225 637c33 16 42 22 50 17s13-13 18-18 15-5 15 7-5 12-4 22-1 17 15 22 55 14 86 12 118-19 149-68 18-41 22-44 9-5 12-10 25-54 29-78 7-110-13-166c-6-17-16-42-30-72-5-11-17-22-23-34-5-9-4-18-10-28-33-55-79-112-137-149C323-1 269 0 236 0 215 0 134 8 80 80c-4 5-3 12-6 18-4 7-13 12-17 20-17 36-27 82-27 142 0 59 12 106 26 143 3 8 10 10 13 17 1 3 0 12 1 15 19 39 38 63 40 74 3 23 1 29 12 43s70 69 103 85m107-154c-49-19-99-77-104-87s0-13-2-20-13-13-25-43-42-170 53-170 125 85 132 91 15 11 12 16 2 17 21 72 11 111 3 134-42 46-52 49-11 17-19 14 1-20 6-33 1-13-25-23m-40 251c-11-5-22-9-29 5s8 22-1 23-13-6-22 5 10 25 20 32 82 64 88 69l74 59c15 12 33 14 51-7s39-47 45-50 31-28 39-37 40-39 48-50 13-10-8-22-18-11-24-13-11 28-23 21 11-20 0-30-17-14-27-13-6-9-29 14-48 39-56 46-15 10-27 23-32 17-14-4 3-8-11-18-63-37-70-39-13-9-24-14m35-177c3-10 36 4 32 13s-35-3-32-13" glyph-name="Ocircumflex" horiz-adv-x="648" unicode="Ô"/><glyph d="M174 0C97 0 66 70 57 91s-1 44-8 60 3 82 6 99 22 146 22 158 10 25 13 35-2 31 3 45 36 152 40 163 5 27 15 35 14 1 18-1-5-27-3-33 6 7 12 14 0 12 11 15 3-5 11-8 2 5 14 15 19 7 29 6 11 1 18-2-6-37-3-45 8 12 13 21 20 29 27 30 10 1 24-3 6-11 3-20-15-40-18-56 5-18 11-29-8-22-10-30-12-56-17-67-3-18-10-29-14-51-19-61 6-15 6-26-7-10-20-24-4-13-5-30-5-23-6-36-9-40-14-64-5-75 25-75 55 27 62 37 15 16 21 18 7-7 13-8 4 30 4 38 10 66 14 75 35 176 35 189 13 32 14 38 3 34 6 47 19 57 17 69 19 27 23 37 17 6 27 8 10-5 29-9 14 2 20 7 26-1 36-2 11-6 11-17-1-25 2-28 12 11 16 20 14 24 26 27 15-2 16-10-3-16-9-32-20-60-22-75-23-80-26-94-36-120-40-136-14-77-18-90-12-34-15-48-5-65-17-79-16-49-18-67-7-55-13-59-23 1-31 4 12 37-1 41-23-42-31-40-5 26-12 23-6-14-15-19-27-4-43-2 5 59-2 60 1 4-10-19S240 0 174 0m160 121c-2 5-26 0-23-10s25 5 23 10m-39 715c-17 11-21 20-8 33s23 10 28 19 8 16 13 22 26-33 37-23-27 34-14 47 39-23 50-37 41-71 53-74 29-32 36-41 11-20 3-27-11 4-16-4-11-18-16-21-9-6-25 5-42 38-54 43-32 16-41 24-29 23-46 34" glyph-name="Ugrave" horiz-adv-x="624" unicode="Ù"/><glyph d="M174 0C97 0 66 70 57 91s-1 44-8 60 3 82 6 99 22 146 22 158 10 25 13 35-2 31 3 45 36 152 40 163 5 27 15 35 14 1 18-1-5-27-3-33 6 7 12 14 0 12 11 15 3-5 11-8 2 5 14 15 19 7 29 6 11 1 18-2-6-37-3-45 8 12 13 21 20 29 27 30 10 1 24-3 6-11 3-20-15-40-18-56 5-18 11-29-8-22-10-30-12-56-17-67-3-18-10-29-14-51-19-61 6-15 6-26-7-10-20-24-4-13-5-30-5-23-6-36-9-40-14-64-5-75 25-75 55 27 62 37 15 16 21 18 7-7 13-8 4 30 4 38 10 66 14 75 35 176 35 189 13 32 14 38 3 34 6 47 19 57 17 69 19 27 23 37 17 6 27 8 10-5 29-9 14 2 20 7 26-1 36-2 11-6 11-17-1-25 2-28 12 11 16 20 14 24 26 27 15-2 16-10-3-16-9-32-20-60-22-75-23-80-26-94-36-120-40-136-14-77-18-90-12-34-15-48-5-65-17-79-16-49-18-67-7-55-13-59-23 1-31 4 12 37-1 41-23-42-31-40-5 26-12 23-6-14-15-19-27-4-43-2 5 59-2 60 1 4-10-19S240 0 174 0m160 121c-2 5-26 0-23-10s25 5 23 10m-47 673c8 7 21 13 35 25l103 86s54 49 67 28 8-18 14-23-30-18-19-26 29 16 38 5 11-24 18-30 10-9 15-12-6-11-24-17-83-38-93-43-57-27-68-33-37-18-49-22-25-4-29 5 5 19-3 22-4-8-16 8 3 20 11 27" glyph-name="Uacute" horiz-adv-x="624" unicode="Ú"/><glyph d="M174 0C97 0 66 70 57 91s-1 44-8 60 3 82 6 99 22 146 22 158 10 25 13 35-2 31 3 45 36 152 40 163 5 27 15 35 14 1 18-1-5-27-3-33 6 7 12 14 0 12 11 15 3-5 11-8 2 5 14 15 19 7 29 6 11 1 18-2-6-37-3-45 8 12 13 21 20 29 27 30 10 1 24-3 6-11 3-20-15-40-18-56 5-18 11-29-8-22-10-30-12-56-17-67-3-18-10-29-14-51-19-61 6-15 6-26-7-10-20-24-4-13-5-30-5-23-6-36-9-40-14-64-5-75 25-75 55 27 62 37 15 16 21 18 7-7 13-8 4 30 4 38 10 66 14 75 35 176 35 189 13 32 14 38 3 34 6 47 19 57 17 69 19 27 23 37 17 6 27 8 10-5 29-9 14 2 20 7 26-1 36-2 11-6 11-17-1-25 2-28 12 11 16 20 14 24 26 27 15-2 16-10-3-16-9-32-20-60-22-75-23-80-26-94-36-120-40-136-14-77-18-90-12-34-15-48-5-65-17-79-16-49-18-67-7-55-13-59-23 1-31 4 12 37-1 41-23-42-31-40-5 26-12 23-6-14-15-19-27-4-43-2 5 59-2 60 1 4-10-19S240 0 174 0m102 734c-11-5-22-9-29 5s8 22-1 23-13-6-22 5 10 25 20 32 82 64 88 69l74 59c15 12 33 14 51-7s39-47 45-50 31-28 39-37 40-39 48-50 13-10-8-22-18-11-24-13-11 28-23 21 11-20 0-30-17-14-27-13-6-9-29 14-48 39-56 46-15 10-27 23-32 17-14-4 3-8-11-18-63-37-70-39-13-9-24-14m58-613c-2 5-26 0-23-10s25 5 23 10" glyph-name="Ucircumflex" horiz-adv-x="624" unicode="Û"/><glyph d="M427 529c-24 0-46-5-66-14-8-3-16-7-23-11l-10-6c-5-3-14-5-18-9-5-4-6-9-10-13-70-62-109-164-109-216 0-15 3-30 8-42 2-4 8-8 6-12-10-21 2-12 7-11 6 1 7-9 11-13 25-26 57-38 73-38 28 0 69 23 76 26s23 2 27-4 1-9 3-14 3-8 1-13-11-4-14-6-8-12-5-18 27 11 27 8 0-18-1-25 3-10 7-14 7-9 9-18S395-2 271-2C126-2 61 88 37 176c-12 45-14 89-9 121 2 13 4 26 7 39 1 3 5 5 6 9 1 3-2 7-1 10l6 22c11 34 26 68 43 102 7 14 15 27 23 40 7 10 17 13 24 23 3 4 3 15 6 19l7 9 5 6 14 16c76 79 205 111 253 111s108-33 108-40 3-20 3-28-7-17-9-25-5-8-11-10-5 2-10 3-9 1-13-5 15-19 19-21-2-12-8-24-5-12-5-21-2-24-9-26-17 23-59 23M233 794c8 7 21 13 35 25l103 86s54 49 67 28 8-18 14-23-30-18-19-26 29 16 38 5 11-24 18-30 10-9 15-12-6-11-24-17-83-38-93-43-57-27-68-33-37-18-49-22-25-4-29 5 5 19-3 22-4-8-16 8 3 20 11 27" glyph-name="Cacute" horiz-adv-x="522" unicode="Ć"/><glyph d="M427 529c-24 0-46-5-66-14-8-3-16-7-23-11l-10-6c-5-3-14-5-18-9-5-4-6-9-10-13-70-62-109-164-109-216 0-15 3-30 8-42 2-4 8-8 6-12-10-21 2-12 7-11 6 1 7-9 11-13 25-26 57-38 73-38 28 0 69 23 76 26s23 2 27-4 1-9 3-14 3-8 1-13-11-4-14-6-8-12-5-18 27 11 27 8 0-18-1-25 3-10 7-14 7-9 9-18S395-2 271-2C126-2 61 88 37 176c-12 45-14 89-9 121 2 13 4 26 7 39 1 3 5 5 6 9 1 3-2 7-1 10l6 22c11 34 26 68 43 102 7 14 15 27 23 40 7 10 17 13 24 23 3 4 3 15 6 19l7 9 5 6 14 16c76 79 205 111 253 111s108-33 108-40 3-20 3-28-7-17-9-25-5-8-11-10-5 2-10 3-9 1-13-5 15-19 19-21-2-12-8-24-5-12-5-21-2-24-9-26-17 23-59 23M297 734c-11-5-22-9-29 5s8 22-1 23-13-6-22 5 10 25 20 32 82 64 88 69l74 59c15 12 33 14 51-7s39-47 45-50 31-28 39-37 40-39 48-50 13-10-8-22-18-11-24-13-11 28-23 21 11-20 0-30-17-14-27-13-6-9-29 14-48 39-56 46-15 10-27 23-32 17-14-4 3-8-11-18-63-37-70-39-13-9-24-14" glyph-name="Ccircumflex" horiz-adv-x="522" unicode="Ĉ"/><glyph d="M121 649c12 38 19 48 41 47s32-9 45-7 17 7 23 2 17-13 27-6-10-45 9-46 8 64 27 61 39-4 28-44-32-98-28-112-1-40-6-60-73-281-89-384-30-189-35-226-18-28-34-29 5 36-12 40-28-40-38-37-18 17-29 14-23-20-36-15-11 24 1 116 31 195 31 215 5 55 9 97 36 238 46 281 8 55 20 93" glyph-name="bar" horiz-adv-x="338" unicode="|"/><glyph d="M66 562c-2 2-9-1-14 6s22 15 13 27-20-18-29-9-6 15 3 24 68 71 122 71 92-44 134-44 77 35 84 41 6-1 12-6 5-5 13-7-7-22-1-29 18 15 24 9-8-22-13-29 1-6-3-11-44-69-111-69c-82 0-107 47-147 47s-72-43-77-45-7 8-12 13 4 9 2 11" glyph-name="tilde" horiz-adv-x="465" unicode="˜"/><glyph d="M46 648c5 27 11 35 24 31s11-9 20-7 16 6 23 4-3-25 7-25 7 31 19 29 32 3 30-16-4-36-8-56 0-52-16-53-24 6-38 3-14 20-23 18-15-18-24-19-1 22-7 19-5-19-13-20-8 7-3 40 4 25 9 52m169 7c7 23 26 24 38 22s13-13 22-10 13 14 19 12-2-34 9-34 6 33 20 33 21 5 15-27l-15-78s6-16-28-17-13 16-23 14-17-13-26-14-2 34-9 34-10-34-22-33-16 3-8 44 1 31 8 54" glyph-name="dieresis" horiz-adv-x="386" unicode="¨"/><glyph d="M41 672c-14 15-4 21 11 32s19 4 24 15 9 10 14 14 18-27 24-20-13 25-5 31 18-2 27-14 60-50 69-58l27-23s14 0 6 9-12 12-1 18l70 36s44 24 49 26 13-2 18-12-5-11 0-15 11 0 14-4-7-6-3-11 13 0 15-5-10-12-22-22-93-74-101-79-44-35-59-48-26-30-54 0-68 82-74 85-12 9-23 19-12 11-26 26" glyph-name="caron" horiz-adv-x="431" unicode="ˇ"/><glyph d="M105 21c3 7 76 14 73 4s-7-33-9-44-10-9-22-10-8-9 1-8 87 13 87-76c0-123-121-135-159-135s-31 4-31 8 3 2 6 9-3 11 0 17 24-1 27 9-25 0-24 4-31 20 5 20 75 4 75 48-35 46-45 48-12 6-9 14 6 22 10 37 12 48 15 55" glyph-name="cedilla" horiz-adv-x="273" unicode="¸"/><glyph d="M161 681c-4-2-5 1-8 10s-15 11-11-2 6-10 1-15-21-14-21-38 27-29 32-29 43 7 43 48c0 24-24 26-27 26s-5 2-9 0m-43 67c4-9 2-8-5-13-16-12 3-16 15-6 9 8 5 16 2 23s-9 9-4 12 14 12 57 12c27 0 65-10 89-39 7-9 9-22 13-34 4-11 9-21 9-36 0-50-27-94-65-122-5-4-11-8-17-11-22-12-46-20-70-20-35 0-62 10-82 28-7 6-9 13-14 21-4 7-11 15-14 23q-6 19.5-6 42c0 68 60 111 69 118s19 10 23 2" glyph-name="ring" horiz-adv-x="323" unicode="˚"/><glyph d="M66 562c-2 2-9-1-14 6s22 15 13 27-20-18-29-9-6 15 3 24 68 71 122 71 92-44 134-44 77 35 84 41 6-1 12-6 5-5 13-7-7-22-1-29 18 15 24 9-8-22-13-29 1-6-3-11-44-69-111-69c-82 0-107 47-147 47s-72-43-77-45-7 8-12 13 4 9 2 11" glyph-name="asciitilde" horiz-adv-x="465" unicode="~"/><glyph d="M143 89c-2-7-6-16-8-18s-6-12-8-19-19-40-24-43-5-7-8-7-8-6-10-4 10 29 4 29S73 10 68 9s-8-5-14-7-12-3-16-1 1 15-3 16-1 8-10 8-4-5-13-10S13 5 3 3-7-3-18-1s-33 9-13 53 63 132 68 138 14 14 12 21 1 13 2 16 80 150 87 162 57 94 61 99 10 25 12 29l72 119s38 62 49 62 3-30 17-30 13 31 20 31 8-8 16-6 10 4 16 6 0-30 16-30 5 29 13 31 9-1 19 1 15 6 22 3 15-134 14-156 5-144 3-147-3-13-3-19 6-21 5-24 3-335 0-341 0-17-6-17-15-1-19 1-4 9-8 9-11-3-14-5-10-6-13-6-6 32-16 32-5-26-10-27 0-3-10-4-6 17-12 17-23-21-33-19-15 4-15 14 0 68-2 70 0 2 1 12v16c-6 0-14 1-27 1-16 0-13-1-33 0s-15-1-30-2-14-5-28 0-7 6-19 5-12-1-19-3c-5-2-14-2-22-1-4-8-10-15-12-21m102 673c-2 2-9-1-14 6s22 15 13 27-20-18-29-9-6 15 3 24 68 71 122 71 92-44 134-44 77 35 84 41 6-1 12-6 5-5 13-7-7-22-1-29 18 15 24 9-8-22-13-29 1-6-3-11-44-69-111-69c-82 0-107 47-147 47s-72-43-77-45-7 8-12 13 4 9 2 11m-20-526h3c9-1 26 1 35 1s38 0 48-2 5-11 2-19-17-5-22-9 4-5 13-9 15 10 19 14-2 44-1 51 5 96 7 114 3 53-2 55-17-26-25-48-51-91-61-111-25-34-16-37m75-81c0-12 33-13 33-1s-33 13-33 1" glyph-name="Atilde" horiz-adv-x="567" unicode="Ã"/><glyph d="M143 89c-2-7-6-16-8-18s-6-12-8-19-19-40-24-43-5-7-8-7-8-6-10-4 10 29 4 29S73 10 68 9s-8-5-14-7-12-3-16-1 1 15-3 16-1 8-10 8-4-5-13-10S13 5 3 3-7-3-18-1s-33 9-13 53 63 132 68 138 14 14 12 21 1 13 2 16 80 150 87 162 57 94 61 99 10 25 12 29l72 119s38 62 49 62 3-30 17-30 13 31 20 31 8-8 16-6 10 4 16 6 0-30 16-30 5 29 13 31 9-1 19 1 15 6 22 3 15-134 14-156 5-144 3-147-3-13-3-19 6-21 5-24 3-335 0-341 0-17-6-17-15-1-19 1-4 9-8 9-11-3-14-5-10-6-13-6-6 32-16 32-5-26-10-27 0-3-10-4-6 17-12 17-23-21-33-19-15 4-15 14 0 68-2 70 0 2 1 12v16c-6 0-14 1-27 1-16 0-13-1-33 0s-15-1-30-2-14-5-28 0-7 6-19 5-12-1-19-3c-5-2-14-2-22-1-4-8-10-15-12-21m140 759c5 27 11 35 24 31s11-9 20-7 16 6 23 4-3-25 7-25 7 31 19 29 32 3 30-16-4-36-8-56 0-52-16-53-24 6-38 3-14 20-23 18-15-18-24-19-1 22-7 19-5-19-13-20-8 7-3 40 4 25 9 52m169 7c7 23 26 24 38 22s13-13 22-10 13 14 19 12-2-34 9-34 6 33 20 33 21 5 15-27l-15-78s6-16-28-17-13 16-23 14-17-13-26-14-2 34-9 34-10-34-22-33-16 3-8 44 1 31 8 54M225 236h3c9-1 26 1 35 1s38 0 48-2 5-11 2-19-17-5-22-9 4-5 13-9 15 10 19 14-2 44-1 51 5 96 7 114 3 53-2 55-17-26-25-48-51-91-61-111-25-34-16-37m75-81c0-12 33-13 33-1s-33 13-33 1" glyph-name="Adieresis" horiz-adv-x="567" unicode="Ä"/><glyph d="M143 89c-2-7-6-16-8-18s-6-12-8-19-19-40-24-43-5-7-8-7-8-6-10-4 10 29 4 29S73 10 68 9s-8-5-14-7-12-3-16-1 1 15-3 16-1 8-10 8-4-5-13-10S13 5 3 3-7-3-18-1s-33 9-13 53 63 132 68 138 14 14 12 21 1 13 2 16 80 150 87 162 57 94 61 99 10 25 12 29l72 119s38 62 49 62 3-30 17-30 13 31 20 31 8-8 16-6 10 4 16 6 0-30 16-30 5 29 13 31 9-1 19 1 15 6 22 3 15-134 14-156 5-144 3-147-3-13-3-19 6-21 5-24 3-335 0-341 0-17-6-17-15-1-19 1-4 9-8 9-11-3-14-5-10-6-13-6-6 32-16 32-5-26-10-27 0-3-10-4-6 17-12 17-23-21-33-19-15 4-15 14 0 68-2 70 0 2 1 12v16c-6 0-14 1-27 1-16 0-13-1-33 0s-15-1-30-2-14-5-28 0-7 6-19 5-12-1-19-3c-5-2-14-2-22-1-4-8-10-15-12-21m246 859c4-9 2-8-5-13-16-12 3-16 15-6 9 8 5 16 2 23s-9 9-4 12 14 12 57 12c27 0 65-10 89-39 7-9 9-22 13-34 4-11 9-21 9-36 0-50-27-94-65-122-5-4-11-8-17-11-22-12-46-20-70-20-35 0-62 10-82 28-7 6-9 13-14 21-4 7-11 15-14 23q-6 19.5-6 42c0 68 60 111 69 118s19 10 23 2M225 236h3c9-1 26 1 35 1s38 0 48-2 5-11 2-19-17-5-22-9 4-5 13-9 15 10 19 14-2 44-1 51 5 96 7 114 3 53-2 55-17-26-25-48-51-91-61-111-25-34-16-37m207 645c-4-2-5 1-8 10s-15 11-11-2 6-10 1-15-21-14-21-38 27-29 32-29 43 7 43 48c0 24-24 26-27 26s-5 2-9 0M300 155c0-12 33-13 33-1s-33 13-33 1" glyph-name="Aring" horiz-adv-x="567" unicode="Å"/><glyph d="M427 529c-24 0-46-5-66-14-8-3-16-7-23-11l-10-6c-5-3-14-5-18-9-5-4-6-9-10-13-70-62-109-164-109-216 0-15 3-30 8-42 2-4 8-8 6-12-10-21 2-12 7-11 6 1 7-9 11-13 25-26 57-38 73-38 28 0 69 23 76 26s23 2 27-4 1-9 3-14 3-8 1-13-11-4-14-6-8-12-5-18 27 11 27 8 0-18-1-25 3-10 7-14 7-9 9-18c2-8-25-57-122-66-2-7-2-14-3-19-2-11-10-9-22-10s-8-9 1-8 87 13 87-76c0-123-121-135-159-135s-31 4-31 8 3 2 6 9-3 11 0 17 24-1 27 9-25 0-24 4-31 20 5 20 75 4 75 48-35 46-45 48-12 6-9 14 6 22 10 37l8 34C113 15 58 96 37 176c-12 45-14 89-9 121 2 13 4 26 7 39 1 3 5 5 6 9 1 3-2 7-1 10l6 22c11 34 26 68 43 102 7 14 15 27 23 40 7 10 17 13 24 23 3 4 3 15 6 19l7 9 5 6 14 16c76 79 205 111 253 111s108-33 108-40 3-20 3-28-7-17-9-25-5-8-11-10-5 2-10 3-9 1-13-5 15-19 19-21-2-12-8-24-5-12-5-21-2-24-9-26-17 23-59 23" glyph-name="Ccedilla" horiz-adv-x="522" unicode="Ç"/><glyph d="M93 520c-14 3-16 14-14 25s10 25 14 30 1 12 2 19-2 9-7 15 0 14 1 19 15 6 17 7 9 5 7 11-20 0-20 8 3 16 7 18 44 10 62 13 26 4 39 10 64 2 84 3 143 1 166 2 28-9 30-18-3-9-7-12-5 0-8-3 4-10 3-13-7-4-14-1-14-7-10-15 30-6 30-17-12-18-17-23-9-17-9-17l7-13c2-3 3-20 1-32s-17-18-22-17-48 1-58 1-84 2-93 2-5-9-1-15 10-11 11-15-3-11-6-21-10-38-13-45-1-18 3-28 89-4 95-3 16-8 17-14-16-11-17-16 10-4 13-15-8-30-8-32-8-20-7-28-12-16-24-15-28-5-37-8-60-2-65-1-4 9-2 12-3 11-9 9-14-36-14-44-16-54-18-75 76-10 81-12 22-2 33-1 22-2 29-1-1 0 12 0 19-6 20-13 0-11-2-17-2-2-5-8-3-2-10-4-5-5-8-10 0-4 4-11 1-4 2-8 2-12 1-18 0-7-6-10-4 5-10 3-5-5-6-13 9-4 14-4 5-10 5-23-12-11-19-13-47-1-63-3-77 3-83 1-5 10-13 15-13-6-20-12-23-1-36-1-64-3-80-2-17 19-18 27 4 32 8 41 4 70 6 84 11 47 17 56 4 23 1 33 17 111 20 121 14 58 16 70 4 12 11 15 0 36 6 47 10 4 22 3 19 6 23 7 0-28 3-38 4-3 11-2 3 46 1 51-11 1-22 0-40-1-54 2m67 328c5 27 11 35 24 31s11-9 20-7 16 6 23 4-3-25 7-25 7 31 19 29 32 3 30-16-4-36-8-56 0-52-16-53-24 6-38 3-14 20-23 18-15-18-24-19-1 22-7 19-5-19-13-20-8 7-3 40 4 25 9 52m169 7c7 23 26 24 38 22s13-13 22-10 13 14 19 12-2-34 9-34 6 33 20 33 21 5 15-27l-15-78s6-16-28-17-13 16-23 14-17-13-26-14-2 34-9 34-10-34-22-33-16 3-8 44 1 31 8 54" glyph-name="Edieresis" horiz-adv-x="504" unicode="Ë"/><glyph d="M33 5c-11 6 14 90 14 116s6 66 9 86 9 112 12 128 6 42 8 57 14 42 14 54 0 33 3 45 12 48 12 67 6 37 8 59 13 62 14 67 31-12 39-11 6 14 11 18 19-1 31-1 10-7 23-8 27 18 32 22 15-4 19-8 0-50 10-48 24 49 31 51 14-9 20-16-7-36-7-44-17-38-20-50-17-51-18-61-20-65-22-83-39-148-39-148l-11-20c-4-7 3-20 0-39S196 88 196 75s-8-50-12-58-18-9-29-5 7 18 1 21 0 18-8 18 3-9-8-13-18-33-28-33-8 3-16 6-12 14-18 14-20-5-21-13S44-1 33 5m79 843c5 27 11 35 24 31s11-9 20-7 16 6 23 4-3-25 7-25 7 31 19 29 32 3 30-16-4-36-8-56 0-52-16-53-24 6-38 3-14 20-23 18-15-18-24-19-1 22-7 19-5-19-13-20-8 7-3 40 4 25 9 52m169 7c7 23 26 24 38 22s13-13 22-10 13 14 19 12-2-34 9-34 6 33 20 33 21 5 15-27l-15-78s6-16-28-17-13 16-23 14-17-13-26-14-2 34-9 34-10-34-22-33-16 3-8 44 1 31 8 54" glyph-name="Idieresis" horiz-adv-x="345" unicode="Ï"/><glyph d="M50 187c1-1 8 66 11 91s29 175 33 192 17 22 21 33-5 39-1 54 25 73 35 112 40 27 52 26 8-72 20-74-8 76 8 72 14-39 25-41 6 41 29 39c20-2 70-115 76-123s-2-20 2-26 9-5 22-24 54-159 63-161 8 12 10 20 18 115 22 159 32 159 40 160 16 5 32 1-4-63 11-65 33 68 45 69 9-16 15-18 5 17 17 16 6-22 14-24 16 22 26 21 6-17-2-46-79-344-89-393S552 1 536 0s-21 27-30 27 2-27-5-28-18 17-24 17-5-16-10-16-13-6-27 3-91 157-101 175-66 177-84 178-45-171-50-197S176 5 168 3s-5 9-11 11-6-10-18-11-6 47-12 49-15-38-18-45-20-8-26-6-20 0-32 0-23 15-20 32 18 155 19 154m196 575c-2 2-9-1-14 6s22 15 13 27-20-18-29-9-6 15 3 24 68 71 122 71 92-44 134-44 77 35 84 41 6-1 12-6 5-5 13-7-7-22-1-29 18 15 24 9-8-22-13-29 1-6-3-11-44-69-111-69c-82 0-107 47-147 47s-72-43-77-45-7 8-12 13 4 9 2 11" glyph-name="Ntilde" horiz-adv-x="687" unicode="Ñ"/><glyph d="M332 483c-49-19-99-77-104-87s0-13-2-20-13-13-25-43-42-170 53-170 125 85 132 91 15 11 12 16 2 17 21 72 11 111 3 134-42 46-52 49-11 17-19 14 1-20 6-33 1-13-25-23M225 637c33 16 42 22 50 17s13-13 18-18 15-5 15 7-5 12-4 22-1 17 15 22 55 14 86 12 118-19 149-68 18-41 22-44 9-5 12-10 25-54 29-78 7-110-13-166c-6-17-16-42-30-72-5-11-17-22-23-34-5-9-4-18-10-28-33-55-79-112-137-149C323-1 269 0 236 0 215 0 134 8 80 80c-4 5-3 12-6 18-4 7-13 12-17 20-17 36-27 82-27 142 0 59 12 106 26 143 3 8 10 10 13 17 1 3 0 12 1 15 19 39 38 63 40 74 3 23 1 29 12 43s70 69 103 85m102-80c3-10 36 4 32 13s-35-3-32-13m-79 205c-2 2-9-1-14 6s22 15 13 27-20-18-29-9-6 15 3 24 68 71 122 71 92-44 134-44 77 35 84 41 6-1 12-6 5-5 13-7-7-22-1-29 18 15 24 9-8-22-13-29 1-6-3-11-44-69-111-69c-82 0-107 47-147 47s-72-43-77-45-7 8-12 13 4 9 2 11" glyph-name="Otilde" horiz-adv-x="648" unicode="Õ"/><glyph d="M332 483c-49-19-99-77-104-87s0-13-2-20-13-13-25-43-42-170 53-170 125 85 132 91 15 11 12 16 2 17 21 72 11 111 3 134-42 46-52 49-11 17-19 14 1-20 6-33 1-13-25-23M225 637c33 16 42 22 50 17s13-13 18-18 15-5 15 7-5 12-4 22-1 17 15 22 55 14 86 12 118-19 149-68 18-41 22-44 9-5 12-10 25-54 29-78 7-110-13-166c-6-17-16-42-30-72-5-11-17-22-23-34-5-9-4-18-10-28-33-55-79-112-137-149C323-1 269 0 236 0 215 0 134 8 80 80c-4 5-3 12-6 18-4 7-13 12-17 20-17 36-27 82-27 142 0 59 12 106 26 143 3 8 10 10 13 17 1 3 0 12 1 15 19 39 38 63 40 74 3 23 1 29 12 43s70 69 103 85m102-80c3-10 36 4 32 13s-35-3-32-13m-46 291c5 27 11 35 24 31s11-9 20-7 16 6 23 4-3-25 7-25 7 31 19 29 32 3 30-16-4-36-8-56 0-52-16-53-24 6-38 3-14 20-23 18-15-18-24-19-1 22-7 19-5-19-13-20-8 7-3 40 4 25 9 52m169 7c7 23 26 24 38 22s13-13 22-10 13 14 19 12-2-34 9-34 6 33 20 33 21 5 15-27l-15-78s6-16-28-17-13 16-23 14-17-13-26-14-2 34-9 34-10-34-22-33-16 3-8 44 1 31 8 54" glyph-name="Odieresis" horiz-adv-x="648" unicode="Ö"/><glyph d="M174 0C97 0 66 70 57 91s-1 44-8 60 3 82 6 99 22 146 22 158 10 25 13 35-2 31 3 45 36 152 40 163 5 27 15 35 14 1 18-1-5-27-3-33 6 7 12 14 0 12 11 15 3-5 11-8 2 5 14 15 19 7 29 6 11 1 18-2-6-37-3-45 8 12 13 21 20 29 27 30 10 1 24-3 6-11 3-20-15-40-18-56 5-18 11-29-8-22-10-30-12-56-17-67-3-18-10-29-14-51-19-61 6-15 6-26-7-10-20-24-4-13-5-30-5-23-6-36-9-40-14-64-5-75 25-75 55 27 62 37 15 16 21 18 7-7 13-8 4 30 4 38 10 66 14 75 35 176 35 189 13 32 14 38 3 34 6 47 19 57 17 69 19 27 23 37 17 6 27 8 10-5 29-9 14 2 20 7 26-1 36-2 11-6 11-17-1-25 2-28 12 11 16 20 14 24 26 27 15-2 16-10-3-16-9-32-20-60-22-75-23-80-26-94-36-120-40-136-14-77-18-90-12-34-15-48-5-65-17-79-16-49-18-67-7-55-13-59-23 1-31 4 12 37-1 41-23-42-31-40-5 26-12 23-6-14-15-19-27-4-43-2 5 59-2 60 1 4-10-19S240 0 174 0m160 121c-2 5-26 0-23-10s25 5 23 10m-66 727c5 27 11 35 24 31s11-9 20-7 16 6 23 4-3-25 7-25 7 31 19 29 32 3 30-16-4-36-8-56 0-52-16-53-24 6-38 3-14 20-23 18-15-18-24-19-1 22-7 19-5-19-13-20-8 7-3 40 4 25 9 52m169 7c7 23 26 24 38 22s13-13 22-10 13 14 19 12-2-34 9-34 6 33 20 33 21 5 15-27l-15-78s6-16-28-17-13 16-23 14-17-13-26-14-2 34-9 34-10-34-22-33-16 3-8 44 1 31 8 54" glyph-name="Udieresis" horiz-adv-x="624" unicode="Ü"/><glyph d="M138 330c0 3 10 4 13 8s1 5-2 13-10 17-13 29-73 199-75 213-28 78-18 85 56 7 63 9 10-22 20-15 5 13 15 20 14 3 24 5 10-5 16-12 18-49 21-47-3 14-3 28-6 19-3 23 6 6 16 8 7 1 17-8 3-28 10-40 3-37 7-50 11-30 13-40 0-11-4-20-13-20-20-26 0-9 8-7 22 26 22 30 7 6 11 13 78 110 80 116 34 28 40 33 17 3 20 0-14-37-8-40 28 27 33 34 14 7 21 6 21-3 29-1 11-12 7-21-6-15 0-12 8 11 16 20 13 11 18 12 10 4 19 4 3-15 2-24-35-45-39-54-49-63-58-73-36-56-36-56l-79-110c-7-10-33-50-36-56s0-27-1-37-7-23-10-27-12-39-15-52-6-34-8-47-7-36-11-49-12-19-16-22 3-18 1-26-5-39-7-47-10-14-17-19-10-3-18 1 6 12 3 13 2 11-5 13-12-26-18-27-16 1-25 1-10 1-17 4-4 7-10 6-5-7-13-9-22-2-28 3 6 35 9 50 2 29 1 42 7 53 10 72 21 120 21 127 11 9 14 13-7 17-7 20m105 464c8 7 21 13 35 25l103 86s54 49 67 28 8-18 14-23-30-18-19-26 29 16 38 5 11-24 18-30 10-9 15-12-6-11-24-17-83-38-93-43-57-27-68-33-37-18-49-22-25-4-29 5 5 19-3 22-4-8-16 8 3 20 11 27" glyph-name="Yacute" horiz-adv-x="486" unicode="Ý"/><glyph d="M427 529c-24 0-46-5-66-14-8-3-16-7-23-11l-10-6c-5-3-14-5-18-9-5-4-6-9-10-13-70-62-109-164-109-216 0-15 3-30 8-42 2-4 8-8 6-12-10-21 2-12 7-11 6 1 7-9 11-13 25-26 57-38 73-38 28 0 69 23 76 26s23 2 27-4 1-9 3-14 3-8 1-13-11-4-14-6-8-12-5-18 27 11 27 8 0-18-1-25 3-10 7-14 7-9 9-18S395-2 271-2C126-2 61 88 37 176c-12 45-14 89-9 121 2 13 4 26 7 39 1 3 5 5 6 9 1 3-2 7-1 10l6 22c11 34 26 68 43 102 7 14 15 27 23 40 7 10 17 13 24 23 3 4 3 15 6 19l7 9 5 6 14 16c76 79 205 111 253 111s108-33 108-40 3-20 3-28-7-17-9-25-5-8-11-10-5 2-10 3-9 1-13-5 15-19 19-21-2-12-8-24-5-12-5-21-2-24-9-26-17 23-59 23M216 872c-14 15-4 21 11 32s19 4 24 15 9 10 14 14 18-27 24-20-13 25-5 31 18-2 27-14 60-50 69-58l27-23s14 0 6 9-12 12-1 18l70 36s44 24 49 26 13-2 18-12-5-11 0-15 11 0 14-4-7-6-3-11 13 0 15-5-10-12-22-22-93-74-101-79-44-35-59-48-26-30-54 0-68 82-74 85-12 9-23 19-12 11-26 26" glyph-name="Ccaron" horiz-adv-x="522" unicode="Č"/><glyph d="M30 64c1 1 5 57 9 67s6 46 9 65 5 51 9 78 34 193 38 204 10 31 15 37 7 8 11 1 9 0 15 0 2-23 14-23 7 30-7 34-31 0-42 1-12 1-14 11-1 19 1 26 10 8 8 14-10 12-5 25 27 21 29 33-31-24-25 18 35 46 47 45 22-5 42-2 77 0 87 0 13-4 22-6 15 1 24 4 26 2 35-2 88-21 111-31 82-51 107-155-21-228-25-240-23-44-34-54-1-33-65-102S290 13 273 11s-21 3-28 5-22-4-38 1-8 48-20 49-10-8-15-34-21-32-33-28-3 19-8 19-7-8-11-11S104 1 98 0 85 6 78 7s8 31-5 31S59 0 38 0s-9 63-8 64m252 462c-20-5-9-26-12-33s-7-20-13-27-3-33-4-42-5-44-8-57-21-97-23-100-5-17-5-24-8-33-13-39-11-43-5-51 30-5 99 38 83 127 87 137 4 25 2 30 10 9 5 79-74 98-110 89M168 872c-14 15-4 21 11 32s19 4 24 15 9 10 14 14 18-27 24-20-13 25-5 31 18-2 27-14 60-50 69-58l27-23s14 0 6 9-12 12-1 18l70 36s44 24 49 26 13-2 18-12-5-11 0-15 11 0 14-4-7-6-3-11 13 0 15-5-10-12-22-22-93-74-101-79-44-35-59-48-26-30-54 0-68 82-74 85-12 9-23 19-12 11-26 26" glyph-name="Dcaron" horiz-adv-x="604" unicode="Ď"/><glyph d="M93 520c-14 3-16 14-14 25s10 25 14 30 1 12 2 19-2 9-7 15 0 14 1 19 15 6 17 7 9 5 7 11-20 0-20 8 3 16 7 18 44 10 62 13 26 4 39 10 64 2 84 3 143 1 166 2 28-9 30-18-3-9-7-12-5 0-8-3 4-10 3-13-7-4-14-1-14-7-10-15 30-6 30-17-12-18-17-23-9-17-9-17l7-13c2-3 3-20 1-32s-17-18-22-17-48 1-58 1-84 2-93 2-5-9-1-15 10-11 11-15-3-11-6-21-10-38-13-45-1-18 3-28 89-4 95-3 16-8 17-14-16-11-17-16 10-4 13-15-8-30-8-32-8-20-7-28-12-16-24-15-28-5-37-8-60-2-65-1-4 9-2 12-3 11-9 9-14-36-14-44-16-54-18-75 76-10 81-12 22-2 33-1 22-2 29-1-1 0 12 0 19-6 20-13 0-11-2-17-2-2-5-8-3-2-10-4-5-5-8-10 0-4 4-11 1-4 2-8 2-12 1-18 0-7-6-10-4 5-10 3-5-5-6-13 9-4 14-4 5-10 5-23-12-11-19-13-47-1-63-3-77 3-83 1-5 10-13 15-13-6-20-12-23-1-36-1-64-3-80-2-17 19-18 27 4 32 8 41 4 70 6 84 11 47 17 56 4 23 1 33 17 111 20 121 14 58 16 70 4 12 11 15 0 36 6 47 10 4 22 3 19 6 23 7 0-28 3-38 4-3 11-2 3 46 1 51-11 1-22 0-40-1-54 2m55 352c-14 15-4 21 11 32s19 4 24 15 9 10 14 14 18-27 24-20-13 25-5 31 18-2 27-14 60-50 69-58l27-23s14 0 6 9-12 12-1 18l70 36s44 24 49 26 13-2 18-12-5-11 0-15 11 0 14-4-7-6-3-11 13 0 15-5-10-12-22-22-93-74-101-79-44-35-59-48-26-30-54 0-68 82-74 85-12 9-23 19-12 11-26 26" glyph-name="Ecaron" horiz-adv-x="504" unicode="Ě"/><glyph d="M303 275c-2 1-9-5-14-6s-9 12-9 21 29 0 34 4-5 4-11 12-23 4-21 15 2 15 8 20 10 9 14 16-11 6-9 13 2 14 2 25 8 6 30 9 94-2 110-4 36-2 45-4 10 3 18 6 19-5 29-5 5-4 5-17-8-42-14-47-4-9-5-19-1-3-30-97S368 56 360 48s-6 0-16 1-18-17-23-23S270-9 197 0C47 19 30 208 26 215s1 29 4 39-11 23-5 83 73 181 86 195 24 33 29 36 4-2 11 5-4 13 42 52 127 70 204 77 133-45 140-50-3-26-4-32-4-21-10-23-12-15-17-21-9-17-16-17-4 7-7 10-19-7-19-15 6-10 13-14-1-10-8-17-23-15-31-12-1 18-32 19-50-14-86-33-60-53-63-61-14-16-20-15-12-14-10-18 3-7-19-40-37-122-29-162 37-56 45-58 30-3 42 1 36 26 41 36 34 54 35 67 6 13 11 13 7 1 16 4 6 1 11-5 0-10-3-17 3-15 7-16 7 8 9 20 0 26-1 28-10 0-21 1-18 1-33 0-33-1-35 0m-26 459c-11-5-22-9-29 5s8 22-1 23-13-6-22 5 10 25 20 32 82 64 88 69l74 59c15 12 33 14 51-7s39-47 45-50 31-28 39-37 40-39 48-50 13-10-8-22-18-11-24-13-11 28-23 21 11-20 0-30-17-14-27-13-6-9-29 14-48 39-56 46-15 10-27 23-32 17-14-4 3-8-11-18-63-37-70-39-13-9-24-14" glyph-name="Gcircumflex" horiz-adv-x="558" unicode="Ĝ"/><glyph d="M45 292c6 27 21 10 31 6s42-15 52-13 9 6 21 4-21-35 2-44 7 45 23 42 13-16 23-14 28 13 25 1-59-230-71-287-25-144-30-171-34-14-49-10 0 22-19 21-28-19-37-18 13 42-1 43-9-53-27-45-10 44-2 96S9 60 18 132s21 133 27 160m20 89 25 95c9 33 27 39 41 31s5-13 28-13 18 11 41 4-19-46 8-47 25 49 41 43 30-4 23-27-23-65-25-83-6-55-27-54-20 7-34 10-26-6-47 2 3 50-12 52-27-51-42-48-27 9-20 35" glyph-name="exclamdown" horiz-adv-x="313" unicode="¡"/><glyph d="M74-115c-5 1-3 15 0 34C79-49 91-2 93 6c0 3 1 7 2 11-11 7-21 16-30 26-19 20-41 74-45 103-5 40-3 83 9 126 12 44 33 87 61 123 20 27 56 57 87 73 10 5 20 10 32 14l3 14 21 86c4 11 11 42 22 39s18-23 33-16 9 11 22 10c13-2 2-34 15-31 12 4 6 30 15 26 10-3 26 4 9-49-7-24-15-46-21-64 46-6 66-22 73-27 8-6-5-31-9-35s-9 1-13 4-10-6-9-9 7-10 8-14-1-12-8-12-5 4-9 9-11 6-13 8 4-8 7-12 10-12 14-13-1-8-3-15-7-10-13-17-7-10-10-20-30-27-30-27-12 13-27 13c-22 0-41-9-59-22-47-40-78-125-58-172 3-7 7-16 12-21 7-6 17-6 29-6 21 0 43 10 52 15s14 5 18 2 2-4 6-5 4-12 4-15-2-8-5-10-2-4-5-8-5-4-3-8 2-4 5-4 7 4 11 4 4-7 5-11 4-7 2-8-12-5-16-5 3-5 3-10 17 9 17 6 18-7 7-19C301 22 286-1 210-5v-2c-13-54-21-100-26-112s-12-7-22-6-15 0-22 5-2 17-10 13-16-12-23-12 10 26-3 28-16-26-30-24" glyph-name="cent" horiz-adv-x="395" unicode="¢"/><glyph d="M327 460c-3-15-7-20-4-28s51 0 71 0 67 4 71-7-15-13-21-18 19-10 19-24-32-14-40-25 35 3 37-4-6-14-14-20 2-19-3-36-21-10-45-11-92 0-99-2-10-58-18-81-11-13-32-8-22-11-7-14 40-18 66-18 48 30 62 50 22 25 35 27 33-14 43-14 22 12 29 11-5-36 6-34 11 36 19 36 74 5 1-105S310 0 277 0s-77 15-105 25-52-3-72-10S56 3 38 1 13 3 16 11s4 35 5 40 7 38 11 49 40 9 41 18-36 0-39 11 7 37 7 39 37 3 58 23 30 62 32 74 3 12-5 12-49-1-75-2-27 10-22 24 9 14 10 32-1 19 3 35 42-1 43 13-45-2-43 22 10 31 21 31 52 1 61 0 31-7 32 2 6 102 87 183 193 83 196 79-7-22-13-34 1-25 1-39-47-10-47-21 43 3 43-6-5-18-8-30 29-34-3-34-76-25-85-72" glyph-name="sterling" horiz-adv-x="556" unicode="£"/><glyph d="M532 506c-7-3-19 23-59 23-48 0-94-29-107-35s-18-16-34-15-11-11 6-12 26 2 42 1 106-1 113-4 2-12-3-23 1-27-9-41-32-3-36-12 29-4 31-8 5-19-8-21-163-2-185-1-21-2-26-11-6-25-6-25h68c15 0 134-2 141 0s8-3 5-14-26-12-23-23 18 9 19-7-8-19-10-36-6-28-12-28-168-4-192-3-23-12-14-11 17 1 21 1 44-58 85-58 92 31 98 27 7-13 8-18 1-10 5-20-21-13-17-22 20 13 26 7-3-16-2-25 10-13 17-25S429-2 316-2C101-2 80 195 78 204s-17 2-30 3-41-1-39 7 1 24 2 35 21 19 24 28-20 1-21 12 2 22 6 29 44 1 51 3 8 0 8 9 1 13 25 13 28 9-1 10-54 1-65 9 4 46 8 56 27-3 31 10-30 0-30 16 2 21 9 21 65 1 72 2 29 68 82 120 165 116 246 116 137-50 131-61-15-17-15-36 3-19-3-28-35 10-44 4 7-8 26-18 8-7-2-20-2-32-17-38" glyph-name="Euro" horiz-adv-x="595" unicode="€"/><glyph d="M33 5c-11 6 14 90 14 116s6 66 9 86 9 112 12 128 6 42 8 57 14 42 14 54 0 33 3 45 12 48 12 67 6 37 8 59 13 62 14 67 31-12 39-11 6 14 11 18 19-1 31-1 10-7 23-8 27 18 32 22 15-4 19-8 0-50 10-48 24 49 31 51 14-9 20-16-7-36-7-44-17-38-20-50-17-51-18-61-20-65-22-83-39-148-39-148l-11-20c-4-7 3-20 0-39S196 88 196 75s-8-50-12-58-18-9-29-5 7 18 1 21 0 18-8 18 3-9-8-13-18-33-28-33-8 3-16 6-12 14-18 14-20-5-21-13S44-1 33 5m66 757c-2 2-9-1-14 6s22 15 13 27-20-18-29-9-6 15 3 24 68 71 122 71 92-44 134-44 77 35 84 41 6-1 12-6 5-5 13-7-7-22-1-29 18 15 24 9-8-22-13-29 1-6-3-11-44-69-111-69c-82 0-107 47-147 47s-72-43-77-45-7 8-12 13 4 9 2 11" glyph-name="Itilde" horiz-adv-x="345" unicode="Ĩ"/><glyph d="m104 131 4 27c1 7-24 2-74 4s-48 15-50 32 44-3 47 14-37 11-32 23-3 33 2 42 63 3 80 2 47 3 47 3l8 26c3 10-38 4-64 4s-53 2-57 12 4 29 8 42-2 8 13 17-9 5-10 25 8 15 15 16 43 1 54 0 27-1 24 7-8 29-10 38-29 82-34 96-18 48-29 88 28 36 45 37 22-47 41-44-2 47 9 51 12 0 22-6 21 3 37 6 27 10 31-7 22-101 26-116 5-14-8-42 11-11 19 7 65 101 88 132 40 35 54 32 0-33 14-36 24 30 42 34 13-3 27-12 19 15 52 12 3-29-5-41-76-96-88-112-65-97-69-106-17-13-15-16 7 1 17 0 59 3 70 1 15-16 18-19-19-7-23-16 10-8 10-25-38-3-43-17 35-3 32-17-7-17-20-17-107-2-133-2-23-10-13-11 19 5 21-1-8-21-4-23 9 0 23 0 85 4 97 3 17-7 19-22-34-14-26-24 14 3 15-1 0-11 1-23-9-21-10-36-13-2-34-4-96-2-117-2-29-7-23-10 24 5 24-4-19-61-23-84-10-69-28-69-5 41-19 42-3-40-25-38-6 7-23 8-15-10-29-8-34 2-31 23 11 94 13 105" glyph-name="yen" horiz-adv-x="486" unicode="¥"/><glyph d="M25 51c-4 3 4 15 14 31 19 27 50 64 55 70 4 5 10 14 17 21-6 13-11 26-14 41-2 10 0 23-1 34-1 8-5 14-5 23 0 44 10 84 25 119 4 10 19 20 24 29s0 16 5 24c9 14 20 27 32 38-21 48-41 85-44 98-3 12 5 12 14 18 9 5 12 9 20 9 9 0 12-12 16-4s6 19 11 23c6 4 9-27 20-20 11 6-4 30 9 37 4 2 11-11 21-27l29-62c19 8 61 22 110 22 26 0 68-10 103-32 17 24 37 52 42 58 7 9 25 35 34 29 9-7 9-29 25-28 16 2 12 8 24 1 11-6-10-32 3-33 12-2 16 25 24 18s25-6-10-49c-34-41-64-75-75-86 9-26 7-34 7-34s-5-1-5-5 1-6 3-9 6-3 4-7-2-82-28-135-55-85-58-89c-1-1-3-1-6-2 0-1 1-1 1-1 15-28 37-69 40-78 5-10 20-38 11-44-11-4-30 6-37-9-5-15 2-14-10-22-10-7-24 24-31 13-7-10 15-26 5-30s-16-19-39 32c-11 25-20 48-27 66-29-13-68-26-115-26-6 0-12 0-18 1-14 1-20 5-33 9-6 2-17 3-22 5-1 0-2 0-2 1-35-43-61-80-71-89-9-8-13-1-22 4-9 6-14 7-18 14-4 8 6 16-3 16s-20-4-26-1 20 20 9 27-25-17-37-9m280 353c-9-5-19-17-28-32-2-3-6-4-8-7s0-8-2-11c-24-49-41-116-18-146 4-5 5-14 11-17 6-2 16 2 24 2 35 0 65 29 87 66 10 17 24 33 30 51 2 7-3 15-1 22 6 28 15 45 9 64-5 16-24 35-41 35-19 0-20 2-30-1s-10 5-15 14 7 8 8 14-11 2-16 1-9-14-8-19 6-12 9-16 12-6-11-20" glyph-name="currency" horiz-adv-x="682" unicode="¤"/><glyph d="M126 662c12 41 29 35 51 30s-1-57 20-60 12 58 31 57 15-13 32-12 38 18 58 15 7-57-4-93-46-191-53-222-22-94-24-96-6 3-34 4-3 31-20 44-21-51-38-45-15 24-34 21-14-17-27-12-22 9-17 55c7 68 47 273 59 314M7-107c4 54 20 213 28 274s21 72 42 70-6-44 14-54 11 52 32 47 17-32 33-28 29 25 46 28 29 2 25-18S183 7 177-28s-17-127-31-127 1 17-10 24-24-27-41-25 17 35-5 39-13-35-31-28-6-7-33-7-21 18-19 45" glyph-name="brokenbar" horiz-adv-x="343" unicode="¦"/><glyph d="M602 515c-5-5 1-14-12-7s-61 25-81 25-61-3-61-53 121-113 121-260c0-36-10-65-25-91-5-9-18-15-25-23-9-11-12-24-22-33-49-43-106-62-113-64-13-3-20-15-22 9s-14 10-12-8 3-20 3-36c0-63-33-114-79-151-9-7-23-10-33-16-5-3-5-9-10-12-50-28-107-43-148-43-74 0-138 46-128 64s14 4 21 10-7 22-3 37 46-8 48 11-40 16-39 20 3-2 6 12-8 37 25 26 55-23 95-23c31 0 69 22 69 73 0 27-19 45-44 65-5 4-9 13-15 18-7 6-17 8-24 15-35 33-68 78-68 161 0 44 12 80 32 108 6 8 18 12 25 19 9 9 12 22 22 29 58 43 131 58 150 61 34 6 24 14 9 13s-20-10-21-1-2 17-1 32c5 56 32 98 68 129 10 8 24 8 35 15 17 11 32 26 51 33 45 17 91 25 124 25 88 0 137-47 131-68s-45 10-51-14 32-25 29-39-4-13-13-27-9-36-14-41M387 249c1 2 9 12 17 19s10 20-14 7-26-21-38-11-26 28-66 28-53-27-53-59 46-69 61-89 24-11 16-1 5 9 15 9 68 7 68 72c0 21-9 15-6 25" glyph-name="section" horiz-adv-x="646" unicode="§"/><glyph d="M548 399c-12 6-20 14-44 14-55 0-125-77-125-150 0-36 37-51 52-51 22 0 43 16 51 16s13-18 15-25 5-8 10-16-24-11-17-18 17 12 21 3 12-15 7-20-21-46-101-46c-95 0-160 54-160 154 0 116 89 268 249 268 59 0 77-48 70-56s-13-30-17-35-26 12-29 1 26-14 24-18 6-27-6-21M332 570c-12 22-21 16-15 3s25-28 5-39c-44-24-163-119-163-256S273 51 390 51c106 0 303 95 303 293 0 220-203 239-228 239s-63-4-97-16-24-19-36 3m-43 76c1 9 43 54 185 54 192 0 338-156 338-329C812 75 532-64 378-64 282-64 42 3 42 262c0 263 203 381 217 389s14-2 22-21 7 7 8 16" glyph-name="copyright" horiz-adv-x="853" unicode="©"/><glyph d="M304 384c-2-8-5-41-7-73s-15-128-21-160 4-31 13-33 16 9 22 12 2-13 16-10 4 27 16 28-4-31 7-33 9-1 22 2 15 48 19 65 15 68 20 81 12 16 7-5 2-25 9-45 54-106 60-108 17 0 27 2-9 29 2 33 12-21 21-29 4 6 17 10 25 0 22 7-30 94-36 119-8 29-22 26-8 7 4 15 63 57 63 118c0 176-236 118-259 119s-19-17-23-34 27-12 25-25-27 13-31 8 2-12 3-20-6-11-11-27 23-8 40-9 14-33 4-32 6 19-9 20-18-14-20-22m126-37 15 54s32 3 27-27-39-27-42-27M329 570c-12 22-21 16-15 3s25-28 5-39c-44-24-163-119-163-256S270 51 387 51c106 0 303 95 303 293 0 220-203 239-228 239s-63-4-97-16-24-19-36 3m-43 76c1 9 43 54 185 54 192 0 338-156 338-329C809 75 529-64 375-64 279-64 39 3 39 262c0 263 203 381 217 389s14-2 22-21 7 7 8 16" glyph-name="registered" horiz-adv-x="853" unicode="®"/><glyph d="M608 317c-1 14-2 42-4 54s-6 42-8 69-7 17-7 17l-35-88c-4-10-13-30-19-47s-13-21-21-21-37-4-49-4-20 3-21 13-16 68-19 81-11 31-15 50 30 12 31 23-25 3-32-3-15-34-15-34l-37-99c-15-39-23-39-36-37s5 40-4 43-20-44-31-43 3 16-4 20-17-23-31-21-14 15-6 36 29 84 38 108 45 116 56 140 38 96 47 113 28 20 38 18 1-35 14-38-2 35 9 38 32 2 39-10 20-97 22-124 3-45 11-51 9-11 19-14 7 13-4 20-17 15-13 21 36 74 47 96 32 66 43 66 2-35 14-34 8 33 11 30 13-2 23-4 15 10 24-1 20-101 24-125 6-79 6-101 11-147 12-168-12-16-27-15-9 27-23 29-4-29-11-30-7 1-17 7-14-7-28-6-10 12-11 26M113 527c-2-15 0-6-4-27S95 386 92 357s-4-54 6-62 12-3 25-2 14 45 29 48-5-51-5-51l16 8c9 4 17-10 27-7s18 62 18 62l18 97c3 18 20 80 23 101s-17 17-17 27 25 3 31 3 55-3 63 3-4 15-7 22 9 4 11 18-26-2-27 16 28 5 29 15 6 28 5 38-13 6-43 7-135 1-155 2-56 1-62-2-2-30-6-44 33-8 33-23-40 2-40 0 1-11-4-23-3-19-1-24 36-4 65-4 38-12 24-12-27 4-30-8-3-20-5-35" glyph-name="trademark" horiz-adv-x="749" unicode="™"/><glyph d="M35 474c0 165 109 233 190 233s37-60 54-60-1 57 22 57 21-9 29-9 22 13 30 12-7-52 13-48 9 46 31 45 14-30 0-80-36-131-43-168-17-109-34-109-13 10-23 8 3 34-11 29-26-32-41-33 3 45-4 52-8-32-20-40-20-16-63-16S35 368 35 474m217 7 9 81 3 18s-4 16-8 2-3-12-8-13-7 16-23 16c-23 0-71-32-71-107 0-36 7-35 18-35 28 0 49 35 62 35s6-40 14-40 3 35 4 43" glyph-name="ordfeminine" horiz-adv-x="436" unicode="ª"/><glyph d="M157 647c13 9-18 25-1 42s61 18 78 18 139-12 139-127-73-236-205-236S33 473 33 498s10 107 83 163c26 20 27-24 41-14m41-40c-3 15-20 12-12-5s13-25 2-32c-18-11-65-130-17-130 74 0 104 153 56 153-24 0-23-16-29 14" glyph-name="degree" horiz-adv-x="400" unicode="°"/><glyph d="M72 476c3 16-1 27 6 37s28 20 21 27-23-23-35-18-49 29-28 54 64 61 74 76 27 44 44 47 35 1 44 0-2-58 21-48 16 48 33 46 15-23 7-54-14-43-9-55 1-27-4-44-31-98-38-136-26-103-29-126-14-73-16-82-10-16-24-12-17 10-24 8-14-5-20-3 14 48-2 51-17-50-36-50-19 22-14 53 26 213 29 229" glyph-name="onesuperior" horiz-adv-x="278" unicode="¹"/><glyph d="M87 625c-1 9 41 5 39 17s-40-2-44 13 34 48 99 48 140-66 140-168-106-187-128-207-12-16 5-16 85 9 86-9-9-28-5-39 5-18 2-25-50 6-43-10 42-4 37-18-7-18-24-19-161-3-174-2-38-7-44 4-6 15-6 32-9 21 0 25 49-7 43 11-54 9-49 24 0 26 31 51 91 87 117 131 7 90-32 90-28-10-36-6c-14 7-13 64-14 73" glyph-name="twosuperior" horiz-adv-x="344" unicode="²"/><glyph d="M118 581c0 54 5 38 9 41s34-10 38 4-39 4-36 28 41 48 86 48 117-30 117-141c0-79-73-94-73-129 0-20 27-14 27-88 0-121-138-157-209-157s-59 29-49 47 29 3 28 19-26 7-15 36 7 33 22 30 89-11 89 38c0 24-44 24-57 18s-11 13-9 26 2 27 4 33 35-9 33 5-33 3-32 19-6 24 7 24 82-4 82 44-62 1-62 55" glyph-name="threesuperior" horiz-adv-x="361" unicode="³"/><glyph d="M226 51c8 17 75 186 80 198s-2 6 7 27l43 99 31 70c7 16 14 30 19 43l17 40c4 9 18 31 30 58 4 8 4 20 8 28 14 33 28 66 33 76 10 21 35 2 46 2s6 5 21 7 17-9 27-14 21 13 39 14-1-51 11-49 14 50 38 49 11-30-2-58l-31-66c-10-21-24-41-35-64-9-19-15-41-23-57l-24-49c-15-28-70-144-77-161s-43-85-50-99-37-85-47-112-21-32-39-34-16 2-29 8-28-8-41-7 7 27-7 32-11-31-37-31-16 33-8 50m356 91c20 3 100-4 117-2s8 8 13 29 17 14 14 1-18-105-23-130-6-37 10-39 29 38 42 36 4-34 16-35 47-4 52-1 22 112 27 139 27 115 33 141 33 144 43 177 3 49-11 50-7-19-25-22-53 21-71 19-11-47-33-57-3 57-22 57-46 5-55-8-58-72-75-100-52-75-80-111-24-50-17-72 42 4 43-9-39-13-35-38 17-28 37-25M118 581c0-54 62-7 62-55s-69-44-82-44-6-8-7-24 30-5 32-19-31 1-33-5-2-20-4-33-4-32 9-26 57 6 57-18c0-49-74-41-89-38s-11-1-22-30 14-20 15-36-18-1-28-19-22-47 49-47 209 36 209 157c0 74-27 68-27 88 0 35 73 50 73 129 0 111-72 141-117 141s-83-24-86-48 40-14 36-28-34-1-38-4-9 13-9-41m591-311c-9 4 34 51 41 50s-5-44-12-49-20-5-29-1" glyph-name="threequarters" horiz-adv-x="957" unicode="¾"/><glyph d="M152 51c8 17 75 186 80 198s-2 6 7 27l43 99 31 70c7 16 14 30 19 43l17 40c4 9 18 31 30 58 4 8 4 20 8 28 14 33 28 66 33 76 10 21 35 2 46 2s6 5 21 7 17-9 27-14 21 13 39 14-1-51 11-49 14 50 38 49 11-30-2-58l-31-66c-10-21-24-41-35-64-9-19-15-41-23-57l-24-49c-15-28-70-144-77-161s-43-85-50-99-37-85-47-112-21-32-39-34-16 2-29 8-28-8-41-7 7 27-7 32-11-31-37-31-16 33-8 50m383 384c1-9 0-66 14-73 8-4-3 6 36 6s58-46 32-90-89-106-120-131-26-36-31-51 43-6 49-24-34-7-43-11 0-8 0-25 0-21 6-32 31-3 44-4 157 1 174 2 19 5 24 19-30 2-37 18 40 3 43 10 2 14-2 25 6 21 5 39-69 9-86 9-27-4-5 16 131 105 131 207-75 168-140 168-103-33-99-48 42-1 44-13-40-8-39-17M72 476c-3-16-24-198-29-229s-5-53 14-53 20 53 36 50-4-49 2-51 13 1 20 3 10-4 24-8 22 3 24 12 13 59 16 82 22 88 29 126 33 119 38 136 9 32 4 44 1 24 9 55 10 52-7 54-10-36-33-46-12 47-21 48-27 3-44 0-34-32-44-47-53-51-74-76 16-49 28-54 28 25 35 18-14-17-21-27-3-21-6-37" glyph-name="onehalf" horiz-adv-x="799" unicode="½"/><glyph d="M152 51c8 17 75 186 80 198s-2 6 7 27l43 99 31 70c7 16 14 30 19 43l17 40c4 9 18 31 30 58 4 8 4 20 8 28 14 33 28 66 33 76 10 21 35 2 46 2s6 5 21 7 17-9 27-14 21 13 39 14-1-51 11-49 14 50 38 49 11-30-2-58l-31-66c-10-21-24-41-35-64-9-19-15-41-23-57l-24-49c-15-28-70-144-77-161s-43-85-50-99-37-85-47-112-21-32-39-34-16 2-29 8-28-8-41-7 7 27-7 32-11-31-37-31-16 33-8 50m357 88c20 3 100-4 117-2s8 8 13 29 17 14 14 1-18-105-23-130-6-37 10-39 29 38 42 36 4-34 16-35 47-4 52-1 22 112 27 139 27 115 33 141 33 144 43 177 3 49-11 50-7-19-25-22-53 21-71 19-11-47-33-57-3 57-22 57-46 5-55-8-58-72-75-100-52-75-80-111-24-50-17-72 42 4 43-9-39-13-35-38 17-28 37-25M72 476c-3-16-24-198-29-229s-5-53 14-53 20 53 36 50-4-49 2-51 13 1 20 3 10-4 24-8 22 3 24 12 13 59 16 82 22 88 29 126 33 119 38 136 9 32 4 44 1 24 9 55 10 52-7 54-10-36-33-46-12 47-21 48-27 3-44 0-34-32-44-47-53-51-74-76 16-49 28-54 28 25 35 18-14-17-21-27-3-21-6-37m564-209c-9 4 34 51 41 50s-5-44-12-49-20-5-29-1" glyph-name="onequarter" horiz-adv-x="897" unicode="¼"/><glyph d="M49 250c2 2 21 42 43 50s98 42 118 50 69 19 81 27 14 14 28 19 105 44 115 46 3-11 0-23-35-14-33-29 24-7 20-23-1-29-12-33-145-59-156-65-97-46-106-44-20 13-19 5 19-12 31-20 97-50 111-59 69-35 77-41 5-23 0-37-18 0-16-19 7-32 3-37-1-20-14-15-103 53-128 67-91 42-101 51-51 23-57 33-7 22-3 28 26-9 30 5-26 4-22 24 15 20 14 28-6 10-4 12m286-37c3 14 33-6 36 7s-28 20-26 32 6 14 7 20-1 10 18 19 71 33 86 37 39 16 51 22 54 23 72 30 62 23 73 28 37 16 55 25 28 1 22-19-27-17-22-25 16-2 11-18-5-26-9-30-21-14-29-18-108-42-128-51-63-28-74-32-24-16-33-13-40 15-26 1 30-13 44-22 59-32 77-42 71-34 87-44 23-23 17-40-27-1-29-17 19-16 18-27-6-24-7-27-6-11-25 0-111 57-126 65-38 25-50 29-61 27-70 35-37 12-32 26 9 35 12 49" glyph-name="guillemotleft" horiz-adv-x="746" unicode="«"/><glyph d="M101 387c1 10 8-1 10 16s-7 42 4 40 96-49 107-55 89-49 113-61 85-35 78-55-23-9-29-24 20-20 17-29-51-11-55-25 45-16 41-27-76-46-105-56S82 30 61 22 2-13 6 14s28 19 32 37-15 26-11 43 29 23 51 32 158 69 173 73 51 14 59 11 17 3-9 15-99 51-122 61-91 41-90 60 13 2 30 17-19 14-18 24m291-11c4 12 31-26 37-8s-36 28-28 49 20 22 44 8 77-43 97-51 134-70 150-79 19-21 13-38-43 29-50 17 39-33 39-43-15-11-16-22 5-17 4-30-13-24-41-38S399 38 368 27s-73-38-67-15 13 25 17 38-4 4-1 21 39 4 42 14-41 16-26 25 129 57 153 65 106 44 109 43 7-13 16-17 8 25-14 32-40 9-56 16-116 63-133 74-25 15-22 30 2 11 6 23" glyph-name="guillemotright" horiz-adv-x="730" unicode="»"/><glyph d="M32 354c-3 13 2 22 5 46s42 0 49 16-42 5-40 27 4 19 7 35 15 20 48 20 198-5 225-5 235 5 264 3 31-15 23-36-23-10-24-27 14-20 10-30-48 8-50-10 46-13 38-40-43-175-49-197-19-9-39-10-26-13-44-8 14 63-6 63-20-62-41-65-38 13-19 64 31 107 36 118 10 25 14 42-2 38-13 10-4-30-27-31-165 8-192 5-150-6-161-3-11 0-14 13" glyph-name="logicalnot" horiz-adv-x="649" unicode="¬"/><glyph d="M62 169c-15 0-30-2-28 22 1 10 1 12 3 17 4 9 33-5 35 2 3 12-29 4-27 32s21 25 17 45-12 39 5 38 194 1 206 1 146-1 163 0 80 10 75-10-35-23-38-29 31-10 28-20-20-29-20-36-2-31-5-38 3-10-42-12-208-2-215-3-9-7-29-8-113-1-128-1" glyph-name="uni00AD" horiz-adv-x="541" unicode="­"/><glyph d="M237 494s20 87 22 100 2 23 5 35 27 11 38 10 18-20 33-15 22 16 31 15-6-26 10-25 19 26 32 25 17-11 12-34l-24-106s-5-11 21-10 125 0 126-3-5-24-8-35-44-14-36-27 21-9 20-18-3-25-6-38 1-27-18-27-62 2-84 2c-12 0-24 2-35 2-6 0-3 15-2 20 2 13-5 20-13-15l-25-107s-3-47-29-47-37 7-49 6-19-6-26-6 26 49 7 49-21-48-38-48-20 10-14 42 15 84 18 90-4 5-22 4-97-2-111-3-22-1-14 25 24 24 21 38-10 31-7 38 34-4 32 8-26 27-22 37 21 12 43 11 94 2 97 1 0-7-2-20 8-16 12 0 5 26 5 26M37-1C22-1 7-3 9 21c1 10 1 12 3 17 4 9 33-5 35 2 3 12-29 4-27 32s21 25 17 45-12 39 5 38 194 1 206 1 146-1 163 0 80 10 75-10-35-23-38-29 31-10 28-20-20-29-20-36-2-31-5-38 3-10-42-12-208-2-215-3-9-7-29-8S52-1 37-1" glyph-name="plusminus" horiz-adv-x="542" unicode="±"/><glyph d="M243 345c-6-19-27-58-27-144s74-51 85-44 27 28 22-10 14 13 19 38 7 64 12 95 21 132 24 171 20 33 36 33-4-33 12-33 9 25 15 23 7 9 20 10 11-19 23-26 14 23 35 27 48 8 40-20-37-166-50-209-39-178-47-216-15-40-29-40 7 42-9 44-21-41-34-43-6 26-24 31-28-33-38-32-21-4-15 22c2 8 4 17 5 25-4-4-10-9-20-15C246 1 187 1 179 1s-21 1-39 10-22-11-10-14 34-4 32-17-7-55-18-94-11-41-24-38-14-12-35-7 21 30-1 37-26-33-35-28-12 4-27 2-34-28-32-3S5-56 5-56l35 214c5 30 26 186 37 255s16 73 43 72 15-46 37-52 21 45 36 36 34 14 54 15 30-3 25-19-23-101-29-120m49-272c5 0 20-3 27-10 0 13-4 24-14 25-21 2-24-15-13-15" glyph-name="mu" horiz-adv-x="574" unicode="µ"/><glyph d="M29 247c3 16 0 1 0 2 4 35 10 126 20 132s29 3 35-3 6-21 14-14 19 20 29 18 22-14 29-12 0-47 15-43 9 51 24 49 33 3 30-22-29-98-31-114-4-24-24-21-25 15-36 10-16-3-32-4-28 0-33 2 3 35-5 29-14-27-23-28-15 3-12 19" glyph-name="periodcentered" horiz-adv-x="248" unicode="·"/><glyph d="M444 481c10 11 11 37 23 32s34-8 29-26C445 302 382 17 336-170c-4-18-29-9-38-9s-3 20-13 21-15-14-30-18 5 58-8 60-18-54-36-56-35-5-17 62 46 188 53 225 26 128 33 149-9 27-17 6-5-18-9-20-27 11-28-1 27-5 25-18-40-32-102 10S32 322 32 430s79 268 340 268 207 11 207-16-76 8-76-23 61-11 56-39-27-23-26-37 17-13 13-35-22-16-39-16-63 4-70-17-3-45 7-34" glyph-name="paragraph" horiz-adv-x="602" unicode="¶"/><glyph d="M157 647c13 9-18 25-1 42s61 18 78 18 139-12 139-127-73-236-205-236S33 473 33 498s10 107 83 163c26 20 27-24 41-14m41-40c-3 15-20 12-12-5s13-25 2-32c-18-11-65-130-17-130 74 0 104 153 56 153-24 0-23-16-29 14" glyph-name="ordmasculine" horiz-adv-x="388" unicode="º"/><glyph d="M17-1c0-131 94-196 194-196s154 40 151 51-7 13-12 21 3 16-2 33-36-8-41 9 41 32 33 51-34 3-59 3c-34 0-74 16-74 68s59 115 74 139 48 89 60 112-10 22-29 21-17-47-39-48 10 47-2 49-14-5-24-1-25 19-41 3S17 130 17-1m348 400c-4-20-15-49-23-59s-17-4-40 2 10 29-8 37-26-35-45-34-39 2-47 13 9 79 17 112 21 28 29 25 25 4 47 1 9-28 19-32 9 32 27 32 42 1 40-16-12-61-16-81" glyph-name="questiondown" horiz-adv-x="401" unicode="¿"/><glyph d="M301 98c0 8 2 5-1 11s-2 0-26-1-17 2-38-2-32 4-51 5-22-1-28-6S108 7 99 3s-1 15-5 15S83 6 64 0s-8 7-27 11-15-8-50-9-20 30-8 58 55 112 61 126 13 18 13 30 34 57 52 99 113 199 131 236 92 141 106 143 1-26 10-30 21 35 31 35 3-14 12-25 7 4 22 17 27 8 52 7 172 1 192 2 76-2 84-16-7-13-13-36 1-26 0-46-49 4-47-14 39 3 37-5-4-12 3-29-1-26-11-32-75-2-93-2-72 9-81-3 17-17 20-26-10-39-15-51-9-30-1-41 34-7 67-5 50-2 49-14 1-15-1-28-26-1-25-11 13-14 6-40-1-26-22-26-49-7-73-9-39-3-37 10-7 20-13 3-14-55-22-80-8-29 2-40 77-7 109-4 49-3 58-14-6-18-6-34-46-14-46-29 35 1 36-4-11-7-12-31 9-18 2-34-38-7-62-6-113-2-136-1-108-12-121 8 4 80 4 88m52 313c7 32-11 40-30 5s-67-119-73-134-34-48-17-48 57 3 66 2 17 7 15-11-8-35 1-30 13 15 13 45 2 65 8 97 10 42 17 74" glyph-name="AE" horiz-adv-x="774" unicode="Æ"/><glyph d="M54 247c1 8 18-2 37-1s4 14-5 16-67-2-92-1-16 9-14 21 10 20 14 34-3 18-2 29 33 1 36 16-34-1-32 8 0 21 2 41 33 7 63 7 26 23 26 23l8 38c4 11 10 31 15 37s7 8 11 1 9 0 15 0 2-23 14-23 7 30-7 34-31 0-42 1-12 1-14 11-1 19 1 26 10 8 8 14-10 12-5 25 27 21 29 33-31-24-25 18 35 46 47 45 22-5 42-2 77 0 87 0 13-4 22-6 15 1 24 4 26 2 35-2 88-21 111-31 82-51 107-155-21-228-25-240-23-44-34-54-1-33-65-102S290 13 273 11s-21 3-28 5-22-4-38 1-8 48-20 49-10-8-15-34-21-32-33-28-3 19-8 19-7-8-11-11S104 1 98 0 85 6 78 7s8 31-5 31S59 0 38 0s-9 63-8 64 5 57 9 67 6 46 9 65zm199 177c0-5 1-3 2-7s76-1 85 1 17 1 11-11c-8-16-15-14-16-31-1-9-2-13-8-27s-29-8-19-16 28 1 21-13-15-10-14-26-22-22-37-22-25-1-38-1-15-2-18-4-5-17-5-24-8-33-13-39-11-43-5-51 30-5 99 38 83 127 87 137 4 25 2 30 10 9 5 79-74 98-110 89c-20-5-9-26-12-33s-7-20-13-27-4-37-4-42" glyph-name="Eth" horiz-adv-x="604" unicode="Ð"/><glyph d="m173 246-81 97s-17 25 5 41 57-47 65-26-41 46-22 61 27 3 39 23 18 46 31 34 57-69 68-83 17-31 30-19 57 46 88 74 48 25 62 5-3-33 7-38 19 1 24-4-24-34-12-38 29 16 39 4-31-38-42-50-58-46-66-53-10 2-21 13-28 6-14-14 56-67 71-85 24-50 8-61-37 8-40-1-3-37-10-41-41 43-52 28 25-51 9-65-31 7-57 38-38 60-50 58-55-40-71-55-45-34-54-43-22-1-29 13 29 30 21 37-27-18-36-10-4 25-14 31-25 9-33 21 19 22 41 44 46 43 58 52 10 16 23 2 37-22 15 10" glyph-name="multiply" horiz-adv-x="557" unicode="×"/><glyph d="M225 637c33 16 42 22 50 17s13-13 18-18 15-5 15 7-5 12-4 22-1 17 15 22 55 14 86 12l17 68c4 11 11 42 22 39s18-23 33-16 9 11 22 10c13-2 2-34 15-31 12 4 6 30 15 26 10-3 26 4 9-49-9-31-19-58-26-78 17-10 32-22 42-37 31-49 18-41 22-44s9-5 12-10 25-54 29-78 7-110-13-166c-6-17-16-42-30-72-5-11-17-22-23-34-5-9-4-18-10-28-33-55-79-112-137-149C344 12 299 3 266 0l-3-11c-17-53-28-98-34-110-6-11-13-6-23-4s-15 1-21 7c-7 5-1 17-9 13-9-3-17-10-24-10-7 1 12 25-1 28s-18-25-32-22c-5 2-2 16 3 34 7 32 22 78 25 86 1 2 1 6 3 10-24 12-49 31-70 59-4 5-3 12-6 18-4 7-13 12-17 20-17 36-27 82-27 142 0 59 12 106 26 143 3 8 10 10 13 17 1 3 0 12 1 15 19 39 38 63 40 74 3 23 1 29 12 43s70 69 103 85m107-154c-49-19-99-77-104-87s0-13-2-20-13-13-25-43-42-170 53-170 125 85 132 91 15 11 12 16 2 17 21 72 11 111 3 134-42 46-52 49-11 17-19 14 1-20 6-33 1-13-25-23m-5 74c3-10 36 4 32 13s-35-3-32-13" glyph-name="Oslash" horiz-adv-x="648" unicode="Ø"/><glyph d="M146 21c3 16 0 1 0 2 4 35 10 126 20 132s29 3 35-3 6-21 14-14 19 20 29 18 22-14 29-12 0-47 15-43 9 51 24 49 33 3 30-22-29-98-31-114-4-24-24-21-25 15-36 10-16-3-32-4-28 0-33 2 3 35-5 29-14-27-23-28-15 3-12 19m50 354c3 16 0 1 0 2 4 35 10 126 20 132s29 3 35-3 6-21 14-14 19 20 29 18 22-14 29-12 0-47 15-43 9 51 24 49 33 3 30-22-29-98-31-114-4-24-24-21-25 15-36 10-16-3-32-4-28 0-33 2 3 35-5 29-14-27-23-28-15 3-12 19M62 169c-15 0-30-2-28 22 1 10 1 12 3 17 4 9 33-5 35 2 3 12-29 4-27 32s21 25 17 45-12 39 5 38 194 1 206 1 146-1 163 0 80 10 75-10-35-23-38-29 31-10 28-20-20-29-20-36-2-31-5-38 3-10-42-12-208-2-215-3-9-7-29-8-113-1-128-1" glyph-name="divide" horiz-adv-x="546" unicode="÷"/><glyph d="m22 48 12 94c7 53 47 259 56 294s41 201 48 231 15 67 24 82 39 7 47 5 1-37 11-36 17 33 20 34 11-8 11-8l26 7c4 1 3-16 12-18s13 17 22 18 31-3 27-17-22-72-25-91c-5-30-19-27 32-33s174-38 174-188c0-199-240-290-283-290-11 0-21 1-22 20s2 18 7 37-12 21-18-4-29-121-34-149-7-34-18-35-7 4-17 9-23-11-35-9 17 26 1 29S76 2 70 2s-3 1-13 2-14-5-31-5-6 31-4 49m244 374c-3-5-31-120-33-139s4-30 8-21 15 16 27 19 86 51 86 102-45 62-57 62-23 1-38 2-19-7-2-9 12-11 9-16" glyph-name="Thorn" horiz-adv-x="556" unicode="Þ"/><glyph d="M195 49c1 16-9 32-13 14s0-49-8-58-17-6-27-4-10 14-23 12S102 2 97 3s9 50-6 52S73 1 61 1 50 11 41 7 21 2 24 39c2 20 7 57 13 92l3 15c2 10 7 16 8 25 2 12 0 25 1 32 5 27 31 158 48 228 4 15 13 25 15 33 4 14 3 30 8 46s12 32 19 48c10 23 23 46 40 66 9 11 21 16 33 25 8 6 16 16 25 21 30 16 67 26 114 26 100 0 146-50 166-100 3-7 3-20 5-27 2-8 6-10 7-18 4-23 4-42 2-52-11-85-101-142-101-142s35-15 54-66c2-5 0-18 1-24 2-7 7-7 8-15 2-11 3-24 3-38 0-50-28-98-66-135-6-6-12-7-18-12-10-8-20-20-31-27-38-25-79-40-112-40-70 0-75 33-74 49m11 86c3 14 11 14 22 12s50 4 74 40c6 10 11 22 13 35s8 26 4 38c-2 7-12 15-17 21-9 10-23 17-43 17-34 0-36-23-41-46s-15-86-18-103 3-28 6-14m49 267c2-4 4-5 14-7 9-2 34 0 62 24 29 25 38 58 30 85-9 26-63 38-81-11l-11-33c-2-6-7-11-9-17s0-13-1-18c-3-12-5-21-4-23" glyph-name="germandbls" horiz-adv-x="552" unicode="ß"/><glyph d="M62 169c-15 0-30-2-28 22 1 10 1 12 3 17 4 9 33-5 35 2 3 12-29 4-27 32s21 25 17 45-12 39 5 38 194 1 206 1 146-1 163 0 80 10 75-10-35-23-38-29 31-10 28-20-20-29-20-36-2-31-5-38 3-10-42-12-208-2-215-3-9-7-29-8-113-1-128-1" glyph-name="minus" horiz-adv-x="541" unicode="−"/><glyph d="M473 555s-360-6-364-6-29 4-27 32 21 25 17 45-12 39 5 38 194 1 206 1 102-1 119 0 80 10 75-10-35-23-38-29 31-10 28-20-20-29-20-36c0-3 0-9-1-15" glyph-name="uni02C9" horiz-adv-x="577" unicode="ˉ"/><glyph d="M241 612c44 0 64 29 67 37s21 6 37 3 3-14 15-14 12 14 17 15-2-28 6-24 9 22 11 22 32 8 25-11c-20-53-86-126-203-126C88 514 68 617 76 643c3 11 12 8 21 8s15-22 24-23 4 22 7 22 20 1 27 0 22 11 26-7 35-31 60-31" glyph-name="breve" horiz-adv-x="450" unicode="˘"/><glyph d="M82 587c3 16 0 1 0 2 4 35 10 126 20 132s29 3 35-3 6-21 14-14 19 20 29 18 22-14 29-12 0-47 15-43 9 51 24 49 33 3 30-22-29-98-31-114-4-24-24-21-25 15-36 10-16-3-32-4-28 0-33 2 3 35-5 29-14-27-23-28-15 3-12 19" glyph-name="dotaccent" horiz-adv-x="342" unicode="˙"/><glyph d="M149 24c3 8 10 4 22 6s61 2 57-16-14-46-20-76c-2-8-4-12-13-14-10-2-59-18-59-58 0-20 9-41 52-41 5 0 8-6 10-15 1-5-26-11-26-17 0-5 28-9 28-14 0-6-5-10-6-15-2-9-2-16-6-16-108 0-138 67-138 117 0 23 11 42 25 57 3 4 9 3 13 6 6 5 10 13 16 17 21 12 41 18 48 18 15 0 14 6-1 8-8 1-12 1-10 9s5 36 8 44" glyph-name="ogonek" horiz-adv-x="252" unicode="˛"/><glyph d="M150 709c7 15 19 24 30 24s7-13 19-10 21 8 28 9-16-23 0-24 17 23 31 24 41 2 34-6-48-48-57-61-69-75-84-92-30-33-35-34-13-3-15 3 15 19 13 26-6 1-17-12-8-20-17-18-6 8-15 7-16-12-18-6-5 7 8 25 31 48 40 64 48 66 55 81m159-11c5 9 24 35 36 35s-4-22 5-23 18 20 28 21 3-3 20-2 42 3 51 3 14-5-1-18-67-71-84-89-59-66-67-74-12-13-18-12 0 12-1 22-11-17-21-20 6 11-10 6-1-10-19-9-23 2-8 24 39 57 48 77 36 50 41 59" glyph-name="hungarumlaut" horiz-adv-x="505" unicode="˝"/><glyph d="M143 89c-2-7-6-16-8-18s-6-12-8-19-19-40-24-43-5-7-8-7-8-6-10-4 10 29 4 29S73 10 68 9s-8-5-14-7-12-3-16-1 1 15-3 16-1 8-10 8-4-5-13-10S13 5 3 3-7-3-18-1s-33 9-13 53 63 132 68 138 14 14 12 21 1 13 2 16 80 150 87 162 57 94 61 99 10 25 12 29l72 119s38 62 49 62 3-30 17-30 13 31 20 31 8-8 16-6 10 4 16 6 0-30 16-30 5 29 13 31 9-1 19 1 15 6 22 3 15-134 14-156 5-144 3-147-3-13-3-19 6-21 5-24 3-335 0-341 0-17-6-17-15-1-19 1-4 9-8 9-11-3-14-5-10-6-13-6-6 32-16 32-5-26-10-27 0-3-10-4-6 17-12 17-23-21-33-19-15 4-15 14 0 68-2 70 0 2 1 12v16c-6 0-14 1-27 1-16 0-13-1-33 0s-15-1-30-2-14-5-28 0-7 6-19 5-12-1-19-3c-5-2-14-2-22-1-4-8-10-15-12-21m275 723c44 0 64 29 67 37s21 6 37 3 3-14 15-14 12 14 17 15-2-28 6-24 9 22 11 22 32 8 25-11c-20-53-86-126-203-126-128 0-148 103-140 129 3 11 12 8 21 8s15-22 24-23 4 22 7 22 20 1 27 0 22 11 26-7 35-31 60-31M225 236h3c9-1 26 1 35 1s38 0 48-2 5-11 2-19-17-5-22-9 4-5 13-9 15 10 19 14-2 44-1 51 5 96 7 114 3 53-2 55-17-26-25-48-51-91-61-111-25-34-16-37m75-81c0-12 33-13 33-1s-33 13-33 1" glyph-name="Abreve" horiz-adv-x="567" unicode="Ă"/><glyph d="M143 89c-2-7-6-16-8-18s-6-12-8-19-19-40-24-43-5-7-8-7-8-6-10-4 10 29 4 29S73 10 68 9s-8-5-14-7-12-3-16-1 1 15-3 16-1 8-10 8-4-5-13-10S13 5 3 3-7-3-18-1s-33 9-13 53 63 132 68 138 14 14 12 21 1 13 2 16 80 150 87 162 57 94 61 99 10 25 12 29l72 119s38 62 49 62 3-30 17-30 13 31 20 31 8-8 16-6 10 4 16 6 0-30 16-30 5 29 13 31 9-1 19 1 15 6 22 3 15-134 14-156 5-144 3-147-3-13-3-19 6-21 5-24 3-335 0-341 0-17-6-17-15-1-19 1-4 9-8 9h-3c-5-18-14-44-19-72-2-8-4-12-13-14-10-2-59-18-59-58 0-20 9-41 52-41 5 0 8-6 10-15 1-5-26-11-26-17 0-5 28-9 28-14 0-6-5-10-6-15-2-9-2-16-6-16-108 0-138 67-138 117 0 23 11 42 25 57 3 4 9 3 13 6 6 5 10 13 16 17 21 12 41 18 48 18 15 0 14 6-1 8-8 1-12 1-10 9l5 32c-8-6-18-15-24-14-10 2-15 4-15 14s0 68-2 70 0 2 1 12v16c-6 0-14 1-27 1-16 0-13-1-33 0s-15-1-30-2-14-5-28 0-7 6-19 5-12-1-19-3c-5-2-14-2-22-1-4-8-10-15-12-21m82 147h3c9-1 26 1 35 1s38 0 48-2 5-11 2-19-17-5-22-9 4-5 13-9 15 10 19 14-2 44-1 51 5 96 7 114 3 53-2 55-17-26-25-48-51-91-61-111-25-34-16-37m75-81c0-12 33-13 33-1s-33 13-33 1" glyph-name="Aogonek" horiz-adv-x="567" unicode="Ą"/><glyph d="M427 529c-24 0-46-5-66-14-8-3-16-7-23-11l-10-6c-5-3-14-5-18-9-5-4-6-9-10-13-70-62-109-164-109-216 0-15 3-30 8-42 2-4 8-8 6-12-10-21 2-12 7-11 6 1 7-9 11-13 25-26 57-38 73-38 28 0 69 23 76 26s23 2 27-4 1-9 3-14 3-8 1-13-11-4-14-6-8-12-5-18 27 11 27 8 0-18-1-25 3-10 7-14 7-9 9-18S395-2 271-2C126-2 61 88 37 176c-12 45-14 89-9 121 2 13 4 26 7 39 1 3 5 5 6 9 1 3-2 7-1 10l6 22c11 34 26 68 43 102 7 14 15 27 23 40 7 10 17 13 24 23 3 4 3 15 6 19l7 9 5 6 14 16c76 79 205 111 253 111s108-33 108-40 3-20 3-28-7-17-9-25-5-8-11-10-5 2-10 3-9 1-13-5 15-19 19-21-2-12-8-24-5-12-5-21-2-24-9-26-17 23-59 23m-77 258c3 16 0 1 0 2 4 35 10 126 20 132s29 3 35-3 6-21 14-14 19 20 29 18 22-14 29-12 0-47 15-43 9 51 24 49 33 3 30-22-29-98-31-114-4-24-24-21-25 15-36 10-16-3-32-4-28 0-33 2 3 35-5 29-14-27-23-28-15 3-12 19" glyph-name="Cdotaccent" horiz-adv-x="522" unicode="Ċ"/><glyph d="M54 247c1 8 18-2 37-1s4 14-5 16-67-2-92-1-16 9-14 21 10 20 14 34-3 18-2 29 33 1 36 16-34-1-32 8 0 21 2 41 33 7 63 7 26 23 26 23l8 38c4 11 10 31 15 37s7 8 11 1 9 0 15 0 2-23 14-23 7 30-7 34-31 0-42 1-12 1-14 11-1 19 1 26 10 8 8 14-10 12-5 25 27 21 29 33-31-24-25 18 35 46 47 45 22-5 42-2 77 0 87 0 13-4 22-6 15 1 24 4 26 2 35-2 88-21 111-31 82-51 107-155-21-228-25-240-23-44-34-54-1-33-65-102S290 13 273 11s-21 3-28 5-22-4-38 1-8 48-20 49-10-8-15-34-21-32-33-28-3 19-8 19-7-8-11-11S104 1 98 0 85 6 78 7s8 31-5 31S59 0 38 0s-9 63-8 64 5 57 9 67 6 46 9 65zm199 177c0-5 1-3 2-7s76-1 85 1 17 1 11-11c-8-16-15-14-16-31-1-9-2-13-8-27s-29-8-19-16 28 1 21-13-15-10-14-26-22-22-37-22-25-1-38-1-15-2-18-4-5-17-5-24-8-33-13-39-11-43-5-51 30-5 99 38 83 127 87 137 4 25 2 30 10 9 5 79-74 98-110 89c-20-5-9-26-12-33s-7-20-13-27-4-37-4-42" glyph-name="Dcroat" horiz-adv-x="604" unicode="Đ"/><glyph d="M448 555s-335-6-339-6-29 4-27 32 21 25 17 45-12 39 5 38 194 1 206 1 77-1 94 0 80 10 75-10-35-23-38-29 31-10 28-20-20-29-20-36c0-3 0-9-1-15" glyph-name="macron" horiz-adv-x="577" unicode="¯"/><glyph d="M93 520c-14 3-16 14-14 25s10 25 14 30 1 12 2 19-2 9-7 15 0 14 1 19 15 6 17 7 9 5 7 11-20 0-20 8 3 16 7 18 44 10 62 13 26 4 39 10 64 2 84 3 143 1 166 2 28-9 30-18-3-9-7-12-5 0-8-3 4-10 3-13-7-4-14-1-14-7-10-15 30-6 30-17-12-18-17-23-9-17-9-17l7-13c2-3 3-20 1-32s-17-18-22-17-48 1-58 1-84 2-93 2-5-9-1-15 10-11 11-15-3-11-6-21-10-38-13-45-1-18 3-28 89-4 95-3 16-8 17-14-16-11-17-16 10-4 13-15-8-30-8-32-8-20-7-28-12-16-24-15-28-5-37-8-60-2-65-1-4 9-2 12-3 11-9 9-14-36-14-44-16-54-18-75 76-10 81-12 22-2 33-1 22-2 29-1-1 0 12 0 19-6 20-13 0-11-2-17-2-2-5-8-3-2-10-4-5-5-8-10 0-4 4-11 1-4 2-8 2-12 1-18 0-7-6-10-4 5-10 3-5-5-6-13 9-4 14-4 5-10 5-23-12-11-19-13-47-1-63-3-77 3-83 1-5 10-13 15-13-6-20-12-23-1-36-1-64-3-80-2-17 19-18 27 4 32 8 41 4 70 6 84 11 47 17 56 4 23 1 33 17 111 20 121 14 58 16 70 4 12 11 15 0 36 6 47 10 4 22 3 19 6 23 7 0-28 3-38 4-3 11-2 3 46 1 51-11 1-22 0-40-1-54 2m385 235s-335-6-339-6-29 4-27 32 21 25 17 45-12 39 5 38 194 1 206 1 77-1 94 0 80 10 75-10-35-23-38-29 31-10 28-20-20-29-20-36c0-3 0-9-1-15" glyph-name="Emacron" horiz-adv-x="504" unicode="Ē"/><glyph d="M143 89c-2-7-6-16-8-18s-6-12-8-19-19-40-24-43-5-7-8-7-8-6-10-4 10 29 4 29S73 10 68 9s-8-5-14-7-12-3-16-1 1 15-3 16-1 8-10 8-4-5-13-10S13 5 3 3-7-3-18-1s-33 9-13 53 63 132 68 138 14 14 12 21 1 13 2 16 80 150 87 162 57 94 61 99 10 25 12 29l72 119s38 62 49 62 3-30 17-30 13 31 20 31 8-8 16-6 10 4 16 6 0-30 16-30 5 29 13 31 9-1 19 1 15 6 22 3 15-134 14-156 5-144 3-147-3-13-3-19 6-21 5-24 3-335 0-341 0-17-6-17-15-1-19 1-4 9-8 9-11-3-14-5-10-6-13-6-6 32-16 32-5-26-10-27 0-3-10-4-6 17-12 17-23-21-33-19-15 4-15 14 0 68-2 70 0 2 1 12v16c-6 0-14 1-27 1-16 0-13-1-33 0s-15-1-30-2-14-5-28 0-7 6-19 5-12-1-19-3c-5-2-14-2-22-1-4-8-10-15-12-21m419 666s-335-6-339-6-29 4-27 32 21 25 17 45-12 39 5 38 194 1 206 1 77-1 94 0 80 10 75-10-35-23-38-29 31-10 28-20-20-29-20-36c0-3 0-9-1-15M225 236h3c9-1 26 1 35 1s38 0 48-2 5-11 2-19-17-5-22-9 4-5 13-9 15 10 19 14-2 44-1 51 5 96 7 114 3 53-2 55-17-26-25-48-51-91-61-111-25-34-16-37m75-81c0-12 33-13 33-1s-33 13-33 1" glyph-name="Amacron" horiz-adv-x="567" unicode="Ā"/><glyph d="M93 520c-14 3-16 14-14 25s10 25 14 30 1 12 2 19-2 9-7 15 0 14 1 19 15 6 17 7 9 5 7 11-20 0-20 8 3 16 7 18 44 10 62 13 26 4 39 10 64 2 84 3 143 1 166 2 28-9 30-18-3-9-7-12-5 0-8-3 4-10 3-13-7-4-14-1-14-7-10-15 30-6 30-17-12-18-17-23-9-17-9-17l7-13c2-3 3-20 1-32s-17-18-22-17-48 1-58 1-84 2-93 2-5-9-1-15 10-11 11-15-3-11-6-21-10-38-13-45-1-18 3-28 89-4 95-3 16-8 17-14-16-11-17-16 10-4 13-15-8-30-8-32-8-20-7-28-12-16-24-15-28-5-37-8-60-2-65-1-4 9-2 12-3 11-9 9-14-36-14-44-16-54-18-75 76-10 81-12 22-2 33-1 22-2 29-1-1 0 12 0 19-6 20-13 0-11-2-17-2-2-5-8-3-2-10-4-5-5-8-10 0-4 4-11 1-4 2-8 2-12 1-18 0-7-6-10-4 5-10 3-5-5-6-13 9-4 14-4 5-10 5-23-12-11-19-13-47-1-63-3-77 3-83 1-5 10-13 15-13-6-20-12-23-1-36-1-64-3-80-2-17 19-18 27 4 32 8 41 4 70 6 84 11 47 17 56 4 23 1 33 17 111 20 121 14 58 16 70 4 12 11 15 0 36 6 47 10 4 22 3 19 6 23 7 0-28 3-38 4-3 11-2 3 46 1 51-11 1-22 0-40-1-54 2m243 292c44 0 64 29 67 37s21 6 37 3 3-14 15-14 12 14 17 15-2-28 6-24 9 22 11 22 32 8 25-11c-20-53-86-126-203-126-128 0-148 103-140 129 3 11 12 8 21 8s15-22 24-23 4 22 7 22 20 1 27 0 22 11 26-7 35-31 60-31" glyph-name="Ebreve" horiz-adv-x="504" unicode="Ĕ"/><glyph d="M93 520c-14 3-16 14-14 25s10 25 14 30 1 12 2 19-2 9-7 15 0 14 1 19 15 6 17 7 9 5 7 11-20 0-20 8 3 16 7 18 44 10 62 13 26 4 39 10 64 2 84 3 143 1 166 2 28-9 30-18-3-9-7-12-5 0-8-3 4-10 3-13-7-4-14-1-14-7-10-15 30-6 30-17-12-18-17-23-9-17-9-17l7-13c2-3 3-20 1-32s-17-18-22-17-48 1-58 1-84 2-93 2-5-9-1-15 10-11 11-15-3-11-6-21-10-38-13-45-1-18 3-28 89-4 95-3 16-8 17-14-16-11-17-16 10-4 13-15-8-30-8-32-8-20-7-28-12-16-24-15-28-5-37-8-60-2-65-1-4 9-2 12-3 11-9 9-14-36-14-44-16-54-18-75 76-10 81-12 22-2 33-1 22-2 29-1-1 0 12 0 19-6 20-13 0-11-2-17-2-2-5-8-3-2-10-4-5-5-8-10 0-4 4-11 1-4 2-8 2-12 1-18 0-7-6-10-4 5-10 3-5-5-6-13 9-4 14-4 5-10 5-23-12-11-19-13-47-1-63-3-77 3-83 1-5 10-13 15-13-6-20-12-23-1-36-1-64-3-80-2-17 19-18 27 4 32 8 41 4 70 6 84 11 47 17 56 4 23 1 33 17 111 20 121 14 58 16 70 4 12 11 15 0 36 6 47 10 4 22 3 19 6 23 7 0-28 3-38 4-3 11-2 3 46 1 51-11 1-22 0-40-1-54 2m134 267c3 16 0 1 0 2 4 35 10 126 20 132s29 3 35-3 6-21 14-14 19 20 29 18 22-14 29-12 0-47 15-43 9 51 24 49 33 3 30-22-29-98-31-114-4-24-24-21-25 15-36 10-16-3-32-4-28 0-33 2 3 35-5 29-14-27-23-28-15 3-12 19" glyph-name="Edotaccent" horiz-adv-x="504" unicode="Ė"/><glyph d="M93 520c-14 3-16 14-14 25s10 25 14 30 1 12 2 19-2 9-7 15 0 14 1 19 15 6 17 7 9 5 7 11-20 0-20 8 3 16 7 18 44 10 62 13 26 4 39 10 64 2 84 3 143 1 166 2 28-9 30-18-3-9-7-12-5 0-8-3 4-10 3-13-7-4-14-1-14-7-10-15 30-6 30-17-12-18-17-23-9-17-9-17l7-13c2-3 3-20 1-32s-17-18-22-17-48 1-58 1-84 2-93 2-5-9-1-15 10-11 11-15-3-11-6-21-10-38-13-45-1-18 3-28 89-4 95-3 16-8 17-14-16-11-17-16 10-4 13-15-8-30-8-32-8-20-7-28-12-16-24-15-28-5-37-8-60-2-65-1-4 9-2 12-3 11-9 9-14-36-14-44-16-54-18-75 76-10 81-12 22-2 33-1 22-2 29-1-1 0 12 0 19-6 20-13 0-11-2-17-2-2-5-8-3-2-10-4-5-5-8-10 0-4 4-11 1-4 2-8 2-12 1-18 0-7-6-10-4 5-10 3-5-5-6-13 9-4 14-4 5-10 5-23-12-11-19-13-47-1-63-3c-10-2-38 0-59 1-5-17-12-40-17-65-2-8-4-12-13-14-10-2-59-18-59-58 0-20 9-41 52-41 5 0 8-6 10-15 1-5-26-11-26-17 0-5 28-9 28-14 0-6-5-10-6-15-2-9-2-16-6-16-108 0-138 67-138 117 0 23 11 42 25 57 3 4 9 3 13 6 6 5 10 13 16 17 21 12 41 18 48 18 15 0 14 6-1 8-8 1-12 1-10 9l4 24c-5 0-9 1-13 1-13 0-64-3-80-2S25 22 24 30s4 32 8 41 4 70 6 84 11 47 17 56 4 23 1 33 17 111 20 121 14 58 16 70 4 12 11 15 0 36 6 47 10 4 22 3 19 6 23 7 0-28 3-38 4-3 11-2 3 46 1 51-11 1-22 0-40-1-54 2" glyph-name="Eogonek" horiz-adv-x="504" unicode="Ę"/><glyph d="M303 275c-2 1-9-5-14-6s-9 12-9 21 29 0 34 4-5 4-11 12-23 4-21 15 2 15 8 20 10 9 14 16-11 6-9 13 2 14 2 25 8 6 30 9 94-2 110-4 36-2 45-4 10 3 18 6 19-5 29-5 5-4 5-17-8-42-14-47-4-9-5-19-1-3-30-97S368 56 360 48s-6 0-16 1-18-17-23-23S270-9 197 0C47 19 30 208 26 215s1 29 4 39-11 23-5 83 73 181 86 195 24 33 29 36 4-2 11 5-4 13 42 52 127 70 204 77 133-45 140-50-3-26-4-32-4-21-10-23-12-15-17-21-9-17-16-17-4 7-7 10-19-7-19-15 6-10 13-14-1-10-8-17-23-15-31-12-1 18-32 19-50-14-86-33-60-53-63-61-14-16-20-15-12-14-10-18 3-7-19-40-37-122-29-162 37-56 45-58 30-3 42 1 36 26 41 36 34 54 35 67 6 13 11 13 7 1 16 4 6 1 11-5 0-10-3-17 3-15 7-16 7 8 9 20 0 26-1 28-10 0-21 1-18 1-33 0-33-1-35 0m110 537c44 0 64 29 67 37s21 6 37 3 3-14 15-14 12 14 17 15-2-28 6-24 9 22 11 22 32 8 25-11c-20-53-86-126-203-126-128 0-148 103-140 129 3 11 12 8 21 8s15-22 24-23 4 22 7 22 20 1 27 0 22 11 26-7 35-31 60-31" glyph-name="Gbreve" horiz-adv-x="558" unicode="Ğ"/><glyph d="M303 275c-2 1-9-5-14-6s-9 12-9 21 29 0 34 4-5 4-11 12-23 4-21 15 2 15 8 20 10 9 14 16-11 6-9 13 2 14 2 25 8 6 30 9 94-2 110-4 36-2 45-4 10 3 18 6 19-5 29-5 5-4 5-17-8-42-14-47-4-9-5-19-1-3-30-97S368 56 360 48s-6 0-16 1-18-17-23-23S270-9 197 0C47 19 30 208 26 215s1 29 4 39-11 23-5 83 73 181 86 195 24 33 29 36 4-2 11 5-4 13 42 52 127 70 204 77 133-45 140-50-3-26-4-32-4-21-10-23-12-15-17-21-9-17-16-17-4 7-7 10-19-7-19-15 6-10 13-14-1-10-8-17-23-15-31-12-1 18-32 19-50-14-86-33-60-53-63-61-14-16-20-15-12-14-10-18 3-7-19-40-37-122-29-162 37-56 45-58 30-3 42 1 36 26 41 36 34 54 35 67 6 13 11 13 7 1 16 4 6 1 11-5 0-10-3-17 3-15 7-16 7 8 9 20 0 26-1 28-10 0-21 1-18 1-33 0-33-1-35 0m58 512c3 16 0 1 0 2 4 35 10 126 20 132s29 3 35-3 6-21 14-14 19 20 29 18 22-14 29-12 0-47 15-43 9 51 24 49 33 3 30-22-29-98-31-114-4-24-24-21-25 15-36 10-16-3-32-4-28 0-33 2 3 35-5 29-14-27-23-28-15 3-12 19" glyph-name="Gdotaccent" horiz-adv-x="558" unicode="Ġ"/><glyph d="M151 1c-7-3-10 10-15 11s-10 6-14 3-7-3-14-8-21-4-34-5-1 31-11 30S49 5 39 6 26 23 27 33s2 24 5 31 11 92 9 99-3 2-2 7 8 4 12 14 4 20 4 31-6 35-5 41 26 159 31 194 16 101 21 111 5 16 6 25 15 83 18 89 13 13 23 13 15-4 19-6 3-9 8-17 5-12 10-6 13 36 22 36-2-37 16-35 0 23 10 27 21 3 27 5 7-15 13-20 10 18 17 21 10 5 18 4-10-55-9-72 0-38-4-49-11-12-11-27-15-51-15-65-14-70-17-80-13-40-6-41 23-3 27-1 9 9 2 12-16-2-15 6 3 11 13 11 36-1 46-3 20 1 27 2 18-2 23 5 11 21 13 31 27 121 30 131 8 18 8 31-2 26 5 35 8 33 14 45 4 20 15 21 30 6 34 3-7-42 4-43 14 36 22 41 19 8 26 8 10 8 18 6 16-13 23-16 19 8 27 7 16 0 18-5 1-13-3-24-47-149-47-161-11-59-16-68-15-17-16-22 2-21 1-28-22-76-28-94-7-29-11-49-31-178-34-195 0-50-15-49-4 42-11 42-13-6-17-13-6-27-17-28-12-1-17 4-20 15-23 10-31-11-36-11-19 7-17 18 3 24 5 42 2 35 7 50 5 47 7 60 8 72 8 81-26 13-39 11-44 3-55 4-20 8-26 0-13-16-13-24-10-65-13-73-8-44-11-53-16-83-17-91-5-18-7-21-8-4-15-7m104 733c-11-5-22-9-29 5s8 22-1 23-13-6-22 5 10 25 20 32 82 64 88 69l74 59c15 12 33 14 51-7s39-47 45-50 31-28 39-37 40-39 48-50 13-10-8-22-18-11-24-13-11 28-23 21 11-20 0-30-17-14-27-13-6-9-29 14-48 39-56 46-15 10-27 23-32 17-14-4 3-8-11-18-63-37-70-39-13-9-24-14" glyph-name="Hcircumflex" horiz-adv-x="639" unicode="Ĥ"/><glyph d="M33 5c-11 6 14 90 14 116s6 66 9 86 9 112 12 128 6 42 8 57 14 42 14 54 0 33 3 45 12 48 12 67 6 37 8 59 13 62 14 67 31-12 39-11 6 14 11 18 19-1 31-1 10-7 23-8 27 18 32 22 15-4 19-8 0-50 10-48 24 49 31 51 14-9 20-16-7-36-7-44-17-38-20-50-17-51-18-61-20-65-22-83-39-148-39-148l-11-20c-4-7 3-20 0-39S196 88 196 75s-8-50-12-58-18-9-29-5 7 18 1 21 0 18-8 18 3-9-8-13-18-33-28-33-8 3-16 6-12 14-18 14-20-5-21-13S44-1 33 5m395 750s-335-6-339-6-29 4-27 32 21 25 17 45-12 39 5 38 194 1 206 1 77-1 94 0 80 10 75-10-35-23-38-29 31-10 28-20-20-29-20-36c0-3 0-9-1-15" glyph-name="Imacron" horiz-adv-x="345" unicode="Ī"/><glyph d="M26 4c-8 5 12 72 12 93s4 53 7 69c2 16 7 89 9 102 3 13 5 34 7 46 1 12 11 33 11 43 0 9 0 26 2 36 3 9 10 38 10 53 0 16 5 30 6 48 2 17 11 49 12 53 0 4 24-9 31-9 6 1 5 12 9 15s15-1 24-1c10 0 8-6 19-6 10-1 21 14 25 17s12-3 16-6c3-3 0-40 8-39 8 2 19 40 24 41 6 2 12-7 16-13 5-5-5-28-5-35 0-6-14-30-16-40-3-9-14-41-15-49 0-8-16-52-17-66-2-14-31-118-31-118l-9-16c-3-6 2-16 0-32-3-15-24-120-24-130s-7-40-10-46c-3-7-14-8-23-4-9 3 6 14 1 16-5 3 0 15-7 15-6 0 3-7-6-11-9-3-14-26-22-26s-7 2-13 5c-7 2-10 11-15 11-4 0-16-4-16-10-1-7-11-11-20-6m352 611s-335-6-339-6-29 4-27 32 21 25 17 45-12 39 5 38 194 1 206 1 77-1 94 0 80 10 75-10-35-23-38-29 31-10 28-20-20-29-20-36c0-3 0-9-1-15" glyph-name="imacron" horiz-adv-x="286" unicode="ī"/><glyph d="M33 5c-11 6 14 90 14 116s6 66 9 86 9 112 12 128 6 42 8 57 14 42 14 54 0 33 3 45 12 48 12 67 6 37 8 59 13 62 14 67 31-12 39-11 6 14 11 18 19-1 31-1 10-7 23-8 27 18 32 22 15-4 19-8 0-50 10-48 24 49 31 51 14-9 20-16-7-36-7-44-17-38-20-50-17-51-18-61-20-65-22-83-39-148-39-148l-11-20c-4-7 3-20 0-39S196 88 196 75s-8-50-12-58-18-9-29-5c-9 3-13-13-17-18-4-16-10-36-14-56-2-8-4-12-13-14-10-2-59-18-59-58 0-20 9-41 52-41 5 0 8-6 10-15 1-5-26-11-26-17 0-5 28-9 28-14 0-6-5-10-6-15-2-9-2-16-6-16-108 0-138 67-138 117 0 23 11 42 25 57 3 4 9 3 13 6 6 5 10 13 16 17 21 12 41 18 48 18 15 0 14 6-1 8-8 1-12 1-10 9 2 7 4 30 7 40-4-2-7-5-7-8-1-8-13-13-24-7" glyph-name="Iogonek" horiz-adv-x="345" unicode="Į"/><glyph d="M26 4c-8 5 12 72 12 93s4 53 7 69c2 16 7 89 9 102 3 13 5 34 7 46 1 12 11 33 11 43 0 9 0 26 2 36 3 9 10 38 10 53 0 16 5 30 6 48 2 17 11 49 12 53 0 4 24-9 31-9 6 1 5 12 9 15s15-1 24-1c10 0 8-6 19-6 10-1 21 14 25 17s12-3 16-6c3-3 0-40 8-39 8 2 19 40 24 41 6 2 12-7 16-13 5-5-5-28-5-35 0-6-14-30-16-40-3-9-14-41-15-49 0-8-16-52-17-66-2-14-31-118-31-118l-9-16c-3-6 2-16 0-32-3-15-24-120-24-130s-7-40-10-46c-2-5-8-7-14-7-4-17-13-42-18-69-2-8-4-12-13-14-10-2-59-18-59-58 0-20 9-41 52-41 5 0 8-6 10-15 1-5-26-11-26-17 0-5 28-9 28-14 0-6-5-10-6-15-2-9-2-16-6-16-108 0-138 67-138 117 0 23 11 42 25 57 3 4 9 3 13 6 6 5 10 13 16 17 21 12 41 18 48 18 15 0 14 6-1 8-8 1-12 1-10 9l6 38c-4-2-8-5-8-8-1-7-11-11-20-6m92 37c-6 0 3-7-6-11 4-1 8-2 12-4-4 4 0 15-6 15" glyph-name="iogonek" horiz-adv-x="286" unicode="į"/><glyph d="M33 5c-11 6 14 90 14 116s6 66 9 86 9 112 12 128 6 42 8 57 14 42 14 54 0 33 3 45 12 48 12 67 6 37 8 59 13 62 14 67 31-12 39-11 6 14 11 18 19-1 31-1 10-7 23-8 27 18 32 22 15-4 19-8 0-50 10-48 24 49 31 51 14-9 20-16-7-36-7-44-17-38-20-50-17-51-18-61-20-65-22-83-39-148-39-148l-11-20c-4-7 3-20 0-39S196 88 196 75s-8-50-12-58-18-9-29-5 7 18 1 21 0 18-8 18 3-9-8-13-18-33-28-33-8 3-16 6-12 14-18 14-20-5-21-13S44-1 33 5m140 782c3 16 0 1 0 2 4 35 10 126 20 132s29 3 35-3 6-21 14-14 19 20 29 18 22-14 29-12 0-47 15-43 9 51 24 49 33 3 30-22-29-98-31-114-4-24-24-21-25 15-36 10-16-3-32-4-28 0-33 2 3 35-5 29-14-27-23-28-15 3-12 19" glyph-name="Idotaccent" horiz-adv-x="345" unicode="İ"/><glyph d="M82 134c34 0 51 29 59 39s16 54 13 69 0 32 4 42 4 51 6 63 13 106 14 119 11 17 13 27 0 49 0 62 23 97 26 106 13 23 17 29 10-5 17-8 0-18 3-27 13-16 15-10 1 17 1 27 3 16 7 18 28 2 37 4 10-3 15-6 2-38 9-36 16 21 22 33 14 4 30 5 23 2 33 4 6-7 3-22-5-22-10-38-28-110-29-121-2-14 0-25-4-25-13-35-7-17-10-31-18-108-22-119-8-33-10-37-5-19-4-29 2-21-9-94S211 5 105 0-51 43-51 50s16 10 11 13 2 5 8 15 4 14 6 16 16-4 24-4 5 11 3 17-11-8-17 0 5 18 12 26 11 18 16 28 5 11 12 6 24-33 58-33m136 600c-11-5-22-9-29 5s8 22-1 23-13-6-22 5 10 25 20 32 82 64 88 69l74 59c15 12 33 14 51-7s39-47 45-50 31-28 39-37 40-39 48-50 13-10-8-22-18-11-24-13-11 28-23 21 11-20 0-30-17-14-27-13-6-9-29 14-48 39-56 46-15 10-27 23-32 17-14-4 3-8-11-18-63-37-70-39-13-9-24-14" glyph-name="Jcircumflex" horiz-adv-x="450" unicode="Ĵ"/><glyph d="M29 51c0 1 9 76 9 92s18 62 23 75-6 61-7 75 23 137 27 154 9 51 13 76 20 116 24 128 8 36 16 41 15 2 33-1-3-49 11-49 19 55 29 56 11-23 15-26 12 10 17 19 16 8 24 7 26 2 38 0 18 0 23-9-19-64-17-74-14-57-19-76-34-156-38-170-15-36-13-43-9-74-18-116-4-51 5-56 45 0 59-2 47-2 65-1 44 0 54-4 6-13 5-20-17-11-24-10-21-3-21-8 31-9 35-8 5-10 6-12 3-9 3-22-6-9-13-9-12 3-17 3-3-11-1-17 5-8 12-11 8-7 9-17-13-9-18-10-69-4-88-1-75 1-81 4-35-6-44-7-22 3-26 6 4 20 4 24-12 3-17 0-8-25-17-27-36 1-57 2-23 43-23 44m151 743c8 7 21 13 35 25l103 86s54 49 67 28 8-18 14-23-30-18-19-26 29 16 38 5 11-24 18-30 10-9 15-12-6-11-24-17-83-38-93-43-57-27-68-33-37-18-49-22-25-4-29 5 5 19-3 22-4-8-16 8 3 20 11 27" glyph-name="Lacute" horiz-adv-x="431" unicode="Ĺ"/><glyph d="M50 187c1-1 8 66 11 91s29 175 33 192 17 22 21 33-5 39-1 54 25 73 35 112 40 27 52 26 8-72 20-74-8 76 8 72 14-39 25-41 6 41 29 39c20-2 70-115 76-123s-2-20 2-26 9-5 22-24 54-159 63-161 8 12 10 20 18 115 22 159 32 159 40 160 16 5 32 1-4-63 11-65 33 68 45 69 9-16 15-18 5 17 17 16 6-22 14-24 16 22 26 21 6-17-2-46-79-344-89-393S552 1 536 0s-21 27-30 27 2-27-5-28-18 17-24 17-5-16-10-16-13-6-27 3-91 157-101 175-66 177-84 178-45-171-50-197S176 5 168 3s-5 9-11 11-6-10-18-11-6 47-12 49-15-38-18-45-20-8-26-6-20 0-32 0-23 15-20 32 18 155 19 154m120 685c-14 15-4 21 11 32s19 4 24 15 9 10 14 14 18-27 24-20-13 25-5 31 18-2 27-14 60-50 69-58l27-23s14 0 6 9-12 12-1 18l70 36s44 24 49 26 13-2 18-12-5-11 0-15 11 0 14-4-7-6-3-11 13 0 15-5-10-12-22-22-93-74-101-79-44-35-59-48-26-30-54 0-68 82-74 85-12 9-23 19-12 11-26 26" glyph-name="Ncaron" horiz-adv-x="687" unicode="Ň"/><glyph d="M91 873c-14 15-4 21 11 32s19 4 24 15 9 10 14 14 18-27 24-20-13 25-5 31 18-2 27-14 60-50 69-58l27-23s14 0 6 9-12 12-1 18l70 36s44 24 49 26 13-2 18-12-5-11 0-15 11 0 14-4-7-6-3-11 13 0 15-5-10-12-22-22-93-74-101-79-44-35-59-48-26-30-54 0-68 82-74 85-12 9-23 19-12 11-26 26M29 51c0 1 9 76 9 92s18 62 23 75-6 61-7 75 23 137 27 154 9 51 13 76 20 116 24 128 8 36 16 41 15 2 33-1-3-49 11-49 19 55 29 56 11-23 15-26 12 10 17 19 16 8 24 7 26 2 38 0 18 0 23-9-19-64-17-74-14-57-19-76-34-156-38-170-15-36-13-43-9-74-18-116-4-51 5-56 45 0 59-2 47-2 65-1 44 0 54-4 6-13 5-20-17-11-24-10-21-3-21-8 31-9 35-8 5-10 6-12 3-9 3-22-6-9-13-9-12 3-17 3-3-11-1-17 5-8 12-11 8-7 9-17-13-9-18-10-69-4-88-1-75 1-81 4-35-6-44-7-22 3-26 6 4 20 4 24-12 3-17 0-8-25-17-27-36 1-57 2-23 43-23 44" glyph-name="Lcaron" horiz-adv-x="431" unicode="Ľ"/><glyph d="M29 51c0 1 9 76 9 92s18 62 23 75-6 61-7 75 23 137 27 154 9 51 13 76 20 116 24 128 8 36 16 41 15 2 33-1-3-49 11-49 19 55 29 56 11-23 15-26 12 10 17 19 16 8 24 7 26 2 38 0 18 0 23-9-19-64-17-74-14-57-19-76-34-156-38-170-15-36-13-43-9-74-18-116-4-51 5-56 45 0 59-2 47-2 65-1 44 0 54-4 6-13 5-20-17-11-24-10-21-3-21-8 31-9 35-8 5-10 6-12 3-9 3-22-6-9-13-9-12 3-17 3-3-11-1-17 5-8 12-11 8-7 9-17-13-9-18-10-69-4-88-1-75 1-81 4-35-6-44-7-22 3-26 6 4 20 4 24-12 3-17 0-8-25-17-27-36 1-57 2-23 43-23 44m272 196c3 16 0 1 0 2 4 35 10 126 20 132s29 3 35-3 6-21 14-14 19 20 29 18 22-14 29-12 0-47 15-43 9 51 24 49 33 3 30-22-29-98-31-114-4-24-24-21-25 15-36 10-16-3-32-4-28 0-33 2 3 35-5 29-14-27-23-28-15 3-12 19" glyph-name="Ldot" horiz-adv-x="483" unicode="Ŀ"/><glyph d="M4 227c-15 0-30-2-28 22 1 10 1 12 3 17 4 9 33-5 35 2 3 12-29 4-27 32s21 25 17 45-12 39 5 38c5-1 30-1 59-1 5 30 11 57 13 65 4 17 9 51 13 76s20 116 24 128 8 36 16 41 15 2 33-1-3-49 11-49 19 55 29 56 11-23 15-26 12 10 17 19 16 8 24 7 26 2 38 0 18 0 23-9-19-64-17-74-14-57-19-76l-35-156c44 0 112 0 125 1 17 1 80 10 75-10s-35-23-38-29 31-10 28-20-20-29-20-36-2-31-5-38 3-10-42-12c-28-1-99-2-152-2-2-10-3-19-5-27-9-42-4-51 5-56s45 0 59-2 47-2 65-1 44 0 54-4 6-13 5-20-17-11-24-10-21-3-21-8 31-9 35-8 5-10 6-12 3-9 3-22-6-9-13-9-12 3-17 3-3-11-1-17 5-8 12-11 8-7 9-17-13-9-18-10-69-4-88-1-75 1-81 4-35-6-44-7-22 3-26 6 4 20 4 24-12 3-17 0-8-25-17-27-36 1-57 2-23 43-23 44 9 76 9 92 18 62 23 75c1 2 1 5 1 9z" glyph-name="Lslash" horiz-adv-x="431" unicode="Ł"/><glyph d="M50 187c1-1 8 66 11 91s29 175 33 192 17 22 21 33-5 39-1 54 25 73 35 112 40 27 52 26 8-72 20-74-8 76 8 72 14-39 25-41 6 41 29 39c20-2 70-115 76-123s-2-20 2-26 9-5 22-24 54-159 63-161 8 12 10 20 18 115 22 159 32 159 40 160 16 5 32 1-4-63 11-65 33 68 45 69 9-16 15-18 5 17 17 16 6-22 14-24 16 22 26 21 6-17-2-46-79-344-89-393S552 1 536 0s-21 27-30 27 2-27-5-28-18 17-24 17-5-16-10-16-13-6-27 3-91 157-101 175-66 177-84 178-45-171-50-197S176 5 168 3s-5 9-11 11-6-10-18-11-6 47-12 49-15-38-18-45-20-8-26-6-20 0-32 0-23 15-20 32 18 155 19 154m284 607c8 7 21 13 35 25l103 86s54 49 67 28 8-18 14-23-30-18-19-26 29 16 38 5 11-24 18-30 10-9 15-12-6-11-24-17-83-38-93-43-57-27-68-33-37-18-49-22-25-4-29 5 5 19-3 22-4-8-16 8 3 20 11 27" glyph-name="Nacute" horiz-adv-x="687" unicode="Ń"/><glyph d="M332 483c-49-19-99-77-104-87s0-13-2-20-13-13-25-43-42-170 53-170 125 85 132 91 15 11 12 16 2 17 21 72 11 111 3 134-42 46-52 49-11 17-19 14 1-20 6-33 1-13-25-23M225 637c33 16 42 22 50 17s13-13 18-18 15-5 15 7-5 12-4 22-1 17 15 22 55 14 86 12 118-19 149-68 18-41 22-44 9-5 12-10 25-54 29-78 7-110-13-166c-6-17-16-42-30-72-5-11-17-22-23-34-5-9-4-18-10-28-33-55-79-112-137-149C323-1 269 0 236 0 215 0 134 8 80 80c-4 5-3 12-6 18-4 7-13 12-17 20-17 36-27 82-27 142 0 59 12 106 26 143 3 8 10 10 13 17 1 3 0 12 1 15 19 39 38 63 40 74 3 23 1 29 12 43s70 69 103 85m102-80c3-10 36 4 32 13s-35-3-32-13m274 198s-335-6-339-6-29 4-27 32 21 25 17 45-12 39 5 38 194 1 206 1 77-1 94 0 80 10 75-10-35-23-38-29 31-10 28-20-20-29-20-36c0-3 0-9-1-15" glyph-name="Omacron" horiz-adv-x="648" unicode="Ō"/><glyph d="M332 483c-49-19-99-77-104-87s0-13-2-20-13-13-25-43-42-170 53-170 125 85 132 91 15 11 12 16 2 17 21 72 11 111 3 134-42 46-52 49-11 17-19 14 1-20 6-33 1-13-25-23M225 637c33 16 42 22 50 17s13-13 18-18 15-5 15 7-5 12-4 22-1 17 15 22 55 14 86 12 118-19 149-68 18-41 22-44 9-5 12-10 25-54 29-78 7-110-13-166c-6-17-16-42-30-72-5-11-17-22-23-34-5-9-4-18-10-28-33-55-79-112-137-149C323-1 269 0 236 0 215 0 134 8 80 80c-4 5-3 12-6 18-4 7-13 12-17 20-17 36-27 82-27 142 0 59 12 106 26 143 3 8 10 10 13 17 1 3 0 12 1 15 19 39 38 63 40 74 3 23 1 29 12 43s70 69 103 85m102-80c3-10 36 4 32 13s-35-3-32-13m80 255c44 0 64 29 67 37s21 6 37 3 3-14 15-14 12 14 17 15-2-28 6-24 9 22 11 22 32 8 25-11c-20-53-86-126-203-126-128 0-148 103-140 129 3 11 12 8 21 8s15-22 24-23 4 22 7 22 20 1 27 0 22 11 26-7 35-31 60-31" glyph-name="Obreve" horiz-adv-x="648" unicode="Ŏ"/><glyph d="M332 483c-49-19-99-77-104-87s0-13-2-20-13-13-25-43-42-170 53-170 125 85 132 91 15 11 12 16 2 17 21 72 11 111 3 134-42 46-52 49-11 17-19 14 1-20 6-33 1-13-25-23M225 637c33 16 42 22 50 17s13-13 18-18 15-5 15 7-5 12-4 22-1 17 15 22 55 14 86 12 118-19 149-68 18-41 22-44 9-5 12-10 25-54 29-78 7-110-13-166c-6-17-16-42-30-72-5-11-17-22-23-34-5-9-4-18-10-28-33-55-79-112-137-149C323-1 269 0 236 0 215 0 134 8 80 80c-4 5-3 12-6 18-4 7-13 12-17 20-17 36-27 82-27 142 0 59 12 106 26 143 3 8 10 10 13 17 1 3 0 12 1 15 19 39 38 63 40 74 3 23 1 29 12 43s70 69 103 85m102-80c3-10 36 4 32 13s-35-3-32-13m52 352c7 15 19 24 30 24s7-13 19-10 21 8 28 9-16-23 0-24 17 23 31 24 41 2 34-6-48-48-57-61-69-75-84-92-30-33-35-34-13-3-15 3 15 19 13 26-6 1-17-12-8-20-17-18-6 8-15 7-16-12-18-6-5 7 8 25 31 48 40 64 48 66 55 81m159-11c5 9 24 35 36 35s-4-22 5-23 18 20 28 21 3-3 20-2 42 3 51 3 14-5-1-18-67-71-84-89-59-66-67-74-12-13-18-12 0 12-1 22-11-17-21-20 6 11-10 6-1-10-19-9-23 2-8 24 39 57 48 77 36 50 41 59" glyph-name="Ohungarumlaut" horiz-adv-x="648" unicode="Ő"/><glyph d="M225 637c33 16 42 22 50 17s13-13 18-18 15-5 15 7-5 12-4 22-1 17 15 22 55 14 86 12c16-1 49-6 81-19 14-13 32-33 41-25 18 11-31 16-16 32l7 1c18 3 20 1 33 7s64 2 84 3 143 1 166 2 28-9 30-18-3-9-7-12-5 0-8-3 4-10 3-13-7-4-14-1-14-7-10-15 30-6 30-17-12-18-17-23-9-17-9-17l7-13c2-3 3-20 1-32s-17-18-22-17-48 1-58 1-84 2-93 2-5-9-1-15 10-11 11-15-3-11-6-21-10-38-13-45-1-18 3-28 89-4 95-3 16-8 17-14-16-11-17-16 10-4 13-15-8-30-8-32-8-20-7-28-12-16-24-15-28-5-37-8-60-2-65-1-4 9-2 12c2 2-2 9-7 9l-12-26c-1-1-2-3-2-4-2-6-2-12-2-14 0-8-16-54-18-75s76-10 81-12 22-2 33-1 22-2 29-1-1 0 12 0 19-6 20-13 0-11-2-17-2-2-5-8-3-2-10-4-5-5-8-10 0-4 4-11 1-4 2-8 2-12 1-18 0-7-6-10-4 5-10 3-5-5-6-13 9-4 14-4 5-10 5-23-12-11-19-13-47-1-63-3-77 3-83 1-5 10-13 15-13-6-20-12-23-1-36-1-64-3-80-2c-12 1-25 17-17 21 48 26 51 49 33 36l-27-20c-6-6-12-11-20-14C303 0 262 0 236 0 215 0 134 8 80 80c-4 5-3 12-6 18-4 7-13 12-17 20-17 36-27 82-27 142 0 59 12 106 26 143 3 8 10 10 13 17 1 3 0 12 1 15 19 39 38 63 40 74 3 23 1 29 12 43s70 69 103 85m107-154c-49-19-99-77-104-87s0-13-2-20-13-13-25-43-42-170 53-170 125 85 132 91 15 11 12 16 2 17 21 72 11 111 3 134-42 46-52 49-11 17-19 14 1-20 6-33 1-13-25-23m-5 74c3-10 36 4 32 13s-35-3-32-13" glyph-name="OE" horiz-adv-x="853" unicode="Œ"/><glyph d="M39 131c0 1 27 154 28 170s1 30-1 51 15 93 20 125 30 30 39 29 7-29 12-27 6 23 6 31-4 12-17 18-11-1-22-3-35 4-40 9 0 19 4 30 12 9 16 17 1 9-4 12-5 14-5 20-4 16-6 23 14 3 18 9 11 2 18 3 8 4 6 10-36 1-38 8 0 15 5 24 14 3 21 3 78 5 82 6 8-14 13-14 10 13 17 15 202 18 267-56 52-168 27-228-89-109-97-115-14-9-15-15 13 1 15 0 1-5 7-15 8-26 13-43 11-31 15-43 41-130 50-153-1-22-4-25-16-9-31-10-16 43-26 39 3-37-5-33-8 1-14 3-9 8-14 11-7-15-12-15-17-3-21-1-11 9-14 16-30 63-35 71-22 47-28 55-45 89-49 93-11 20-12 27 3 10 10 13 8 12 4 14-10 1-16-4-10-17-10-23-1-13-4-20-14-40-14-56-11-54-16-73-8-29-10-44-11-48-12-54-12-15-30-15-6 0-12 9-9 6-16 6S84-1 76 0s3 35-7 37S66-2 53 1 34 8 29 19s10 111 10 112m159 392c-12 0-25-38-13-38s25 38 13 38m86-1c-2-5-38-134-40-142s2-13 13-12 44 14 62 33 17 28 22 28 7 1 11 12 13 61-20 76-46 10-48 5m-92 272c8 7 21 13 35 25l103 86s54 49 67 28 8-18 14-23-30-18-19-26 29 16 38 5 11-24 18-30 10-9 15-12-6-11-24-17-83-38-93-43-57-27-68-33-37-18-49-22-25-4-29 5 5 19-3 22-4-8-16 8 3 20 11 27" glyph-name="Racute" horiz-adv-x="554" unicode="Ŕ"/><glyph d="M39 131c0 1 27 154 28 170s1 30-1 51 15 93 20 125 30 30 39 29 7-29 12-27 6 23 6 31-4 12-17 18-11-1-22-3-35 4-40 9 0 19 4 30 12 9 16 17 1 9-4 12-5 14-5 20-4 16-6 23 14 3 18 9 11 2 18 3 8 4 6 10-36 1-38 8 0 15 5 24 14 3 21 3 78 5 82 6 8-14 13-14 10 13 17 15 202 18 267-56 52-168 27-228-89-109-97-115-14-9-15-15 13 1 15 0 1-5 7-15 8-26 13-43 11-31 15-43 41-130 50-153-1-22-4-25-16-9-31-10-16 43-26 39 3-37-5-33-8 1-14 3-9 8-14 11-7-15-12-15-17-3-21-1-11 9-14 16-30 63-35 71-22 47-28 55-45 89-49 93-11 20-12 27 3 10 10 13 8 12 4 14-10 1-16-4-10-17-10-23-1-13-4-20-14-40-14-56-11-54-16-73-8-29-10-44-11-48-12-54-12-15-30-15-6 0-12 9-9 6-16 6S84-1 76 0s3 35-7 37S66-2 53 1 34 8 29 19s10 111 10 112m159 392c-12 0-25-38-13-38s25 38 13 38m86-1c-2-5-38-134-40-142s2-13 13-12 44 14 62 33 17 28 22 28 7 1 11 12 13 61-20 76-46 10-48 5M153 872c-14 15-4 21 11 32s19 4 24 15 9 10 14 14 18-27 24-20-13 25-5 31 18-2 27-14 60-50 69-58l27-23s14 0 6 9-12 12-1 18l70 36s44 24 49 26 13-2 18-12-5-11 0-15 11 0 14-4-7-6-3-11 13 0 15-5-10-12-22-22-93-74-101-79-44-35-59-48-26-30-54 0-68 82-74 85-12 9-23 19-12 11-26 26" glyph-name="Rcaron" horiz-adv-x="554" unicode="Ř"/><glyph d="M148 152c37 1 69 26 68 78-1 14-12 28-28 43-8 7-15 18-24 26s-20 12-29 21c-35 35-68 84-70 163-1 56 20 99 52 132 13 13 30 19 45 29 13 8 24 22 37 28 50 23 102 31 134 32 75 2 148-33 144-50s-7-32-13-28c-7 3-39 15-40 6 0-9 5-16 14-16s17 2 18-6-4-43-12-48-10-4-14-15-9-20-9-20 8-24-4-20c-12 3-54 28-95 27s-58-38-47-74c7-24 54-56 86-114 6-11 9-25 14-38 4-12 10-22 12-36 2-13 4-28 4-43 2-82-46-148-114-189-11-6-22-9-34-14-14-6-28-15-43-19-27-8-56-13-84-13C14-9-8 56-5 59s4 19 8 20 15-17 25-16 11 4 11 11c1 7-10 14-16 15s-13 4-12 9 2 17 6 24c3 6 9 4 9 10s-2 17 0 21 8 13 10 19c1 6 11 4 18 1 8-3 57-22 94-21m50 642c8 7 21 13 35 25l103 86s54 49 67 28 8-18 14-23-30-18-19-26 29 16 38 5 11-24 18-30 10-9 15-12-6-11-24-17-83-38-93-43-57-27-68-33-37-18-49-22-25-4-29 5 5 19-3 22-4-8-16 8 3 20 11 27" glyph-name="Sacute" horiz-adv-x="471" unicode="Ś"/><glyph d="M148 152c37 1 69 26 68 78-1 14-12 28-28 43-8 7-15 18-24 26s-20 12-29 21c-35 35-68 84-70 163-1 56 20 99 52 132 13 13 30 19 45 29 13 8 24 22 37 28 50 23 102 31 134 32 75 2 148-33 144-50s-7-32-13-28c-7 3-39 15-40 6 0-9 5-16 14-16s17 2 18-6-4-43-12-48-10-4-14-15-9-20-9-20 8-24-4-20c-12 3-54 28-95 27s-58-38-47-74c7-24 54-56 86-114 6-11 9-25 14-38 4-12 10-22 12-36 2-13 4-28 4-43 2-82-46-148-114-189-11-6-22-9-34-14-14-6-28-15-43-19-27-8-56-13-84-13C14-9-8 56-5 59s4 19 8 20 15-17 25-16 11 4 11 11c1 7-10 14-16 15s-13 4-12 9 2 17 6 24c3 6 9 4 9 10s-2 17 0 21 8 13 10 19c1 6 11 4 18 1 8-3 57-22 94-21m72 582c-11-5-22-9-29 5s8 22-1 23-13-6-22 5 10 25 20 32 82 64 88 69l74 59c15 12 33 14 51-7s39-47 45-50 31-28 39-37 40-39 48-50 13-10-8-22-18-11-24-13-11 28-23 21 11-20 0-30-17-14-27-13-6-9-29 14-48 39-56 46-15 10-27 23-32 17-14-4 3-8-11-18-63-37-70-39-13-9-24-14" glyph-name="Scircumflex" horiz-adv-x="471" unicode="Ŝ"/><glyph d="M148 152c37 1 69 26 68 78-1 14-12 28-28 43-8 7-15 18-24 26s-20 12-29 21c-35 35-68 84-70 163-1 56 20 99 52 132 13 13 30 19 45 29 13 8 24 22 37 28 50 23 102 31 134 32 75 2 148-33 144-50s-7-32-13-28c-7 3-39 15-40 6 0-9 5-16 14-16s17 2 18-6-4-43-12-48-10-4-14-15-9-20-9-20 8-24-4-20c-12 3-54 28-95 27s-58-38-47-74c7-24 54-56 86-114 6-11 9-25 14-38 4-12 10-22 12-36 2-13 4-28 4-43 2-82-46-148-114-189-11-6-22-9-34-14-14-6-28-15-43-19-27-8-56-13-84-13C14-9-8 56-5 59s4 19 8 20 15-17 25-16 11 4 11 11c1 7-10 14-16 15s-13 4-12 9 2 17 6 24c3 6 9 4 9 10s-2 17 0 21 8 13 10 19c1 6 11 4 18 1 8-3 57-22 94-21m-7 720c-14 15-4 21 11 32s19 4 24 15 9 10 14 14 18-27 24-20-13 25-5 31 18-2 27-14 60-50 69-58l27-23s14 0 6 9-12 12-1 18l70 36s44 24 49 26 13-2 18-12-5-11 0-15 11 0 14-4-7-6-3-11 13 0 15-5-10-12-22-22-93-74-101-79-44-35-59-48-26-30-54 0-68 82-74 85-12 9-23 19-12 11-26 26" glyph-name="Scaron" horiz-adv-x="471" unicode="Š"/><glyph d="M92 2c-1-2-1-2-11 2s2 123 2 134 9 67 14 77 0 25-2 35 9 64 10 73 20 131 20 136 3 27 6 38 20 13 26 12 7-26 15-26 8 30 6 35-27 8-40 5-9 1-17 0-73 3-87 3-2 10 1 20 28 5 28 13-12 8-25 10-6 11-5 17 5 13 8 20 2 13 0 19 9 5 16 9 21 10 21 12-15 3-23 3-16 7-16 13 3 14 6 25 16 10 33 9 38 0 53 1 59 4 83 1 31 1 46 0 110 1 135 0 49-3 65-4 9-4 9-15-4-11-4-20-2-11-9-16-18-6-28-5-16-1-16-10 14-9 35-8 15-4 11-14-8-40-6-50 2-18-2-28-39-4-52-5-56 0-68-1-16-19-8-36-11-56-18-75-10-15-13-21 3-27-1-38-3-29-2-35-36-155-43-190S221 17 215 6s-24-3-46-3-11 12-20 12-18-8-26-8 11 34-5 34S93 4 92 2m29 870c-14 15-4 21 11 32s19 4 24 15 9 10 14 14 18-27 24-20-13 25-5 31 18-2 27-14 60-50 69-58l27-23s14 0 6 9-12 12-1 18l70 36s44 24 49 26 13-2 18-12-5-11 0-15 11 0 14-4-7-6-3-11 13 0 15-5-10-12-22-22-93-74-101-79-44-35-59-48-26-30-54 0-68 82-74 85-12 9-23 19-12 11-26 26" glyph-name="Tcaron" horiz-adv-x="464" unicode="Ť"/><glyph d="M369 255s-41-1-95-2c-11-47-25-106-29-126-7-35-24-110-30-121s-24-3-46-3-11 12-20 12-18-8-26-8 11 34-5 34S93 4 92 2s-1-2-11 2 2 123 2 134 9 67 14 77 0 25-2 35c-38-1-64-1-65-1-4 0-29 4-27 32s21 25 17 45-12 39 5 38c7-1 45-1 86 0 6 39 14 91 14 95 0 5 3 27 6 38s20 13 26 12 7-26 15-26 8 30 6 35-27 8-40 5-9 1-17 0-73 3-87 3-2 10 1 20 28 5 28 13-12 8-25 10-6 11-5 17 5 13 8 20 2 13 0 19 9 5 16 9 21 10 21 12-15 3-23 3-16 7-16 13 3 14 6 25 16 10 33 9 38 0 53 1 59 4 83 1 31 1 46 0 110 1 135 0 49-3 65-4 9-4 9-15-4-11-4-20-2-11-9-16-18-6-28-5-16-1-16-10 14-9 35-8 15-4 11-14-8-40-6-50 2-18-2-28-39-4-52-5-56 0-68-1-16-19-8-36-11-56-18-75-10-15-13-21c-2-4 0-16 0-26 14 0 28 0 34 1 17 1 80 10 75-10s-35-23-38-29 31-10 28-20-20-29-20-36c0-3 0-9-1-15" glyph-name="Tbar" horiz-adv-x="464" unicode="Ŧ"/><glyph d="M174 0C97 0 66 70 57 91s-1 44-8 60 3 82 6 99 22 146 22 158 10 25 13 35-2 31 3 45 36 152 40 163 5 27 15 35 14 1 18-1-5-27-3-33 6 7 12 14 0 12 11 15 3-5 11-8 2 5 14 15 19 7 29 6 11 1 18-2-6-37-3-45 8 12 13 21 20 29 27 30 10 1 24-3 6-11 3-20-15-40-18-56 5-18 11-29-8-22-10-30-12-56-17-67-3-18-10-29-14-51-19-61 6-15 6-26-7-10-20-24-4-13-5-30-5-23-6-36-9-40-14-64-5-75 25-75 55 27 62 37 15 16 21 18 7-7 13-8 4 30 4 38 10 66 14 75 35 176 35 189 13 32 14 38 3 34 6 47 19 57 17 69 19 27 23 37 17 6 27 8 10-5 29-9 14 2 20 7 26-1 36-2 11-6 11-17-1-25 2-28 12 11 16 20 14 24 26 27 15-2 16-10-3-16-9-32-20-60-22-75-23-80-26-94-36-120-40-136-14-77-18-90-12-34-15-48-5-65-17-79-16-49-18-67-7-55-13-59-23 1-31 4 12 37-1 41-23-42-31-40-5 26-12 23-6-14-15-19-27-4-43-2 5 59-2 60 1 4-10-19S240 0 174 0m160 121c-2 5-26 0-23-10s25 5 23 10m-97 641c-2 2-9-1-14 6s22 15 13 27-20-18-29-9-6 15 3 24 68 71 122 71 92-44 134-44 77 35 84 41 6-1 12-6 5-5 13-7-7-22-1-29 18 15 24 9-8-22-13-29 1-6-3-11-44-69-111-69c-82 0-107 47-147 47s-72-43-77-45-7 8-12 13 4 9 2 11" glyph-name="Utilde" horiz-adv-x="624" unicode="Ũ"/><glyph d="M174 0C97 0 66 70 57 91s-1 44-8 60 3 82 6 99 22 146 22 158 10 25 13 35-2 31 3 45 36 152 40 163 5 27 15 35 14 1 18-1-5-27-3-33 6 7 12 14 0 12 11 15 3-5 11-8 2 5 14 15 19 7 29 6 11 1 18-2-6-37-3-45 8 12 13 21 20 29 27 30 10 1 24-3 6-11 3-20-15-40-18-56 5-18 11-29-8-22-10-30-12-56-17-67-3-18-10-29-14-51-19-61 6-15 6-26-7-10-20-24-4-13-5-30-5-23-6-36-9-40-14-64-5-75 25-75 55 27 62 37 15 16 21 18 7-7 13-8 4 30 4 38 10 66 14 75 35 176 35 189 13 32 14 38 3 34 6 47 19 57 17 69 19 27 23 37 17 6 27 8 10-5 29-9 14 2 20 7 26-1 36-2 11-6 11-17-1-25 2-28 12 11 16 20 14 24 26 27 15-2 16-10-3-16-9-32-20-60-22-75-23-80-26-94-36-120-40-136-14-77-18-90-12-34-15-48-5-65-17-79-16-49-18-67-7-55-13-59-23 1-31 4 12 37-1 41-23-42-31-40-5 26-12 23-6-14-15-19-27-4-43-2 5 59-2 60 1 4-10-19S240 0 174 0m160 121c-2 5-26 0-23-10s25 5 23 10m238 634s-335-6-339-6-29 4-27 32 21 25 17 45-12 39 5 38 194 1 206 1 77-1 94 0 80 10 75-10-35-23-38-29 31-10 28-20-20-29-20-36c0-3 0-9-1-15" glyph-name="Umacron" horiz-adv-x="624" unicode="Ū"/><glyph d="M174 0C97 0 66 70 57 91s-1 44-8 60 3 82 6 99 22 146 22 158 10 25 13 35-2 31 3 45 36 152 40 163 5 27 15 35 14 1 18-1-5-27-3-33 6 7 12 14 0 12 11 15 3-5 11-8 2 5 14 15 19 7 29 6 11 1 18-2-6-37-3-45 8 12 13 21 20 29 27 30 10 1 24-3 6-11 3-20-15-40-18-56 5-18 11-29-8-22-10-30-12-56-17-67-3-18-10-29-14-51-19-61 6-15 6-26-7-10-20-24-4-13-5-30-5-23-6-36-9-40-14-64-5-75 25-75 55 27 62 37 15 16 21 18 7-7 13-8 4 30 4 38 10 66 14 75 35 176 35 189 13 32 14 38 3 34 6 47 19 57 17 69 19 27 23 37 17 6 27 8 10-5 29-9 14 2 20 7 26-1 36-2 11-6 11-17-1-25 2-28 12 11 16 20 14 24 26 27 15-2 16-10-3-16-9-32-20-60-22-75-23-80-26-94-36-120-40-136-14-77-18-90-12-34-15-48-5-65-17-79-16-49-18-67-7-55-13-59-23 1-31 4 12 37-1 41-23-42-31-40-5 26-12 23-6-14-15-19-27-4-43-2 5 59-2 60 1 4-10-19S240 0 174 0m160 121c-2 5-26 0-23-10s25 5 23 10m60 691c44 0 64 29 67 37s21 6 37 3 3-14 15-14 12 14 17 15-2-28 6-24 9 22 11 22 32 8 25-11c-20-53-86-126-203-126-128 0-148 103-140 129 3 11 12 8 21 8s15-22 24-23 4 22 7 22 20 1 27 0 22 11 26-7 35-31 60-31" glyph-name="Ubreve" horiz-adv-x="624" unicode="Ŭ"/><glyph d="M153 0C76 0 45 70 36 91s-1 44-8 60 3 82 6 99 22 146 22 158 10 25 13 35-2 31 3 45 36 152 40 163 5 27 15 35 14 1 18-1-5-27-3-33 6 7 12 14 0 12 11 15 3-5 11-8 2 5 14 15 19 7 29 6 11 1 18-2-6-37-3-45 8 12 13 21 20 29 27 30 10 1 24-3 6-11 3-20-15-40-18-56 5-18 11-29-8-22-10-30-12-56-17-67-3-18-10-29-14-51-19-61 6-15 6-26-7-10-20-24-4-13-5-30-5-23-6-36-9-40-14-64-5-75 25-75 55 27 62 37 15 16 21 18 7-7 13-8 4 30 4 38 10 66 14 75 35 176 35 189 13 32 14 38 3 34 6 47 19 57 17 69 19 27 23 37 17 6 27 8 10-5 29-9 14 2 20 7 26-1 36-2 11-6 11-17-1-25 2-28 12 11 16 20 14 24 26 27 15-2 16-10-3-16-9-32-20-60-22-75-23-80-26-94-36-120-40-136-14-77-18-90-12-34-15-48-5-65-17-79-16-49-18-67-7-55-13-59-23 1-31 4 12 37-1 41-23-42-31-40-5 26-12 23-6-14-15-19-27-4-43-2 5 59-2 60 1 4-10-19S219 0 153 0m160 121c-2 5-26 0-23-10s25 5 23 10m88 760c-4-2-5 1-8 10s-15 11-11-2 6-10 1-15-21-14-21-38 27-29 32-29 43 7 43 48c0 24-24 26-27 26s-5 2-9 0m-43 67c4-9 2-8-5-13-16-12 3-16 15-6 9 8 5 16 2 23s-9 9-4 12 14 12 57 12c27 0 65-10 89-39 7-9 9-22 13-34 4-11 9-21 9-36 0-50-27-94-65-122-5-4-11-8-17-11-22-12-46-20-70-20-35 0-62 10-82 28-7 6-9 13-14 21-4 7-11 15-14 23q-6 19.5-6 42c0 68 60 111 69 118s19 10 23 2" glyph-name="Uring" horiz-adv-x="643" unicode="Ů"/><glyph d="M174 0C97 0 66 70 57 91s-1 44-8 60 3 82 6 99 22 146 22 158 10 25 13 35-2 31 3 45 36 152 40 163 5 27 15 35 14 1 18-1-5-27-3-33 6 7 12 14 0 12 11 15 3-5 11-8 2 5 14 15 19 7 29 6 11 1 18-2-6-37-3-45 8 12 13 21 20 29 27 30 10 1 24-3 6-11 3-20-15-40-18-56 5-18 11-29-8-22-10-30-12-56-17-67-3-18-10-29-14-51-19-61 6-15 6-26-7-10-20-24-4-13-5-30-5-23-6-36-9-40-14-64-5-75 25-75 55 27 62 37 15 16 21 18 7-7 13-8 4 30 4 38 10 66 14 75 35 176 35 189 13 32 14 38 3 34 6 47 19 57 17 69 19 27 23 37 17 6 27 8 10-5 29-9 14 2 20 7 26-1 36-2 11-6 11-17-1-25 2-28 12 11 16 20 14 24 26 27 15-2 16-10-3-16-9-32-20-60-22-75-23-80-26-94-36-120-40-136-14-77-18-90-12-34-15-48-5-65-17-79-16-49-18-67-7-55-13-59-23 1-31 4 12 37-1 41-23-42-31-40-5 26-12 23-6-14-15-19-27-4-43-2 5 59-2 60 1 4-10-19S240 0 174 0m160 121c-2 5-26 0-23-10s25 5 23 10m21 788c7 15 19 24 30 24s7-13 19-10 21 8 28 9-16-23 0-24 17 23 31 24 41 2 34-6-48-48-57-61-69-75-84-92-30-33-35-34-13-3-15 3 15 19 13 26-6 1-17-12-8-20-17-18-6 8-15 7-16-12-18-6-5 7 8 25 31 48 40 64 48 66 55 81m159-11c5 9 24 35 36 35s-4-22 5-23 18 20 28 21 3-3 20-2 42 3 51 3 14-5-1-18-67-71-84-89-59-66-67-74-12-13-18-12 0 12-1 22-11-17-21-20 6 11-10 6-1-10-19-9-23 2-8 24 39 57 48 77 36 50 41 59" glyph-name="Uhungarumlaut" horiz-adv-x="614" unicode="Ű"/><glyph d="M174 0C97 0 66 70 57 91s-1 44-8 60 3 82 6 99 22 146 22 158 10 25 13 35-2 31 3 45 36 152 40 163 5 27 15 35 14 1 18-1-5-27-3-33 6 7 12 14 0 12 11 15 3-5 11-8 2 5 14 15 19 7 29 6 11 1 18-2-6-37-3-45 8 12 13 21 20 29 27 30 10 1 24-3 6-11 3-20-15-40-18-56 5-18 11-29-8-22-10-30-12-56-17-67-3-18-10-29-14-51-19-61 6-15 6-26-7-10-20-24-4-13-5-30-5-23-6-36-9-40-14-64-5-75 25-75 55 27 62 37 15 16 21 18 7-7 13-8 4 30 4 38 10 66 14 75 35 176 35 189 13 32 14 38 3 34 6 47 19 57 17 69 19 27 23 37 17 6 27 8 10-5 29-9 14 2 20 7 26-1 36-2 11-6 11-17-1-25 2-28 12 11 16 20 14 24 26 27 15-2 16-10-3-16-9-32-20-60-22-75-23-80-26-94-36-120-40-136-14-77-18-90-12-34-15-48-5-65-17-79-16-49-18-67-7-55-13-59c-3-2-9-2-15-1-5-17-12-40-17-65-2-8-4-12-13-14-10-2-59-18-59-58 0-20 9-41 52-41 5 0 8-6 10-15 1-5-26-11-26-17 0-5 28-9 28-14 0-6-5-10-6-15-2-9-2-16-6-16-108 0-138 67-138 117 0 23 11 42 25 57 3 4 9 3 13 6 6 5 10 13 16 17 21 12 41 18 48 18 15 0 14 6-1 8-8 1-12 1-10 9l5 31c-10-3-25-2-39 0-16 2 5 59-2 60s1 4-10-19S240 0 174 0m160 121c-2 5-26 0-23-10s25 5 23 10" glyph-name="Uogonek" horiz-adv-x="624" unicode="Ų"/><glyph d="M124 1C92 16 85 155 80 171s-5 48-8 67-15 142-20 167-18 212-24 237 7 31 24 43 9-1 23 4c5 2 7 2 7 3h3c9 0 13-17 20-13s6 6 10 12 7 9 18 7 21 2 29-6 2-11-3-22 9-37 14-25 1 25 1 34 7 13 20 20 9 0 20-1 10-6 13-20-1-39-1-62-1-126-2-141 3-79 1-99-1-37 3-39-3 10 4 12 42 91 48 107 64 165 69 173 12 26 21 38 10 18 20 21 8-26 17-31 3 22 6 32 7 3 13 5 15 0 26-6 17-6 27-3 10-7 14-11-4-11-10-19-2-18 3-21 4 3 13 15 3 34 13 39 14 2 21-3 8-96 5-110 11-96 14-104 14-93 14-102 6-23 13-16 9 27 10 37 20 68 23 78 39 100 43 111 39 99 41 109 8 6 16 4 10-2 24 0 5 4 11 4 16-1 21-11 1-33 5-25 20 38 26 40 7-11 7-19 1-16 6-9 13 27 21 30 24-1 38 2 10 1 12-16-72-156-72-157-66-175-73-181-13-22-24-37-14-27-19-39-30-97-36-118-28-63-34-73-16-28-20-51-27-32-36-28-1 8-9 11-27-18-33-18-5 6-10 12 2 23 0 28-7 14-12 11-20-50-30-50-11 20-11 20l-40 148c-4 13-24 103-28 110s0 20 3 31 20 28 21 36-6 7-14 1-15-16-24-26-19-30-28-45-57-112-62-125-58-122-67-137-15-6-31-6 3 21 0 25 4 25-8 20-9-45-22-47-1 8-5 12-6 9-15 3 12-32-20-17m228 733c-11-5-22-9-29 5s8 22-1 23-13-6-22 5 10 25 20 32 82 64 88 69l74 59c15 12 33 14 51-7s39-47 45-50 31-28 39-37 40-39 48-50 13-10-8-22-18-11-24-13-11 28-23 21 11-20 0-30-17-14-27-13-6-9-29 14-48 39-56 46-15 10-27 23-32 17-14-4 3-8-11-18-63-37-70-39-13-9-24-14" glyph-name="Wcircumflex" horiz-adv-x="834" unicode="Ŵ"/><glyph d="M138 330c0 3 10 4 13 8s1 5-2 13-10 17-13 29-73 199-75 213-28 78-18 85 56 7 63 9 10-22 20-15 5 13 15 20 14 3 24 5 10-5 16-12 18-49 21-47-3 14-3 28-6 19-3 23 6 6 16 8 7 1 17-8 3-28 10-40 3-37 7-50 11-30 13-40 0-11-4-20-13-20-20-26 0-9 8-7 22 26 22 30 7 6 11 13 78 110 80 116 34 28 40 33 17 3 20 0-14-37-8-40 28 27 33 34 14 7 21 6 21-3 29-1 11-12 7-21-6-15 0-12 8 11 16 20 13 11 18 12 10 4 19 4 3-15 2-24-35-45-39-54-49-63-58-73-36-56-36-56l-79-110c-7-10-33-50-36-56s0-27-1-37-7-23-10-27-12-39-15-52-6-34-8-47-7-36-11-49-12-19-16-22 3-18 1-26-5-39-7-47-10-14-17-19-10-3-18 1 6 12 3 13 2 11-5 13-12-26-18-27-16 1-25 1-10 1-17 4-4 7-10 6-5-7-13-9-22-2-28 3 6 35 9 50 2 29 1 42 7 53 10 72 21 120 21 127 11 9 14 13-7 17-7 20m38 404c-11-5-22-9-29 5s8 22-1 23-13-6-22 5 10 25 20 32 82 64 88 69l74 59c15 12 33 14 51-7s39-47 45-50 31-28 39-37 40-39 48-50 13-10-8-22-18-11-24-13-11 28-23 21 11-20 0-30-17-14-27-13-6-9-29 14-48 39-56 46-15 10-27 23-32 17-14-4 3-8-11-18-63-37-70-39-13-9-24-14" glyph-name="Ycircumflex" horiz-adv-x="486" unicode="Ŷ"/><glyph d="M138 330c0 3 10 4 13 8s1 5-2 13-10 17-13 29-73 199-75 213-28 78-18 85 56 7 63 9 10-22 20-15 5 13 15 20 14 3 24 5 10-5 16-12 18-49 21-47-3 14-3 28-6 19-3 23 6 6 16 8 7 1 17-8 3-28 10-40 3-37 7-50 11-30 13-40 0-11-4-20-13-20-20-26 0-9 8-7 22 26 22 30 7 6 11 13 78 110 80 116 34 28 40 33 17 3 20 0-14-37-8-40 28 27 33 34 14 7 21 6 21-3 29-1 11-12 7-21-6-15 0-12 8 11 16 20 13 11 18 12 10 4 19 4 3-15 2-24-35-45-39-54-49-63-58-73-36-56-36-56l-79-110c-7-10-33-50-36-56s0-27-1-37-7-23-10-27-12-39-15-52-6-34-8-47-7-36-11-49-12-19-16-22 3-18 1-26-5-39-7-47-10-14-17-19-10-3-18 1 6 12 3 13 2 11-5 13-12-26-18-27-16 1-25 1-10 1-17 4-4 7-10 6-5-7-13-9-22-2-28 3 6 35 9 50 2 29 1 42 7 53 10 72 21 120 21 127 11 9 14 13-7 17-7 20m37 518c5 27 11 35 24 31s11-9 20-7 16 6 23 4-3-25 7-25 7 31 19 29 32 3 30-16-4-36-8-56 0-52-16-53-24 6-38 3-14 20-23 18-15-18-24-19-1 22-7 19-5-19-13-20-8 7-3 40 4 25 9 52m169 7c7 23 26 24 38 22s13-13 22-10 13 14 19 12-2-34 9-34 6 33 20 33 21 5 15-27l-15-78s6-16-28-17-13 16-23 14-17-13-26-14-2 34-9 34-10-34-22-33-16 3-8 44 1 31 8 54" glyph-name="Ydieresis" horiz-adv-x="486" unicode="Ÿ"/><glyph d="M26 1C12 8 15 35 16 47s5 12 3 19-5 10-8 20 4 28 4 32 9 22 15 27 80 144 84 153 3 20 6 28 86 170 92 178 15 3 32 6 11 6 9 12-16 2-25 5-33 1-53 1-72 0-91 6-5 24-3 33 22 12 23 23-13 2-13 12 3 20 4 31 12 10 22 18 34 4 31 14-54-3-48 17 51 11 63 12 214 5 228 7 72-14 86-11 23-3 22-14-3-16-8-29 1-34 2-45-10-20-21-21-18 1-25 1-6-13 0-15 34 5 35 1-4-17-10-32-33-7-42-7-6-9 0-14-2-16-1-25-29-45-36-55-24-32-34-44-16-7-28-15 3-17 1-26-15-23-25-38-78-119-86-135 5-19 14-18 125-1 145-1 21 0 34 1 11-9 12-17-4-8-11-13-19-13-20-16 9-11 16-9 0-20-1-33-5-19-12-20-12-1-21 3-20-7-21-11 9-4 18-6 26 9 28 2-4-29-13-37-26 4-45 2-126-2-146 1S40-6 26 1m202 793c8 7 21 13 35 25l103 86s54 49 67 28 8-18 14-23-30-18-19-26 29 16 38 5 11-24 18-30 10-9 15-12-6-11-24-17-83-38-93-43-57-27-68-33-37-18-49-22-25-4-29 5 5 19-3 22-4-8-16 8 3 20 11 27" glyph-name="Zacute" horiz-adv-x="510" unicode="Ź"/><glyph d="M26 1C12 8 15 35 16 47s5 12 3 19-5 10-8 20 4 28 4 32 9 22 15 27 80 144 84 153 3 20 6 28 86 170 92 178 15 3 32 6 11 6 9 12-16 2-25 5-33 1-53 1-72 0-91 6-5 24-3 33 22 12 23 23-13 2-13 12 3 20 4 31 12 10 22 18 34 4 31 14-54-3-48 17 51 11 63 12 214 5 228 7 72-14 86-11 23-3 22-14-3-16-8-29 1-34 2-45-10-20-21-21-18 1-25 1-6-13 0-15 34 5 35 1-4-17-10-32-33-7-42-7-6-9 0-14-2-16-1-25-29-45-36-55-24-32-34-44-16-7-28-15 3-17 1-26-15-23-25-38-78-119-86-135 5-19 14-18 125-1 145-1 21 0 34 1 11-9 12-17-4-8-11-13-19-13-20-16 9-11 16-9 0-20-1-33-5-19-12-20-12-1-21 3-20-7-21-11 9-4 18-6 26 9 28 2-4-29-13-37-26 4-45 2-126-2-146 1S40-6 26 1m223 786c3 16 0 1 0 2 4 35 10 126 20 132s29 3 35-3 6-21 14-14 19 20 29 18 22-14 29-12 0-47 15-43 9 51 24 49 33 3 30-22-29-98-31-114-4-24-24-21-25 15-36 10-16-3-32-4-28 0-33 2 3 35-5 29-14-27-23-28-15 3-12 19" glyph-name="Zdotaccent" horiz-adv-x="510" unicode="Ż"/><glyph d="M26 1C12 8 15 35 16 47s5 12 3 19-5 10-8 20 4 28 4 32 9 22 15 27 80 144 84 153 3 20 6 28 86 170 92 178 15 3 32 6 11 6 9 12-16 2-25 5-33 1-53 1-72 0-91 6-5 24-3 33 22 12 23 23-13 2-13 12 3 20 4 31 12 10 22 18 34 4 31 14-54-3-48 17 51 11 63 12 214 5 228 7 72-14 86-11 23-3 22-14-3-16-8-29 1-34 2-45-10-20-21-21-18 1-25 1-6-13 0-15 34 5 35 1-4-17-10-32-33-7-42-7-6-9 0-14-2-16-1-25-29-45-36-55-24-32-34-44-16-7-28-15 3-17 1-26-15-23-25-38-78-119-86-135 5-19 14-18 125-1 145-1 21 0 34 1 11-9 12-17-4-8-11-13-19-13-20-16 9-11 16-9 0-20-1-33-5-19-12-20-12-1-21 3-20-7-21-11 9-4 18-6 26 9 28 2-4-29-13-37-26 4-45 2-126-2-146 1S40-6 26 1m152 871c-14 15-4 21 11 32s19 4 24 15 9 10 14 14 18-27 24-20-13 25-5 31 18-2 27-14 60-50 69-58l27-23s14 0 6 9-12 12-1 18l70 36s44 24 49 26 13-2 18-12-5-11 0-15 11 0 14-4-7-6-3-11 13 0 15-5-10-12-22-22-93-74-101-79-44-35-59-48-26-30-54 0-68 82-74 85-12 9-23 19-12 11-26 26" glyph-name="Zcaron" horiz-adv-x="510" unicode="Ž"/><glyph d="M124 1C92 16 85 155 80 171s-5 48-8 67-15 142-20 167-18 212-24 237 7 31 24 43 9-1 23 4c5 2 7 2 7 3h3c9 0 13-17 20-13s6 6 10 12 7 9 18 7 21 2 29-6 2-11-3-22 9-37 14-25 1 25 1 34 7 13 20 20 9 0 20-1 10-6 13-20-1-39-1-62-1-126-2-141 3-79 1-99-1-37 3-39-3 10 4 12 42 91 48 107 64 165 69 173 12 26 21 38 10 18 20 21 8-26 17-31 3 22 6 32 7 3 13 5 15 0 26-6 17-6 27-3 10-7 14-11-4-11-10-19-2-18 3-21 4 3 13 15 3 34 13 39 14 2 21-3 8-96 5-110 11-96 14-104 14-93 14-102 6-23 13-16 9 27 10 37 20 68 23 78 39 100 43 111 39 99 41 109 8 6 16 4 10-2 24 0 5 4 11 4 16-1 21-11 1-33 5-25 20 38 26 40 7-11 7-19 1-16 6-9 13 27 21 30 24-1 38 2 10 1 12-16-72-156-72-157-66-175-73-181-13-22-24-37-14-27-19-39-30-97-36-118-28-63-34-73-16-28-20-51-27-32-36-28-1 8-9 11-27-18-33-18-5 6-10 12 2 23 0 28-7 14-12 11-20-50-30-50-11 20-11 20l-40 148c-4 13-24 103-28 110s0 20 3 31 20 28 21 36-6 7-14 1-15-16-24-26-19-30-28-45-57-112-62-125-58-122-67-137-15-6-31-6 3 21 0 25 4 25-8 20-9-45-22-47-1 8-5 12-6 9-15 3 12-32-20-17m213 835c-17 11-21 20-8 33s23 10 28 19 8 16 13 22 26-33 37-23-27 34-14 47 39-23 50-37 41-71 53-74 29-32 36-41 11-20 3-27-11 4-16-4-11-18-16-21-9-6-25 5-42 38-54 43-32 16-41 24-29 23-46 34" glyph-name="Wgrave" horiz-adv-x="834" unicode="Ẁ"/><glyph d="M124 1C92 16 85 155 80 171s-5 48-8 67-15 142-20 167-18 212-24 237 7 31 24 43 9-1 23 4c5 2 7 2 7 3h3c9 0 13-17 20-13s6 6 10 12 7 9 18 7 21 2 29-6 2-11-3-22 9-37 14-25 1 25 1 34 7 13 20 20 9 0 20-1 10-6 13-20-1-39-1-62-1-126-2-141 3-79 1-99-1-37 3-39-3 10 4 12 42 91 48 107 64 165 69 173 12 26 21 38 10 18 20 21 8-26 17-31 3 22 6 32 7 3 13 5 15 0 26-6 17-6 27-3 10-7 14-11-4-11-10-19-2-18 3-21 4 3 13 15 3 34 13 39 14 2 21-3 8-96 5-110 11-96 14-104 14-93 14-102 6-23 13-16 9 27 10 37 20 68 23 78 39 100 43 111 39 99 41 109 8 6 16 4 10-2 24 0 5 4 11 4 16-1 21-11 1-33 5-25 20 38 26 40 7-11 7-19 1-16 6-9 13 27 21 30 24-1 38 2 10 1 12-16-72-156-72-157-66-175-73-181-13-22-24-37-14-27-19-39-30-97-36-118-28-63-34-73-16-28-20-51-27-32-36-28-1 8-9 11-27-18-33-18-5 6-10 12 2 23 0 28-7 14-12 11-20-50-30-50-11 20-11 20l-40 148c-4 13-24 103-28 110s0 20 3 31 20 28 21 36-6 7-14 1-15-16-24-26-19-30-28-45-57-112-62-125-58-122-67-137-15-6-31-6 3 21 0 25 4 25-8 20-9-45-22-47-1 8-5 12-6 9-15 3 12-32-20-17m280 793c8 7 21 13 35 25l103 86s54 49 67 28 8-18 14-23-30-18-19-26 29 16 38 5 11-24 18-30 10-9 15-12-6-11-24-17-83-38-93-43-57-27-68-33-37-18-49-22-25-4-29 5 5 19-3 22-4-8-16 8 3 20 11 27" glyph-name="Wacute" horiz-adv-x="834" unicode="Ẃ"/><glyph d="M124 1C92 16 85 155 80 171s-5 48-8 67-15 142-20 167-18 212-24 237 7 31 24 43 9-1 23 4c5 2 7 2 7 3h3c9 0 13-17 20-13s6 6 10 12 7 9 18 7 21 2 29-6 2-11-3-22 9-37 14-25 1 25 1 34 7 13 20 20 9 0 20-1 10-6 13-20-1-39-1-62-1-126-2-141 3-79 1-99-1-37 3-39-3 10 4 12 42 91 48 107 64 165 69 173 12 26 21 38 10 18 20 21 8-26 17-31 3 22 6 32 7 3 13 5 15 0 26-6 17-6 27-3 10-7 14-11-4-11-10-19-2-18 3-21 4 3 13 15 3 34 13 39 14 2 21-3 8-96 5-110 11-96 14-104 14-93 14-102 6-23 13-16 9 27 10 37 20 68 23 78 39 100 43 111 39 99 41 109 8 6 16 4 10-2 24 0 5 4 11 4 16-1 21-11 1-33 5-25 20 38 26 40 7-11 7-19 1-16 6-9 13 27 21 30 24-1 38 2 10 1 12-16-72-156-72-157-66-175-73-181-13-22-24-37-14-27-19-39-30-97-36-118-28-63-34-73-16-28-20-51-27-32-36-28-1 8-9 11-27-18-33-18-5 6-10 12 2 23 0 28-7 14-12 11-20-50-30-50-11 20-11 20l-40 148c-4 13-24 103-28 110s0 20 3 31 20 28 21 36-6 7-14 1-15-16-24-26-19-30-28-45-57-112-62-125-58-122-67-137-15-6-31-6 3 21 0 25 4 25-8 20-9-45-22-47-1 8-5 12-6 9-15 3 12-32-20-17m206 847c5 27 11 35 24 31s11-9 20-7 16 6 23 4-3-25 7-25 7 31 19 29 32 3 30-16-4-36-8-56 0-52-16-53-24 6-38 3-14 20-23 18-15-18-24-19-1 22-7 19-5-19-13-20-8 7-3 40 4 25 9 52m169 7c7 23 26 24 38 22s13-13 22-10 13 14 19 12-2-34 9-34 6 33 20 33 21 5 15-27l-15-78s6-16-28-17-13 16-23 14-17-13-26-14-2 34-9 34-10-34-22-33-16 3-8 44 1 31 8 54" glyph-name="Wdieresis" horiz-adv-x="834" unicode="Ẅ"/><glyph d="M62 169c-15 0-30-2-28 22 1 10 1 12 3 17 4 9 33-5 35 2 3 12-29 4-27 32s21 25 17 45-12 39 5 38 194 1 206 1 146-1 163 0 80 10 75-10-35-23-38-29 31-10 28-20-20-29-20-36-2-31-5-38 3-10-42-12-208-2-215-3-9-7-29-8-113-1-128-1" glyph-name="endash" horiz-adv-x="541" unicode="–"/><glyph d="M62 169c-15 0-30-2-28 22 1 10 1 12 3 17 4 9 33-5 35 2 3 12-29 4-27 32s21 25 17 45-12 39 5 38 194 1 206 1 310 1 327 2 80 10 75-10-35-23-38-29 31-10 28-20-20-29-20-36-2-31-5-38 3-10-42-12-372-4-379-5-9-7-29-8-113-1-128-1" glyph-name="emdash" horiz-adv-x="714" unicode="—"/><glyph d="M574 477c-4-17-10-35-13-40-5-9-15-17-16-22s2-21 1-28-22-76-28-94-7-29-11-49-31-178-34-195 0-50-15-49-4 42-11 42-13-6-17-13-6-27-17-28-12-1-17 4-20 15-23 10-31-11-36-11-19 7-17 18 3 24 5 42 2 35 7 50 5 47 7 60 8 72 8 81-26 13-39 11-44 3-55 4-20 8-26 0-13-16-13-24-10-65-13-73-8-44-11-53-16-83-17-91-5-18-7-21-8-4-15-7-10 10-15 11-10 6-14 3-7-3-14-8-21-4-34-5-1 31-11 30S49 5 39 6 26 23 27 33s2 24 5 31 11 92 9 99-3 2-2 7 8 4 12 14 4 20 4 31-6 35-5 41l27 180c1 7 1 14 5 27 2 4 11 8 27 8s16 13 9 13-25-2-42 0-64-4-73 3 2 21 6 37 1 21 6 24 32-4 33 9-34 10-31 16-4 10 2 30 53 4 71 4 23 7 25 19 9 46 11 49c3 6 13 13 23 13s15-4 19-6 3-9 8-17 5-12 10-6 13 36 22 36-2-37 16-35 0 23 10 27 21 3 27 5 7-15 13-20 10 18 17 21 10 5 18 4-10-55-9-72c-2-7-2-14 6-15s20-1 31-3 62 0 77 2 11 7 12 14 8 33 14 45 4 20 15 21 30 6 34 3-7-42 4-43 14 36 22 41 19 8 26 8 10 8 18 6 16-13 23-16 19 8 27 7 16 0 18-5 1-13-3-24l-14-43c-3-4-8-11 11-10 11 1 13 2 40 2s18 2 22-12-9-16-9-36-36-5-34-19 29 0 25-10-6-6-8-23-19-27-19-27h-39c-12 0-23-4-25-11m-183-10c4 7 10 1 31 6s-1 14-25 14-89-3-100-3-24-1-28-11-14-61-16-69c-3-10-13-40-6-41s23-3 27-1 9 9 2 12-16-2-15 6 3 11 13 11 36-1 46-3 20 1 27 2 18-2 23 5 11 21 13 31c1 4 4 34 8 41" glyph-name="Hbar" horiz-adv-x="639" unicode="Ħ"/><glyph d="m266 484-8-21-21-83c-1-3-3-11-5-24s-14-47-9-48 13 41 17 48 18 22 26 24 76 56 83 61 54 37 57 40 26-9 29-14-28-27-22-30 12 8 17 12 13 12 17 8-7-16 4-15 9 7 17 4 15-4 17-11 14-9 16-13 11-14-6-27-134-91-139-94-37-29-41-30-17-13-19-17 1-6 9-2 15 9 19 5l101-104s57-53 68-67 33-31 8-47-26-16-32-7-7 15-14 9-7-14-9-18-10-13-13-10-3 8-8 6-26-19-36-18-22 15-37 32-85 87-96 95-43 44-47 52 1 23-4 29-12-18-10-20-2-10-2-12c-3-19-26-124-32-151S146 0 137 2s-1 8-7 8-14-8-24-7 12 26 0 26S88 2 82 4 71 9 63 8 42 1 30 1s-9 25-9 26 2 12 7 40 45 328 50 364l5 42s1 28 17 27 13-13 22-11 13 15 23 14-11-52 8-50 16 48 29 47 19-14 28-12 19 14 34 13 27-3 22-17" glyph-name="kgreenlandic" horiz-adv-x="509" unicode="ĸ"/><glyph d="M29 51c0 1 9 76 9 92s18 62 23 75-6 61-7 75 23 137 27 154 9 51 13 76 20 116 24 128 8 36 16 41 15 2 33-1-3-49 11-49 19 55 29 56 11-23 15-26 12 10 17 19 16 8 24 7 26 2 38 0 18 0 23-9-19-64-17-74-14-57-19-76-34-156-38-170-15-36-13-43-9-74-18-116-4-51 5-56 45 0 59-2 47-2 65-1 44 0 54-4 6-13 5-20-17-11-24-10-21-3-21-8 31-9 35-8 5-10 6-12 3-9 3-22-6-9-13-9-12 3-17 3-3-11-1-17 5-8 12-11 8-7 9-17-13-9-18-10-69-4-88-1-75 1-81 4-35-6-44-7-22 3-26 6 4 20 4 24-12 3-17 0-8-25-17-27-36 1-57 2-23 43-23 44M159-56l117-115c25-24 45-43 58-40s6 10 12 13 5-11 24-10 35 8 30 12-49 65-75 100-59 69-66 69 1-20-7-21-8 18-13 21-18-13-30-13-17 14-38 13-28-13-12-29" glyph-name="uni013B" horiz-adv-x="431" unicode="Ļ"/><glyph d="M50 187c1-1 8 66 11 91s29 175 33 192 17 22 21 33-5 39-1 54 25 73 35 112 40 27 52 26 8-72 20-74-8 76 8 72 14-39 25-41 6 41 29 39c20-2 70-115 76-123s-2-20 2-26 9-5 22-24 54-159 63-161 8 12 10 20 18 115 22 159 32 159 40 160 16 5 32 1-4-63 11-65 33 68 45 69 9-16 15-18 5 17 17 16 6-22 14-24 16 22 26 21 6-17-2-46-79-344-89-393S552 1 536 0s-21 27-30 27 2-27-5-28-18 17-24 17-5-16-10-16-13-6-27 3-91 157-101 175-66 177-84 178-45-171-50-197S176 5 168 3s-5 9-11 11-6-10-18-11-6 47-12 49-15-38-18-45-20-8-26-6-20 0-32 0-23 15-20 32 18 155 19 154M228-60c-7-15-46-65-55-81s-27-46-40-64-10-19-8-25 9 5 18 6 6-5 15-7 6 5 17 18 15 19 17 12-15-20-13-26 10-4 15-3 20 17 35 34 75 79 84 92 50 53 57 61-20 7-34 6-15-25-31-24 7 25 0 24-16-6-28-9-8 10-19 10-23-9-30-24" glyph-name="uni0145" horiz-adv-x="687" unicode="Ņ"/><glyph d="M148 152c37 1 69 26 68 78-1 14-12 28-28 43-8 7-15 18-24 26s-20 12-29 21c-35 35-68 84-70 163-1 56 20 99 52 132 13 13 30 19 45 29 13 8 24 22 37 28 50 23 102 31 134 32 75 2 148-33 144-50s-7-32-13-28c-7 3-39 15-40 6 0-9 5-16 14-16s17 2 18-6-4-43-12-48-10-4-14-15-9-20-9-20 8-24-4-20c-12 3-54 28-95 27s-58-38-47-74c7-24 54-56 86-114 6-11 9-25 14-38 4-12 10-22 12-36 2-13 4-28 4-43 2-82-46-148-114-189-11-6-22-9-34-14-14-6-28-15-43-19l-16-5c-2-7-3-15-4-21-2-11-10-9-22-10s-8-9 1-8 87 13 87-76c0-123-121-135-159-135s-31 4-31 8 3 2 6 9-3 11 0 17 24-1 27 9-25 0-24 4-31 20 5 20 75 4 75 48-35 46-45 48-12 6-9 14 6 22 10 37l7 28C13-5-8 56-5 59s4 19 8 20 15-17 25-16 11 4 11 11c1 7-10 14-16 15s-13 4-12 9 2 17 6 24c3 6 9 4 9 10s-2 17 0 21 8 13 10 19c1 6 11 4 18 1 8-3 57-22 94-21" glyph-name="Scedilla" horiz-adv-x="471" unicode="Ş"/><glyph d="M92 2c-1-2-1-2-11 2s2 123 2 134 9 67 14 77 0 25-2 35 9 64 10 73 20 131 20 136 3 27 6 38 20 13 26 12 7-26 15-26 8 30 6 35-27 8-40 5-9 1-17 0-73 3-87 3-2 10 1 20 28 5 28 13-12 8-25 10-6 11-5 17 5 13 8 20 2 13 0 19 9 5 16 9 21 10 21 12-15 3-23 3-16 7-16 13 3 14 6 25 16 10 33 9 38 0 53 1 59 4 83 1 31 1 46 0 110 1 135 0 49-3 65-4 9-4 9-15-4-11-4-20-2-11-9-16-18-6-28-5-16-1-16-10 14-9 35-8 15-4 11-14-8-40-6-50 2-18-2-28-39-4-52-5-56 0-68-1-16-19-8-36-11-56-18-75-10-15-13-21 3-27-1-38-3-29-2-35-36-155-43-190S221 17 215 6s-24-3-46-3-11 12-20 12-18-8-26-8 11 34-5 34S93 4 92 2M56-40c-7-15-46-65-55-81s-27-46-40-64-10-19-8-25 9 5 18 6 6-5 15-7 6 5 17 18 15 19 17 12-15-20-13-26 10-4 15-3 20 17 35 34 75 79 84 92 50 53 57 61-20 7-34 6-15-25-31-24 7 25 0 24-16-6-28-9-8 10-19 10-23-9-30-24" glyph-name="uni0162" horiz-adv-x="464" unicode="Ţ"/><glyph d="M39 131c0 1 27 154 28 170s1 30-1 51 15 93 20 125 30 30 39 29 7-29 12-27 6 23 6 31-4 12-17 18-11-1-22-3-35 4-40 9 0 19 4 30 12 9 16 17 1 9-4 12-5 14-5 20-4 16-6 23 14 3 18 9 11 2 18 3 8 4 6 10-36 1-38 8 0 15 5 24 14 3 21 3 78 5 82 6 8-14 13-14 10 13 17 15 202 18 267-56 52-168 27-228-89-109-97-115-14-9-15-15 13 1 15 0 1-5 7-15 8-26 13-43 11-31 15-43 41-130 50-153-1-22-4-25-16-9-31-10-16 43-26 39 3-37-5-33-8 1-14 3-9 8-14 11-7-15-12-15-17-3-21-1-11 9-14 16-30 63-35 71-22 47-28 55-45 89-49 93-11 20-12 27 3 10 10 13 8 12 4 14-10 1-16-4-10-17-10-23-1-13-4-20-14-40-14-56-11-54-16-73-8-29-10-44-11-48-12-54-12-15-30-15-6 0-12 9-9 6-16 6S84-1 76 0s3 35-7 37S66-2 53 1 34 8 29 19s10 111 10 112m159 392c-12 0-25-38-13-38s25 38 13 38m86-1c-2-5-38-134-40-142s2-13 13-12 44 14 62 33 17 28 22 28 7 1 11 12 13 61-20 76-46 10-48 5M188-40c-7-15-46-65-55-81s-27-46-40-64-10-19-8-25 9 5 18 6 6-5 15-7 6 5 17 18 15 19 17 12-15-20-13-26 10-4 15-3 20 17 35 34 75 79 84 92 50 53 57 61-20 7-34 6-15-25-31-24 7 25 0 24-16-6-28-9-8 10-19 10-23-9-30-24" glyph-name="uni0156" horiz-adv-x="554" unicode="Ŗ"/><glyph d="M49 909c7 15 19 24 30 24s7-13 19-10 21 8 28 9-16-23 0-24 17 23 31 24 41 2 34-6-48-48-57-61-69-75-84-92-30-33-35-34-13-3-15 3 15 19 13 26-6 1-17-12-8-20-17-18-6 8-15 7-16-12-18-6-5 7 8 25 31 48 40 64 48 66 55 81m159-11c5 9 24 35 36 35s-4-22 5-23 18 20 28 21 3-3 20-2 42 3 51 3 14-5-1-18-67-71-84-89-59-66-67-74-12-13-18-12 0 12-1 22-11-17-21-20 6 11-10 6-1-10-19-9-23 2-8 24 39 57 48 77 36 50 41 59" glyph-name="hungarumlaut.case" horiz-adv-x="302"/><glyph d="M41 672c-14 15-4 21 11 32s19 4 24 15 9 10 14 14 18-27 24-20-13 25-5 31 18-2 27-14 60-50 69-58l27-23s14 0 6 9-12 12-1 18l70 36s44 24 49 26 13-2 18-12-5-11 0-15 11 0 14-4-7-6-3-11 13 0 15-5-10-12-22-22-93-74-101-79-44-35-59-48-26-30-54 0-68 82-74 85-12 9-23 19-12 11-26 26" glyph-name="caron.salt" horiz-adv-x="431"/><glyph d="M-13 762c-2 2-9-1-14 6s22 15 13 27-20-18-29-9-6 15 3 24 68 71 122 71 92-44 134-44 77 35 84 41 6-1 12-6 5-5 13-7-7-22-1-29 18 15 24 9-8-22-13-29 1-6-3-11-44-69-111-69c-82 0-107 47-147 47S2 740-3 738s-7 8-12 13 4 9 2 11" glyph-name="tilde.case" horiz-adv-x="302"/><glyph d="M152 881c-4-2-5 1-8 10s-15 11-11-2 6-10 1-15-21-14-21-38 27-29 32-29 43 7 43 48c0 24-24 26-27 26s-5 2-9 0m-43 67c4-9 2-8-5-13-16-12 3-16 15-6 9 8 5 16 2 23s-9 9-4 12 14 12 57 12c27 0 65-10 89-39 7-9 9-22 13-34 4-11 9-21 9-36 0-50-27-94-65-122-5-4-11-8-17-11-22-12-46-20-70-20-35 0-62 10-82 28-7 6-9 13-14 21-4 7-11 15-14 23q-6 19.5-6 42c0 68 60 111 69 118s19 10 23 2" glyph-name="ring.case" horiz-adv-x="302"/><glyph d="M53 787c3 16 0 1 0 2 4 35 10 126 20 132s29 3 35-3 6-21 14-14 19 20 29 18 22-14 29-12 0-47 15-43 9 51 24 49 33 3 30-22-29-98-31-114-4-24-24-21-25 15-36 10-16-3-32-4-28 0-33 2 3 35-5 29-14-27-23-28-15 3-12 19" glyph-name="dotaccent.case" horiz-adv-x="302"/><glyph d="M145 812c44 0 64 29 67 37s21 6 37 3 3-14 15-14 12 14 17 15-2-28 6-24 9 22 11 22 32 8 25-11c-20-53-86-126-203-126C-8 714-28 817-20 843c3 11 12 8 21 8s15-22 24-23 4 22 7 22 20 1 27 0 22 11 26-7 35-31 60-31" glyph-name="breve.case" horiz-adv-x="302"/><glyph d="M-22 872c-14 15-4 21 11 32s19 4 24 15 9 10 14 14 18-27 24-20-13 25-5 31 18-2 27-14 60-50 69-58l27-23s14 0 6 9-12 12-1 18l70 36s44 24 49 26 13-2 18-12-5-11 0-15 11 0 14-4-7-6-3-11 13 0 15-5-10-12-22-22-93-74-101-79-44-35-59-48-26-30-54 0-68 82-74 85-12 9-23 19-12 11-26 26" glyph-name="caron.case" horiz-adv-x="302"/><glyph d="M19 734c-11-5-22-9-29 5s8 22-1 23-13-6-22 5 10 25 20 32 82 64 88 69l74 59c15 12 33 14 51-7s39-47 45-50 31-28 39-37 40-39 48-50 13-10-8-22-18-11-24-13-11 28-23 21 11-20 0-30-17-14-27-13-6-9-29 14-48 39-56 46-15 10-27 23-32 17-14-4 3-8-11-18-63-37-70-39-13-9-24-14" glyph-name="circumflex.case" horiz-adv-x="302"/><glyph d="M25 794c8 7 21 13 35 25l103 86s54 49 67 28 8-18 14-23-30-18-19-26 29 16 38 5 11-24 18-30 10-9 15-12-6-11-24-17-83-38-93-43-57-27-68-33-37-18-49-22-25-4-29 5 5 19-3 22-4-8-16 8 3 20 11 27" glyph-name="acute.case" horiz-adv-x="302"/><glyph d="M317 755s-335-6-339-6-29 4-27 32 21 25 17 45-12 39 5 38 194 1 206 1 77-1 94 0 80 10 75-10-35-23-38-29 31-10 28-20-20-29-20-36c0-3 0-9-1-15" glyph-name="macron.case" horiz-adv-x="302"/><glyph d="M9 848c5 27 11 35 24 31s11-9 20-7 16 6 23 4-3-25 7-25 7 31 19 29 32 3 30-16-4-36-8-56 0-52-16-53-24 6-38 3-14 20-23 18-15-18-24-19-1 22-7 19-5-19-13-20-8 7-3 40 4 25 9 52m169 7c7 23 26 24 38 22s13-13 22-10 13 14 19 12-2-34 9-34 6 33 20 33 21 5 15-27l-15-78s6-16-28-17-13 16-23 14-17-13-26-14-2 34-9 34-10-34-22-33-16 3-8 44 1 31 8 54" glyph-name="dieresis.case" horiz-adv-x="302"/><glyph d="M58 836c-17 11-21 20-8 33s23 10 28 19 8 16 13 22 26-33 37-23-27 34-14 47 39-23 50-37 41-71 53-74 29-32 36-41 11-20 3-27-11 4-16-4-11-18-16-21-9-6-25 5-42 38-54 43-32 16-41 24-29 23-46 34" glyph-name="grave.case" horiz-adv-x="302"/><glyph glyph-name="uniF8FF" horiz-adv-x="0" unicode=""/><glyph d="m42 78 17 110 13 97c2 13-11 12-27 12s-17 2-16 9c1 8 6 13 7 20 1 6 30-4 30 4 1 9-32 3-31 7 2 4 5 8 5 13 0 6-5 8 1 26 5 18 22 12 33 10 12-1 11-8 12-3 0 5 2 55 59 122s122 66 141 66c32 0 54-7 48-22-4-10-16-5-16-15 0-4 10-6 8-11-3-5-3-13-8-21-4-9-36 1-35-6 2-7 37-6 35-12-1-6 0-44-36-44-37 0-56-38-61-47-6-10 1-10 11-10s23 4 31 2c8-3 3-21-1-31-4-11-33-4-37-12s33 2 30-11-17-11-13-14c5-3 12-2 6-11-6-8 1-30-13-30-13 0-32 2-49 2-16 1-20-11-10-11s18-1 16-9c-2-9-6-48-12-75-6-26-18-97-24-136-6-38-14-46-23-49-10-2-8 13-18 16-9 4-15-14-24-13s11 28-1 27C77 27 79 2 72 1c-7-2-22 1-34 5-11 5 0 44 4 72" glyph-name="longs" horiz-adv-x="311" unicode="ſ"/><glyph d="M148 152c37 1 69 26 68 78-1 14-12 28-28 43-8 7-15 18-24 26s-20 12-29 21c-35 35-68 84-70 163-1 56 20 99 52 132 13 13 30 19 45 29 13 8 24 22 37 28 50 23 102 31 134 32 75 2 148-33 144-50s-7-32-13-28c-7 3-39 15-40 6 0-9 5-16 14-16s17 2 18-6-4-43-12-48-10-4-14-15-9-20-9-20 8-24-4-20c-12 3-54 28-95 27s-58-38-47-74c7-24 54-56 86-114 6-11 9-25 14-38 4-12 10-22 12-36 2-13 4-28 4-43 2-82-46-148-114-189-11-6-22-9-34-14-14-6-28-15-43-19-27-8-56-13-84-13C14-9-8 56-5 59s4 19 8 20 15-17 25-16 11 4 11 11c1 7-10 14-16 15s-13 4-12 9 2 17 6 24c3 6 9 4 9 10s-2 17 0 21 8 13 10 19c1 6 11 4 18 1 8-3 57-22 94-21M56-40c-7-15-46-65-55-81s-27-46-40-64-10-19-8-25 9 5 18 6 6-5 15-7 6 5 17 18 15 19 17 12-15-20-13-26 10-4 15-3 20 17 35 34 75 79 84 92 50 53 57 61-20 7-34 6-15-25-31-24 7 25 0 24-16-6-28-9-8 10-19 10-23-9-30-24" glyph-name="uni0218" horiz-adv-x="471" unicode="Ș"/><glyph d="M92 2c-1-2-1-2-11 2s2 123 2 134 9 67 14 77 0 25-2 35 9 64 10 73 20 131 20 136 3 27 6 38 20 13 26 12 7-26 15-26 8 30 6 35-27 8-40 5-9 1-17 0-73 3-87 3-2 10 1 20 28 5 28 13-12 8-25 10-6 11-5 17 5 13 8 20 2 13 0 19 9 5 16 9 21 10 21 12-15 3-23 3-16 7-16 13 3 14 6 25 16 10 33 9 38 0 53 1 59 4 83 1 31 1 46 0 110 1 135 0 49-3 65-4 9-4 9-15-4-11-4-20-2-11-9-16-18-6-28-5-16-1-16-10 14-9 35-8 15-4 11-14-8-40-6-50 2-18-2-28-39-4-52-5-56 0-68-1-16-19-8-36-11-56-18-75-10-15-13-21 3-27-1-38-3-29-2-35-36-155-43-190S221 17 215 6s-24-3-46-3-11 12-20 12-18-8-26-8 11 34-5 34S93 4 92 2M56-40c-7-15-46-65-55-81s-27-46-40-64-10-19-8-25 9 5 18 6 6-5 15-7 6 5 17 18 15 19 17 12-15-20-13-26 10-4 15-3 20 17 35 34 75 79 84 92 50 53 57 61-20 7-34 6-15-25-31-24 7 25 0 24-16-6-28-9-8 10-19 10-23-9-30-24" glyph-name="uni021A" horiz-adv-x="464" unicode="Ț"/><glyph d="M168 693c14-1 12-18 22-22s7 9 14 13 30 0 43 0 5-10 9-16 8-15 18-13 9 39 19 39 18-2 27-7-2-36-2-46 4-26 5-31-9-12-14-21-25-43-26-58-10-38-12-47-3-14 4-15 20 8 22 17 24 35 24 35l70 91c10 13 23 33 30 42s38 49 47 46 4-10 6-14 7-2 13 0 7-5 10-11 4-8 9-13 7 5 14 7 11-3 13-9-6-15-9-22 1-13 9-14 10 9 14 15 11 0 16-5 11-9 6-15-22-32-26-43-29-47-36-54-30-37-36-45-12-22-18-31-16-3-22-8-20-38-25-45-10-25-10-25l17-37c6-12 20-53 29-65s21-32 25-45 29-74 34-88 17-36 23-50 0-25-5-29-6-8-16-9-2 9-6 16-11 1-14-6-2-10-4-17-17-12-35-13-10 9-16 19-14 7-20 4 0-20 3-30-10-7-32-18-17 8-24 18-34 107-41 120-5 26-9 36-7 8-13 18-23 80-27 87-8 18-14 22-3 13-1 23 8 3 15 10-8 8-19 7-10-17-9-24-3-18-7-27-15-68-21-78-6-16-10-22 4-15 3-28-19-76-20-93-5-61-22-63-15 5-28 6-17-4-27-4 11 33-2 36S76 5 56 8 30 25 31 37s12 99 12 112 23 165 28 178 15 80 16 95 19 84 20 99 14 57 14 73 13 66 16 78 15 22 31 21m25-733c-7-15-46-65-55-81s-27-46-40-64-10-19-8-25 9 5 18 6 6-5 15-7 6 5 17 18 15 19 17 12-15-20-13-26 10-4 15-3 20 17 35 34 75 79 84 92 50 53 57 61-20 7-34 6-15-25-31-24 7 25 0 24-16-6-28-9-8 10-19 10-23-9-30-24" glyph-name="uni0136" horiz-adv-x="581" unicode="Ķ"/><glyph d="M303 275c-2 1-9-5-14-6s-9 12-9 21 29 0 34 4-5 4-11 12-23 4-21 15 2 15 8 20 10 9 14 16-11 6-9 13 2 14 2 25 8 6 30 9 94-2 110-4 36-2 45-4 10 3 18 6 19-5 29-5 5-4 5-17-8-42-14-47-4-9-5-19-1-3-30-97S368 56 360 48s-6 0-16 1-18-17-23-23S270-9 197 0C47 19 30 208 26 215s1 29 4 39-11 23-5 83 73 181 86 195 24 33 29 36 4-2 11 5-4 13 42 52 127 70 204 77 133-45 140-50-3-26-4-32-4-21-10-23-12-15-17-21-9-17-16-17-4 7-7 10-19-7-19-15 6-10 13-14-1-10-8-17-23-15-31-12-1 18-32 19-50-14-86-33-60-53-63-61-14-16-20-15-12-14-10-18 3-7-19-40-37-122-29-162 37-56 45-58 30-3 42 1 36 26 41 36 34 54 35 67 6 13 11 13 7 1 16 4 6 1 11-5 0-10-3-17 3-15 7-16 7 8 9 20 0 26-1 28-10 0-21 1-18 1-33 0-33-1-35 0M136-40c-7-15-46-65-55-81s-27-46-40-64-10-19-8-25 9 5 18 6 6-5 15-7 6 5 17 18 15 19 17 12-15-20-13-26 10-4 15-3 20 17 35 34 75 79 84 92 50 53 57 61-20 7-34 6-15-25-31-24 7 25 0 24-16-6-28-9-8 10-19 10-23-9-30-24" glyph-name="uni0122" horiz-adv-x="558" unicode="Ģ"/><glyph d="M620 262C588 141 532 67 459 28c-12-6-25-6-38-11-26-9-52-20-81-23-19-2-38-3-58-3s-40 1-58 3c-10 1-21 11-30 13C133 18 89 32 64 48c-17 11-32 8-23 34 0 1 14 0 16 17 1 8-12 16-11 26l3 25c1 5 30 7 31 12 2 12-23 26-25 36-5 22 9 26 15 22 1-1 2-5 27-19 15-8 33-22 54-30 18-7 38-10 60-14 21-4 43-7 67-7 28 0 51 4 70 10 18 6 33 15 45 25 32 28 41 67 44 99 6 56 4 51 6 63s13 106 14 119 11 17 13 27 0 49 0 62 23 97 26 106 13 23 17 29 10-5 17-8 0-18 3-27 13-16 15-10 1 17 1 27 3 16 7 18 28 2 37 4 10-3 15-6 2-38 9-36 16 21 22 33 14 4 30 5 23 2 33 4 6-7 3-22-5-22-10-38-28-110-29-121-2-14 0-25-4-25-13-35-7-17-10-31c-9-44-14-124-23-160M59 281l3 30c3 16 12 66 14 81s14 42 14 54 0 33 3 45 12 48 12 67 6 37 8 59 13 62 14 67 31-12 39-11 6 14 11 18 19-1 31-1 10-7 23-8 27 18 32 22 15-4 19-8 0-50 10-48 24 49 31 51 14-9 20-16-7-36-7-44-17-38-20-50-17-51-18-61-20-65-22-83-54-187-54-187c-12-30-19-21-36-16s9 15-2 23-24-12-36-8 18 44 3 50-21-49-39-44-11-7-26-8-32 1-27 26" glyph-name="IJ" horiz-adv-x="705" unicode="Ĳ"/><glyph d="M290 648c20 34 45 52 64 50s4-18 20-17 22 14 35 12-3-48 12-45 13 53 33 51 24 4 27-62 4-206 7-250 1-125 1-175 3-119 2-150 11-61-21-61c-13 0-57-1-105-2l-83-2c-39-1-71 6-77 6-8 0-47-5-92-4C53 1-17 3-24 3c-13 0-17 19 2 64s57 114 71 149 30 59 44 85 109 203 131 237 46 76 66 110m41-523c2 12 3 40 0 68s-10 117-4 143 8 95 1 97-18-39-28-57-55-98-65-113-60-107-67-119-25-6-35-6-19-13 1-14 47 5 65 3 56-1 70 0c6 0 15-3 29-4s26-15 1-17-30-21-18-21 26 10 35 7 16 3 17 16-4 5-2 17" glyph-name="uni0394" horiz-adv-x="567" unicode="Δ"/><glyph d="M58 0C42 3-5-9-6 17s19 10 27 20S-8 52-6 65s18 17 19 28-14 29-14 48 18 21 39 21 35 1 49 1 21 11 3 11-31-6-35 8-7 39-7 56 5 143 61 235 11 47 23 65 77 88 142 115 27-6 36-12 12-1 13 17 3 25 25 33 68 9 85 9 207-30 207-253c0-155-86-258-93-267s-20-6-26-5-23-11 2-11 46-1 63-2 18-21 15-32-41 1-46-10 32-5 39-13 10-17 5-24-19-2-18-18 22-19 21-35 0-28-31-29-72 1-86 3-66-7-93-5-92-13-94 23-4 40 0 46 16 11 12 23-11 16-11 37-10 32 9 38 55 14 102 102 48 156 28 214-73 54-65 37 1-29-8-32-66-17-109-80-61-149-40-198 42-29 40-57-26-19-21-32 17-1 19-14-6-41-3-50 7-21 5-35-11-20-40-20-41 11-63 7S74-3 58 0" glyph-name="uni03A9" horiz-adv-x="667" unicode="Ω"/><glyph d="M243 345c-6-19-27-58-27-144s74-51 85-44 27 28 22-10 14 13 19 38 7 64 12 95 21 132 24 171 20 33 36 33-4-33 12-33 9 25 15 23 7 9 20 10 11-19 23-26 14 23 35 27 48 8 40-20-37-166-50-209-39-178-47-216-15-40-29-40 7 42-9 44-21-41-34-43-6 26-24 31-28-33-38-32-21-4-15 22c2 8 4 17 5 25-4-4-10-9-20-15C246 1 187 1 179 1s-21 1-39 10-22-11-10-14 34-4 32-17-7-55-18-94-11-41-24-38-14-12-35-7 21 30-1 37-26-33-35-28-12 4-27 2-34-28-32-3S5-56 5-56l35 214c5 30 26 186 37 255s16 73 43 72 15-46 37-52 21 45 36 36 34 14 54 15 30-3 25-19-23-101-29-120m49-272c5 0 20-3 27-10 0 13-4 24-14 25-21 2-24-15-13-15" glyph-name="uni03BC" horiz-adv-x="574" unicode="μ"/><glyph d="M51 77c4 15 12 98 16 118s10 85 15 108 4 23 20 33 14 13 7 16-17-5-31-4-45-1-54 7 0 37 6 53 40 10 41 21-29 6-37 18 5 11 10 31 7 23 21 25 143 0 161-2 175 0 199 0 138 1 162 0 22-21 13-36-30-13-41-28 40-4 35-30-17-15-14-33 3-16-3-22-42-2-54-1-19-4-22-13-27-115-30-130-18-48-24-88S424 1 402 1s-8 38-18 39-16-36-30-38-8 6-19 10-13-12-34-10-15 25-12 47 9 74 14 94 12 96 15 114 6 51 7 62 3 19 15 20 19 10-2 12-56 0-69 0-23-72-29-102-28-104-41-165-26-88-45-83-1 38-11 44-22-46-30-44-13 1-27 8S70-2 50 2s-3 60 1 75" glyph-name="pi" horiz-adv-x="597" unicode="π"/><glyph d="M67 490c3 18 10 84 15 113s12 73 28 92 32-2 44-1-3-42 14-41 12 44 27 42 22-22 43-16 30 21 40 17 14-19-9-96-46-148-52-158-36-8-41-4 16 51 2 49-18-47-29-45-19 23-31 22-34-17-43-12-11 20-8 38m390-41c-2-9-10-19-24-24s-9 7-23 12-30-8-48-6 4 37-10 45-10-40-25-43-20-2-30 1 3 54 4 69c1 19 29 155 39 184s54 6 62-1 16 8 27 8 6-52 21-47 9 40 19 44 11-3 21-10 12 9 29 11 4-23 1-46-44-134-50-153-11-35-13-44" glyph-name="quotedblright" unicode="”"/><glyph d="M67 490c3 18 10 84 15 113s12 73 28 92 32-2 44-1-3-42 14-41 12 44 27 42 22-22 43-16 30 21 40 17 14-19-9-96-46-148-52-158-36-8-41-4 16 51 2 49-18-47-29-45-19 23-31 22-34-17-43-12-11 20-8 38m390-41c-2-9-10-19-24-24s-9 7-23 12-30-8-48-6 4 37-10 45-10-40-25-43-20-2-30 1 3 54 4 69c1 19 29 155 39 184s54 6 62-1 16 8 27 8 6-52 21-47 9 40 19 44 11-3 21-10 12 9 29 11 4-23 1-46-44-134-50-153-11-35-13-44" glyph-name="quotedblleft" unicode="“"/><glyph d="M67 490c3 18 10 84 15 113s12 73 28 92 32-2 44-1-3-42 14-41 12 44 27 42 22-22 43-16 30 21 40 17 14-19-9-96-46-148-52-158-36-8-41-4 16 51 2 49-18-47-29-45-19 23-31 22-34-17-43-12-11 20-8 38" glyph-name="quoteleft" horiz-adv-x="257" unicode="‘"/><glyph d="M67 490c3 18 10 84 15 113s12 73 28 92 32-2 44-1-3-42 14-41 12 44 27 42 22-22 43-16 30 21 40 17 14-19-9-96-46-148-52-158-36-8-41-4 16 51 2 49-18-47-29-45-19 23-31 22-34-17-43-12-11 20-8 38" glyph-name="quoteright" horiz-adv-x="257" unicode="’"/><glyph d="M27-151c3 18 10 84 15 113s12 73 28 92 32-2 44-1-3-42 14-41 12 44 27 42 22-22 43-16 30 21 40 17 14-19-9-96-46-148-52-158-36-8-41-4 16 51 2 49-18-47-29-45-19 23-31 22-34-17-43-12-11 20-8 38" glyph-name="quotesinglbase" horiz-adv-x="280" unicode="‚"/><glyph d="M67-177c3 18 10 84 15 113s12 73 28 92 32-2 44-1-3-42 14-41 12 44 27 42 22-22 43-16 30 21 40 17 14-19-9-96-46-148-52-158-36-8-41-4 16 51 2 49-18-47-29-45-19 23-31 22-34-17-43-12-11 20-8 38m390-41c-2-9-10-19-24-24s-9 7-23 12-30-8-48-6 4 37-10 45-10-40-25-43-20-2-30 1 3 54 4 69c1 19 29 155 39 184s54 6 62-1 16 8 27 8 6-52 21-47 9 40 19 44 11-3 21-10 12 9 29 11 4-23 1-46-44-134-50-153-11-35-13-44" glyph-name="quotedblbase" horiz-adv-x="570" unicode="„"/><glyph d="M143 259c1 16 7 16 27 16s28 14-4 14-60-5-87-6-60-1-58 15 11 8 15 27-9 26-3 36 48-12 51 0-46 17-40 27 9 21 12 33 5 18 26 17 74 1 83 2 8 18 11 33 19 119 27 148 11 58 27 67 21-3 37-3 31 5 39 5-10-37 7-37 13 34 29 35 20-7 34-6 17 11 27 7 5-42-5-73-17-79-16-92-4-41-8-53-13-33 3-33 53 2 73 4 47 4 44-8-19-13-18-30 13-11 6-28-39-1-38-17 33 2 28-15 0-42-7-49-18-5-40-5-76 2-85 3-13 7-18-16-7-40-12-63-22-102-25-121-14-99-17-115l-12-73s3-53-13-56-15-14-27-3-1 26-16 24-22-23-39-21 9 56-8 56-20-61-38-59-23 28-16 78 30 196 33 220 10 99 11 115" glyph-name="dagger" horiz-adv-x="515" unicode="†"/><glyph d="M160 88c1 10 12 7 24 7s12 9-11 9-60-2-74 0-60 0-68 1-14 15-8 29 13 11 14 20-12 20-7 25 8 21 9 28 46-8 47 3-49 15-43 30 20 20 39 19 79 1 89 2 9 5 11 20 6 18-11 20-53 0-67 0-47-10-46 15 4 22 8 41 9 18 8 27 27-9 30 4-24 3-23 17 5 16 3 27-2 24 16 25 87 1 94 0 16 0 19 17l15 90s8 25 8 35 14 56 16 66 3 27 17 28 33-1 39 1-4-38 12-37 6 33 23 34 15-63 21-58 15 55 30 59 19-3 28-1 32 4 26-17-19-100-24-120 2-37-5-47-8-28-9-34 8-19 18-19 66 9 78 7 31 1 24-15-17-19-17-35 1-28-4-37-30-4-27-16 31-2 25-15-6-27-22-27-95-5-107-4-24 0-31-1-13-9 0-12 20 0 18-7-13-33 8-32 82 3 97 2 24-1 17-19-22-20-17-29 10-15 6-25-34 8-36-4 32-9 30-22-10-22-9-31 1-12-12-15-36-2-51-2-42 1-55-1-19-3-20-12-7-58-9-66-7-49-10-62-8-42-12-73-7-51-23-54-14 7-26 7-5 25-19 22-24-24-35-23 11 48-3 52-27-62-42-60-15 34-11 57 15 120 18 137 8 39 9 49" glyph-name="daggerdbl" horiz-adv-x="552" unicode="‡"/><glyph d="M123 373c3-8 1-7-5-12-14-10 3-14 13-5 8 7 5 14 2 20-2 7-8 9-3 11 4 3 12 11 51 11 24 0 58-9 79-35 6-8 8-20 12-30 3-10 8-19 8-32 0-45-25-84-58-109-5-4-10-7-16-10-19-11-41-18-62-18-31 0-55 9-73 25-6 5-8 12-13 19-3 6-10 13-12 20-4 12-6 24-6 38 0 61 54 99 62 105s17 9 21 2" glyph-name="bullet" horiz-adv-x="323" unicode="•"/><glyph d="M22 21c3 16 0 1 0 2 4 35 10 126 20 132s29 3 35-3 6-21 14-14 19 20 29 18 22-14 29-12 0-47 15-43 9 51 24 49 33 3 30-22-29-98-31-114-4-24-24-21-25 15-36 10-16-3-32-4-28 0-33 2 3 35-5 29S43 3 34 2 19 5 22 21m219 0c3 16 0 1 0 2 4 35 10 126 20 132s29 3 35-3 6-21 14-14 19 20 29 18 22-14 29-12 0-47 15-43 9 51 24 49 33 3 30-22-29-98-31-114-4-24-24-21-25 15-36 10-16-3-32-4-28 0-33 2 3 35-5 29-14-27-23-28-15 3-12 19m219 0c3 16 0 1 0 2 4 35 10 126 20 132s29 3 35-3 6-21 14-14 19 20 29 18 22-14 29-12 0-47 15-43 9 51 24 49 33 3 30-22-29-98-31-114-4-24-24-21-25 15-36 10-16-3-32-4-28 0-33 2 3 35-5 29-14-27-23-28-15 3-12 19" glyph-name="ellipsis" horiz-adv-x="677" unicode="…"/><glyph d="M204 51c8 17 75 186 80 198s-2 6 7 27l43 99 31 70c7 16 14 30 19 43l17 40c4 9 18 31 30 58 4 8 4 20 8 28 14 33 28 66 33 76 10 21 35 2 46 2s6 5 21 7 17-9 27-14 21 13 39 14-1-51 11-49 14 50 38 49 11-30-2-58l-31-66c-10-21-24-41-35-64-9-19-15-41-23-57l-24-49c-15-28-70-144-77-161s-43-85-50-99-37-85-47-112-21-32-39-34-16 2-29 8-28-8-41-7 7 27-7 32-11-31-37-31-16 33-8 50m709 251c7 4 13-4 16-7 4-4 8-2 7 4s-10 16-1 20c8 5 41 18 82 18 29 0 87-18 108-57 22-39 19-50 19-50s-3 0-3-3 0-4 2-6c1-2 4-2 2-5 0-3 1-57-15-94-18-36-37-58-39-61-1 0-4 0-8-4-1-3-4-8-6-11-6-7-13-14-16-16-5-3-47-38-112-38-4 0-8 0-12 1-10 0-14 3-24 6l-15 3c-31 14-61 46-71 87-2 7-1 16-2 23-1 6-4 10-4 16-1 30 5 58 15 82 2 7 13 14 16 20s0 11 3 17c16 26 42 46 58 55m-347 0c7 4 13-4 16-7 4-4 8-2 7 4s-10 16-1 20c8 5 41 18 82 18 29 0 87-18 108-57 22-39 19-50 19-50s-3 0-3-3 0-4 2-6c1-2 4-2 2-5 0-3 1-57-15-94-18-36-37-58-39-61-1 0-4 0-8-4-1-3-4-8-6-11-6-7-13-14-16-16-5-3-47-38-112-38-4 0-8 0-12 1-10 0-14 3-24 6l-15 3c-31 14-61 46-71 87-2 7-1 16-2 23-1 6-4 10-4 16-1 30 5 58 15 82 2 7 13 14 16 20s0 11 3 17c16 26 42 46 58 55M125 667c7 4 13-4 16-7 4-4 8-2 7 4s-10 16-1 20c8 5 41 18 82 18 29 0 87-18 108-57 22-39 19-50 19-50s-3 0-3-3 0-4 2-6c1-2 4-2 2-5 0-3 1-57-15-94-18-36-37-58-39-61-1 0-4 0-8-4-1-3-4-8-6-11-6-7-13-14-16-16-5-3-47-38-112-38-4 0-8 0-12 1-10 0-14 3-24 6l-15 3c-31 14-61 46-71 87-2 7-1 16-2 23-1 6-4 10-4 16-1 30 5 58 15 82 2 7 13 14 16 20s0 11 3 17c16 26 42 46 58 55m499-465c-4-2-8-8-13-15l-3-3c-1-1 0-3-1-5-10-23-17-54-6-67 2-3 3-7 6-8 2-1 7 0 11 0 16 0 30 14 39 31 5 7 11 15 14 24 0 3-2 7-1 10 2 13 6 21 3 29-2 8-12 16-21 16-8 0-8 2-13 0-5-1-5 2-7 6-3 5 3 4 3 7 1 3-5 1-7 1-2-1-4-7-3-9 0-3 3-6 4-7 2-2 6-3-5-10m347 0c-4-2-8-8-13-15l-3-3c-1-1 0-3-1-5-10-23-17-54-6-67 2-3 3-7 6-8 2-1 7 0 11 0 16 0 30 14 39 31 5 7 11 15 14 24 0 3-2 7-1 10 2 13 6 21 3 29-2 8-12 16-21 16-8 0-8 2-13 0-5-1-5 2-7 6-3 5 3 4 3 7 1 3-5 1-7 1-2-1-4-7-3-9 0-3 3-6 4-7 2-2 6-3-5-10M183 567c-4-2-8-8-13-15l-3-3c-1-1 0-3-1-5-10-23-17-54-6-67 2-3 3-7 6-8 2-1 7 0 11 0 16 0 30 14 39 31 5 7 11 15 14 24 0 3-2 7-1 10 2 13 6 21 3 29-2 8-12 16-21 16-8 0-8 2-13 0-5-1-5 2-7 6-3 5 3 4 3 7 1 3-5 1-7 1-2-1-4-7-3-9 0-3 3-6 4-7 2-2 6-3-5-10m-26 78c1-5 18 2 16 6-2 5-17-2-16-6m788-365c1-5 18 2 16 6-2 5-17-2-16-6m-347 0c1-5 18 2 16 6-2 5-17-2-16-6" glyph-name="perthousand" horiz-adv-x="1166" unicode="‰"/><glyph d="M49 250c2 2 21 42 43 50s98 42 118 50 69 19 81 27 14 14 28 19 105 44 115 46 3-11 0-23-35-14-33-29 24-7 20-23-1-29-12-33-145-59-156-65-97-46-106-44-20 13-19 5 19-12 31-20 97-50 111-59 69-35 77-41 5-23 0-37-18 0-16-19 7-32 3-37-1-20-14-15-103 53-128 67-91 42-101 51-51 23-57 33-7 22-3 28 26-9 30 5-26 4-22 24 15 20 14 28-6 10-4 12" glyph-name="guilsinglleft" horiz-adv-x="455" unicode="‹"/><glyph d="M101 387c1 10 8-1 10 16s-7 42 4 40 96-49 107-55 89-49 113-61 85-35 78-55-23-9-29-24 20-20 17-29-51-11-55-25 45-16 41-27-76-46-105-56S82 30 61 22 2-13 6 14s28 19 32 37-15 26-11 43 29 23 51 32 158 69 173 73 51 14 59 11 17 3-9 15-99 51-122 61-91 41-90 60 13 2 30 17-19 14-18 24" glyph-name="guilsinglright" horiz-adv-x="436" unicode="›"/><glyph d="M14 51c8 17 75 186 80 198s-2 6 7 27l43 99 31 70c7 16 14 30 19 43l17 40c4 9 18 31 30 58 4 8 4 20 8 28 14 33 28 66 33 76 10 21 35 2 46 2s6 5 21 7 17-9 27-14 21 13 39 14-1-51 11-49 14 50 38 49 11-30-2-58l-31-66c-10-21-24-41-35-64-9-19-15-41-23-57l-24-49c-15-28-70-144-77-161s-43-85-50-99-37-85-47-112-21-32-39-34-16 2-29 8-28-8-41-7 7 27-7 32S48 1 22 1 6 34 14 51" glyph-name="fraction" horiz-adv-x="470" unicode="⁄"/><glyph d="M344 89s-53-2-114-3c1-6 3-14 2-19-2-8-5-39-7-47S215 6 208 1s-10-3-18 1 6 12 3 13 2 11-5 13-12-26-18-27-16 1-25 1-10 1-17 4-4 7-10 6-5-7-13-9-22-2-28 3 6 35 9 50c2 10 2 19 2 28-31-1-52-1-53-1-4 0-29 4-27 32s21 25 17 45-12 39 5 38c6-1 37-1 71-1 7 37 17 94 17 100 0 7 11 9 14 13s-8 13-7 20 22 88 25 112 14 47 18 61 2 15-6 18-13-4-24-2-5 13-6 23 0 19 4 34 3 17 5 26 9 19 17 24 17 13 17 18-18 9-21 18 6 13 6 22 11 4 20 6 25 2 37 4 215 5 230 4 40-8 59-10 30-2 44-5 6-11 8-21-18-4-25-7-9-9-7-13 27 0 26-5-3-13-2-32-4-16-7-23-4-8-4-13 5-4 5-10 0-6-1-17-16-11-26-13-46-2-56-1-33-1-44-2-32 0-48 0-21-2-31 2-14-5-24-6-5-8-11-13-4-34 3-33 4 10 5 16 7 10 12 13 7 4 14 4 4-18 3-20-4-9-3-13-9-38-13-43-3-22 3-27 37-3 53-3 20-1 34-6 12-3 26 1 10-4 10-8 0-14 3-18-1-8-5-9-11-2-16-4-3-9 2-11 15 1 15-4-3-13-7-22-3-15-4-24 2-13 2-20-19-8-27-11-24-3-36 1-31 1-43 1-25-2-35-1-2 20-8 22-7-23-10-27-12-39-15-52l-3-13c13 0 28 0 37 1 17 1 80 10 75-10s-35-23-38-29 31-10 28-20-20-29-20-36c0-3 0-9-1-15" glyph-name="franc" horiz-adv-x="525" unicode="₣"/><glyph d="M517 158c-2-7-9-15-14-23C430 25 310 0 277 0s-77 15-105 25-52-3-72-10S56 3 38 1 13 3 16 11s4 35 5 40 7 38 11 49 40 9 41 18-36 0-39 11 7 37 7 39 37 3 58 23c7 7 16 21 18 27s-4 3-14 3-58-2-72-2-27 2-23 26 41 5 39 17-36 8-34 26 7 23 8 32-4 14 10 15 46-1 57-1 37 0 45 1 8 3 10 13 6 21-4 20-63-1-73-1-28 0-28 10 8 11 8 24-6 5-2 25 17 19 34 22-30 3-30 14 13 19 32 19 47-2 58-1 22-3 27 3c10 36 31 87 78 134 81 81 193 83 196 79s-7-22-13-34 1-25 1-39-47-10-47-21 43 3 43-6-5-18-8-30 29-34-3-34c-26 0-61-16-77-48-1-4 0-4 7-4s37 0 80 1 75-3 76-12-16-10-25-22 6-6 13-16-3-19-10-33-11-25-25-26-61 1-74-1-61 1-77 1-8-10 2-9 9-3 7-13-2-13 5-14 64 0 76 0 70 2 73 0 5-13 2-27-45-4-51-17 46 2 45-10-12-18-18-36 1-14-5-19-38-1-52-2-61-1-79-1-20-5-20-5l-4-15c-8-23-11-13-32-8s-22-11-7-14 40-18 66-18c22 0 41 21 55 40 3 3 3 7 7 10s17-2 20-8-13-26-1-31 16 24 31 16 23-15 31-15-32-45-17-51 28 46 49 43 36-3 34-10" glyph-name="lira" horiz-adv-x="541" unicode="₤"/><glyph d="M29 61c5 15 19 132 22 148s0 45 3 57 23 82 23 101 14 78 16 91 8 30 10 40 0 12 10 13 5 2 11 2 6-26 13-24-1 31-8 37-37 2-57 4-14 9-14 17 18 17 23 21 10 6 6 18-14 6-19 11-3 13 1 25 6 19 9 26 39 5 40 12-47 0-47 5-4 29 14 32 202 2 248-1 204-16 204-182-155-257-227-283-81-15-80-8 19 3 22 8 3 9-4 13-16 0-17 10 2 10 9 14 0 15-3 19-17-14-17-14l-19-76c-3-11-29-155-30-175S151-2 141 1s-7 7-13 10-25-8-43-8-3 23-15 28S52 1 33 2s-9 44-4 59m842-23c-5-4-29-44-128-44-141 0-174 148-166 216s10 81 13 102 14 60 6 62-9-30-13-31-17 0-26 1-4 12-2 19 1 20 5 25 20 2 21 11-25-4-24 1 4 13 5 19 0 7 0 15-8 12-8 20 5 21 10 27 28 5 36 3 2-13 8-16 6 19 8 31 9 97 18 114 11-18 26-16 8 15 15 18 13 4 17 4 5-4 3-12 4-23 9-15 7 18 11 20 6 7 15 6 21 1 26 1-14-38-2-35 25 35 46 35 23-2 22-8-35-130-37-139 1-12 6-3 10 12 17 13 29 2 36 1 45 1 57 0 12-15 11-21 1-26-2-34-21 7-26 4 12-5 15-11 12-10 14-19-14-10-16-19 13-1 17-4 0-17-3-30-43-4-55-4-78 1-88-1-5 28-8 28-2-14-19-82c-20-78-38-182 17-182 42 0 68 24 78 24s10-15 12-23-26-14-24-22 27 14 29 4-5-9-9-13-1-6 8-11 7 2 9-1 15-24 10-28m85 301c0 112 101 164 199 164 75 0 102-43 102-43 7-7 2-24-5-25-6-1-18 13-22 5-3-4 13-20 10-25-2-4-9-7-11-11s1-9-1-13c-1-3-15-3-16-6-5-9 2-18 0-26-3-11-10-22-15-16 0 0-32 28-56 28-18 0-29-9-29-29 0-40 81-62 81-179S1096-2 1024-2c-77 0-124 39-126 41-5 5-7 6 0 15 1 2 22-8 23-5 2 3-16 20-14 24 1 3 5 4 6 7l2 11 4 9c1 3 13-1 14 2s-7 12-6 15l4 8c2 4 35-10 37-6 1 4-29 24-28 27 4 15 11 7 16 3 0 0 26-24 59-24 37 0 42 28 42 43 0 45-101 64-101 171M297 527c-14-3-9-5-12-19s-10-34-15-49-15-76-17-81-6-15 9-19 42 16 51 19 52 42 58 77-28 82-74 72m-106-44c9 1 9 13 11 22s3 18 3 21-9 8-12 4-6-9-6-23-5-25 4-24" glyph-name="peseta" horiz-adv-x="1285" unicode="₧"/><glyph d="M78 475c3 20 15 80 48 133 9 14 19 28 31 40 29 30 68 51 120 51 9 0 17-1 24-2 8-2 14-12 21-15 6-3 15 3 20-1 33-23 44-66 45-111 1-51-12-105-22-133-17-50-41-89-66-120-48-59-100-88-115-102-23-22-20-29-8-25s11-8 11-26 11-56 40-56 51 17 64 22 19-6 21-22-24-19-11-30 14 2 17-5-36-14-20-27 25 3 33-6S301-7 211-7C163-7 115 9 82 47c-8 9-12 23-18 35-4 8-11 15-14 25-8 26-12 58-10 95 2 46 11 96 19 144 2 12 2 27 4 38 7 41 13 75 15 91m226 88c-38 0-70-149-76-177s-12-29-25-42 13-8 21 0 54 40 75 94 26 125 5 125" glyph-name="uni2113" horiz-adv-x="400" unicode="ℓ"/><glyph d="M58 0C42 3-5-9-6 17s19 10 27 20S-8 52-6 65s18 17 19 28-14 29-14 48 18 21 39 21 35 1 49 1 21 11 3 11-31-6-35 8-7 39-7 56 5 143 61 235 11 47 23 65 77 88 142 115 27-6 36-12 12-1 13 17 3 25 25 33 68 9 85 9 207-30 207-253c0-155-86-258-93-267s-20-6-26-5-23-11 2-11 46-1 63-2 18-21 15-32-41 1-46-10 32-5 39-13 10-17 5-24-19-2-18-18 22-19 21-35 0-28-31-29-72 1-86 3-66-7-93-5-92-13-94 23-4 40 0 46 16 11 12 23-11 16-11 37-10 32 9 38 55 14 102 102 48 156 28 214-73 54-65 37 1-29-8-32-66-17-109-80-61-149-40-198 42-29 40-57-26-19-21-32 17-1 19-14-6-41-3-50 7-21 5-35-11-20-40-20-41 11-63 7S74-3 58 0" glyph-name="Omega" horiz-adv-x="667" unicode="Ω"/><glyph d="M290 648c20 34 45 52 64 50s4-18 20-17 22 14 35 12-3-48 12-45 13 53 33 51 24 4 27-62 4-206 7-250 1-125 1-175 3-119 2-150 11-61-21-61c-13 0-57-1-105-2l-83-2c-39-1-71 6-77 6-8 0-47-5-92-4C53 1-17 3-24 3c-13 0-17 19 2 64s57 114 71 149 30 59 44 85 109 203 131 237 46 76 66 110m41-523c2 12 3 40 0 68s-10 117-4 143 8 95 1 97-18-39-28-57-55-98-65-113-60-107-67-119-25-6-35-6-19-13 1-14 47 5 65 3 56-1 70 0c6 0 15-3 29-4s26-15 1-17-30-21-18-21 26 10 35 7 16 3 17 16-4 5-2 17" glyph-name="Delta" horiz-adv-x="567" unicode="∆"/><glyph d="M29 247c3 16 0 1 0 2 4 35 10 126 20 132s29 3 35-3 6-21 14-14 19 20 29 18 22-14 29-12 0-47 15-43 9 51 24 49 33 3 30-22-29-98-31-114-4-24-24-21-25 15-36 10-16-3-32-4-28 0-33 2 3 35-5 29-14-27-23-28-15 3-12 19" glyph-name="uni2219" horiz-adv-x="248" unicode="∙"/><glyph d="M14 51c8 17 75 186 80 198s-2 6 7 27l43 99 31 70c7 16 14 30 19 43l17 40c4 9 18 31 30 58 4 8 4 20 8 28 14 33 28 66 33 76 10 21 35 2 46 2s6 5 21 7 17-9 27-14 21 13 39 14-1-51 11-49 14 50 38 49 11-30-2-58l-31-66c-10-21-24-41-35-64-9-19-15-41-23-57l-24-49c-15-28-70-144-77-161s-43-85-50-99-37-85-47-112-21-32-39-34-16 2-29 8-28-8-41-7 7 27-7 32S48 1 22 1 6 34 14 51" glyph-name="uni2215" horiz-adv-x="470" unicode="∕"/><glyph d="M345 37C301 6 205-7 184-7 168-7 84-6 41 73c-3 6-2 15-5 22-2 6-8 11-10 18-5 20-9 44-9 72 0 91 34 166 82 219 7 8 18 13 26 20 6 6 10 14 17 19 45 33 96 51 143 51 137 0 190-115 182-209-5-56-14-82-43-95-33-15-181 0-236 6-12 1-5 23-4 30s-2 38-9 4c-7-33-9-123 46-120 43 3 73 26 92 34 2 1 10-3 14-8s-1-10-2-15-6-4-10-7-12-6-10-9 19 9 21 9 10 2 10-3 4-7 4-12-8-5-12-10 0-9 2-14 8 1 11 3 6 0 10-9 4-6 6-11 5-9-12-21m-52 410c-29 5-48-20-64-56-3-7-11-14-14-22-3-9-2-20-5-30-7-21-13-44-20-64-6-18-1-21 11-18s24-8 55-11c28-3 60-13 73 38 7 28 17 165-36 163" glyph-name="estimated" horiz-adv-x="468" unicode="℮"/><glyph d="M262 719c60 3 145-27 197-81 15-15 24-36 35-56 8-14 18-27 23-43 22-65 24-147-6-246-13-43-27-80-43-112-9-19-23-33-33-48-12-18-20-37-33-50C327 2 245-5 203-5c-16 0-49 0-83 13-13 5-21 15-33 24-9 7-22 11-30 21-22 28-38 70-38 132 0 82 22 143 53 188 10 15 25 24 37 36s22 25 35 34c53 36 109 49 139 49 57 0 71-33 66-54s15-51 15-18c0 72-23 151-98 151-25 0-14 36-12 43s25 2 22 10-16 11-17 18 49 1 47 14-40-1-41 14 6 18 3 27-24 21-6 22m19-367c-56 0-95-67-109-130-4-18-12-37-11-53 0-10 8-18 10-26 5-19 15-31 32-31 57 0 84 56 125 129 11 19 24 64 28 90s-4 26-11 7-9-19-16-13-9 27-48 27" glyph-name="partialdiff" horiz-adv-x="557" unicode="∂"/><glyph d="m30 62 15 87c3 17 4 44 4 62s14 137 21 163 20 129 25 143 10 9 23 15 15 13 0 12-46 3-73-2-16 19-13 34 46 6 52 23-44 1-39 24 6 9 12 20-11 20-8 38 21 19 44 16 171-2 182-1 87 1 116-1 159-1 193 2 107-1 116-6-4-10-10-23 10-13 2-34-51-9-39-21 35-5 27-14-2-13-1-29-2-16-12-23-35-3-51-5-19-10-19-15-5-27-12-48-35-151-42-182-39-172-45-210-30-178-35-203-18-38-35-33-37 0-47 2-2 34-16 41-19-39-32-39-22-6-28 5 5 42 6 67 12 83 14 110 18 100 20 113 3 58 3 58l9 86c1 9 8 40 9 58s5 37 9 53 16 89 19 110 9 13 24 15 15 12 6 11-26 2-39 0-67 3-79 3-12-19-13-29-17-74-23-96-21-94-27-111-15-61-19-76-21-106-22-116-8-35-12-50-22-138-24-168-5-47-13-46-21-8-35-9 6 49-4 53-18-49-31-50-9 5-26 11-20-6-36-9-18 13-18 19 2 10 3 18 9 72 10 85 6 25 6 35 5 39 8 57" glyph-name="product" horiz-adv-x="615" unicode="∏"/><glyph d="M308 284c10 8 32 41 15 29s-15-16-24-5-13 17-33 40-117 130-125 142-43 48-47 58-15 18-5 33 15 17 18 33-9 26 7 30 34 2 21 11-26 10-17 23 11 24 41 23 139-2 155-2 94-2 107-1 135 5 161 3 74 5 83-2-4-22-8-37-4-14-3-30-33-1-36-19 28-10 28-20 4-43-29-45-174-6-196-3-66 2-81 3-36 0-45-2-18-9 7-11 30 0 43-16 49-55 55-64 15-21 27-33 40-46 49-60 27-25 33-31 5-13 14-23 11-7 9-21-6-13-14-23-19-11-26-20-100-83-116-101-98-87-108-96-23-13-34-13-48-8-10-12 214 4 240 3l83-3s54 8 45-13-31-21-29-39 14-18 4-33-42-7-41-22 36-5 29-21-15-21-42-22-204 2-239 3-75-5-94-3-168-10-175-3-14 9-6 34 23 33 16 42S-2-41 4-35s33-9 34 3-19 5-23 24-8 32 9 44 106 85 120 101 96 85 111 100 43 39 53 47" glyph-name="summation" horiz-adv-x="693" unicode="∑"/><glyph d="M45 565c-1 1 43 85 52 101s24 58 33 72 30 24 51 19 30-11 37-9 16 9 24 7-11-38 8-37 8 34 25 34 46 2 36-18-69-95-74-108-31-32-40-48-29-65-49-66-28 11-44 9-24-6-31-7 31 47 14 47-18-47-30-48-42-7-31 19 20 32 19 33" glyph-name="commaaccent.salt" horiz-adv-x="302"/><glyph d="M45 565c-1 1 43 85 52 101s24 58 33 72 30 24 51 19 30-11 37-9 16 9 24 7-11-38 8-37 8 34 25 34 46 2 36-18-69-95-74-108-31-32-40-48-29-65-49-66-28 11-44 9-24-6-31-7 31 47 14 47-18-47-30-48-42-7-31 19 20 32 19 33" glyph-name="commaaccent" horiz-adv-x="302" unicode=""/><glyph d="M91 368c19-1 48 2 60 0s56-2 56-2l73 6c22 2 30-2 34-8s40-94 44-113 36-99 42-117 2-14-7-31-6-29 0-22 11 18 19 32 9 18 15 29 128 200 138 216 66 112 68 112 71 112 89 142 61 122 67 130 18 4 37 3 17 0 30 0 1-42 16-45 41 44 48 40 2-21 15-18 17 24 41 20 12-28 1-48-157-245-168-264-62-90-73-100S583 103 558 60 476-75 463-91s-19-22-35-22-25-14-45-10 9 25-4 31-17-30-36-25-12 5-27 2-14 6-19 23-59 166-66 187-32 95-34 108 29 6 22 14-28 0-47 0-73-2-105-5-39 6-40 20 41 10 42 23-27 13-27 21 6 12 11 21 0 12 2 39 17 33 36 32" glyph-name="radical" horiz-adv-x="965" unicode="√"/><glyph d="m33 12 37 218 18 106c2 15 4 38-1 38s-5-29-10-32-19 1-26 2-3 15-2 20 21 5 21 12-23-3-23 5 1 27 1 27l5 10c1 1 12 6 12 8s-2 10-5 10-15-14-13 23 31 25 45 26-7-64 36 51 119 178 227 178 158-81 155-84-5-13-14-14-10 3-17 0-7-8-10-11 5-18 5-26-5-7-13-9-9-7-18-9-5 15-11 17-4 9-12 2 8-23 15-34-17-28-24-29-15 33-56 33c-64 0-83-70-87-82s-2-21 3-23 8 8 9 14 5 12 10 18 12 7 18 7 53-1 78 0 18-31 17-35-7-3-10-6-7-7-6-15 17-11 19-14-6-8-9-13-12-1-19-3-5-8-6-12 29-1 33-3 0-16 0-31-28-8-48-7-92-2-104 0-9-9-12-20-17-123-28-169-41-192-58-240S76-257-53-257c-93 0-117 86-115 91s2 5 12 14 13 1 23 13 16-25 26-19-16 35-9 45 9 5 16 13 8 13 17 7 16-14 35-14S17-82 33 12" glyph-name="florin" horiz-adv-x="406" unicode="ƒ"/><glyph d="M241 325c-7-39-17-123-28-169S172-36 155-84 76-257-53-257c-93 0-117 86-115 91s2 5 12 14 13 1 23 13 16-25 26-19-16 35-9 45 9 5 16 13 8 13 17 7 16-14 35-14S17-82 33 12l37 218c6 35 15 78 18 106s12 97 20 149c4 24 11 27 20 51 43 115 119 178 227 178s158-81 155-84-5-13-14-14-10 3-17 0-7-8-10-11 5-18 5-26-5-7-13-9-9-7-18-9-5 15-11 17-4 9-12 2 8-23 15-34-17-28-24-29-15 33-56 33c-64 0-82-63-87-82s-20-104-27-143" glyph-name="integral" horiz-adv-x="406" unicode="∫"/><glyph d="M354 129c-24-23-94-79-167-79S1 101 1 236s97 222 108 230 29 18 36 6 19-12 13 6-10 21 6 28 64 22 112 22 131-52 118-71 5-19 18-7 46 36 56 23 18-6 10 14 43 39 118 39 174-49 174-178c0-33-6-69-19-104-10-27-26-50-43-74-13-19-25-41-42-56-11-10-23-19-35-27s-26-12-39-17c-10-4-21-11-32-13-15-3-32-5-48-5-75 0-118 34-132 49s-6 23 9 46-11 5-35-18m-179 51c23-1 58-5 92 62 18 36 5-2 26 81 5 20-12 56-46 56-21 0-23-3-23-3s0 1-1 2c-14 12 12 33 1 34s-25-16-23-22c5-16 21-24 7-34s-55-60-55-129c0-27 10-46 22-47m402 197h-12c-6 0-15-7-22 9s-17 13-13 0 20-18 4-28c-39-25-56-90-56-126s9-50 26-50c76 0 112 98 112 137s-15 58-39 58" glyph-name="infinity" horiz-adv-x="797" unicode="∞"/><glyph d="M60 121c-2 2-9-1-14 6s22 15 13 27-20-18-29-9-6 15 3 24 68 71 122 71 92-44 134-44 77 35 84 41 6-1 12-6 5-5 13-7-7-22-1-29 18 15 24 9-8-22-13-29 1-6-3-11-44-69-111-69c-82 0-107 47-147 47S75 99 70 97s-7 8-12 13 4 9 2 11m22 198c-2 2-9-1-14 6s22 15 13 27-20-18-29-9-6 15 3 24 68 71 122 71 92-44 134-44 77 35 84 41 6-1 12-6 5-5 13-7-7-22-1-29 18 15 24 9-8-22-13-29 1-6-3-11-44-69-111-69c-82 0-107 47-147 47s-72-43-77-45-7 8-12 13 4 9 2 11" glyph-name="approxequal" horiz-adv-x="465" unicode="≈"/><glyph d="M81 258c-15 0-30-2-28 22 1 10 1 12 3 17 4 9 33-5 35 2 3 12-29 4-27 32s21 25 17 45-12 39 5 38c12-1 106 0 163 0l3 18c5 32 13 79 15 87 3 12 8 43 19 41s20-22 34-14 8 12 21 11 5-33 17-29 4 30 14 27 25 5 12-49c-9-38-19-71-25-92 40 0 86 0 96 1 17 1 80 10 75-10s-35-23-38-29 31-10 28-20-20-29-20-36-2-31-5-38 3-10-42-12-208-2-215-3-9-7-29-8-113-1-128-1M58 69c-7 1-20-6-17 26s5 26 6 36-4 21-4 29 53-4 52 11-44 9-39 34 90 13 102 13 92 2 112 2 169 0 193-1 43 5 43-8-22-28-21-41 9-30 5-41-31-3-32-17 25-5 19-23-8-18-29-18c-14 0-87 0-139 1-1-7-2-16-5-29-13-54-21-100-26-112s-12-7-22-6-15 0-22 5-2 17-10 13-16-12-23-12 10 26-3 28-16-26-30-24c-5 1-3 15 0 34 5 32 17 79 19 87l3 15c-28-1-58-2-75-2-35-1-50-1-57 0" glyph-name="notequal" horiz-adv-x="565" unicode="≠"/><glyph d="M51-9c-15 0-30-2-28 22 1 10 1 12 3 17 4 9 33-5 35 2 3 12-29 4-27 32s19 7 15 27-12 29 5 28 194 1 206 1 146-1 163 0 80 10 75-10-35-13-38-19 31-10 28-20-18-11-18-18-2-31-5-38 3-10-42-12-208-2-215-3-9-7-29-8S66-9 51-9m59 260c-27 10-24 15-20 39 3 24 29-3 32 14 2 17-19 9-23 25-5 16 2 15 6 33 3 18-11 25 1 36s85 30 117 44c33 14 54 25 63 29 10 4 132 55 146 60 14 4 58 22 58 10 1-12-12-24-15-38-4-14 0-24-2-28-2-5-22-2-17-11 5-8 18 3 16-9-1-12-10-35-37-42-26-8-112-43-130-53s-26-10-44-21c-17-12-22-19-1-15 22 4 30 2 45-6 16-9 64-25 80-35 17-11 25-11 25-18s3-31-7-38c-9-7-35 7-37-7-1-15 31-20 25-32-7-12-5-32-33-36-29-3-134 49-160 63-27 15-62 25-88 36" glyph-name="lessequal" horiz-adv-x="527" unicode="≤"/><glyph d="M166 406c-12 3-29 1-26 20 2 19 15 24 19 31 3 6-2 20 1 30 4 9 40-12 45 2 5 15-32 24-28 38 3 14 33 10 77-5s151-65 167-72c15-8 56-21 64-25 8-5-2-22-6-37-3-14-24 6-30-8s20-10 20-19c0-10-22-15-19-32 2-17 10-15 3-29-7-15-77-24-106-35-28-11-129-60-140-66s-80-35-93-40c-13-4-17-7-24-5s-8 23 0 35c8 13 15 13 11 21-4 9-10 13-8 22 3 8 31-2 32 8 1 11-27 24-10 32 16 8 87 31 107 42 19 10 70 26 79 31 8 6 13 14-5 9s-10 10-30 20c-21 9-87 28-100 32M43-9c-15 0-30-2-28 22 1 10 1 12 3 17 4 9 33-5 35 2 3 12-29 4-27 32s19 7 15 27-12 29 5 28 194 1 206 1 146-1 163 0 80 10 75-10-35-13-38-19 31-10 28-20-18-11-18-18-2-31-5-38 3-10-42-12-208-2-215-3-9-7-29-8S58-9 43-9" glyph-name="greaterequal" horiz-adv-x="523" unicode="≥"/><glyph d="M344 536c-5 22-23 15-15-6s3-24-1-32-49-56-52-68-13-24-14-29-36-46-38-51 6-28 8-33 20-52 22-61 14-47 16-51 2-25-6-36-7-30 9-11 34 49 39 57l57 83s36 43 37 49-20 62-24 75l-28 84s-5 8-10 30m134 132c4-18 8-29 11-37s18-42 19-50 13-52 24-68 8-19 6-26 11-28 12-33 17-46 21-53 19-47 17-54-24-30-31-39-57-81-68-97-39-60-48-72-11-9-17-21-57-85-74-110-34-13-52-9 2 46-10 49-28-46-35-45 3 16-4 16-35-23-45-20c-13 4-15 7-32-1-10-5-8 0-10 2s-20 54-24 65-27 90-30 99-7 12-11 16-11 39-15 49-25 70-34 98 2 32 8 43 54 77 60 86 21 26 29 39 22 38 29 45 17 20 17 20l50 73c8 12 44 67 54 65s-7-25 8-30 46 33 52 32 8-13 21-13 28 13 36 9-8-18-1-28 21 12 32 24 15 8 19 7 12-13 16-31" glyph-name="lozenge" horiz-adv-x="632" unicode="◊"/><glyph glyph-name="_0010" horiz-adv-x="0"/><glyph d="M114 71c-1-5-4-13-6-14-2-2-5-10-6-15-2-6-16-32-20-35-4-2-4-5-6-5s-6-5-8-4c-2 2 8 24 3 24S58 8 54 7s-6-4-11-5c-5-2-9-3-13-1-3 1 1 12-2 13-3 0-1 6-8 6s-3-4-10-8C2 8 10 4 2 2c-8-1-8-4-16-3-9 2-27 7-11 43 16 35 51 105 55 110s11 11 9 17c-1 5 1 10 2 13l69 129 49 79c3 4 8 20 10 24l57 95s31 49 40 49c8 0 2-24 13-24s11 25 16 25c6 0 7-6 13-5 6 2 8 4 13 5 5 2 0-24 13-24 12 0 4 23 10 25s7-1 15 1c8 1 12 5 18 2 5-2 12-107 11-125-1-17 4-115 2-117-1-3-2-11-2-15 0-5 5-17 4-20-1-2 2-268 0-272-2-5 0-14-5-14s-12-1-15 1c-3 1-3 7-6 7-4 0-9-2-12-4-2-2-8-5-10-5s-5 26-13 26-4-21-8-22 0-2-8-3-5 14-9 14c-5 0-19-17-27-16-8 2-12 4-12 12s0 54-1 56c-2 1 0 1 0 9v13c-4 0-11 1-21 1-13 0-11-1-27 0s-12-1-24-2-11-4-22 0-6 5-15 4l-15-2c-4-2-12-2-18-1-3-6-8-12-10-17m66 118h2c8-1 21 1 28 1 8 0 31 0 39-2s4-9 1-15c-2-7-13-4-17-7-4-4 3-4 10-8 7-3 12 8 15 12 4 3-1 35 0 40 0 6 4 77 5 92 2 14 3 42-1 44-4 1-14-21-20-39-7-17-41-73-49-89s-20-27-13-29m60-65c0-10 26-10 26-1 0 10-26 11-26 1" glyph-name="a" horiz-adv-x="454" unicode="a"/><glyph d="M20 14s-2 21 2 40c4 20 7 39 8 52 0 12 12 78 14 94s7 58 10 73c4 15 12 60 14 65 2 6 6 18 6 22s-5 14 4 17c10 2 23 0 24 5 2 6 7 17 8 23 0 4-2 8-10 6-2-1-3-1-3-1v1c-22-1-8 7-19 12-10 5-5 6-11 15-5 8 7 7 6 15s4 13 7 21c3 7 6 4 8 13s1 8-2 19c-2 10 4 8 10 12 6 5 14 0 25 1 10 1 5 2 5 6s-24 4-34 9c-10 4-2 16 9 20 10 3 30 2 39 0 9-1 20-3 47 7 25 9 146-10 156-17 0 0 25-8 47-30 11-9 16-23 23-36 1-3 5-3 5-5 8-17 11-36 11-58 0-25-8-47-19-65l-3-4c-1-3-2-5-4-7-24-33-57-51-60-53 2-1 12-5 22-16 1-2 2-4 4-5l3-4 5-7c10-18 20-44 20-83 0-49-31-88-68-115l-9-6C275 21 224 7 206 9c-16 1-30 2-36 4-7 1-12 35-14 41-2 7-11 5-13 0-1-4-1-10-1-17s-2-32-11-35c-9-4-16-1-18-1-3 0 10 37-1 37-11-1-17-33-24-35-7-1-12 2-14 5-3 3-7 9-9 6-3-2-10-16-17-15s-6 20-10 19c-4 0-8-8-12-11-4-2-6 8-6 7m138 113c1-4 20-9 29-9 10 1 52 6 63 59 12 53-23 58-37 61-7 0-14 0-19-1-6-2-13-8-16-23-2-16-15-28-14-34s14-6 12-13-11-12-11-17c0-6-7-19-7-23m99 289c-5 0-23 5-31-18-8-24-8-24-7-26s-9-6-9-10-3-25-4-30c0-5-3-11-1-12 1 0 2 0 7-2 5-3 12 0 20 0 8 1 44 20 54 53 9 33-20 46-29 45m-123-5c-1 0-2-1-4-2-1-2 0-3 0-5l3-4c1-2-2-4-4-9-3-5-1-9 5-10 5-1 5 3 6 3s1 4 2 6c2 1 1 3 1 4 0 2-1 4-1 5-1 2-1 4 0 7v4c-1 1-6 1-8 1" glyph-name="b" horiz-adv-x="448" unicode="b"/><glyph d="M342 423c-20 0-37-4-53-11-7-2-13-6-19-9-3-1-5-3-8-5-4-2-11-4-14-7-4-3-5-7-8-10-56-50-87-131-87-173 0-12 2-24 6-34 2-3 7-6 5-9-8-17 2-10 6-9s5-7 8-10c20-21 46-31 59-31 22 0 55 19 61 21 5 2 18 2 21-3s1-7 3-11c1-4 2-7 0-11-1-4-8-3-11-5-2-1-6-9-4-14 3-5 22 9 22 6 0-2 0-14-1-20-1-5 2-8 6-11 3-3 5-7 7-14 1-7-25-55-124-55C101-2 49 70 30 141c-10 36-12 71-8 97l6 31c1 2 4 4 5 7 1 2-2 6-1 8l5 18c9 27 21 54 34 81 6 11 12 22 19 32 5 8 13 11 19 19 2 3 2 12 5 15l5 7 4 5 11 13c61 63 164 88 203 88 38 0 86-26 86-32 0-5 3-16 3-22s-6-14-8-20c-1-6-4-6-8-8-5-2-4 2-8 2-4 1-8 1-11-4-3-4 12-15 15-16 4-2-1-10-6-20-5-9-4-9-4-16 0-8-2-20-7-21-6-2-14 18-47 18" glyph-name="c" horiz-adv-x="418" unicode="c"/><glyph d="M24 51c1 1 4 46 7 54s5 37 7 52c3 15 4 41 8 62 3 22 27 155 30 163 3 9 8 25 12 30s6 6 9 1c3-6 7 0 12 0s1-19 11-19 6 24-6 28c-11 3-24 0-33 0-9 1-10 1-11 9-2 8-1 15 0 21 2 6 8 6 7 11-2 5-8 10-4 20 4 11 21 17 23 27 2 9-25-20-20 14s28 37 38 36c9-1 17-4 33-2 16 3 62 0 70 0s10-3 17-4c8-2 12 0 20 3 7 2 20 1 28-2 7-3 70-17 88-25 19-8 66-40 86-124 20-83-17-182-20-192-3-9-18-35-27-43s-1-26-52-81C306 34 232 10 218 9c-13-2-16 2-22 4-6 1-18-3-30 1-13 4-7 38-16 39-10 1-8-7-12-27-4-21-17-26-27-23-9 3-2 15-6 15s-6-6-9-8C93 7 83 1 78 0c-4-1-10 5-16 6-5 0 7 24-4 24C48 30 47 0 30 0c-16 0-7 50-6 51m202 370c-16-4-8-21-10-27-2-5-6-16-10-21-5-6-3-27-4-34 0-7-4-35-6-45-2-11-17-78-18-80-2-3-4-14-4-20 0-5-7-26-11-31s-9-34-4-41c5-6 24-4 79 31 56 34 67 101 70 109s3 20 2 24c-2 4 8 8 4 64s-60 78-88 71" glyph-name="d" horiz-adv-x="483" unicode="d"/><glyph d="M74 416c-11 2-12 11-11 20 2 9 8 20 11 24 4 4 1 10 2 15 1 6-2 7-6 12s0 11 1 15 12 5 14 6c1 1 7 4 5 9-1 5-16 0-16 6 0 7 3 13 6 15 3 1 35 8 50 10 14 2 20 3 31 8 10 5 51 2 67 2 16 1 114 1 133 2 18 1 22-7 24-14 1-8-3-8-6-10s-4 0-6-2c-3-3 3-8 2-11-1-2-5-3-11-1-6 3-11-5-8-12 3-6 24-4 24-13s-10-15-14-19-7-13-7-13l6-11c1-2 2-16 1-25-2-10-14-15-18-14s-38 1-46 1-68 2-75 2-4-8-1-12c4-5 8-9 9-12 1-4-2-9-5-17-2-8-8-31-10-36-2-6-1-15 2-23 4-8 72-3 76-2 5 1 13-6 14-11s-13-9-14-13c0-4 8-3 11-12 2-9-7-24-7-26 0-1-6-16-5-22s-10-13-19-12c-10 1-23-4-30-6-7-3-48-2-52-1s-3 7-2 9c2 3-2 9-7 8-5-2-11-29-11-36 0-6-13-43-14-60-2-16 60-8 64-9 4-2 18-2 27-1s17-2 23-1-1 0 10 0c10 0 15-5 16-10 0-6 0-9-2-14s-2-1-4-6-2-2-8-3c-6-2-4-4-6-8-3-4 0-4 3-9 3-6 1-3 1-7 1-3 2-9 1-14s0-6-5-8c-4-2-3 4-8 2-4-1-4-4-4-10-1-6 7-3 11-3s4-8 4-19c0-10-10-8-15-10-6-2-38-1-51-2-13-2-61 2-66 0-5-1-4 8-11 12-6 4-10-4-16-9-5-5-18-1-28-1-11 0-52-2-64-2-13 1-14 16-15 22s3 26 7 33c3 7 3 56 4 67 2 11 9 38 14 45s3 18 1 26c-3 8 13 89 16 97l13 56c1 10 3 10 8 12 6 2 0 29 5 38 5 8 8 3 18 2 9-1 15 5 18 6 3 0 0-23 3-31 2-8 3-2 8-1 6 0 3 36 1 40-1 4-9 1-17 0-9 0-32 0-44 2" glyph-name="e" horiz-adv-x="382" unicode="e"/></font>
</defs>
</svg>
