<svg xmlns="http://www.w3.org/2000/svg"><defs><font id="prefix__webfontx1QlgLst" horiz-adv-x="735"><font-face ascent="1638" descent="-410" units-per-em="2048"/><glyph horiz-adv-x="378"/><glyph horiz-adv-x="378"/><glyph horiz-adv-x="378"/><glyph d="M35 164q0 61 60.5 90t115.5-8q16-10 41-10-4-29 6-78t5-83-42-57q-76-45-121 5.5T35 164m93 241.5q-1 22.5 1 42t8 48 8 45.5q59 449 150 712 14 43 60 54.5t83-9 33-55.5q-12-158-88-456t-94-431q0-59-107-16-27 10-40 26.5t-14 39" horiz-adv-x="473" unicode="!"/><glyph d="M55 1094q-4 131 4 133 4 43 48.5 65.5t68.5-8.5q51-70 57.5-157t-13-206.5T201 745q0-23-51.5-24.5T84 754q-25 66-25 207 0 2-4 133m376-229q-1 50 1 87 0 172 27 291 8 39 66.5 61.5T590 1284q16-104 3-249.5T565 778q-6-20-51-24t-65 24q-17 37-18 87" horiz-adv-x="600" unicode="&quot;"/><glyph d="M27 394.5q0 21.5 27.5 40T109 462l63 21q37 12 53 23-16 33-4 71.5t10 69.5-36 31q-6 0-24.5-26.5T133 637q-72 25-90 51-18 57 10 100 20 23 93 56t90 65q16 23 19 63t-2 75.5 1 74.5q12 70 84 75t108-44q31-37 5.5-126t5.5-118q39-29 105.5-13.5T659 950q41 41 58.5 158t52.5 156q20 29 48 41t63-11q6-4 44-18t38-33q4-35-44.5-129T911 981q6-6 43-29.5t47-42.5q8-14 2-37.5T983 840q-20-10-66.5-19.5T850 799q-37-20-32-93t-17-110q12-6 20-21.5t10-17.5q59-10 102.5-43t8.5-80q-20-27-75.5-29T801 385q-27-41-11.5-151.5T791 82q-31-59-132 41-33 31-41 105.5T608 365q0 20-25.5 20T539 375q-27-12-53.5-7t-50 1-29.5-25q-12-55 7-166.5T416 20q-14-37-69.5-13T274 72q-14 39-28.5 123T215 313q-14 31-83 10.5T43 334q-16 39-16 60.5M426 719q-72-135 10-193 10-10 46 2.5t57 8.5q49-12 72.5 27.5t21.5 94-4 99.5q-39-10-77-6t-75-1-51-32" horiz-adv-x="1005" unicode="#"/><glyph d="M42 352q26 37 69 37 29 4 72.5-34t54.5-23q29 39 36 99.5t1.5 114.5 3.5 116q-94 37-160 97T53 901q0 37 25 49 88 113 272 152 43 14 50.5 23.5t-1 26.5 6.5 60q12 25 39.5 30t33.5-13q25-29 12.5-60.5T487 1102q4-14 35-30.5t57.5-28 41-32T606 967q-16-16-68.5-7t-74.5-2q-45-29-52.5-97T430 758q16-25 57-51.5t73-56 38-68.5q23-127-23-234-18-43-93.5-81T383 197q-31-45-16.5-93.5T334 10q-12-18-42-6t-30 31q-8 53-2 70.5t5 37-19 54.5q-12 25-84 41T61 276q-45 39-19 76m165 494q4-16 22.5-31.5T262 799q29-4 39 23.5t4 62.5-18 57q-8 6-12.5 3T261 931t-15-13q-53-27-39-72m166-471q0-10 10-19 27-8 53.5 2.5T463 397q14 49-6.5 115T397 549q-14-16-14-127 0-8-5-22.5t-5-24.5" horiz-adv-x="624" unicode="$"/><glyph d="M20.5 969.5Q33 1038 88 1077q195 137 318 80 90-43 122.5-154.5T504 801q-70-106-258-49l-55 16q-28 8-50 16.5T97.5 807 59 840Q8 901 20.5 969.5M217 930q-8-51 46-70.5t93 10.5q18 14 22.5 27.5t.5 34-4 26.5q0 4-4 9.5T358.5 979 346 989q-43 8-83-5t-46-54m62-813q0 31 8 60.5t24 72.5l23 59q47 139 127 266t216 300.5T862 1118q27 37 50.5 44t68.5-15q16-16 18-50t-6-50q-51-109-143-247T679 556.5t-159-249T401 31q-45-6-69.5-5T295 46.5 279 117m382.5 31.5Q637 221 666 291q12 29 40.5 68.5T741 414q10 10 48 31.5t55 41.5q37 39 139 39 96-16 169-94t67-178q-29-20-70-54l-73-61q-32-27-73.5-54.5T924 42t-83-15-91 20q-64 29-88.5 101.5m189.5 33q11-23.5 40-11.5l47 28q37 22 55.5 35t32.5 34.5 4 41.5q-33 59-93 24.5T852 236q-12-31-1-54.5" horiz-adv-x="1269" unicode="%"/><glyph d="M39 449q-20 53 37 110t55 96q-2 6-11 40t-11 48l-7 42q-4 28 0 49.5t13 42.5q29 51 92 100 25 12 94.5 14t81.5 31q23 51 19.5 110.5T428 1243q23 37 83 24.5t56-61.5q-6-61-18-119.5T530.5 980 528 862q6-90-61-123-23-20-56.5-17T360 754q-8 8-7 39.5t-1 52.5q-12 27-41.5 23.5T268 846q-39-47-9-120t93-95q16-6 20.5-32t-3.5-36q-10-20-27.5-32.5t-38-16.5-46.5-7-50-5q-14-14-14-31 10-27 38.5-44t36.5-9q31 14 69 24.5t73.5 11.5 55-15.5T475 387q-14-47-43-104.5T388 176 375 63q2-31-36-56T268-6q-16 0-31.5 17.5T215 47q0 51 22.5 108.5T260 264q-4 25-59.5 33T131 317q-65 54-92 132" horiz-adv-x="567" unicode="&amp;"/><glyph d="M65.5 938q-12.5 82 3 155.5T94 1249q4 27 27.5 43.5T173 1311t49.5-12.5T244 1257q6-61 3-92.5t-14.5-97.5T219 967q-2-18 3-54t6-54.5-9-43.5q-14-20-47-26.5T127 799q-49 57-61.5 139" horiz-adv-x="247" unicode="'"/><glyph d="M33 764q0 16 13 58t15 50q119 238 476 424 53 39 98-10 70-70 31-98-45-41-171-128T309 911q-53-55-72.5-129.5t-16.5-135T240 496q6-41 16-89.5t22.5-89.5 35-82.5T369 160q12-8 36.5-2t38 9 23.5-17q14-31 4-62t-33-47Q329-8 299 2q-8 2-30.5 6t-36 9.5T211 31Q-26 391 33 764" horiz-adv-x="677" unicode="("/><glyph d="M22.5 56.5Q25 82 35 100q41 45 141 122t162.5 149.5T418 535q31 156-47 316.5T156 1139q-43 45-9.5 100t99.5 72q41 10 82-11 162-174 282-524 55-166 0-303-98-238-444-455-61-37-131 0-15 13-12.5 38.5" horiz-adv-x="638" unicode=")"/><glyph d="M31 803q33 49 132 76.5T295 934q-63 90-205 156-8 2-10 9t0 20.5 2 15.5q0 35 35 60.5t67 4.5q43-27 114-80t93-67q6-6 8 2t2 22.5 5 20.5q4 14 16 82.5t33.5 99.5 68.5 31q29 0 52.5-18.5T590 1245q-45-127-66-244 49-8 116 4.5t112 24.5q53 18 85.5-13.5T834 942q-39-45-139.5-55T561 860q37-43 76-84t100-100l82-80q0-14-14-29-49-27-105 0-39 16-73.5 44T544 687l-65 65q-14-37-40.5-122T385 486.5 317 383q-16-23-61-20.5T221 403q10 59 64.5 190.5T340 803q-113-20-221-74-37-14-74 0-49 39-14 74" horiz-adv-x="851" unicode="*"/><glyph d="M27 614.5Q31 643 61 653q111 41 215 54 12 4 12.5 14t-1.5 22q0 27-11.5 64T254 870.5t-6 58.5 28 56q37 29 113 29 27-4 46.5-22.5T455 956q6-25 6-97.5T483 758q14-18 72.5-14t87.5-9q35-27 19-65-41-39-150-52l-14-7q-10-5-17.5-11t-7.5-12q0-27 7-74t9.5-73.5T483 369q-6-23-44-26t-58 17q-43 29-60.5 106T287 565q-31 25-57.5 23t-81-11.5T61 573q-38 13-34 41.5" horiz-adv-x="661" unicode="+"/><glyph d="M59 166q-8 72 34 114t95.5 38.5T283 295q43-31-5.5-233.5T166-178q-33-18-53.5 0T83-111.5 70-16 63.5 88.5 59 166" horiz-adv-x="299" unicode=","/><glyph d="M47 543q-8 49 28 87t87 38q61 0 168.5-9.5t170-11.5T676 657q14 8 31.5 2t25.5-20q8-39-11.5-65.5t-49-36T618 516q-260-74-534 0-16 4-25.5 10T49 537z" unicode="-"/><glyph d="M61 166q-6 55 16.5 92t59.5 50.5 78 9 68-22.5q45-29 44-129T264 29q-78-43-136.5 6T61 166" horiz-adv-x="325" unicode="."/><glyph d="M2 86q23 104 68 218t86 191.5L268.5 699 373 889q20 39 54 121t57.5 131 70.5 98 107 64q59 16 101-23t7-102L626 928 465 645q-53-96-128-252.5T217 100q-8-37-28.5-55T121 6q-51-23-90 5T2 86" horiz-adv-x="784" unicode="/"/><glyph d="M43 473Q20 668 163.5 830.5T504 1026q80 14 162-27t139-114q84-106 84-238.5t-58.5-245T676 193q-88-88-187.5-116T285 102Q74 227 43 473m238 92q-10-80 27.5-153.5T418 307q76-45 151 66 150 207 74 329-53 88-121 89-88 0-159.5-70T281 565" horiz-adv-x="890" unicode="0"/><glyph d="M57 311q0 131 22.5 294T102 858q0 43 46.5 89t99.5 22q94-43 78-123-61-317-43-647 4-16 33.5-58.5T326 66l-32-33q-13-14-32.5-24.5T215-2q-80 0-113 68-45 114-45 245" horiz-adv-x="335" unicode="1"/><glyph d="M41 891q12 37 42 54.5t56.5 17.5 68.5-5.5 54-5.5q229 0 336-61 33-20 72-40t62.5-57.5T741 711q-37-113-120.5-205T406 315q-59-59-13-59 92-14 152.5-17T652 228.5 805 195q12 0 29.5-15.5T852 147q8-45-18.5-83.5T768 14Q655 2 577.5 2T461 7 322.5 31.5 141 63q-57 8-65 71t18 97q53 96 202.5 231.5T489 651q8 16-9 36t-25 24q-25 12-79 13t-79 11q-51 25-107.5-9T78 723q-62 47-37 168" horiz-adv-x="858" unicode="2"/><glyph d="M39.5 241.5Q59 295 111 309q49 16 156.5-7t160.5-3q10 0 29.5 12.5T469 330q-20 53-91 93t-137.5 59.5T133 547t-12 110q25 41 117 86t108 58q-35 20-109.5 20T131 842q-53 47-20.5 110.5T213 1016q61-6 114.5-10.5t113-19.5T543 944q45-29 56-63.5T587.5 809t-49-65.5T468 675t-60-59q10-6 25.5-26.5T459 565q82-16 144.5-61T686 391q41-139-174-246-104-51-223-47T70 156q-50 32-30.5 85.5" horiz-adv-x="692" unicode="3"/><glyph d="M59 733.5Q106 889 221 967q33 20 64.5 3.5T324 926q16-59-33-174t-29-179q16-53 87-82.5t110 1.5q47 37 66.5 118.5T547 766t36.5 137.5T696 977q49-35 56.5-91.5t-13-108.5-40-120.5T686 543q10-37 3-74t-22.5-63.5T635 346q-20-53-28.5-83T592 177t12-89q4-14-8-26.5T561.5 36 530 14q-57-43-112 33-25 27-13.5 115t3.5 123q0 14-10.5 16t-32-2-31.5-4q-92 0-169 47T66 461q-54 117-7 272.5" horiz-adv-x="753" unicode="4"/><glyph d="M24.5 485.5Q16 518 31 541q16 16 44.5 40.5L117 618q23 27 65.5 91.5T260 811t78 57q31 16 90 23.5t84 15.5q49 12 76.5 10t77-11 77.5-9q27 0 46.5-17.5T809 840q8-41-22.5-74T723 733q-322 59-414-125 41-18 138.5-36.5T588 532q80-20 106-77 59-72 11-164-80-141-218.5-222T195 2q-61 6-78 64.5T127 176q23 31 34 44t34.5 27.5T242 252q10 0 20-28.5t19-28.5q147-37 270 145-55 59-141 73.5T216.5 428 49 444q-16 9-24.5 41.5" horiz-adv-x="811" unicode="5"/><glyph d="M43 276q-63 244 86.5 471.5T532 1036q45 10 80 2t55.5-25.5 16.5-37-35-29.5Q184 723 207 395q25 4 123 29t142 31 120-6.5T731 395q47-37 44-107.5T731 178Q627 26 477 6 323-19 201.5 60T43 276m279-73q18-78 159-41 35 8 48.5 12t28.5 15.5 18.5 29T575 266q-2 25-23.5 36t-48 9-50.5-2q-63-6-103-32.5T322 203" horiz-adv-x="786" unicode="6"/><glyph d="M18 848q10 29 36 61.5t48 32.5q152 0 420 84 166 51 283-20 14-14 16-35t-5-37-11-35l-74-154q-51-104-79.5-167.5T595 422t-32-174l10-27q8-29 0-35-35-53-92-85.5t-86 1.5q-41 66-44 140.5T375.5 393 438 539l76 153q41 84 59 146-98 0-264-50.5T113 731q-43-8-80.5 32T18 848" horiz-adv-x="821" unicode="7"/><glyph d="M20 47q8 90 57.5 158.5t157 159T365 477q-25 33-76 78l-87 79q-36 34-61.5 86T125 827q203 152 582 105 8 61 41.5 102t87.5 35q35 0 47-44t-4-77q-53-203-275-420 131-131 129-258-2-63-39-111T593.5 83 475 41 348 14Q139-21 20 47m275 143q51-37 118.5-22.5T518 231q43 51 18.5 98.5T471 356q-59-20-84-36.5T344 273zm70 568q-37-23 9-87.5t91-49.5q53 20 84 71t0 82q-25 29-57.5 30t-54-8-72.5-38" horiz-adv-x="886" unicode="8"/><glyph d="M43 614Q12 723 63.5 818T219 967q37 18 101.5 29.5t133 12.5 119-28 50.5-86q-16-135-87-400.5T446 88q0-35-34.5-57.5T350 0q-31-6-72.5 15.5T242 68q10 66 92 362 25 86 14 86-104-61-186-44T43 614m168 97q-2-43 33-52.5t73 17.5q31 18 82.5 85.5T422 844q-66 25-134.5-20T211 711" horiz-adv-x="622" unicode="9"/><glyph d="M59 166q-8 72 34 114t95.5 38.5T283 295q45-29 43-129T264 29q-78-43-136.5 6T59 166m0 610q-8 72 34 114t95.5 38 94.5-25q45-27 42-116t-65-125q-86-39-138.5-2.5T59 776" horiz-adv-x="325" unicode=":"/><glyph d="M57 166q-8 72 34 114t95.5 38.5T281 295q43-31-5.5-233.5T164-178q-33-18-53.5 0T81-111.5 67.5-16 61 88.5 57 166m0 610q-8 72 34 114t95.5 38 94.5-25q45-27 41.5-116T258 662q-86-39-138.5-2.5T57 776" horiz-adv-x="321" unicode=";"/><glyph d="M0 600q0 90 78 164 94 76 309 172t307 176q4 4 11.5 4t18.5-2 17-2q66 0 94.5-44t-6.5-81q-59-66-170.5-112t-214-95T289 649q86-51 187.5-99l227-102.5L897 360q39-23 39-59 6-63-58.5-100T752 186q-14 10-37 32t-31 26Q434 383 106 524q-8 4-35.5 13.5t-47 23.5T0 600" horiz-adv-x="935" unicode="&lt;"/><glyph d="M57 860q33 63 100.5 73.5t169-2.5 152.5-7q57 10 78-43 27-80-78-109-197-72-368-10-27 10-48.5 42.5T57 860m11-377q-14 45 19.5 83t78.5 46q76 0 174-75 23-18 79 11.5t83-1.5q12-6 20 10t13 12q31-33 21.5-67.5T512 451q-59-61-146-85t-172 5.5T68 483" horiz-adv-x="561" unicode="="/><glyph d="M10 1018q-14 20 16.5 59t63.5 39q41 8 84-3t98.5-36.5T348 1044q254-84 410-231 33-25 33-56.5t-21.5-56T713 653q-94-59-272.5-202.5T154 244q-55-31-97.5 14T55 350q25 41 115 90 61 31 159.5 110T465 653q29 10 63.5 32t24.5 40q-39 68-113.5 107.5t-147.5 52T138 930t-128 88" horiz-adv-x="792" unicode="&gt;"/><glyph d="M20.5 1231q8.5 45 47.5 67 102 20 149 0 37-14 131-46.5t160.5-64.5 126.5-77q53-53 39-80-20-82-91-145.5t-159-124T297 643q-27-39-8.5-104.5t37-112.5T305 326q-14-14-50-14.5T197 326q-84 57-121 161.5T68 684q18 55 72.5 96T252 842.5 368.5 908t86.5 104q-66 35-204 79t-204 78q-35 17-26.5 62M83 88q-1 39 44 70 29 18 119 18 43-6 60.5-39T305 68q-20-45-79.5-61.5T127 18Q84 49 83 88" horiz-adv-x="675" unicode="?"/><glyph d="M35 332q-25 106 0 196 129 451 348 670 137 137 358 107 90-12 155-65.5t92.5-128.5 38.5-161-9-162q-10-47-46-76.5t-86-54-73-47.5q-20-16-31.5-90T758 422q-31-72-108-123t-164-51-138 67q-49 68-18 205 35 154 113.5 264.5T643 895q20 0 41-9t38-23.5 34.5-34T790 787l31-44q16-14 29.5-1.5T874 778q49 139-26 305-45 96-157.5 102.5T508 1118Q254 864 205 440q-12-106 59.5-187T446 127q66-27 125 8 10-14 24.5-13t29 9 22.5 7 4-19q-4-68-59-96.5T470-1 340 29q-41 14-79 38.5t-67.5 50T132 174l-60 59q-14 23-37 99m465 151q-8-70 18-88 20-20 41-8t31 25.5 16 27.5q82 145 19 258-115-98-125-215" horiz-adv-x="1028" unicode="@"/><glyph d="M36 139q11 61 38.5 140T111 399q63 289 137 508 10 33 39.5 171.5T360 1276q16 25 69 33 11 2 20 1 35 0 49-24 68-145 123-360t90-379q0-14 27.5-28.5T774 492q20-35 0-56-15-33-15-75 0-55 25-125 38-106 39-161 0-10-2-18-6-43-66-54-14-3-26-2-42 0-65 30-29 39-46.5 155.5T545 336q-45 26-102 25-16 0-33-2-78-9-134-52-25-18-41-66t-23-94.5T185.5 57 134 5q-9-3-20-2-30 0-77 17-6 30-7 61 1 29 6 58m267 393q0-24 19-30 30-21 88-21h20q74 4 86 47 9 34 9 72 0 28-5 57-12 70-40 127l-56 123q-47-57-64-184-4-27-18-67t-26-65q-13-30-13-59" horiz-adv-x="823" unicode="A"/><glyph d="M45 1169q-13 22-13 44 0 25 17 50 33 46 66 46 44 3 96 3 44 0 93-2 110-5 177-44 18-10 133-51t156-99q18-37 8-61l-78-68-94-80q-43-35-90-61-10 0-25.5-14.5T492 811q115-23 201.5-78T805 594q8-29 8-58 0-126-147-274Q547 143 442.5 74.5T221 0h-5q-30 0-55 20-28 23-11 58 8 16 39.5 47t31.5 41q5 41 5 86 0 34-3 71-6 85-19.5 156.5T176 637q-2 14-12 39.5t-16.5 44T142 765t18 46q9 11 9 37t-9 67q-6 24-6 48 0 19 4 36 5 25 5 51 0 16-2 32-5 42-36 61-8 6-39 9t-41 17m288-131q0-16 6-43 7-35 3-53 9-1 18-1 53 0 99 31 53 36 67 83 8 16-9 27.5t-55 23.5-50 18q-15 8-26 8-16 0-27-15-26-38-26-79m39-522q11-49 13-72 2-16 7-63t11.5-78 18.5-59q49 45 99 81.5t81 92.5q22 39 22 81 0 17-3 33-8 43-59.5 81T458 659q-11 2-22 2-39 0-67-24-9-32-10-50 1-17 13-71" horiz-adv-x="813" unicode="B"/><glyph d="M25 526q25 170 115.5 294T391 981q46 11 99 11 90 0 198-31 37-12 64-47 14-18 14-38 0-17-10-34-12-23-30.5-33T674 792.5 629 782q-18-5-42-5-32 0-75 9-47 10-76 11-18 0-30-4-117-41-158-159-21-60-21-123 0-59 19-120 39-125 157-183 70-34 142-34 50 0 102 16 18 6 49 26l54 33q23 13 52 21.5t46-8.5q55-45 68-88 3-9 3-19 0-33-36-65Q763 3 602 3 495 3 371 41 217 90 143 150 18 254 19 441q0 41 6 85" horiz-adv-x="921" unicode="C"/><glyph d="M41 1114q0 8 2 18.5t2 12.5q10 47 53 62 28 10 56 10l30-3q143 0 250-69 152-102 262-252 83-119 83-243 0-23-3-47-18-148-112.5-273T434 139q-98-51-184-51-48 0-92 16-41 14-70 54-20 27-20 53 0 11 4 22 6 8 36.5 32t32.5 44q1 26 1 55 0 239-46 660 0 14-24.5 44T45 1102q-4 4-4 12m244-121q0-96 13-407.5T324 274q12-2 24-2l82 27q53 35 84 82 25 37 38 60.5t31.5 61.5 25.5 66.5 7 64.5-12 68q-37 106-122.5 192.5T285 993" horiz-adv-x="778" unicode="D"/><glyph d="M31 598q0 12 8 31 0 6 16 18l13 10q12 25 12 63t-2 60q0 31-12.5 93.5T53 983t25 82q86 125 258 140 23 2 45 2 144 0 254-87 16-11 16-28 0-13-10-30-23-38-72-46-5-1-12-1-36 0-110 19-46 12-80 12-31 0-54-10-45-20-52-75-3-22-3-43 0-34 7-67 4-19 4-38 0-35-13-70 39-23 99-23h15q51 0 93 6 13 2 25 2 34 0 68-14 46-19 69-75-33-57-100.5-67.5T386 559t-101-35q-37-39-38-124 0-9 1-18 4-99 18-177 27-5 55-5 41 0 83 11 71 18 156 56t132 50q6 6 37-18 6-22 6-41 0-25-10-47-18-39-61-55-94-41-220-85-110-39-200-39-13 0-25 1-14 2-48 3t-52.5 8T96 72q-19 60-19 163 0 30 2 63 2 42 2 78 0 93-13 148-2 10-18 33-19 28-19 41" unicode="E"/><glyph d="M38 470q-8 11-9 25 0 14 10 29 12 16 59 44t54 48q8 18 4 56.5T146 729l-16 56q-11 38-15 57-49 191-49 327 0 24 2 48 0 16 12 35.5t24 19.5q111 39 233 39 30 0 61-2 155-12 286-84 31-16 31-38 0-34-76-83-27-12-61-12-52 0-120 28-97 40-150 40-9 0-17-1-6-39-6-83 0-83 20-182 31-153 62-259 6 0 13-1 28 0 80 6 67 7 113 10 6 0 13 1 40 0 73-18 37-19 37-65 0-47-62-58-60-10-129-15.5T422 459q-14-21-14-52 0-14 3-29 9-50 25-85l40-87q24-52 32-85 6-17 6-32 0-28-19-50-30-35-73-37h-9q-38 0-65 16-57 57-88 210t-80 210q-10 10-21.5 7t-35-7-37.5 0q-31 8-48 32" horiz-adv-x="712" unicode="F"/><glyph d="M57 270Q36 380 36 484q0 117 27 225 51 203 230 327 112 76 233 76h6q125-2 232-76 31-25 22.5-53.5T745 938q-25-17-71-17-33 0-76 9-65 13-107 13-25 0-40-5-41-10-75-48t-49.5-71-33.5-86q-41-109-54-210-4-29-4-57 0-73 24-147 34-102 132-147 23-11 48-11 13 0 26 3 39 8 53 37 8 18 19.5 37.5t18.5 40 10 38-4 35-23 27.5q-59 31-60 39-15 23-15 43 0 24 22 43 40 35 102 51 32 10 62 10 54 0 106-30 53-31 53-82 0-26-14-56 0-4-20.5-13T754 369q0-41-18.5-111T715 172q-4-29-43-64.5T627 63q-23-16-68-23t-59-15Q438-1 377-2q-77 0-154 42Q86 114 57 270" horiz-adv-x="806" unicode="G"/><glyph d="m61 679 15 58v21q0 46-6 131-5 61-5 111 0 38 3 70 6 75 41 136 20 35 75 41 11 1 22 1 44 0 85-19 50-42 50-83 0-5-1-9-6-35-23.5-101.5T290 926q-8-35-8-78 0-9 1-20 2-54 24-95 23-31 96-43 19-3 35-3 43 0 56 26 28 76 27 212v27q-1 36 0 69 0 109 7 181 8 47 53 68 31 15 63 14l25-2q44-8 56-37 29-108 29-175v-9q-2-70-16-193-10-94-10-156 0-19 1-36 2-14 33-48t35-57q2-18-19.5-39.5T754 504q-8-38-8-88 0-85 22-207 35-193 35-260-28-6-53-6-45 0-78 19-51 30-74 97.5t-34 138L540.5 355 510 489q-14 41-59 54-26 7-51 7-18 0-35-4-41-9-50-26-27-28-27-103 0-49 12-118 16-92 16-156 0-58-13-94h-9q-71 0-118 30-49 32-68.5 92T82 287.5 74 423t-8 116q-2 12-11 44-7 25-6 38-1 11 12 58" horiz-adv-x="802" unicode="H"/><glyph d="M56 712q1 210 26 367 12 82 80 106 21 7 43 7 48 0 100-35 26-26 26-46 0-7-3-13-51-145-60-310-3-62-3-131 0-112 8-240 10-159 11-256 0-30-1-55-2-23-47-30-13-2-26-3-31 0-60 15-35 16-56.5 48t-27 67-7.5 76q-1 20-1 39t1 36q-3 118-3 276z" horiz-adv-x="329" unicode="I"/><glyph d="M33 424q0 129 28 178 51 52 116 53 16 0 34-4 45-8 56-57 3-14 3-28 0-36-20-72-16-31-22-78-1-10-1-20 0-37 16-75 19-48 66-65 26-11 55-11 19 0 39 5 51 12 64 55 30 91 30 194 0 36-3 73-14 144-61.5 265T340 1098q-6 16-6 31 0 25 14 49 14 27 65.5 34t63.5 25q12-12 51-20.5t39-28.5q10-82 39-189l54-193q26-87 45-182 14-75 14-149 0-21-1-41-5-94-42-178Q604 91 363 91q-73 0-162 15-57 10-93 41t-51.5 82.5T37 322t-4 102" horiz-adv-x="784" unicode="J"/><glyph d="M31 1217q0 35 40 63.5t85 30.5h6q54 0 76-35 17-28 17-65 0-12-2-25-7-53-7-110.5t12-96.5q7-15 22-15 25 0 74 44 33 20 95.5 82.5T553 1169q11 4 23 4 32 0 70-27 41-30 41-58 0-8-3-15-47-82-194.5-165T305 791q-12-12 7.5-47t56.5-82.5 45-61.5q20-23 106-103.5t131-140T713 231q1-5 1-9 0-31-62-55-30-12-56-12-35 0-64 21-49 41-155 179L264 502q-5-25-5-60 0-121 60-356 7-21 7-53V16q-2-43-15-61-20-43-60-54-13-4-27-4-27 0-56 15-16 6-31.5 25.5T121-23q0 125-51 519-39 291-39 721" horiz-adv-x="714" unicode="K"/><glyph d="M27 166q0 41 7 108.5t7 98.5q0 422 80 860 12 61 100 72 12 1 22 1 68 0 76-59 11-64 11-139 0-54-5-113-13-141-37-253.5T255 484q-2-35-2-68 0-104 21-191 102 0 143.5 1T543 239.5 680 279q47 34 87 33 21 0 40-9 76-76 76-112 0-10-6-17-63-74-164-102-85-24-165-25-14 0-28 1-35 2-74 2-63 0-136-5-118-8-199-45-45 29-64.5 77T27 166" horiz-adv-x="880" unicode="L"/><glyph d="m30 283-2 31q0 44 11 83l36 129q22 76 27 121 14 100 31 300t31 300q8 57 83 64 10 1 18 1 59 0 77-36 49-68 79-151t56.5-196.5T522 758l10-13q12-12 18.5-17t10.5-1q29 41 57.5 108.5t48 127 50.5 121 63.5 102.5 86.5 59q29 10 62 10 29 0 62-8 66-190 123-576t117-571q4-10 3-20 0-23-21-43-30-29-72-37t-67-8-34 8q-59 117-83.5 276.5t-45 322.5T842 877q-43-70-92.5-214.5T672 459q-4-10 0-35t0-35q-25-49-73-76-26-14-52-14-22 0-45 10-31 8-55.5 35T422 399q-23 205-90 230-23 8-26-17.5t2-60.5-5-62q-14-20-14-83 0-21 2-47 4-62 4-96 0-23-2-34-8-57-96-73-25-5-46-5-52 0-77 29-39 42-44 103" horiz-adv-x="1232" unicode="M"/><glyph d="M47 174q12 96 23.5 381T115 997q6 29 59 29t74-20q63-84 130.5-282T510 442q14 39 18 77 2 22 3 51 0 22-2 48-3 61-3 76 0 66-37 229-27 117-26 195 0 31 4 56 6 43 72 49 9 1 17 0 51 0 62-33 20-51 35-107.5T675 973t12-112.5 6-115 1-113.5V518q0-211-84-295-27-31-75-34h-10q-42 0-66 26-51 59-105.5 158.5T266 543q-23-62-23-168 0-16 1-34 1-26 1-50 0-95-14-152-10-39-69-44-7-1-13 0-51 0-86 36-16 18-16 43" horiz-adv-x="694" unicode="N"/><glyph d="M55 582q41 143 159 255.5T472 965q12 1 24 1 127 0 243-139 89-120 89-257 0-43-9-89-37-188-192-293-102-70-211-72h-10q-103 0-193 62-96 72-142 180-28 65-28 133 0 45 12 91m213-125q20-92 73-148 32-34 74-34 26 0 56 14 96 45 134 146 22 60 22 122 0 44-11 90-14 55-79 79-43 15-83 15-21 0-40-4-49-8-103-119-45-93-44-143-1-10 1-18" horiz-adv-x="827" unicode="O"/><glyph d="M22 1191q11 50 41 62 145 58 298 59 94 0 190-23 252-58 420-251 3-26 3-51 0-81-31-151-40-92-114.5-151.5t-171-112-194.5-83T279 424q-1-12-2-27 0-50 16-132 13-66 13-111 0-27-5-48-18-53-74-86-37-22-77-21-20 0-41 5-10 6-46 47-20 160-20 358t20 435q2 18 3.5 39.5t3.5 42 6 42 9 41 14.5 39T119 1083q-10 4-38 10.5T41 1106q-22 25-23 59 1 13 4 26m245-481q3-36 34-46 36-13 75-13 88 0 188 65 144 93 179 230-86 66-145 102.5T449 1111q-50 14-97 14-38 0-73-9-4 0 20.5-23.5T324 1049q0-29-17.5-80T289 891q0-25-13-85-10-48-9-81-1-8 0-15" horiz-adv-x="972" unicode="P"/><glyph d="M39 698q-9 34-9 71 0 109 79 241 27 35 63.5 64.5t88.5 62 77 51.5q23 23 55.5 38t77.5 28.5 68 23.5q64 31 111 31 39 0 67-21 49-34 49-91 0-48-57-58 57-111 92-201t57-202q10-50 10-98 0-59-15-115-28-101-105-183 8-23 15-46l14-46q7-23 11.5-48.5t5.5-48-2.5-46T778 59q-8-31-44-49-18-9-34.5-9T668 10q-45 33-60.5 130.5T557 260q-33 18-140.5 42T258 371Q135 482 88 549q-20 30-49 149m190 52q8-119 119-230l4-4q68-72 111-72 20 0 35 15 12 10 10 19t-11.5 29.5T487 539q0 27 2.5 41t13.5 32.5 36 26.5q14 6 27.5 6t25.5-3 23.5-9 21.5-16l20-18 21-19q16 56 16 113 0 77-29 154-50 134-157 202-28 18-59 18-35 0-72-25-70-45-112-132-37-76-36-141-1-10 0-19" horiz-adv-x="866" unicode="Q"/><glyph d="M46 382q-3 76-3 143 0 76 4 141 0 51 39 205 22 89 22 152 0 46-12 77-2 6-8 29.5t-7 36-2 30.5 6 30.5 21 20.5q114 63 233 63 78 0 159-27 203-69 317-253 24-37 24-77 0-122-221-267 68-360 197-610 6-11 6-21 0-29-50-47-29-11-52-10-31 0-51 18-76 63-113 172t-68.5 225.5T393 598q-18 22-65 22h-13q-57-3-71-32-12-40-13-95 0-73 22-172 40-185 40-219 0-27-45-46-33-14-65-13-14 0-27 2-37 12-60 59-43 115-50 278m206 436.5q0-27.5 22-34.5 40-9 82-9 50 0 101 13 94 25 161 84 23 10 38 31 8 11 8 21 0 9-7 18-74 154-295 178-4 0-7 1-29 0-42-28-14-32-19-88.5t-9-72.5q-8-27-20.5-56.5t-12.5-57" horiz-adv-x="839" unicode="R"/><glyph d="M27 1018q51 63 117.5 108t147.5 72 149.5 43 167 34.5T764 1309q13 3 26 3 27 0 54-15 39-22 53-56 6-13 6-24 0-23-21-45-32-32-73-42-66-25-227.5-47T340 1018q-37-21-37-44 0-6 2-11 39-57 104.5-117t129-100.5 132-95T780 548t65-119q11-33 11-68 0-39-14-80-29-104-116-173T528 15Q451-1 370-1q-35 0-72 3Q178 12 82 57q-60 31-60 86 0 18 7 39 27 84 108 121 4 1 9 1 28 0 50-36 26-41 42-45 12-2 60-6t75-16q32-15 67-15 29 0 60 10 70 22 118 50 40 31 40 74 0 28-17 61-78 100-273.5 239.5T92 862q-10 14-28.5 33.5t-28.5 32T16 956q-6 12-6 23 1 17 17 39" horiz-adv-x="903" unicode="S"/><glyph d="M63 1192q111 55 208.5 81.5t178 29 182 2.5 218.5 4q6 0 18-19l11-20q5-15 5-29 0-26-18-50-27-36-75-52-82-16-115-16.5t-105-2.5q-74-360-90-1016 0-51-119-100-12-4-21-4-19 0-34 14-23 23-24 49-2 42-3 92 0 170 27 436 35 343 35 490 0 31-39 23t-61-23q-12-2-83-33-47-21-78-21-16 0-28 5-47 21-47 70-1 61 57 90" horiz-adv-x="884" unicode="T"/><glyph d="M41 728q8 155 57 316 18 57 80 86 31 14 62 15l61-15q33-37 34-74 0-11-3-22-55-127-70-273-3-35-3-69 0-110 35-216 46-138 155-204 46-25 85-24 16 0 31 4 51 14 89 69.5t60.5 119T745 569q17 105 17 167v14q-2 63-14.5 178.5T735 1108q-2 23 9.5 40t22.5 27.5 47 21.5l46 14q10 3 55 14 0-16 20.5-24.5T956 1184q25-178 28-311v-21q0-123-33-267-36-157-122-282-66-94-172-160.5T437 67q-11-1-21-1-101 0-178 79Q129 260 81 417 40 551 40 683q0 23 1 45" horiz-adv-x="983" unicode="U"/><glyph d="M27 965q6 27 44 57.5t76 35.5q5 1 10 0 32 0 50-32 31-68 85-289t128-325q66 145 125 436t96 399q10 31 60 51 30 12 59 13 18 0 36-5 37-11 37-53 0-8-2-16-43-289-180-784-47-158-82-383-8-29-46-49.5T438 0q-72 0-80 31-18 63-77.5 159.5T207 332q-20 63-76.5 195T46 763q-21 80-21 156 0 24 2 46" horiz-adv-x="833" unicode="V"/><glyph d="M55 956q18 61 86 91 24 10 44 10 37 0 63-35 33-51 33-124t-14-134q-6-28-6-58 0-38 9-81 6-25 13.5-71t13.5-72.5 21.5-62.5 37.5-63q55 61 111.5 207T569 764q53 63 109 64h2q54 0 98-49 45-50 79-111.5T913 539q0-16 17.5-44t25.5-20q51 61 66 146 8 45 8 87 0 36-6 71-12 75-15 165-1 16-1 31 0 72 12 133 16 33 66 54 25 11 45 11 21 0 38-12 41-33 59.5-86t18.5-94-6-112.5-6-104.5q0-193-86-418-53-100-86-127-43-35-84-38h-9q-36 0-66 21-34 24-60.5 57.5T795 336q-78 154-129 225-29-39-64-112.5l-65.5-132-71.5-114L364 125q-33-12-72-12-31 0-65 8Q100 293 57 514 35 627 35 741q0 107 20 215" horiz-adv-x="1247" unicode="W"/><glyph d="M10 282q-1 9-1 16 0 19 7 30 47 49 136.5 107.5t161 116.5T422 682q-66 78-172.5 235.5T80 1151q-21 25-21 51 0 20 13 41 29 47 81 61 23 6 43 6 25 0 44-10 72-51 130-130.5T490.5 981 592 819q43 27 107.5 101.5T807 1022q57 29 107 29 38 0 73-17 18-18 18-40 0-12-6-25-35-68-148.5-157T700 670l102-167 120-200q49-86 88-166 9-19 9-33 0-12-6-22-7-12-13.5-21.5T977 40l-24.5-16.5L924 8q-17-9-35-9-15 0-31 6-35 13-51 46-74 190-279 459-47-27-114-84L297 324q-49-45-120-72-42-16-83-16-29 0-57 8-23 6-27 38" horiz-adv-x="1017" unicode="X"/><glyph d="M22 1231q0 42 59 68 32 15 56 15 25 0 41-16 49-43 78-140l56-201q28-103 69-152 33 43 85 224t120 231q32 25 69 25 19 0 40-7 45-15 45-49 0-11-5-25-168-416-233-557-10-29-10-57 0-53 36-101 8-8 8-22 0-22-16-61-10-8-51-22.5T418 342Q338-25 319-88q-8-25-44-40-16-7-35-7-23 0-52 10-35 14-41 55-2 15-2 30 0 24 7 44 8 53 68 241 52 160 52 246 0 15-2 27-14 109-124 348-124 273-124 365" horiz-adv-x="739" unicode="Y"/><glyph d="M16 1157q37 59 95 72 68 16 137 19 16 1 32 1 55 0 114-8 77-10 132.5-20.5t146.5-32 136-29.5q144-50 144-132 0-5-1-11-14-115-76.5-234.5T752.5 590t-177-195T418 223q66-7 136-7 84 0 176 10 61 7 118 7 102 0 192-22 51-16 60-64 2-10 1-19 0-36-25-68-32-40-83-40-170 0-363.5-5T264 10q-16 0-63-5t-74-5-56.5 19.5T29 80q0 61 69 106 92 74 189.5 163T466 521t142.5 191.5T692 934q4 27-22.5 38T595 989t-69 17q-61 25-179 25-37 0-80-3-33-2-62-2-128 0-176 37-28 20-28 48-1 21 15 46" horiz-adv-x="1101" unicode="Z"/><glyph d="M8 158q45 49 45 82 74 240 127 555 12 72-3 220t3 220q123 61 276.5 72.5t295-18T1026 1200q47-27 40-63.5t-50-68.5-82-30q-74 2-240 30t-258 28q-29-319-151-787-4-25-1-55.5t25-36.5q236-35 463 35 45 6 57.5-45t-.5-94q-10-20-34.5-36t-48-22T702 43Q313-61 43 88q-6 0-14.5 29T8 158" horiz-adv-x="1067" unicode="["/><glyph d="M1 1217.5q7 58.5 75 78.5 18 2 44.5 7.5t40 7.5 24-7.5T197 1272q43-143 118.5-298T469 696l166-268q8-14 91-135t108-184q27-70-4-97.5T746.5-2 666 49Q529 213 421 381T232 711L37 1096q-43 63-36 121.5" horiz-adv-x="845" unicode="\"/><glyph d="M23 1217q6 47 49 68.5t88 23.5q74 4 235.5-20.5T643 1276q53 6 102.5 6t98.5-12.5 58-45-17-87.5q-184-305-92-818 10-37 25.5-70.5t14-74.5-27.5-72q-35-35-70-34-57-6-152.5-27t-160-33-147-9T125 33q-63 35-51 84t63 76q55 31 195.5 26.5T528 252q25 14 26 48t-12.5 85-13.5 74q-4 100 30 310t28 323q-86-6-251 2t-210 8q-35 0-68.5 37T23 1217" horiz-adv-x="907" unicode="]"/><glyph d="m53 887 157 216q79 112 132 208h41q29 0 41-6 20-27 115.5-244T637 827q-8 0-19.5-16T596 799q-10 6-56 11t-51 13q-55 137-124 232-29-53-56.5-91T250 896l-76-77q-23-16-55.5-15T59 817q-43 19-6 70" horiz-adv-x="636" unicode="^"/><glyph horiz-adv-x="378" unicode="_"/><glyph d="M63 1180q-33 51 17.5 94t105.5 37q72-8 109-148 18-72 32.5-122t7.5-79.5-46-33.5q-23-2-42.5 9T217 960.5 190 999z" horiz-adv-x="337" unicode="`"/><glyph d="M41 333q8 87 49 140 57 76 140 117t150 45q33 2 62.5 2t55.5-2l51-2q16 20 16 71.5T535 762t-60 6q-47 0-97-15-81-26-149-57-10-4-19-3-38 0-58 62-13 42-14 67 0 21 9 30 78 53 185 80 54 14 108 13 52 0 104-12 105-26 148-116 29-59 32-132 1-14 1-27 0-57-11-103l-31-138q-17-81-21-138-2-20-3.5-46t-4.5-54l-6-56q-3-29-8-55.5t-12-49-16.5-40T590-48q-11-8-25-8h-3q-15 1-34 13-16 10-33.5 42T463 31l-87 12q-58 8-92 15.5T205 80t-78 40.5T72 186q-32 49-32 117 0 15 1 30m147-32q0-41 75-73.5T406 193q8 0 16-1 54 0 70 13 6 29 18 71l19 70q6 23 7 55 0 44-18 86-33-12-99.5-23T308 443.5 227 398t-39-97" horiz-adv-x="724" unicode="a"/><glyph d="M27 719q-2 10-2 20t2 19q6 10 22.5 26.5T70 811q2 20 1 60 0 51-2 134-1 35-2 64 0 94 13 129 12 55 66 94 25 18 47 18 26 0 49-26 39-41 42-98v-17q0-48-15-94-17-53-20-117v-13q0-56 23-101 121-6 224.5-37T687 705.5 809 532q13-37 13-76 0-57-28-116-48-100-135-162Q524 82 402 33 318-1 234-1q-39 0-78 7-27 6-54 66-8 68-13 263T59 639q-2 6-15 33t-17 47m225-47q0-311 53-461 121 8 223 76 98 65 99 162 0 71-65 129-62 55-148 79-61 17-117 18-23 0-45-3" horiz-adv-x="821" unicode="b"/><glyph d="M29 532q33 195 170 316 27 27 59 53l64 53q31 27 67.5 47.5T461 1033q32 10 68 11 3 0 7-1 40-1 76-17 33-14 33-47 0-14-6-33-18-55-58-85t-101.5-54.5T383 758Q231 641 223 512q-1-16-1-31 0-94 44-159 27-43 83.5-67T455 219q19-8 38-7l56 15q47 27 94 64t82 39q31 2 42-17 7-12 7-28 0-9-2-19-6-29-15-52.5T737 174Q657 52 486 52q-88 0-199 32-141 41-212 168-52 94-53 203 1 37 7 77" horiz-adv-x="774" unicode="c"/><glyph d="M29 459q0 115 77.5 186.5t213 134T502 881q27 23 37 106.5t22 110.5q23 39 63 61 24 14 47 14 14 0 27-6 61-30 61-68 0-6-1-12-91-249-92-564 0-215 43-460 0-14-29-31.5T629 14h-9q-32 0-53 26-23 30-40 64.5T492 143q-44-5-101-5h-19q-69 1-116 34-37 23-78 52.5t-73.5 60-54 76T29 459m207 28q12-78 85-132 48-36 97-35 26 0 53 10-4 27-4 62 0 53 9 123 15 118 16 159-98 0-185-50-74-43-74-113 1-12 3-24" horiz-adv-x="757" unicode="d"/><glyph d="M45 578v11q0 145 96 236 82 77 198 78 25 0 52-4 123-16 214-118.5T694 551q-18-57-168.5-146.5T354 295q-10-2-25.5-16.5T322 252q25-45 61-64 26-13 55-12 13 0 28 2 46 8 84 22.5t89 41.5q39-30 39-75 0-16-5-35-19-69-83-79-51-6-95-14-32-6-69-6-14 0-29 1-53 3-98 23Q53 168 45 578m183 56q-6-28-6-54 0-28 7-55 14-50 39-52 184 8 221 129 9 20 10 37 0 45-63 73-45 20-84 19-37 0-69-16-42-23-55-81" horiz-adv-x="694" unicode="e"/><glyph d="M27 381q8 14 50 39 40 23 40 52 0 31-27 170-20 102-20 167 0 16 2 31 18 166 159 299 53 51 129 83.5t151 39.5q10 1 21 0 63 0 117-32 63-38 86-122 4-29-17.5-50.5T670 1040q-25 2-82.5 16.5T507 1072h-4q-24 0-81-11-84-29-129-91.5T243 830l-2-36q0-59 13-117 16-77 51-151 12 2 157 65 114 49 170 49 15 0 25-3 29-2 40.5-30.5T696 549q-14-37-91-68.5L456.5 422 381 369q-1-7-1-14 0-46 56-116 66-81 76-114 4-9 4-17 0-25-44-42-34-13-62-14-20 0-37 7-51 33-102.5 126.5T174 305q-6 2-47 0t-64 4q-20-2-30 23-7 18-8 35z" unicode="f"/><glyph d="M48 719q17 90 91 151 70 59 150 94t170 43q13 1 25 1 76 0 145-37 42-21 42-51 0-5-1-11-39-80-58.5-167T591 556v-39q0-75 3-131 4-71 17.5-190.5T629 20q4-40 4-75 0-57-10-102-16-73-86-111-68-39-145-39-59 0-124 23Q121-230 76-96q-5 14-5 25 0 37 43 60 25 13 45 13 25 0 42-20 10-10 56-66.5t84-80.5q30-19 67-19 10 0 20 2 14 4 39 55 14 46 14 123 0 26-2 54-6 116-15 176.5T434 403q0 4 2 17 10 45-4 43l-12-6q-88-53-162-53-38 0-72 14-61 25-116 125-27 59-27 121 0 27 5 55m161-51q20-141 78-142h5q31 0 53 21 24 23 50.5 81t32.5 70q18 31 22 79v14q0 39-16 63-10 20-33 20-5 0-11-1-32-5-62.5-20T270 815q-63-54-63-124 0-11 2-23" horiz-adv-x="669" unicode="g"/><glyph d="M49 154q0 223 25 452 2 19 2 43 0 36-5 82-8 64-8 120v25q2 67 29 115 12 33 55 46 18 6 37 6 25 0 52-11 27-16 26-84-8-82-17-153-7-54-7-114 0-20 1-40 3-82 23-154 63 113 151 178 51 38 107 38 40 0 82-19l52-224q15-69 30-194 8-73 8-136 0-46-4-87-2-37-60-52-21-6-39-6-30 0-46 17-47 57-52.5 145.5T485 333t-34 163Q324 369 227 164q-12-20-48-34.5t-62-8.5q-4 2-17.5 5T76 131t-18.5 8.5T49 154" horiz-adv-x="692" unicode="h"/><glyph d="M76 273q-1 15-1 31 0 47 5 105 6 77 6 109 0 162 37 234 20 39 67 52 19 5 37 5 28 0 56-12 33-14 49-42t-4-57q-37-51-41-143t-13-117q-10-26-10-66 0-34 7-77 9-53 9-92 0-31-6-51 0-6-6-16.5T256 125q-47-13-80-13-65 0-82 50-16 53-18 111m52 791q13 50 38 66 41 25 89 26 7 0 13-1 55-4 82-43 13-19 13-43 0-23-12-50-24-56-56-75-24-14-52-14-13 0-27 3-44 9-79 48-14 21-14 48 0 16 5 35" horiz-adv-x="378" unicode="i"/><glyph d="M-215-156q-5 15-5 30 0 23 14 42 24 31 65 43 29 8 47-6t33.5-44 25.5-40q33-16 49-16 57 39 90 108.5T145.5 80 162 221q2 25 2 56 0 71-13 166-19 136-29 223-2 19-2 40 0 76 25 181 12 38 80 38h3q71-1 89-55 1-6 1-13 0-23-9-60t-9-60q0-8 1-14 2-57 12.5-171T329 369q3-35 2.5-78t-2.5-93q-5-101-26.5-172t-72-148T104-254Q55-292-7-292q-33 0-69 10-106 30-139 126M82 1077q-23 46-23 82 0 44 33 74 43 39 102.5 39t90.5-47q26-36 25-83 0-9-1-19-6-58-47-87-38-27-77-27-12 0-23 3-51 10-80 65" horiz-adv-x="397" unicode="j"/><glyph d="M22 1110q0 6-1 13 0 52 22 126 14 35 66 53 28 10 55 9 23 0 45-6 27-27 27-45 0-84-12-286-8-148-8-248 0-36 1-67 4-8 13.5-10t21.5 0l12 2q14 10 58.5 46t67 50.5T450 778q29 12 56 13 9 0 17-1 36-5 73-28 25-18 25-39 0-8-4-16-13-31-48-48-14-10-95-55t-118-82q135-102 406-350 14-17 13-34 0-29-40-58-27-35-72-37h-7q-41 0-60 27-45 45-96 89L375 262l-103 84-18 8q-14 0-8-26-2-12-2-29 0-39 10-100 11-68 11-109 0-11-1-20-4-37-40-56-29-15-59-15-7 0-13 1-37 4-46 25-47 111-64 259-15 126-15 214 0 16 1 30 3 96 15 279 1 15 1 32 0 49-8 119-11 97-14 152" horiz-adv-x="774" unicode="k"/><glyph d="M65 69q-4 16-5 31 0 17 6 33 27 92 37 187.5t11 240 3 193.5v16q0 46-9 109-11 74-22 130-8 43-8 92 0 15 1 29 3 66 27 115 18 39 66 58 23 9 45 8 23 0 44-9 47-22 47-84 0-12-5-35-6-32-6-40 0-47 2-137.5t2-164-4-136.5q-1-23-1-52 0-65 6-160 5-78 5-146 0-53-3-99-7-106-48-197-20-45-69-51-9-1-17-1-38 0-74 21-22 15-31 49" horiz-adv-x="405" unicode="l"/><glyph d="M39 606q-4 29-4 56 0 82 34 142 31 56 95 56 27 0 59-10 41-12 52-46 6-18 6-37 0-18-5-37-11-44-11-87 0-40 18-68 31 29 63.5 83.5t54 97.5 57.5 86 74 50q11 2 25 2 34 0 82-13 31-31 41-39 8-33 16.5-114T721 606q16 16 44 50l47 57q19 23 48 51.5t55.5 43.5 57.5 29q27 12 55 11h9q34-2 71-17 23-14 31-38.5t8-63.5 2-51q21-152 21-287 0-250-72-436-14-51-78-61-15-2-30-3-47 0-87 25-8 0-12 23.5t2 46.5q60 164 60 367 0 115-19 243-2 20-22.5 9T883 575Q781 405 690 160q-27-53-99-75-20-6-38-6-46 0-76 40-18 37-18 100 0 46 10 107 11 69 11 121 0 58-13 98-35-59-99.5-205.5T254 119q-33-45-99.5-45T70 119q-29 73-29 203v33q2 62 2 115 0 78-4 136" horiz-adv-x="1241" unicode="m"/><glyph d="M80 685q2 54 18 97 17 44 76 45 4 0 7-1 65-3 79-54 3-11 3-25 0-24-8-57-13-53-13-74 4-4 11-17t7-7q4 6 20 33l20 35q5 9 20.5 32t23.5 31 23.5 25.5T395 772l30 15q17 9 33.5 10.5t36 .5 42.5-7q51-84 76.5-195T641 387t8-211q6-27 6-48 0-47-32-56-52-14-85-14-50 0-55 32-12 78-18 246t-25 256q-57-63-112.5-209.5T242 184q-25-41-75-43h-4q-47 0-65 43-12 35-14 77-1 14-1 30 0 32 3 70 4 58 4 83 0 33-6 110-5 58-5 103 0 14 1 28" horiz-adv-x="737" unicode="n"/><glyph d="M63 678q18 68 71.5 142.5T195 909q37 70 108 71 8 0 15-1 83-8 147-78 68-78 100-201 12-45 12-90 0-161-153-323-33-35-99-39-10-1-19-1-54 0-89 21-102 61-145 176-24 63-24 128-1 53 15 106m132-71q-6-18-6-34 0-25 13-49 22-39 81-53 18-4 33-4 45 0 69 35 22 32 22 76 0 21-5 45-15 74-68 133-5 6-13 6-12 0-30-12-31-20-56.5-59.5T195 607" horiz-adv-x="577" unicode="o"/><glyph d="M38 313q22 227 46 392 2 12-13.5 39.5T66 788q27 23 28.5 89.5T131 967q43 31 86 32 2 0 5 1 40 0 69-33 16-16 18-57.5t10-45.5q74-8 135.5-23.5t126-44T679 715q27-43 27-97 0-13-1-26-8-78-44-130t-94.5-80-113-43-129-31.5T209 276q-20-124-20-197V50q5-77 49-224 2-6 20-31.5t25-38.5q7-14 6-25 0-30-47-38-25-5-47-5-36 0-64 13-23 8-38 24.5t-24.5 38-15.5 48-8 52T39-84Q27 3 27 105q0 97 11 208m204 245q-7-34-7-59 0-43 21-55 24-11 52-10 45 0 101 29 89 47 101 143 2 9 2 18 0 56-72 70-37 16-76 19h-8q-35 0-55-19-41-41-59-136" horiz-adv-x="704" unicode="p"/><glyph d="M37 666q20 88 79.5 155.5T266 924q49 23 108 23 15 0 29-2 76-7 121-58 30 46 93 46h3q65-1 80-38 22-49 22-119 0-35-5-75-16-120-48-235.5T632 198q0-13-1-26 0-139 51-268 20-46 69-46h3q51 1 67 31 14 27 29.5 65T897 16q19 16 40 16 12 0 26-5 51-23 62-52 4-11 4-22 0-19-11-41-18-35-41-86-41-98-158-132-50-14-96-15-61 0-115 26-61 27-101 87.5T461-82q0 27 4 95 3 46 3 82 0 18-1 34-2 47-16 84-14 23-35 17.5L358.5 215l-55.5-2q-23 14-71 23.5T166 260q-12 14-45 49t-50.5 58.5T45 416q-29 65-29 133 0 58 21 117m171-136q9-123 105-178 25-16 53-16 12 0 24 3 42 9 61 50 27 57 29 141 1 36 2 68 0 42-3 76 0 43-43 81-35 31-77 31-9 0-19-2-16-6-30.5-19T285 739q-78-78-78-185 0-12 1-24" horiz-adv-x="786" unicode="q"/><glyph d="M35 866q4 39 37 68 38 33 76 33 37 0 72-31 59-52 59-130 0-18-3-36 39 6 78 38t63.5 62.5T484 920q24 10 50 10 20 0 41-6 25-10 33-13.5t25.5-14.5 22.5-19q4-7 5-19 0-19-14-37-39-55-142.5-140T358 532q-16-23-19-73.5T328 389q-15-24-16-49 0-39 36-84 26-32 26-82 0-10-1-20-6-63-45-103-31-45-87-47h-6q-52 0-81 37-31 20-32 78 0 7 1 14 1 32 1 68 0 170-32 434-4 31-21.5 78T42 794q-8 25-8 52 0 10 1 20" horiz-adv-x="661" unicode="r"/><glyph d="M51 139q-8 15-7 30 0 26 22 51 35 40 81 44h3q25 0 50-41 26-43 42-51 37-21 81-21 41 0 87 18 96 38 96 122 0 20-32 48t-62 42l-101 42-111.5 48-79.5 55-69 88q-13 27-13 55 0 51 44 106 68 85 175 127 64 25 113 25 34 0 60-12 18-8 74.5-29.5t83-33.5 61.5-40 51-62q6-11 6-25 0-15-7-33-13-35-31-47-17-10-39-10-33 0-78 24l-136 76q-28 16-61 16-41 0-90-24-20-14-20-34t18-46q37-53 78-67 213-76 324-179 36-44 36-100 0-7-1-14-5-66-42-125-53-90-174-143-80-35-162-34-42 0-85 9Q108 20 51 139" horiz-adv-x="706" unicode="s"/><glyph d="M14 528q-3 7-2 14 0 15 12 33 17 27 42 43 27 14 117.5 34T303 707q18 23 24.5 56.5T337 846t5 69q2 18 14.5 93t16.5 116q8 70 84 80 15 2 29 2 58 0 104-32 16-16 16-40 0-14-6-30-80-174-80-418 59 4 132 16 29 5 55 5 38 0 69-11 38-14 38-49 0-13-5-29-10-35-48-55t-85-24-98-7q-26-1-49-1t-44 1q-3-19-2-58 0-106 20-359 24-303 24-385 0-12-1-19-2-31-21.5-50T455-358q-37 0-55.5 13T369-293q-18 51-38 405.5T279 526q-43-33-95-51-33-12-65-12-18 0-36 4-51 10-69 61" horiz-adv-x="813" unicode="t"/><glyph d="M53 733q-1 16-1 34 0 35 5 75 8 59 47 86 31 14 65 14 24 0 49-7 60-17 61-69 0-45-4.5-127T270 590.5t9-125.5q4-12 9-41t10-49l12-50q7-30 15.5-45.5t20.5-33 24.5-15.5 30.5 9q133 90 164 269 8 45 8 88 0 128-69 239-18 29-28.5 57.5t-8.5 57 27 38.5q31 13 59 13 63 0 115-62 76-90 82-197 2-33 1-65 0-175-56-330-67-184-222-252-65-29-119-29-33 0-61 11-76 29-125 97.5T91 345 55 545q-5 56-4 109-1 40 2 79" horiz-adv-x="751" unicode="u"/><glyph d="M25 807q-6 17-6 31 0 32 28 55 39 31 92 31h6q57-2 78-33 47-57 98.5-205.5T420 475q66 113 124 285t95 307q26 64 99 64 2 0 4-1 77-2 137-53 3-5 2-13 0-11-4-26-8-27-9-32-6-8-26.5-30T815 942Q704 539 524 195q-18-35-70-52-17-5-32-5-31 0-53 24-31 27-57.5 60.5t-46 68.5l-39 73.5L191 440l-31 76Q68 686 25 807" horiz-adv-x="880" unicode="v"/><glyph d="M37 571q4 133 14 281 8 68 76 83 17 4 31 4 45 0 71-36 41-49 44-129 1-16 1-31 0-62-10-118-5-28-5-59 0-46 11-97 6-20 15.5-75.5T307 301t35-65q11-14 24-15 21 0 46 37 23 33 65.5 129T563 526q41 39 73 42 2 0 5 1 30 0 70-34 43-41 99-158t114-154q5-3 9-2 21 0 48 49 45 76 53 175 4 50 4 93t-4 78q-2 18-2 37 0 57 19 123 10 35 54 44 11 2 22 3 32 0 63-20 41-27 47-80 10-91 10-172 0-115-20-210-35-163-176-257-75-48-149-49-54 0-107 26-45 20-97.5 102.5T633 248t-38-40-63.5-96.5T459 39Q391 0 314-1h-3q-75 0-121 50-82 109-119 249-34 127-35 247 1 13 1 26" horiz-adv-x="1247" unicode="w"/><glyph d="M31 63q-9 24-9 48 0 32 16 63 28 55 74 94t88 92q44 56 44 109 0 59-38 131l-82 154q-42 78-42 145-10 27 23.5 45.5T180 963q78 0 125-42t62.5-96.5 41-122T469 600q35 18 83 60l87 76q39 34 82 60 34 20 66 20 9 0 18-2 41-7 76-52 25-41 25-68 0-9-3-16-10-31-55-65.5T754 552t-94.5-67-53.5-86q-2-10-2-19 0-83 139-192 37-37 99.5-112.5T942-37q25-25 25-47 0-30-46-55-55-29-100-29-21 0-41 6-57 20-109.5 79.5t-85 118-83.5 112T393 213h-5q-30 0-75-68-49-74-57-82Q217 6 137.5 6T31 63" horiz-adv-x="964" unicode="x"/><glyph d="M-96-250q-33 67-34 113 0 53 44 80 17 10 34 10 22 0 46-15 43-28 51-75 70 53 97.5 93T178 46t25 136q3 14 2 29 0 56-35 136-45 101-49 138-6 55-20.5 163T80 811q0 8-4 37t-4 42 4 32.5T90 952q31 47 94 49 2 0 5 1 60 0 83-50 27-54 27-150v-15q-1-27-1-51 0-74 5-128 8-27 35 4l6 6q33 90 90.5 200T567 973q29 10 68 12h5q35 0 57-24 12-14 12-32 0-17-11-38-25-47-82-146.5t-88.5-160T464 431t-38-177q-8-106-74.5-257T209-250q-57-70-162-72h-5q-100 0-138 72" horiz-adv-x="708" unicode="y"/><glyph d="M41 791q-5 18-5 33 0 42 32 75 36 38 80 38 8 0 16-1 72-12 183.5-20.5t174-17.5T669 851t160-108q6-18 2-44.5T817 655q-49-49-139-125.5T519.5 383 401 233q123-29 245-30.5T895 174q47-10 66-39 7-11 7-24 0-21-18-48-31-55-99-68-24-5-48-5-44 0-86 16-81 27-154 27-26 0-52-3-33-5-69-5-65 0-137 16Q98 93 98 162q0 12 6 24 43 84 120 168t171 172 144 150q-35 41-58.5 51t-61.5 4q-23-4-42-4-13 0-25 2t-33 2q-31 0-82-4-25-2-47-2-48 0-69 10-20 0-47 15.5T41 791" horiz-adv-x="968" unicode="z"/><glyph d="M6 249q-2 40 8.5 71.5T44 388t40.5 65.5T131 521t39 69q6 14-30 32.5T70 655Q2 702 14 756q6 8 42 31.5T92 844q41 0 68.5 10t19.5 35q-4 31-52 113.5T104 1130q29 55 72 94.5t96.5 56.5 103.5 25.5 117.5 2.5 114.5-12.5 115-20.5q12-2 65.5 3t67.5-15q104-100 23-154-59-29-134-26t-136.5 22.5T474 1125t-128-38q6-41 37-86t62.5-81.5 55-76.5 15.5-84-59-91q-6-10-17.5-84T401 479q-8-8-41.5-33.5t-49-40-37-39-26.5-49 1-49.5q14-53 59-77.5T407.5 168t117 4 110.5-2q23 0-3-47t-52-64Q428-41 193 25 103 52 27 170 8 209 6 249" horiz-adv-x="911" unicode="{"/><glyph d="M55 709q0 139 43 456 0 47 35 87t86 55q61 18 115.5-29t36.5-90q-86-195-86-436 0-74 12-176.5t23.5-177 9.5-166T305 66q-6-29-53-51.5T154.5 4 98 76Q55 559 55 709" horiz-adv-x="374" unicode="|"/><glyph d="M39 733q-18 33 3 67t56 52q57 39 178 82t148 55q-33 49-103.5 70.5t-143.5 41T70 1165q-20 25-9 54.5t27 54.5q12 23 30.5 31t37 5 40-10.5T236 1284l130-48q60-22 127.5-60.5T610 1087q45-47 29-108-16-66-76.5-100.5t-144.5-61T295 762q33-25 105.5-35T506 694.5t6-88.5q-8-23-30.5-40T425 529.5 375 498q29-23 62.5-44.5t62-51 47-59.5 18.5-70-24-80q-39-70-104.5-121.5T291 3 137 35q-20 41 0 78 18 27 58.5 42t73 21 53 26.5T334 260q-8 41-61.5 78T173 414t-46 84q0 12 23.5 47t17.5 51q-10 27-62.5 70.5T39 733" horiz-adv-x="643" unicode="}"/><glyph d="M39 983q-2 31 12 51l51 79q18 28 64 73 39 39 65.5 60.5t64.5 41 77 16 80-27.5q33-20 47-85t28-85q20-29 36-34t30 9.5 28.5 34 41 45T721 1200q37 12 56.5-14.5t4.5-55.5q-82-125-134-164.5T502 922q-41-2-74 24.5t-47 71.5q-14 43-28.5 64.5T319 1098q-45-14-74.5-47t-42-59.5-47-42T59 946q-18 6-20 37" horiz-adv-x="788" unicode="~"/><glyph d="M23 1223q-6 47 58 76.5t97-1.5q49-43 78-140l56-201q28-103 69-152 33 43 85 224t120 231q49 39 109.5 18t39.5-74Q590 837 512 672q8 0 24.5 1t22.5 1q72 10 92-39 33-72-92-96-8-2-25.5-7.5T508 524q2-8 20-35 18-18-8-83-10-8-51-22.5T418 342l-6-25q20-2 56 11.5t59.5 18.5 58.5-13q14-4 24.5 10t16.5 10q35-31 24.5-61.5T600 246q-88-63-219-80-25-119-62-254-8-25-43.5-40t-87.5 3q-35 14-41 55t5 74q10 66 47 176-94 27-142 96-18 39 23 74t96 43q41 0 82-10 18 74 12 121-80 4-159 24-33 8-58.5 38T45 616q49 66 180 70-23 57-75 169t-85.5 201T23 1223" horiz-adv-x="739" unicode="¥"/><glyph d="M47 543q-8 49 28 87t87 38q61 0 168.5-9.5t170-11.5T676 657q14 8 31.5 2t25.5-20q8-39-11.5-65.5t-49-36T618 516q-260-74-534 0-16 4-25.5 10T49 537z" unicode="­"/><glyph d="M51 1051.5q4 25.5 8 34t20.5 33T109 1167q25 47 41 73t46.5 48.5T262 1311q20 0 44-24.5t16-43.5q-31-82-56.5-119T170 1024q-16-14-36.5-26.5t-43-16.5T59 997q-12 29-8 54.5" horiz-adv-x="323" unicode="´"/><glyph horiz-adv-x="655"/><glyph horiz-adv-x="1312"/><glyph horiz-adv-x="655"/><glyph horiz-adv-x="1312"/><glyph horiz-adv-x="436"/><glyph horiz-adv-x="327"/><glyph horiz-adv-x="217"/><glyph horiz-adv-x="217"/><glyph horiz-adv-x="163"/><glyph horiz-adv-x="262"/><glyph horiz-adv-x="71"/><glyph d="M47 543q-8 49 28 87t87 38q61 0 168.5-9.5t170-11.5T676 657q14 8 31.5 2t25.5-20q8-39-11.5-65.5t-49-36T618 516q-260-74-534 0-16 4-25.5 10T49 537z" unicode="‐"/><glyph d="M47 543q-8 49 28 87t87 38q61 0 168.5-9.5t170-11.5T676 657q14 8 31.5 2t25.5-20q8-39-11.5-65.5t-49-36T618 516q-260-74-534 0-16 4-25.5 10T49 537z" unicode="‑"/><glyph d="M47 543q-8 49 28 87t87 38q61 0 168.5-9.5t170-11.5T676 657q14 8 31.5 2t25.5-20q8-39-11.5-65.5t-49-36T618 516q-260-74-534 0-16 4-25.5 10T49 537z" unicode="‒"/><glyph d="M205 512v205h614V512z" horiz-adv-x="1024" unicode="–"/><glyph d="M205 512v205h1638V512z" horiz-adv-x="2048" unicode="—"/><glyph d="M53 1180q-33 51 17.5 94t103.5 37q29-4 45.5-29t31.5-65.5 30-61.5q12-18 49-118.5T420 911q43-23-7.5-56.5T313 813q-23-4-42 8.5T241.5 847 215 887q-35 47-84 146.5T53 1180" horiz-adv-x="438" unicode="‘"/><glyph d="M51 903q-12 43 1.5 84t51 101.5L152 1167q35 70 67.5 107t85.5 37q18 0 42-24.5t18-43.5q-74-193-205-313-16-14-37-26.5T79.5 887 51 903" horiz-adv-x="364" unicode="’"/><glyph d="M45 1085q-37 37 4 91.5t84 29.5q39-23 72-52.5t75-80.5l56-67 55-65q27-30 48.5-64.5T465 811q4-43-52.5-57.5T328 780Q178 915 45 1085m338 203q57 41 113.5 10.5t92.5-94 77-119.5q25-35 60.5-97t51.5-87q18-37-44-61.5T641 852q-41 41-108.5 150.5T416 1159q-80 94-33 129" horiz-adv-x="782" unicode="“"/><glyph d="M33 993q-27 84 61 156l51 47 54 49q20 18 51 36.5t61 25.5q41 14 70-14.5t0-63.5q-33-45-123-108.5T129 1010q-16-23-49-31.5T33 993m320-142.5q1 23.5 10.5 40t36 48.5 34.5 44q18 27 82 135.5T627 1272q18 27 57 30t74-22q6-6 6-21.5t-6-21.5Q641 987 461 844q-59-59-88-35-21 18-20 41.5" horiz-adv-x="763" unicode="”"/><glyph d="M70 535Q-36 750 94 860q88 84 213 83t189-97q63-90 51-213T446 453q-102-72-209.5-53.5T70 535" horiz-adv-x="585" unicode="•"/><glyph d="M712 166q-6 55 16.5 92t59.5 50.5 78 9 68-22.5q45-29 44-129T915 29q-78-43-136.5 6T712 166m-325 0q-6 55 16.5 92t59.5 50.5 78 9 68-22.5q45-29 44-129T590 29q-78-43-136.5 6T387 166m-326 0q-6 55 16.5 92t59.5 50.5 78 9 68-22.5q45-29 44-129T264 29q-78-43-136.5 6T61 166" horiz-adv-x="976" unicode="…"/><glyph horiz-adv-x="262"/><glyph horiz-adv-x="327"/><glyph d="M55 655q61 78 252 70 98 205 307 256 129 29 297-20 37-12 65-46t5-73q-12-23-30.5-33T898 792.5 852 782q-41-12-117 4.5T629 793q-68-25-115-80 72-4 123 2 78 6 104-41 18-39-14.5-62.5T637 575q-123-25-184-28-6-78 18-156 0-8 4-16 23 0 64 13t64.5 17.5T666 391q16-4 27.5 10.5T711 412q41-31 29.5-62T682 303q-47-31-119-53 63-53 145.5-69.5T872 190q18 6 50 26l53 33q23 13 52.5 21.5t45.5-8.5q55-45 68.5-88T1108 90Q907-55 596 41 442 90 369 150q-39 33-66 71-162 16-233 113-20 41 25.5 75.5T205 451q27 0 39-2 0 39 6 77 0 2 1 9.5t1 11.5q-61 6-123 18-37 10-65.5 40T55 655" horiz-adv-x="1177" unicode="€"/><glyph d="m915 283-2 31q0 44 11 83l36 129q22 76 27 121 14 100 31 300t31 300q8 57 83 64 10 1 18 1 59 0 77-36 49-68 79-151t56.5-196.5T1407 758l10-13q12-12 18.5-17t10.5-1q29 41 57.5 108.5t48 127 50.5 121 63.5 102.5 86.5 59q29 10 62 10 29 0 62-8 66-190 123-576t117-571q4-10 3-20 0-23-21-43-30-29-72-37t-67-8-34 8q-59 117-83.5 276.5t-45 322.5-69.5 278q-43-70-92.5-214.5T1557 459q-4-10 0-35t0-35q-25-49-73-76-26-14-52-14-22 0-45 10-31 8-55.5 35t-24.5 55q-23 205-90 230-23 8-26-17.5t2-60.5-5-62q-14-20-14-83 0-21 2-47 4-62 4-96 0-23-2-34-8-57-96-73-25-5-46-5-52 0-77 29-39 42-44 103M63 1192q111 55 208.5 81.5t178 29 182 2.5 218.5 4q6 0 18-19l11-20q5-15 5-29 0-26-18-50-27-36-75-52-82-16-115-16.5t-105-2.5q-74-360-90-1016 0-51-119-100-12-4-21-4-19 0-34 14-23 23-24 49-2 42-3 92 0 170 27 436 35 343 35 490 0 31-39 23t-61-23q-12-2-83-33-47-21-78-21-16 0-28 5-47 21-47 70-1 61 57 90" horiz-adv-x="2117" unicode="™"/><glyph d="M0 965h965V0H0z" horiz-adv-x="965" unicode=""/><glyph d="M811 273q-1 15-1 31 0 47 5 105 6 77 6 109 0 162 37 234 20 39 67 52 19 5 37 5 28 0 56-12 33-14 49-42t-4-57q-37-51-41-143t-13-117q-10-26-10-66 0-34 7-77 9-53 9-92 0-31-6-51 0-6-6-16.5T991 125q-47-13-80-13-65 0-82 50-16 53-18 111m52 791q13 50 38 66 41 25 89 26 7 0 13-1 55-4 82-43 13-19 13-43 0-23-12-50-24-56-56-75-24-14-52-14-13 0-27 3-44 9-79 48-14 21-14 48 0 16 5 35M27 381q8 14 50 39 40 23 40 52 0 31-27 170-20 102-20 167 0 16 2 31 18 166 159 299 53 51 129 83.5t151 39.5q10 1 21 0 63 0 117-32 63-38 86-122 4-29-17.5-50.5T670 1040q-25 2-82.5 16.5T507 1072h-4q-24 0-81-11-84-29-129-91.5T243 830l-2-36q0-59 13-117 16-77 51-151 12 2 157 65 114 49 170 49 15 0 25-3 29-2 40.5-30.5T696 549q-14-37-91-68.5L456.5 422 381 369q-1-7-1-14 0-46 56-116 66-81 76-114 4-9 4-17 0-25-44-42-34-13-62-14-20 0-37 7-51 33-102.5 126.5T174 305q-6 2-47 0t-64 4q-20-2-30 23-7 18-8 35z" horiz-adv-x="1114" unicode="ﬁ"/><glyph d="M800 69q-4 16-5 31 0 17 6 33 27 92 37 187.5t11 240 3 193.5v16q0 46-9 109-11 74-22 130-8 43-8 92 0 15 1 29 3 66 27 115 18 39 66 58 23 9 45 8 23 0 44-9 47-22 47-84 0-12-5-35-6-32-6-40 0-47 2-137.5t2-164-4-136.5q-1-23-1-52 0-65 6-160 5-78 5-146 0-53-3-99-7-106-48-197-20-45-69-51-9-1-17-1-38 0-74 21-22 15-31 49M27 381q8 14 50 39 40 23 40 52 0 31-27 170-20 102-20 167 0 16 2 31 18 166 159 299 53 51 129 83.5t151 39.5q10 1 21 0 63 0 117-32 63-38 86-122 4-29-17.5-50.5T670 1040q-25 2-82.5 16.5T507 1072h-4q-24 0-81-11-84-29-129-91.5T243 830l-2-36q0-59 13-117 16-77 51-151 12 2 157 65 114 49 170 49 15 0 25-3 29-2 40.5-30.5T696 549q-14-37-91-68.5L456.5 422 381 369q-1-7-1-14 0-46 56-116 66-81 76-114 4-9 4-17 0-25-44-42-34-13-62-14-20 0-37 7-51 33-102.5 126.5T174 305q-6 2-47 0t-64 4q-20-2-30 23-7 18-8 35z" horiz-adv-x="1140" unicode="ﬂ"/><glyph d="M1546 273q-1 15-1 31 0 47 5 105 6 77 6 109 0 162 37 234 20 39 67 52 19 5 37 5 28 0 56-12 33-14 49-42t-4-57q-37-51-41-143t-13-117q-10-26-10-66 0-34 7-77 9-53 9-92 0-31-6-51 0-6-6-16.5t-12-10.5q-47-13-80-13-65 0-82 50-16 53-18 111m52 791q13 50 38 66 41 25 89 26 7 0 13-1 55-4 82-43 13-19 13-43 0-23-12-50-24-56-56-75-24-14-52-14-13 0-27 3-44 9-79 48-14 21-14 48 0 16 5 35M762 381q8 14 50 39 40 23 40 52 0 31-27 170-20 102-20 167 0 16 2 31 18 166 159 299 53 51 129 83.5t151 39.5q10 1 21 0 63 0 117-32 63-38 86-122 4-29-17.5-50.5T1405 1040q-25 2-82.5 16.5T1242 1072h-4q-24 0-81-11-84-29-129-91.5T978 830l-2-36q0-59 13-117 16-77 51-151 12 2 157 65 114 49 170 49 15 0 25-3 29-2 40.5-30.5T1431 549q-14-37-91-68.5L1191.5 422l-75.5-53q-1-7-1-14 0-46 56-116 66-81 76-114 4-9 4-17 0-25-44-42-34-13-62-14-20 0-37 7-51 33-102.5 126.5T909 305q-6 2-47 0t-64 4q-20-2-30 23-7 18-8 35zm-735 0q8 14 50 39 40 23 40 52 0 31-27 170-20 102-20 167 0 16 2 31 18 166 159 299 53 51 129 83.5t151 39.5q10 1 21 0 63 0 117-32 63-38 86-122 4-29-17.5-50.5T670 1040q-25 2-82.5 16.5T507 1072h-4q-24 0-81-11-84-29-129-91.5T243 830l-2-36q0-59 13-117 16-77 51-151 12 2 157 65 114 49 170 49 15 0 25-3 29-2 40.5-30.5T696 549q-14-37-91-68.5L456.5 422 381 369q-1-7-1-14 0-46 56-116 66-81 76-114 4-9 4-17 0-25-44-42-34-13-62-14-20 0-37 7-51 33-102.5 126.5T174 305q-6 2-47 0t-64 4q-20-2-30 23-7 18-8 35z" horiz-adv-x="1849" unicode="ﬃ"/><glyph d="M1535 69q-4 16-5 31 0 17 6 33 27 92 37 187.5t11 240 3 193.5v16q0 46-9 109-11 74-22 130-8 43-8 92 0 15 1 29 3 66 27 115 18 39 66 58 23 9 45 8 23 0 44-9 47-22 47-84 0-12-5-35-6-32-6-40 0-47 2-137.5t2-164-4-136.5q-1-23-1-52 0-65 6-160 5-78 5-146 0-53-3-99-7-106-48-197-20-45-69-51-9-1-17-1-38 0-74 21-22 15-31 49M762 381q8 14 50 39 40 23 40 52 0 31-27 170-20 102-20 167 0 16 2 31 18 166 159 299 53 51 129 83.5t151 39.5q10 1 21 0 63 0 117-32 63-38 86-122 4-29-17.5-50.5T1405 1040q-25 2-82.5 16.5T1242 1072h-4q-24 0-81-11-84-29-129-91.5T978 830l-2-36q0-59 13-117 16-77 51-151 12 2 157 65 114 49 170 49 15 0 25-3 29-2 40.5-30.5T1431 549q-14-37-91-68.5L1191.5 422l-75.5-53q-1-7-1-14 0-46 56-116 66-81 76-114 4-9 4-17 0-25-44-42-34-13-62-14-20 0-37 7-51 33-102.5 126.5T909 305q-6 2-47 0t-64 4q-20-2-30 23-7 18-8 35zm-735 0q8 14 50 39 40 23 40 52 0 31-27 170-20 102-20 167 0 16 2 31 18 166 159 299 53 51 129 83.5t151 39.5q10 1 21 0 63 0 117-32 63-38 86-122 4-29-17.5-50.5T670 1040q-25 2-82.5 16.5T507 1072h-4q-24 0-81-11-84-29-129-91.5T243 830l-2-36q0-59 13-117 16-77 51-151 12 2 157 65 114 49 170 49 15 0 25-3 29-2 40.5-30.5T696 549q-14-37-91-68.5L456.5 422 381 369q-1-7-1-14 0-46 56-116 66-81 76-114 4-9 4-17 0-25-44-42-34-13-62-14-20 0-37 7-51 33-102.5 126.5T174 305q-6 2-47 0t-64 4q-20-2-30 23-7 18-8 35z" horiz-adv-x="1875" unicode="ﬄ"/></font>
</defs>
</svg>
