<svg xmlns="http://www.w3.org/2000/svg" width="75" height="65"><title>Help</title><g fill="none" fill-rule="evenodd"><path fill="#BDC3C7" d="M0 32.5 18.75.024h37.5L75 32.5 56.25 64.976h-37.5z"/><path fill="#FFF" d="M29.18 23.792 29 20.808q.323-.07 1.184-.229.86-.158 1.165-.193t1.076-.14 1.345-.14 1.506-.07A54 54 0 0 1 37.285 20q3.765 0 5.613 1.334 1.847 1.335 1.847 4.108 0 1.44-.628 2.651a8.5 8.5 0 0 1-1.542 2.125q-.915.913-1.83 1.86-.914.949-1.613 2.318t-.807 3.02h-3.622q-.036-1.755.484-3.248.52-1.492 1.309-2.493a33 33 0 0 1 1.596-1.879 16 16 0 0 0 1.416-1.773q.61-.895.646-1.773.072-1.404-.843-2.054t-2.995-.65q-2.868 0-7.137.246m6.814 16.398h1.04q.897 0 1.237.333.34.334.34 1.176v1.791q0 .843-.34 1.176-.341.334-1.237.334h-1.04q-.896 0-1.238-.334-.34-.333-.34-1.176V41.7q0-.843.34-1.177.34-.333 1.238-.333"/></g></svg>