<svg xmlns="http://www.w3.org/2000/svg" width="75" height="65"><title>Restart button</title><g fill="none" fill-rule="evenodd"><path fill="#F1C40F" d="M0 32.5 18.75.024h37.5L75 32.5 56.25 64.976h-37.5z"/><path fill="#FFF" d="M47.885 23.113A13.92 13.92 0 0 0 37.99 19C30.251 19 24 25.265 24 33s6.251 14 13.991 14c6.523 0 11.986-4.462 13.536-10.5h-3.642c-1.445 4.078-5.315 7-9.894 7-5.805 0-10.506-4.699-10.506-10.5s4.701-10.5 10.506-10.5c2.898 0 5.499 1.207 7.399 3.106l-5.648 5.644H52V19z"/></g></svg>