<svg xmlns="http://www.w3.org/2000/svg" width="1017" height="188"><path fill="#FFF" stroke="#000" stroke-width="6" d="M26.125 183.5q10.75 0 17-6.125t6.25-16.625v-42.5h39.25q29 0 45.375-15T150.375 62q0-26.5-16.25-41.375T88.625 5.75h-64q-10.25 0-15.75 5.5T3.375 27v133.75q0 10.5 6.125 16.625t16.625 6.125Zm56.25-99.75h-33V40.5h33q25 0 25 21.75 0 11-6.125 16.25t-18.875 5.25Zm171.5 100.5q26.75 0 46.625-11.125t30.625-31.5 10.75-47.875-10.625-47.875-30.5-31.375-46.875-11T207 14.5t-30.625 31.375-10.75 47.875 10.75 47.875 30.625 31.5 46.875 11.125Zm0-35.25q-20 0-31.25-14t-11.25-41.25 11.25-41.125 31.25-13.875q19.75 0 31.125 14t11.375 41-11.25 41.125T253.875 149Zm138 34.5q10.75 0 17-6.125t6.25-16.625v-42.5h39.25q29 0 45.375-15T516.125 62q0-26.5-16.25-41.375t-45.5-14.875h-64q-10.25 0-15.75 5.5t-5.5 15.75v133.75q0 10.5 6.125 16.625t16.625 6.125Zm56.25-99.75h-33V40.5h33q25 0 25 21.75 0 11-6.125 16.25t-18.875 5.25Zm171.25 100.5q31.75 0 55.75-16.75 4.25-3 6.125-6.625t1.875-8.875q0-7.75-4.375-13.125t-10.625-5.375q-3.5 0-6 1-1.562.625-4.2 1.934l-.721.36q-1.298.654-2.829 1.456-11 5-18 7.375a44.8 44.8 0 0 1-14.5 2.375q-22.25 0-33.125-13.375T577.875 93.75q0-27.25 10.875-40.625t33.125-13.375q8.25 0 16 2.25t16.5 7.5q4 2.5 7 3.625t6.75 1.125q6.25 0 10.625-5.375 4.375-5.374 4.375-13.125 0-5.5-1.875-9t-6.125-6.5q-24-16.75-55.75-16.75-26.5 0-46.375 11T542.25 46t-10.875 47.75q0 27.5 10.875 48t30.75 31.5 46.375 11Zm233.25-1.5q8.5 0 15.125-5.75t6.625-14q0-4.5-2.25-9.25l-66-135.5q-3.25-6.75-9.75-10.375t-14-3.625q-7.75 0-14.125 3.625t-9.625 10.375l-66 135.5q-2.25 4.75-2.25 9.25 0 8.25 6.875 14 6.874 5.75 15.375 5.75 5.75 0 10.625-3t7.625-9l11.5-25.25h81l11.25 25.25q2.75 6 7.5 9t10.5 3ZM807.875 111h-50l25-55.75zm125.75 72.25q10.5 0 16.875-6.125t6.375-16.375V43h35.25q11 0 16.375-4.625t5.375-14.125-5.375-14-16.375-4.5h-117q-11 0-16.375 4.5t-5.375 14 5.375 14.125T875.125 43h35.25v117.75q0 10.25 6.375 16.375t16.875 6.125Z"/></svg>