<svg xmlns="http://www.w3.org/2000/svg" width="64" height="64"><path d="M21.28 11.56a9.56 9.56 0 1 1-19.12 0 9.56 9.56 0 1 1 19.12 0" fill="#b71c1c"/><path d="M41.56 11.56a9.56 9.56 0 1 1-19.12 0 9.56 9.56 0 1 1 19.12 0" fill="#33691e"/><path d="M61.84 11.56a9.56 9.56 0 1 1-19.12 0 9.56 9.56 0 1 1 19.12 0" fill="#01579b"/><path d="M31.56 32a9.56 9.56 0 1 1-19.12 0 9.56 9.56 0 1 1 19.12 0" fill="#cfd8dc"/><path d="M51.56 32a9.56 9.56 0 1 1-19.12 0 9.56 9.56 0 1 1 19.12 0" fill="#37474f"/><path d="M21.28 52.44a9.56 9.56 0 1 1-19.12 0 9.56 9.56 0 1 1 19.12 0" fill="#48e3e3"/><path d="M41.56 52.44a9.56 9.56 0 1 1-19.12 0 9.56 9.56 0 1 1 19.12 0" fill="#cc96e1"/><path d="M61.84 52.44a9.56 9.56 0 1 1-19.12 0 9.56 9.56 0 1 1 19.12 0" fill="#fea864"/></svg>