<svg width="80" height="80" viewBox="0 0 72 72" fill="none" xmlns="http://www.w3.org/2000/svg"><path d="M36 68.037c17.693 0 32.037-14.344 32.037-32.037S53.693 3.963 36 3.963 3.963 18.307 3.963 36 18.307 68.037 36 68.037" fill="#0078D3"/><circle cx="36" cy="36" r="35.4" fill="#243A5E"/><path d="M32.09 38.642c-1.245 0-1.885-.497-2.452-.935-.504-.391-.94-.73-1.845-.73s-1.34.339-1.845.73c-.567.438-1.207.935-2.453.935-1.243 0-1.885-.497-2.45-.935-.504-.391-.94-.73-1.843-.73-.905 0-1.339.339-1.843.728-.566.438-1.207.935-2.45.935s-1.886-.498-2.45-.935c-.504-.392-.94-.728-1.843-.728-.902 0-1.34.339-1.843.728-.567.438-1.207.935-2.45.935s-1.883-.498-2.45-.935c-.504-.392-.938-.728-1.843-.728a.49.49 0 0 1-.493-.486.49.49 0 0 1 .493-.487c1.243 0 1.883.498 2.45.936.504.391.938.727 1.843.727s1.34-.338 1.843-.727c.567-.438 1.207-.936 2.45-.936s1.886.498 2.45.936c.504.391.94.727 1.843.727.905 0 1.34-.338 1.843-.73.567-.437 1.207-.935 2.45-.935s1.886.498 2.45.935c.504.392.94.728 1.843.728.905 0 1.34-.338 1.846-.73.566-.437 1.207-.935 2.452-.935s1.886.498 2.452.935c.504.392.94.73 1.845.73a.49.49 0 0 1 .493.486.493.493 0 0 1-.493.491m-.22 3.964c-1.245 0-1.885-.498-2.452-.937-.504-.391-.94-.73-1.845-.73s-1.34.339-1.846.73c-.566.439-1.207.937-2.452.937-1.243 0-1.885-.498-2.45-.937-.504-.391-.94-.728-1.843-.728-.905 0-1.34.339-1.843.728-.567.439-1.207.937-2.45.937s-1.886-.498-2.45-.937c-.504-.391-.94-.728-1.843-.728s-1.34.339-1.843.728c-.567.439-1.207.937-2.45.937s-1.884-.498-2.45-.937c-.504-.391-.939-.728-1.843-.728a.49.49 0 0 1-.493-.486.49.49 0 0 1 .493-.487c1.243 0 1.883.498 2.45.936.504.391.938.728 1.843.728s1.339-.339 1.843-.728c.566-.438 1.207-.936 2.45-.936s1.885.498 2.45.936c.504.391.94.728 1.843.728.905 0 1.34-.339 1.843-.73.567-.439 1.207-.937 2.45-.937s1.886.498 2.45.936c.504.392.94.729 1.843.729.905 0 1.34-.339 1.845-.73.567-.439 1.207-.937 2.453-.937 1.243 0 1.885.498 2.452.936.504.392.94.73 1.845.73a.49.49 0 0 1 .493.487c0 .27-.222.49-.493.49m8.135-3.964c1.245 0 1.886-.497 2.452-.935.504-.391.94-.73 1.846-.73.904 0 1.339.339 1.845.73.566.438 1.207.935 2.452.935 1.243 0 1.886-.497 2.45-.935.504-.391.94-.73 1.843-.73.905 0 1.34.339 1.843.728.567.438 1.207.935 2.45.935s1.886-.498 2.45-.935c.504-.392.94-.728 1.843-.728s1.34.339 1.843.728c.567.438 1.207.935 2.45.935s1.884-.498 2.45-.935c.504-.392.939-.728 1.843-.728a.49.49 0 0 0 .493-.486.49.49 0 0 0-.493-.487c-1.242 0-1.883.498-2.45.936-.503.391-.938.727-1.843.727-.904 0-1.339-.338-1.843-.727-.566-.438-1.207-.936-2.45-.936s-1.885.498-2.45.936c-.504.391-.94.727-1.843.727-.905 0-1.339-.338-1.843-.73-.567-.437-1.207-.935-2.45-.935s-1.886.498-2.45.935c-.504.392-.94.728-1.843.728-.905 0-1.34-.338-1.845-.73-.567-.437-1.207-.935-2.453-.935s-1.885.498-2.452.935c-.504.392-.94.73-1.845.73a.49.49 0 0 0-.493.486.494.494 0 0 0 .493.491m.22 3.964c1.245 0 1.886-.498 2.452-.937.504-.391.94-.73 1.846-.73.904 0 1.339.339 1.845.73.566.439 1.207.937 2.452.937 1.243 0 1.886-.498 2.45-.937.504-.391.94-.728 1.843-.728.905 0 1.34.339 1.843.728.567.439 1.207.937 2.45.937s1.886-.498 2.45-.937c.504-.391.94-.728 1.843-.728s1.34.339 1.843.728c.567.439 1.207.937 2.45.937s1.884-.498 2.45-.937c.504-.391.939-.728 1.844-.728a.49.49 0 0 0 .492-.486.49.49 0 0 0-.493-.487c-1.242 0-1.883.498-2.45.936-.503.391-.938.728-1.843.728-.904 0-1.339-.339-1.843-.728-.566-.438-1.207-.936-2.45-.936-1.242 0-1.885.498-2.45.936-.504.391-.94.728-1.843.728-.904 0-1.339-.339-1.843-.73-.566-.439-1.207-.937-2.45-.937s-1.885.498-2.45.936c-.504.392-.94.729-1.843.729-.905 0-1.34-.339-1.845-.73-.567-.439-1.207-.937-2.452-.937-1.243 0-1.886.498-2.453.936-.504.392-.94.73-1.845.73a.49.49 0 0 0-.493.487c0 .27.222.49.493.49" fill="#50E5FF"/><path d="m41.08 62.627-5.124-3.166-5.032 3.166h-.004C28.552 57.244 27 48.206 27 37.969 27 21.472 31.03 8.1 36 8.1s9 13.372 9 29.869c0 10.241-1.552 19.275-3.92 24.658" fill="#FFB811"/><path d="M36.682 8.1h-1.5v52.364h1.5z" fill="#243A5E"/></svg>